<?xml version="1.0" encoding="utf-8" standalone="no"?>
<!DOCTYPE svg PUBLIC "-//W3C//DTD SVG 1.1//EN"
  "http://www.w3.org/Graphics/SVG/1.1/DTD/svg11.dtd">
<svg xmlns:xlink="http://www.w3.org/1999/xlink" width="319.44pt" height="335.317969pt" viewBox="0 0 319.44 335.317969" xmlns="http://www.w3.org/2000/svg" version="1.1">
 <metadata>
  <rdf:RDF xmlns:dc="http://purl.org/dc/elements/1.1/" xmlns:cc="http://creativecommons.org/ns#" xmlns:rdf="http://www.w3.org/1999/02/22-rdf-syntax-ns#">
   <cc:Work>
    <dc:type rdf:resource="http://purl.org/dc/dcmitype/StillImage"/>
    <dc:date>2026-05-23T16:02:34.341792</dc:date>
    <dc:format>image/svg+xml</dc:format>
    <dc:creator>
     <cc:Agent>
      <dc:title>Matplotlib v3.10.9, https://matplotlib.org/</dc:title>
     </cc:Agent>
    </dc:creator>
   </cc:Work>
  </rdf:RDF>
 </metadata>
 <defs>
  <style type="text/css">*{stroke-linejoin: round; stroke-linecap: butt}</style>
 </defs>
 <g id="figure_1">
  <g id="patch_1">
   <path d="M 0 335.317969
L 319.44 335.317969
L 319.44 0
L 0 0
z
" style="fill: #ffffff"/>
  </g>
  <g id="axes_1">
   <g id="patch_2">
    <path d="M 7.2 328.117969
L 312.24 328.117969
L 312.24 23.077969
L 7.2 23.077969
z
" style="fill: #ffffff"/>
   </g>
   <g id="matplotlib.axis_1"/>
   <g id="matplotlib.axis_2"/>
   <g id="Quiver_1">
    <path d="M 21.424948 313.893021
L 22.769952 315.238025
L 23.129445 314.159546
L 25.645897 318.832956
L 20.972487 316.316505
L 22.050966 315.957012
L 20.705961 314.612007
L 21.424948 313.893021
" clip-path="url(#p42db3fbe10)" style="fill: #20928c"/>
    <path d="M 37.714122 313.871297
L 39.751412 315.668905
L 40.042931 314.570101
L 42.846001 319.077438
L 38.02472 316.857407
L 39.078675 316.43134
L 37.041386 314.633732
L 37.714122 313.871297
" clip-path="url(#p42db3fbe10)" style="fill: #23a983"/>
    <path d="M 53.998881 313.848663
L 56.74937 315.951978
L 56.963174 314.835447
L 60.075207 319.135278
L 55.110208 317.258557
L 56.131715 316.759681
L 53.381226 314.656366
L 53.998881 313.848663
" clip-path="url(#p42db3fbe10)" style="fill: #3dbc74"/>
    <path d="M 70.278542 313.825677
L 73.729512 316.058657
L 73.855053 314.928794
L 77.29486 318.971195
L 72.197919 317.489818
L 73.177134 316.912332
L 69.726164 314.679352
L 70.278542 313.825677
" clip-path="url(#p42db3fbe10)" style="fill: #60ca60"/>
    <path d="M 86.552527 313.803196
L 90.65505 315.975121
L 90.68148 314.838611
L 94.461036 318.565305
L 89.254236 317.534518
L 90.179302 316.873756
L 86.076778 314.701832
L 86.552527 313.803196
" clip-path="url(#p42db3fbe10)" style="fill: #84d44b"/>
    <path d="M 102.820525 313.782408
L 107.490495 315.705337
L 107.407535 314.571551
L 111.527879 317.917602
L 106.246096 317.392189
L 107.103348 316.645549
L 102.433379 314.722621
L 102.820525 313.782408
" clip-path="url(#p42db3fbe10)" style="fill: #a2da37"/>
    <path d="M 119.082705 313.764773
L 124.205386 315.271444
L 124.004551 314.152508
L 128.451605 317.050265
L 123.143831 317.078956
L 123.918479 316.246927
L 118.795798 314.740256
L 119.082705 313.764773
" clip-path="url(#p42db3fbe10)" style="fill: #b8de29"/>
    <path d="M 135.339903 313.75185
L 140.777059 314.711348
L 140.4531 313.621668
L 145.194683 316.007185
L 139.922986 316.625652
L 140.600354 315.712676
L 135.163198 314.753178
L 135.339903 313.75185
" clip-path="url(#p42db3fbe10)" style="fill: #c5e021"/>
    <path d="M 151.593705 313.744992
L 157.191782 314.07429
L 156.743968 313.029391
L 161.729632 314.850501
L 156.564842 316.074527
L 157.132074 315.089336
L 151.533996 314.760037
L 151.593705 313.744992
" clip-path="url(#p42db3fbe10)" style="fill: #cde11d"/>
    <path d="M 167.846295 313.744992
L 173.444373 313.415693
L 172.877142 312.430502
L 178.041932 313.654527
L 173.056268 315.475638
L 173.504082 314.430738
L 167.906004 314.760037
L 167.846295 313.744992
" clip-path="url(#p42db3fbe10)" style="fill: #cde11d"/>
    <path d="M 184.100097 313.75185
L 189.537253 312.792352
L 188.859884 311.879377
L 194.131581 312.497844
L 189.389999 314.88336
L 189.713958 313.79368
L 184.276802 314.753178
L 184.100097 313.75185
" clip-path="url(#p42db3fbe10)" style="fill: #c5e021"/>
    <path d="M 200.357295 313.764773
L 205.479977 312.258102
L 204.705328 311.426072
L 210.013103 311.454763
L 205.566049 314.352521
L 205.766883 313.233585
L 200.644202 314.740256
L 200.357295 313.764773
" clip-path="url(#p42db3fbe10)" style="fill: #b8de29"/>
    <path d="M 216.619475 313.782408
L 221.289445 311.859479
L 220.432192 311.11284
L 225.713975 310.587427
L 221.593631 313.933478
L 221.676591 312.799692
L 217.006621 314.722621
L 216.619475 313.782408
" clip-path="url(#p42db3fbe10)" style="fill: #a2da37"/>
    <path d="M 232.887473 313.803196
L 236.989997 311.631272
L 236.064931 310.970511
L 241.271731 309.939723
L 237.492176 313.666417
L 237.465745 312.529908
L 233.363222 314.701832
L 232.887473 313.803196
" clip-path="url(#p42db3fbe10)" style="fill: #84d44b"/>
    <path d="M 249.161458 313.825677
L 252.612428 311.592696
L 251.633213 311.01521
L 256.730154 309.533833
L 253.290347 313.576235
L 253.164806 312.446371
L 249.713836 314.679352
L 249.161458 313.825677
" clip-path="url(#p42db3fbe10)" style="fill: #60ca60"/>
    <path d="M 265.441119 313.848663
L 268.191608 311.745347
L 267.170101 311.246472
L 272.1351 309.36975
L 269.023067 313.669581
L 268.809264 312.55305
L 266.058774 314.656366
L 265.441119 313.848663
" clip-path="url(#p42db3fbe10)" style="fill: #3dbc74"/>
    <path d="M 281.725878 313.871297
L 283.763167 312.073688
L 282.709212 311.647622
L 287.530493 309.42759
L 284.727423 313.934927
L 284.435904 312.836124
L 282.398614 314.633732
L 281.725878 313.871297
" clip-path="url(#p42db3fbe10)" style="fill: #23a983"/>
    <path d="M 298.015052 313.893021
L 299.360057 312.548017
L 298.281577 312.188524
L 302.954988 309.672072
L 300.438536 314.345482
L 300.079043 313.267003
L 298.734039 314.612007
L 298.015052 313.893021
" clip-path="url(#p42db3fbe10)" style="fill: #20928c"/>
    <path d="M 21.446672 297.603846
L 23.24428 299.641136
L 23.670347 298.587181
L 25.890379 303.408462
L 21.383042 300.605392
L 22.481845 300.313872
L 20.684237 298.276583
L 21.446672 297.603846
" clip-path="url(#p42db3fbe10)" style="fill: #23a983"/>
    <path d="M 37.737247 297.580722
L 40.261926 300.1054
L 40.621419 299.026921
L 43.13787 303.700331
L 38.46446 301.183879
L 39.542939 300.824386
L 37.018261 298.299708
L 37.737247 297.580722
" clip-path="url(#p42db3fbe10)" style="fill: #42be71"/>
    <path d="M 54.02302 297.556022
L 57.291251 300.388489
L 57.572992 299.287138
L 60.416015 303.769382
L 55.575192 301.592292
L 56.625318 301.156874
L 53.357087 298.324407
L 54.02302 297.556022
" clip-path="url(#p42db3fbe10)" style="fill: #6ece58"/>
    <path d="M 70.303002 297.530238
L 74.294962 300.457676
L 74.486284 299.337074
L 77.684099 303.573495
L 72.682389 301.796931
L 73.693663 301.277628
L 69.701704 298.350191
L 70.303002 297.530238
" clip-path="url(#p42db3fbe10)" style="fill: #9bd93c"/>
    <path d="M 86.576222 297.504265
L 91.233876 300.298858
L 91.321066 299.165389
L 94.895851 303.088934
L 89.751648 301.781086
L 90.710736 301.170756
L 86.053083 298.376164
L 86.576222 297.504265
" clip-path="url(#p42db3fbe10)" style="fill: #c0df25"/>
    <path d="M 102.841947 297.479511
L 108.071631 299.92003
L 108.040917 298.783628
L 112.002967 302.315689
L 106.750947 301.547849
L 107.641641 300.841437
L 102.411957 298.400918
L 102.841947 297.479511
" clip-path="url(#p42db3fbe10)" style="fill: #d8e219"/>
    <path d="M 119.100022 297.457904
L 124.779304 299.350998
L 124.618534 298.225607
L 128.959329 301.280241
L 123.653913 301.119471
L 124.457764 300.31562
L 118.778481 298.422525
L 119.100022 297.457904
" clip-path="url(#p42db3fbe10)" style="fill: #eae51a"/>
    <path d="M 135.351256 297.441688
L 141.33836 298.639108
L 141.039243 297.542348
L 145.725399 300.034984
L 140.441011 300.533512
L 141.138949 299.636163
L 135.151845 298.438742
L 135.351256 297.441688
" clip-path="url(#p42db3fbe10)" style="fill: #f1e51d"/>
    <path d="M 151.597669 297.432941
L 157.740585 297.842469
L 157.300948 296.794102
L 162.272233 298.654107
L 157.098038 299.837746
L 157.672949 298.857017
L 151.530032 298.447489
L 151.597669 297.432941
" clip-path="url(#p42db3fbe10)" style="fill: #f4e61e"/>
    <path d="M 167.842331 297.432941
L 173.985248 297.023413
L 173.410338 296.042683
L 178.584532 297.226323
L 173.613247 299.086327
L 174.052885 298.037961
L 167.909968 298.447489
L 167.842331 297.432941
" clip-path="url(#p42db3fbe10)" style="fill: #f4e61e"/>
    <path d="M 184.088744 297.441688
L 190.075847 296.244267
L 189.377909 295.346918
L 194.662298 295.845445
L 189.976142 298.338081
L 190.275258 297.241321
L 184.288155 298.438742
L 184.088744 297.441688
" clip-path="url(#p42db3fbe10)" style="fill: #f1e51d"/>
    <path d="M 200.339978 297.457904
L 206.019261 295.56481
L 205.21541 294.760959
L 210.520827 294.600189
L 206.180031 297.654823
L 206.340801 296.529431
L 200.661519 298.422525
L 200.339978 297.457904
" clip-path="url(#p42db3fbe10)" style="fill: #eae51a"/>
    <path d="M 216.598053 297.479511
L 221.827737 295.038992
L 220.937044 294.33258
L 226.189064 293.564741
L 222.227013 297.096801
L 222.257727 295.960399
L 217.028043 298.400918
L 216.598053 297.479511
" clip-path="url(#p42db3fbe10)" style="fill: #d8e219"/>
    <path d="M 232.863778 297.504265
L 237.521432 294.709673
L 236.562343 294.099344
L 241.706546 292.791496
L 238.131761 296.71504
L 238.044571 295.581572
L 233.386917 298.376164
L 232.863778 297.504265
" clip-path="url(#p42db3fbe10)" style="fill: #c0df25"/>
    <path d="M 249.136998 297.530238
L 253.128958 294.602801
L 252.117683 294.083498
L 257.119394 292.306934
L 253.921578 296.543356
L 253.730256 295.422754
L 249.738296 298.350191
L 249.136998 297.530238
" clip-path="url(#p42db3fbe10)" style="fill: #9bd93c"/>
    <path d="M 265.41698 297.556022
L 268.685211 294.723556
L 267.635085 294.288138
L 272.475908 292.111048
L 269.632885 296.593292
L 269.351144 295.49194
L 266.082913 298.324407
L 265.41698 297.556022
" clip-path="url(#p42db3fbe10)" style="fill: #6ece58"/>
    <path d="M 281.702753 297.580722
L 284.227431 295.056043
L 283.148952 294.69655
L 287.822362 292.180099
L 285.305911 296.853509
L 284.946417 295.775029
L 282.421739 298.299708
L 281.702753 297.580722
" clip-path="url(#p42db3fbe10)" style="fill: #42be71"/>
    <path d="M 297.993328 297.603846
L 299.790936 295.566557
L 298.692133 295.275038
L 303.19947 292.471967
L 300.979438 297.293248
L 300.553371 296.239294
L 298.755763 298.276583
L 297.993328 297.603846
" clip-path="url(#p42db3fbe10)" style="fill: #23a983"/>
    <path d="M 21.469306 281.319088
L 23.572621 284.069577
L 24.071497 283.04807
L 25.948219 288.013068
L 21.648388 284.901036
L 22.764918 284.687232
L 20.661603 281.936743
L 21.469306 281.319088
" clip-path="url(#p42db3fbe10)" style="fill: #3dbc74"/>
    <path d="M 37.761946 281.294949
L 40.594413 284.56318
L 41.029831 283.513054
L 43.206921 288.353877
L 38.724677 285.510854
L 39.826028 285.229113
L 36.993562 281.960882
L 37.761946 281.294949
" clip-path="url(#p42db3fbe10)" style="fill: #6ece58"/>
    <path d="M 54.049547 281.268422
L 57.6207 284.839575
L 57.980193 283.761096
L 60.496644 288.434506
L 55.823234 285.918055
L 56.901714 285.558562
L 53.33056 281.987408
L 54.049547 281.268422
" clip-path="url(#p42db3fbe10)" style="fill: #a2da37"/>
    <path d="M 70.33075 281.23981
L 74.611633 284.862095
L 74.880321 283.757487
L 77.776186 288.205774
L 72.909939 286.086121
L 73.954839 285.638306
L 69.673956 282.016021
L 70.33075 281.23981
" clip-path="url(#p42db3fbe10)" style="fill: #cde11d"/>
    <path d="M 86.604039 281.209913
L 91.526084 284.617482
L 91.686854 283.492091
L 94.99872 287.639962
L 89.950536 286.000106
L 90.947311 285.453487
L 86.025266 282.045918
L 86.604039 281.209913
" clip-path="url(#p42db3fbe10)" style="fill: #eae51a"/>
    <path d="M 102.867984 281.180284
L 108.327713 284.120138
L 108.362147 282.983843
L 112.115365 286.737061
L 106.915952 285.669632
L 107.845649 285.015401
L 102.38592 282.075547
L 102.867984 281.180284
" clip-path="url(#p42db3fbe10)" style="fill: #f8e621"/>
    <path d="M 119.121756 281.153402
L 124.991336 283.410933
L 124.881833 282.279402
L 129.079447 285.527991
L 123.786803 285.12648
L 124.626326 284.359959
L 118.756746 282.102428
L 119.121756 281.153402
" clip-path="url(#p42db3fbe10)" style="fill: #fde725"/>
    <path d="M 135.365869 281.132535
L 141.506851 282.549684
L 141.240108 281.444605
L 145.850957 284.073932
L 140.554196 284.416888
L 141.278214 283.540445
L 135.137232 282.123296
L 135.365869 281.132535
" clip-path="url(#p42db3fbe10)" style="fill: #fde725"/>
    <path d="M 151.602843 281.121013
L 157.877472 281.603677
L 157.448555 280.550879
L 162.400602 282.461512
L 157.2146 283.592294
L 157.799487 282.617482
L 151.524858 282.134818
L 151.602843 281.121013
" clip-path="url(#p42db3fbe10)" style="fill: #fde725"/>
    <path d="M 167.837157 281.121013
L 174.111787 280.638349
L 173.526899 279.663536
L 178.712902 280.794319
L 173.760854 282.704951
L 174.189772 281.652154
L 167.915142 282.134818
L 167.837157 281.121013
" clip-path="url(#p42db3fbe10)" style="fill: #fde725"/>
    <path d="M 184.074131 281.132535
L 190.215112 279.715385
L 189.491095 278.838943
L 194.787855 279.181898
L 190.177006 281.811226
L 190.44375 280.706146
L 184.302768 282.123296
L 184.074131 281.132535
" clip-path="url(#p42db3fbe10)" style="fill: #fde725"/>
    <path d="M 200.318244 281.153402
L 206.187824 278.895872
L 205.348301 278.129351
L 210.640945 277.72784
L 206.44333 280.976428
L 206.552833 279.844897
L 200.683254 282.102428
L 200.318244 281.153402
" clip-path="url(#p42db3fbe10)" style="fill: #fde725"/>
    <path d="M 216.572016 281.180284
L 222.031745 278.24043
L 221.102049 277.586199
L 226.301461 276.51877
L 222.548243 280.271988
L 222.51381 279.135693
L 217.05408 282.075547
L 216.572016 281.180284
" clip-path="url(#p42db3fbe10)" style="fill: #f8e621"/>
    <path d="M 232.835961 281.209913
L 237.758006 277.802343
L 236.761231 277.255725
L 241.809415 275.615869
L 238.497549 279.76374
L 238.336779 278.638348
L 233.414734 282.045918
L 232.835961 281.209913
" clip-path="url(#p42db3fbe10)" style="fill: #eae51a"/>
    <path d="M 249.10925 281.23981
L 253.390133 277.617524
L 252.345233 277.16971
L 257.21148 275.050056
L 254.315616 279.498344
L 254.046927 278.393735
L 249.766044 282.016021
L 249.10925 281.23981
" clip-path="url(#p42db3fbe10)" style="fill: #cde11d"/>
    <path d="M 265.390453 281.268422
L 268.961607 277.697269
L 267.883127 277.337776
L 272.556538 274.821324
L 270.040086 279.494734
L 269.680593 278.416255
L 266.10944 281.987408
L 265.390453 281.268422
" clip-path="url(#p42db3fbe10)" style="fill: #a2da37"/>
    <path d="M 281.678054 281.294949
L 284.51052 278.026718
L 283.409169 277.744977
L 287.891413 274.901953
L 285.714323 279.742777
L 285.278905 278.692651
L 282.446438 281.960882
L 281.678054 281.294949
" clip-path="url(#p42db3fbe10)" style="fill: #6ece58"/>
    <path d="M 297.970694 281.319088
L 300.074009 278.568598
L 298.957479 278.354795
L 303.25731 275.242762
L 301.380588 280.20776
L 300.881712 279.186254
L 298.778397 281.936743
L 297.970694 281.319088
" clip-path="url(#p42db3fbe10)" style="fill: #3dbc74"/>
    <path d="M 21.492292 265.039427
L 23.725273 268.490397
L 24.302759 267.511182
L 25.784136 272.608123
L 21.741734 269.168315
L 22.871598 269.042775
L 20.638617 265.591805
L 21.492292 265.039427
" clip-path="url(#p42db3fbe10)" style="fill: #60ca60"/>
    <path d="M 37.78773 265.014967
L 40.715167 269.006926
L 41.234471 267.995651
L 43.011035 272.997362
L 38.774613 269.799547
L 39.895215 269.608225
L 36.967778 265.616265
L 37.78773 265.014967
" clip-path="url(#p42db3fbe10)" style="fill: #9bd93c"/>
    <path d="M 54.078159 264.987219
L 57.700445 269.268102
L 58.148259 268.223202
L 60.267912 273.089449
L 55.819625 270.193584
L 56.924233 269.924896
L 53.301948 265.644013
L 54.078159 264.987219
" clip-path="url(#p42db3fbe10)" style="fill: #cde11d"/>
    <path d="M 70.361846 264.956123
L 74.639006 269.233282
L 74.998499 268.154803
L 77.51495 272.828213
L 72.84154 270.311762
L 73.920019 269.952269
L 69.64286 265.675109
L 70.361846 264.956123
" clip-path="url(#p42db3fbe10)" style="fill: #ece51b"/>
    <path d="M 86.63659 264.922136
L 91.487515 268.891074
L 91.737911 267.782176
L 94.706896 272.181997
L 89.806283 270.143056
L 90.843639 269.678034
L 85.992714 265.709096
L 86.63659 264.922136
" clip-path="url(#p42db3fbe10)" style="fill: #fde725"/>
    <path d="M 102.899899 264.886698
L 108.209201 268.265345
L 108.326179 267.134562
L 111.796511 271.15079
L 106.688494 269.708067
L 107.663306 269.12318
L 102.354004 265.744533
L 102.899899 264.886698
" clip-path="url(#p42db3fbe10)" style="fill: #fde725"/>
    <path d="M 119.149629 264.852785
L 124.783596 267.41368
L 124.74152 266.277641
L 128.738691 269.769907
L 123.479256 269.054623
L 124.362841 268.33934
L 118.728874 265.778446
L 119.149629 264.852785
" clip-path="url(#p42db3fbe10)" style="fill: #f6e620"/>
    <path d="M 135.38532 264.82513
L 141.214165 266.414815
L 140.991217 265.300074
L 145.494769 268.109221
L 140.188603 268.24299
L 140.946627 267.395787
L 135.117782 265.806102
L 135.38532 264.82513
" clip-path="url(#p42db3fbe10)" style="fill: #ece51b"/>
    <path d="M 151.609879 264.809304
L 157.525658 265.347102
L 157.111403 264.288449
L 162.036438 266.267669
L 156.835232 267.326322
L 157.433601 266.359726
L 151.517822 265.821928
L 151.609879 264.809304
" clip-path="url(#p42db3fbe10)" style="fill: #e5e419"/>
    <path d="M 167.830121 264.809304
L 173.745901 264.271506
L 173.147532 263.30491
L 178.348738 264.363562
L 173.423702 266.342782
L 173.837957 265.28413
L 167.922178 265.821928
L 167.830121 264.809304
" clip-path="url(#p42db3fbe10)" style="fill: #e5e419"/>
    <path d="M 184.05468 264.82513
L 189.883525 263.235445
L 189.125502 262.388242
L 194.431668 262.522011
L 189.928115 265.331157
L 190.151063 264.216417
L 184.322218 265.806102
L 184.05468 264.82513
" clip-path="url(#p42db3fbe10)" style="fill: #ece51b"/>
    <path d="M 200.290371 264.852785
L 205.924338 262.291891
L 205.040753 261.576608
L 210.300188 260.861325
L 206.303017 264.35359
L 206.345093 263.217552
L 200.711126 265.778446
L 200.290371 264.852785
" clip-path="url(#p42db3fbe10)" style="fill: #f6e620"/>
    <path d="M 216.540101 264.886698
L 221.849402 261.508052
L 220.87459 260.923164
L 225.982607 259.480442
L 222.512275 263.496669
L 222.395297 262.365887
L 217.085996 265.744533
L 216.540101 264.886698
" clip-path="url(#p42db3fbe10)" style="fill: #fde725"/>
    <path d="M 232.80341 264.922136
L 237.654334 260.953198
L 236.616978 260.488176
L 241.517591 258.449235
L 238.548607 262.849055
L 238.29821 261.740157
L 233.447286 265.709096
L 232.80341 264.922136
" clip-path="url(#p42db3fbe10)" style="fill: #fde725"/>
    <path d="M 249.078154 264.956123
L 253.355314 260.678963
L 252.276834 260.31947
L 256.950244 257.803018
L 254.433793 262.476429
L 254.0743 261.397949
L 249.79714 265.675109
L 249.078154 264.956123
" clip-path="url(#p42db3fbe10)" style="fill: #ece51b"/>
    <path d="M 265.361841 264.987219
L 268.984127 260.706336
L 267.879518 260.437647
L 272.327805 257.541783
L 270.208152 262.40803
L 269.760338 261.36313
L 266.138052 265.644013
L 265.361841 264.987219
" clip-path="url(#p42db3fbe10)" style="fill: #cde11d"/>
    <path d="M 281.65227 265.014967
L 284.579707 261.023007
L 283.459105 260.831685
L 287.695527 257.633869
L 285.918963 262.63558
L 285.399659 261.624305
L 282.472222 265.616265
L 281.65227 265.014967
" clip-path="url(#p42db3fbe10)" style="fill: #9bd93c"/>
    <path d="M 297.947708 265.039427
L 300.180689 261.588457
L 299.050825 261.462916
L 303.093227 258.023108
L 301.61185 263.12005
L 301.034364 262.140835
L 298.801383 265.591805
L 297.947708 265.039427
" clip-path="url(#p42db3fbe10)" style="fill: #60ca60"/>
    <path d="M 21.514772 248.765442
L 23.686697 252.867966
L 24.347458 251.9429
L 25.378246 257.1497
L 21.651551 253.370144
L 22.788061 253.343714
L 20.616137 249.24119
L 21.514772 248.765442
" clip-path="url(#p42db3fbe10)" style="fill: #84d44b"/>
    <path d="M 37.813703 248.741747
L 40.608296 253.3994
L 41.218625 252.440312
L 42.526473 257.584515
L 38.602928 254.00973
L 39.736397 253.92254
L 36.941805 249.264886
L 37.813703 248.741747
" clip-path="url(#p42db3fbe10)" style="fill: #c0df25"/>
    <path d="M 54.108056 248.71393
L 57.515626 253.635975
L 58.062244 252.6392
L 59.7021 257.687384
L 55.554229 254.375518
L 56.679621 254.214748
L 53.272051 249.292703
L 54.108056 248.71393
" clip-path="url(#p42db3fbe10)" style="fill: #eae51a"/>
    <path d="M 70.395833 248.681378
L 74.364771 253.532303
L 74.829793 252.494947
L 76.868734 257.39556
L 72.468914 254.426575
L 73.577811 254.176179
L 69.608873 249.325254
L 70.395833 248.681378
" clip-path="url(#p42db3fbe10)" style="fill: #fde725"/>
    <path d="M 86.674145 248.643823
L 91.10907 253.078748
L 91.468563 252.000269
L 93.985015 256.673679
L 89.311605 254.157227
L 90.390084 253.797734
L 85.955159 249.362809
L 86.674145 248.643823
" clip-path="url(#p42db3fbe10)" style="fill: #fde725"/>
    <path d="M 102.939079 248.60201
L 107.708134 252.311275
L 107.931083 251.196534
L 111.007767 255.521728
L 106.058318 253.604374
L 107.08388 253.113888
L 102.314824 249.404623
L 102.939079 248.60201
" clip-path="url(#p42db3fbe10)" style="fill: #ece51b"/>
    <path d="M 119.186152 248.558895
L 124.142873 251.312628
L 124.192253 250.176884
L 127.895766 253.979158
L 122.710848 252.843414
L 123.649071 252.201472
L 118.69235 249.447738
L 119.186152 248.558895
" clip-path="url(#p42db3fbe10)" style="fill: #d2e21b"/>
    <path d="M 135.412321 248.521006
L 140.433646 250.194781
L 140.272876 249.069389
L 144.613671 252.124023
L 139.308255 251.963253
L 140.112106 251.159402
L 135.090781 249.485627
L 135.412321 248.521006
" clip-path="url(#p42db3fbe10)" style="fill: #b5de2b"/>
    <path d="M 151.619994 248.498026
L 156.64414 249.056264
L 156.251136 247.98954
L 161.135611 250.066845
L 155.914276 251.021283
L 156.531853 250.066845
L 151.507707 249.508607
L 151.619994 248.498026
" clip-path="url(#p42db3fbe10)" style="fill: #a2da37"/>
    <path d="M 167.820006 248.498026
L 172.844152 247.939787
L 172.226575 246.98535
L 177.44791 247.939787
L 172.563435 250.017093
L 172.956439 248.950368
L 167.932293 249.508607
L 167.820006 248.498026
" clip-path="url(#p42db3fbe10)" style="fill: #a2da37"/>
    <path d="M 184.027679 248.521006
L 189.049004 246.847231
L 188.245153 246.04338
L 193.55057 245.882609
L 189.209774 248.937243
L 189.370545 247.811852
L 184.349219 249.485627
L 184.027679 248.521006
" clip-path="url(#p42db3fbe10)" style="fill: #b5de2b"/>
    <path d="M 200.253848 248.558895
L 205.210568 245.805161
L 204.272345 245.163219
L 209.457263 244.027475
L 205.75375 247.829748
L 205.70437 246.694004
L 200.74765 249.447738
L 200.253848 248.558895
" clip-path="url(#p42db3fbe10)" style="fill: #d2e21b"/>
    <path d="M 216.500921 248.60201
L 221.269976 244.892745
L 220.244414 244.402259
L 225.193863 242.484905
L 222.117179 246.810099
L 221.894231 245.695358
L 217.125176 249.404623
L 216.500921 248.60201
" clip-path="url(#p42db3fbe10)" style="fill: #ece51b"/>
    <path d="M 232.765855 248.643823
L 237.200779 244.208899
L 236.1223 243.849406
L 240.79571 241.332954
L 238.279258 246.006364
L 237.919765 244.927885
L 233.484841 249.362809
L 232.765855 248.643823
" clip-path="url(#p42db3fbe10)" style="fill: #fde725"/>
    <path d="M 249.044167 248.681378
L 253.013106 243.830454
L 251.904208 243.580057
L 256.304028 240.611073
L 254.265087 245.511686
L 253.800065 244.47433
L 249.831127 249.325254
L 249.044167 248.681378
" clip-path="url(#p42db3fbe10)" style="fill: #fde725"/>
    <path d="M 265.331944 248.71393
L 268.739514 243.791885
L 267.614122 243.631115
L 271.761993 240.319249
L 270.122137 245.367433
L 269.575519 244.370658
L 266.167949 249.292703
L 265.331944 248.71393
" clip-path="url(#p42db3fbe10)" style="fill: #eae51a"/>
    <path d="M 281.626297 248.741747
L 284.420889 244.084093
L 283.28742 243.996903
L 287.210965 240.422118
L 285.903117 245.566321
L 285.292788 244.607232
L 282.498195 249.264886
L 281.626297 248.741747
" clip-path="url(#p42db3fbe10)" style="fill: #c0df25"/>
    <path d="M 297.925228 248.765442
L 300.097152 244.662919
L 298.960642 244.636488
L 302.687337 240.856933
L 301.656549 246.063733
L 300.995787 245.138667
L 298.823863 249.24119
L 297.925228 248.765442
" clip-path="url(#p42db3fbe10)" style="fill: #84d44b"/>
    <path d="M 21.535561 232.497444
L 23.45849 237.167413
L 24.205129 236.310161
L 24.730542 241.591944
L 21.384491 237.4716
L 22.518277 237.55456
L 20.595348 232.88459
L 21.535561 232.497444
" clip-path="url(#p42db3fbe10)" style="fill: #a2da37"/>
    <path d="M 37.838458 232.476022
L 40.278977 237.705706
L 40.985389 236.815012
L 41.753228 242.067032
L 38.221168 238.104982
L 39.35757 238.135696
L 36.917051 232.906012
L 37.838458 232.476022
" clip-path="url(#p42db3fbe10)" style="fill: #d8e219"/>
    <path d="M 54.137685 232.449985
L 57.077539 237.909714
L 57.73177 236.980017
L 58.799199 242.17943
L 55.045981 238.426212
L 56.182276 238.391778
L 53.242422 232.932049
L 54.137685 232.449985
" clip-path="url(#p42db3fbe10)" style="fill: #f8e621"/>
    <path d="M 70.43127 232.418069
L 73.809917 237.727371
L 74.394805 236.752559
L 75.837527 241.860576
L 71.8213 238.390244
L 72.952082 238.273266
L 69.573435 232.963964
L 70.43127 232.418069
" clip-path="url(#p42db3fbe10)" style="fill: #fde725"/>
    <path d="M 86.715959 232.378889
L 90.425224 237.147945
L 90.91571 236.122383
L 92.833064 241.071832
L 88.50787 237.995148
L 89.622611 237.772199
L 85.913346 233.003144
L 86.715959 232.378889
" clip-path="url(#p42db3fbe10)" style="fill: #ece51b"/>
    <path d="M 102.986445 232.331524
L 106.873174 236.218253
L 107.232667 235.139774
L 109.749119 239.813184
L 105.075709 237.296732
L 106.154188 236.937239
L 102.267459 233.05051
L 102.986445 232.331524
" clip-path="url(#p42db3fbe10)" style="fill: #c5e021"/>
    <path d="M 119.234753 232.277315
L 123.122841 235.054521
L 123.300142 233.931615
L 126.550658 238.127736
L 121.527133 236.413828
L 122.531838 235.881925
L 118.64375 233.104719
L 119.234753 232.277315
" clip-path="url(#p42db3fbe10)" style="fill: #8ed645"/>
    <path d="M 135.451819 232.223724
L 139.202278 233.831063
L 139.135521 232.696208
L 143.207649 236.100773
L 137.93391 235.499968
L 138.80174 234.765649
L 135.051282 233.15831
L 135.451819 232.223724
" clip-path="url(#p42db3fbe10)" style="fill: #5ec962"/>
    <path d="M 151.635749 232.187727
L 155.24039 232.702675
L 154.880897 231.624196
L 159.698104 233.853053
L 154.449505 234.643938
L 155.096593 233.709256
L 151.491952 233.194307
L 151.635749 232.187727
" clip-path="url(#p42db3fbe10)" style="fill: #46c06f"/>
    <path d="M 167.804251 232.187727
L 171.408892 231.672778
L 170.761805 230.738096
L 176.010404 231.528981
L 171.193196 233.757838
L 171.552689 232.679358
L 167.948048 233.194307
L 167.804251 232.187727
" clip-path="url(#p42db3fbe10)" style="fill: #46c06f"/>
    <path d="M 183.988181 232.223724
L 187.738639 230.616384
L 186.870808 229.882066
L 192.144547 229.281261
L 188.07242 232.685826
L 188.139176 231.550971
L 184.388718 233.15831
L 183.988181 232.223724
" clip-path="url(#p42db3fbe10)" style="fill: #5ec962"/>
    <path d="M 200.205247 232.277315
L 204.093335 229.500109
L 203.08863 228.968206
L 208.112156 227.254298
L 204.861639 231.450419
L 204.684338 230.327513
L 200.79625 233.104719
L 200.205247 232.277315
" clip-path="url(#p42db3fbe10)" style="fill: #8ed645"/>
    <path d="M 216.453555 232.331524
L 220.340284 228.444794
L 219.261805 228.085301
L 223.935215 225.56885
L 221.418764 230.24226
L 221.059271 229.163781
L 217.172541 233.05051
L 216.453555 232.331524
" clip-path="url(#p42db3fbe10)" style="fill: #c5e021"/>
    <path d="M 232.724041 232.378889
L 236.433306 227.609834
L 235.318565 227.386886
L 239.643759 224.310202
L 237.726405 229.259651
L 237.235919 228.234089
L 233.526654 233.003144
L 232.724041 232.378889
" clip-path="url(#p42db3fbe10)" style="fill: #ece51b"/>
    <path d="M 249.00873 232.418069
L 252.387376 227.108768
L 251.256594 226.99179
L 255.272821 223.521458
L 253.830099 228.629475
L 253.245211 227.654663
L 249.866565 232.963964
L 249.00873 232.418069
" clip-path="url(#p42db3fbe10)" style="fill: #fde725"/>
    <path d="M 265.302315 232.449985
L 268.242169 226.990255
L 267.105874 226.955822
L 270.859092 223.202604
L 269.791663 228.402016
L 269.137432 227.47232
L 266.197578 232.932049
L 265.302315 232.449985
" clip-path="url(#p42db3fbe10)" style="fill: #f8e621"/>
    <path d="M 281.601542 232.476022
L 284.042062 227.246338
L 282.90566 227.277052
L 286.43772 223.315001
L 285.669881 228.567021
L 284.963469 227.676328
L 282.522949 232.906012
L 281.601542 232.476022
" clip-path="url(#p42db3fbe10)" style="fill: #d8e219"/>
    <path d="M 297.904439 232.497444
L 299.827368 227.827474
L 298.693582 227.910434
L 302.039633 223.79009
L 301.51422 229.071873
L 300.76758 228.21462
L 298.844652 232.88459
L 297.904439 232.497444
" clip-path="url(#p42db3fbe10)" style="fill: #a2da37"/>
    <path d="M 21.553196 216.235264
L 23.059867 221.357945
L 23.891896 220.583297
L 23.863206 225.891071
L 20.965448 221.444017
L 22.084384 221.644852
L 20.577713 216.522171
L 21.553196 216.235264
" clip-path="url(#p42db3fbe10)" style="fill: #b8de29"/>
    <path d="M 37.860065 216.217947
L 39.753159 221.89723
L 40.55701 221.093379
L 40.71778 226.398795
L 37.663146 222.058
L 38.788538 222.21877
L 36.895443 216.539488
L 37.860065 216.217947
" clip-path="url(#p42db3fbe10)" style="fill: #eae51a"/>
    <path d="M 54.164566 216.196212
L 56.422097 222.065792
L 57.188618 221.226269
L 57.590129 226.518913
L 54.34154 222.321299
L 55.473071 222.430802
L 53.215541 216.561222
L 54.164566 216.196212
" clip-path="url(#p42db3fbe10)" style="fill: #fde725"/>
    <path d="M 70.465183 216.16834
L 73.026077 221.802307
L 73.741361 220.918722
L 74.456644 226.178157
L 70.964379 222.180986
L 72.100417 222.223062
L 69.539523 216.589095
L 70.465183 216.16834
" clip-path="url(#p42db3fbe10)" style="fill: #f6e620"/>
    <path d="M 86.759074 216.131817
L 89.512808 221.088537
L 90.15475 220.150314
L 91.290494 225.335232
L 87.488221 221.631719
L 88.623965 221.582339
L 85.870231 216.625618
L 86.759074 216.131817
" clip-path="url(#p42db3fbe10)" style="fill: #d2e21b"/>
    <path d="M 103.040654 216.083216
L 105.81786 219.971304
L 106.349762 218.966599
L 108.063671 223.990124
L 103.86755 220.739608
L 104.990456 220.562307
L 102.21325 216.674219
L 103.040654 216.083216
" clip-path="url(#p42db3fbe10)" style="fill: #8ed645"/>
    <path d="M 119.298744 216.019224
L 121.873488 218.593968
L 122.232981 217.515489
L 124.749433 222.188899
L 120.076023 219.672447
L 121.154502 219.312954
L 118.579758 216.738211
L 119.298744 216.019224
" clip-path="url(#p42db3fbe10)" style="fill: #46c06f"/>
    <path d="M 135.51312 215.942768
L 137.662878 217.232622
L 137.750068 216.099154
L 141.324853 220.022699
L 136.18065 218.71485
L 137.139739 218.104521
L 134.989981 216.814667
L 135.51312 215.942768
" clip-path="url(#p42db3fbe10)" style="fill: #20a386"/>
    <path d="M 151.663556 215.88019
L 153.386108 216.224701
L 153.086992 215.127941
L 157.773148 217.620577
L 152.488759 218.119104
L 153.186697 217.221755
L 151.464145 216.877245
L 151.663556 215.88019
" clip-path="url(#p42db3fbe10)" style="fill: #218f8d"/>
    <path d="M 167.776444 215.88019
L 169.498997 215.53568
L 168.801059 214.638331
L 174.085447 215.136858
L 169.399292 217.629494
L 169.698408 216.532734
L 167.975855 216.877245
L 167.776444 215.88019
" clip-path="url(#p42db3fbe10)" style="fill: #218f8d"/>
    <path d="M 183.92688 215.942768
L 186.076637 214.652914
L 185.117548 214.042584
L 190.261751 212.734736
L 186.686966 216.658281
L 186.599776 215.524812
L 184.450019 216.814667
L 183.92688 215.942768
" clip-path="url(#p42db3fbe10)" style="fill: #20a386"/>
    <path d="M 200.141256 216.019224
L 202.715999 213.444481
L 201.63752 213.084988
L 206.31093 210.568536
L 203.794478 215.241946
L 203.434985 214.163467
L 200.860242 216.738211
L 200.141256 216.019224
" clip-path="url(#p42db3fbe10)" style="fill: #46c06f"/>
    <path d="M 216.399346 216.083216
L 219.176552 212.195128
L 218.053646 212.017827
L 222.249767 208.76731
L 220.535859 213.790836
L 220.003956 212.786131
L 217.22675 216.674219
L 216.399346 216.083216
" clip-path="url(#p42db3fbe10)" style="fill: #8ed645"/>
    <path d="M 232.680926 216.131817
L 235.43466 211.175096
L 234.298916 211.125716
L 238.101189 207.422203
L 236.965445 212.607121
L 236.323503 211.668898
L 233.569769 216.625618
L 232.680926 216.131817
" clip-path="url(#p42db3fbe10)" style="fill: #d2e21b"/>
    <path d="M 248.974817 216.16834
L 251.535711 210.534373
L 250.399673 210.576449
L 253.891938 206.579278
L 253.176655 211.838713
L 252.461371 210.955128
L 249.900477 216.589095
L 248.974817 216.16834
" clip-path="url(#p42db3fbe10)" style="fill: #f6e620"/>
    <path d="M 265.275434 216.196212
L 267.532964 210.326633
L 266.401434 210.436136
L 269.650022 206.238521
L 269.248511 211.531165
L 268.48199 210.691643
L 266.224459 216.561222
L 265.275434 216.196212
" clip-path="url(#p42db3fbe10)" style="fill: #fde725"/>
    <path d="M 281.579935 216.217947
L 283.47303 210.538665
L 282.347638 210.699435
L 285.402272 206.35864
L 285.241502 211.664056
L 284.437651 210.860205
L 282.544557 216.539488
L 281.579935 216.217947
" clip-path="url(#p42db3fbe10)" style="fill: #eae51a"/>
    <path d="M 297.886804 216.235264
L 299.393475 211.112583
L 298.274539 211.313417
L 301.172297 206.866363
L 301.200987 212.174138
L 300.368958 211.39949
L 298.862287 216.522171
L 297.886804 216.235264
" clip-path="url(#p42db3fbe10)" style="fill: #b8de29"/>
    <path d="M 21.566119 199.978065
L 22.525617 205.415222
L 23.438592 204.737853
L 22.820125 210.00955
L 20.434608 205.267967
L 21.524289 205.591927
L 20.564791 200.15477
L 21.566119 199.978065
" clip-path="url(#p42db3fbe10)" style="fill: #c5e021"/>
    <path d="M 37.876281 199.966713
L 39.073702 205.953816
L 39.971051 205.255878
L 39.472524 210.540266
L 36.979888 205.854111
L 38.076647 206.153227
L 36.879227 200.166123
L 37.876281 199.966713
" clip-path="url(#p42db3fbe10)" style="fill: #f1e51d"/>
    <path d="M 54.185434 199.952099
L 55.602584 206.093081
L 56.479026 205.369064
L 56.13607 210.665824
L 53.506743 206.054975
L 54.611823 206.321718
L 53.194673 200.180737
L 54.185434 199.952099
" clip-path="url(#p42db3fbe10)" style="fill: #fde725"/>
    <path d="M 70.492839 199.932649
L 72.082524 205.761494
L 72.929727 205.00347
L 72.795958 210.309636
L 69.986811 205.806084
L 71.101552 206.029032
L 69.511867 200.200187
L 70.492839 199.932649
" clip-path="url(#p42db3fbe10)" style="fill: #ece51b"/>
    <path d="M 86.796963 199.905648
L 88.470738 204.926973
L 89.274589 204.123122
L 89.435359 209.428538
L 86.380726 205.087743
L 87.506117 205.248513
L 85.832342 200.227188
L 86.796963 199.905648
" clip-path="url(#p42db3fbe10)" style="fill: #b5de2b"/>
    <path d="M 103.094245 199.866149
L 104.701584 203.616608
L 105.435903 202.748777
L 106.036708 208.022516
L 102.632143 203.950389
L 103.766998 204.017145
L 102.159659 200.266687
L 103.094245 199.866149
" clip-path="url(#p42db3fbe10)" style="fill: #5ec962"/>
    <path d="M 119.375201 199.804848
L 120.665055 201.954606
L 121.275384 200.995517
L 122.583233 206.13972
L 118.659688 202.564935
L 119.793156 202.477745
L 118.503302 200.327988
L 119.375201 199.804848
" clip-path="url(#p42db3fbe10)" style="fill: #20a386"/>
    <path d="M 135.611044 199.706925
L 136.184609 200.28049
L 136.544102 199.202011
L 139.060554 203.875421
L 134.387144 201.358969
L 135.465623 200.999476
L 134.892058 200.425911
L 135.611044 199.706925
" clip-path="url(#p42db3fbe10)" style="fill: #2b758e"/>
    <path d="M 151.69366 199.676988
L 152.08309 199.806798
L 151.95328 198.898129
L 155.458146 201.364516
L 151.174421 201.234707
L 151.82347 200.585657
L 151.43404 200.455848
L 151.69366 199.676988
" clip-path="url(#p42db3fbe10)" style="fill: #3b518b"/>
    <path d="M 167.74634 199.676988
L 168.135769 199.547179
L 167.48672 198.898129
L 171.770445 198.768319
L 168.265579 201.234707
L 168.395389 200.326038
L 168.00596 200.455848
L 167.74634 199.676988
" clip-path="url(#p42db3fbe10)" style="fill: #3b518b"/>
    <path d="M 183.828956 199.706925
L 184.402521 199.13336
L 183.324042 198.773867
L 187.997452 196.257415
L 185.481001 200.930825
L 185.121508 199.852346
L 184.547942 200.425911
L 183.828956 199.706925
" clip-path="url(#p42db3fbe10)" style="fill: #2b758e"/>
    <path d="M 200.064799 199.804848
L 201.354654 197.655091
L 200.221185 197.567901
L 204.14473 193.993116
L 202.836882 199.137319
L 202.226553 198.17823
L 200.936698 200.327988
L 200.064799 199.804848
" clip-path="url(#p42db3fbe10)" style="fill: #20a386"/>
    <path d="M 216.345755 199.866149
L 217.953094 196.115691
L 216.818239 196.182447
L 220.222805 192.11032
L 219.621999 197.384059
L 218.887681 196.516228
L 217.280341 200.266687
L 216.345755 199.866149
" clip-path="url(#p42db3fbe10)" style="fill: #5ec962"/>
    <path d="M 232.643037 199.905648
L 234.316812 194.884323
L 233.191421 195.045093
L 236.246054 190.704297
L 236.085284 196.009714
L 235.281433 195.205863
L 233.607658 200.227188
L 232.643037 199.905648
" clip-path="url(#p42db3fbe10)" style="fill: #b5de2b"/>
    <path d="M 248.947161 199.932649
L 250.536846 194.103804
L 249.422105 194.326752
L 252.231252 189.8232
L 252.365021 195.129365
L 251.517818 194.371342
L 249.928133 200.200187
L 248.947161 199.932649
" clip-path="url(#p42db3fbe10)" style="fill: #ece51b"/>
    <path d="M 265.254566 199.952099
L 266.671716 193.811118
L 265.566636 194.077861
L 268.195963 189.467012
L 268.538919 194.763772
L 267.662477 194.039755
L 266.245327 200.180737
L 265.254566 199.952099
" clip-path="url(#p42db3fbe10)" style="fill: #fde725"/>
    <path d="M 281.563719 199.966713
L 282.761139 193.979609
L 281.66438 194.278725
L 284.157016 189.59257
L 284.655543 194.876958
L 283.758194 194.17902
L 282.560773 200.166123
L 281.563719 199.966713
" clip-path="url(#p42db3fbe10)" style="fill: #f1e51d"/>
    <path d="M 297.873881 199.978065
L 298.83338 194.540909
L 297.743699 194.864868
L 300.129216 190.123286
L 300.747683 195.394983
L 299.834708 194.717614
L 298.875209 200.15477
L 297.873881 199.978065
" clip-path="url(#p42db3fbe10)" style="fill: #c5e021"/>
    <path d="M 21.572977 183.724264
L 21.902276 189.322342
L 22.887467 188.755111
L 21.663442 193.9199
L 19.842331 188.934236
L 20.887231 189.38205
L 20.557932 183.783973
L 21.572977 183.724264
" clip-path="url(#p42db3fbe10)" style="fill: #cde11d"/>
    <path d="M 37.885028 183.7203
L 38.294556 189.863217
L 39.275285 189.288307
L 38.091646 194.462501
L 36.231642 189.491216
L 37.280008 189.930854
L 36.87048 183.787937
L 37.885028 183.7203
" clip-path="url(#p42db3fbe10)" style="fill: #f4e61e"/>
    <path d="M 54.196956 183.715126
L 54.67962 189.989755
L 55.654432 189.404868
L 54.52365 194.59087
L 52.613017 189.638823
L 53.665815 190.06774
L 53.183151 183.793111
L 54.196956 183.715126
" clip-path="url(#p42db3fbe10)" style="fill: #fde725"/>
    <path d="M 70.508665 183.70809
L 71.046463 189.623869
L 72.013059 189.025501
L 70.954406 194.226707
L 68.975186 189.301671
L 70.033839 189.715926
L 69.496041 183.800147
L 70.508665 183.70809
" clip-path="url(#p42db3fbe10)" style="fill: #e5e419"/>
    <path d="M 86.819943 183.697975
L 87.378181 188.722121
L 88.332619 188.104544
L 87.378181 193.325879
L 85.300876 188.441404
L 86.3676 188.834408
L 85.809362 183.810262
L 86.819943 183.697975
" clip-path="url(#p42db3fbe10)" style="fill: #a2da37"/>
    <path d="M 103.130242 183.68222
L 103.645191 187.286861
L 104.579873 186.639773
L 103.788988 191.888372
L 101.560131 187.071165
L 102.63861 187.430658
L 102.123662 183.826017
L 103.130242 183.68222
" clip-path="url(#p42db3fbe10)" style="fill: #46c06f"/>
    <path d="M 119.437779 183.654413
L 119.782289 185.376966
L 120.679638 184.679028
L 120.181111 189.963416
L 117.688475 185.27726
L 118.785235 185.576377
L 118.440724 183.853824
L 119.437779 183.654413
" clip-path="url(#p42db3fbe10)" style="fill: #218f8d"/>
    <path d="M 135.64098 183.624309
L 135.77079 184.013738
L 136.419839 183.364689
L 136.549649 187.648414
L 134.083262 184.143548
L 134.991931 184.273358
L 134.862121 183.883928
L 135.64098 183.624309
" clip-path="url(#p42db3fbe10)" style="fill: #3b518b"/>
    <path d="M 151.696567 183.621402
L 151.829283 183.754118
L 151.962 183.355969
L 152.891016 185.081285
L 151.1657 184.152268
L 151.56385 184.019552
L 151.431134 183.886835
L 151.696567 183.621402
" clip-path="url(#p42db3fbe10)" style="fill: #440154"/>
    <path d="M 167.743433 183.621402
L 167.87615 183.488685
L 167.478 183.355969
L 169.203316 182.426952
L 168.2743 184.152268
L 168.141583 183.754118
L 168.008866 183.886835
L 167.743433 183.621402
" clip-path="url(#p42db3fbe10)" style="fill: #440154"/>
    <path d="M 183.79902 183.624309
L 183.928829 183.234879
L 183.020161 183.364689
L 185.486548 179.859823
L 185.356738 184.143548
L 184.707689 183.494499
L 184.577879 183.883928
L 183.79902 183.624309
" clip-path="url(#p42db3fbe10)" style="fill: #3b518b"/>
    <path d="M 200.002221 183.654413
L 200.346732 181.93186
L 199.249972 182.230977
L 201.742608 177.544821
L 202.241135 182.829209
L 201.343786 182.131271
L 200.999276 183.853824
L 200.002221 183.654413
" clip-path="url(#p42db3fbe10)" style="fill: #218f8d"/>
    <path d="M 216.309758 183.68222
L 216.824707 180.077579
L 215.746227 180.437072
L 217.975084 175.619864
L 218.765969 180.868464
L 217.831287 180.221376
L 217.316338 183.826017
L 216.309758 183.68222
" clip-path="url(#p42db3fbe10)" style="fill: #46c06f"/>
    <path d="M 232.620057 183.697975
L 233.178296 178.673829
L 232.111571 179.066833
L 234.188877 174.182358
L 235.143314 179.403693
L 234.188877 178.786116
L 233.630638 183.810262
L 232.620057 183.697975
" clip-path="url(#p42db3fbe10)" style="fill: #a2da37"/>
    <path d="M 248.931335 183.70809
L 249.469133 177.792311
L 248.41048 178.206566
L 250.389701 173.28153
L 251.448353 178.482736
L 250.481757 177.884368
L 249.943959 183.800147
L 248.931335 183.70809
" clip-path="url(#p42db3fbe10)" style="fill: #e5e419"/>
    <path d="M 265.243044 183.715126
L 265.725708 177.440497
L 264.67291 177.869414
L 266.583543 172.917367
L 267.714325 178.103369
L 266.739513 177.518482
L 266.256849 183.793111
L 265.243044 183.715126
" clip-path="url(#p42db3fbe10)" style="fill: #fde725"/>
    <path d="M 281.554972 183.7203
L 281.9645 177.577383
L 280.916134 178.017021
L 282.776138 173.045736
L 283.959777 178.21993
L 282.979048 177.64502
L 282.56952 183.787937
L 281.554972 183.7203
" clip-path="url(#p42db3fbe10)" style="fill: #f4e61e"/>
    <path d="M 297.867023 183.724264
L 298.196321 178.126187
L 297.151422 178.574001
L 298.972533 173.588337
L 300.196558 178.753126
L 299.211367 178.185895
L 298.882068 183.783973
L 297.867023 183.724264
" clip-path="url(#p42db3fbe10)" style="fill: #cde11d"/>
    <path d="M 21.572977 167.471673
L 21.243679 173.069751
L 22.288578 172.621937
L 20.467467 177.607601
L 19.243442 172.442811
L 20.228633 173.010042
L 20.557932 167.411965
L 21.572977 167.471673
" clip-path="url(#p42db3fbe10)" style="fill: #cde11d"/>
    <path d="M 37.885028 167.475637
L 37.4755 173.618554
L 38.523866 173.178917
L 36.663862 178.150202
L 35.480223 172.976007
L 36.460952 173.550918
L 36.87048 167.408001
L 37.885028 167.475637
" clip-path="url(#p42db3fbe10)" style="fill: #f4e61e"/>
    <path d="M 54.196956 167.480812
L 53.714292 173.755441
L 54.76709 173.326523
L 52.856457 178.278571
L 51.725675 173.092568
L 52.700487 173.677456
L 53.183151 167.402827
L 54.196956 167.480812
" clip-path="url(#p42db3fbe10)" style="fill: #fde725"/>
    <path d="M 70.508665 167.487847
L 69.970867 173.403627
L 71.02952 172.989371
L 69.050299 177.914407
L 67.991647 172.713201
L 68.958243 173.31157
L 69.496041 167.395791
L 70.508665 167.487847
" clip-path="url(#p42db3fbe10)" style="fill: #e5e419"/>
    <path d="M 86.819943 167.497962
L 86.261704 172.522108
L 87.328429 172.129105
L 85.251123 177.013579
L 84.296686 171.792244
L 85.251123 172.409822
L 85.809362 167.385676
L 86.819943 167.497962
" clip-path="url(#p42db3fbe10)" style="fill: #a2da37"/>
    <path d="M 103.130242 167.513718
L 102.615293 171.118359
L 103.693773 170.758866
L 101.464916 175.576073
L 100.674031 170.327474
L 101.608713 170.974561
L 102.123662 167.36992
L 103.130242 167.513718
" clip-path="url(#p42db3fbe10)" style="fill: #46c06f"/>
    <path d="M 119.437779 167.541524
L 119.093268 169.264077
L 120.190028 168.964961
L 117.697392 173.651117
L 117.198865 168.366728
L 118.096214 169.064666
L 118.440724 167.342114
L 119.437779 167.541524
" clip-path="url(#p42db3fbe10)" style="fill: #218f8d"/>
    <path d="M 135.64098 167.571629
L 135.511171 167.961058
L 136.419839 167.831249
L 133.953452 171.336115
L 134.083262 167.052389
L 134.732311 167.701439
L 134.862121 167.312009
L 135.64098 167.571629
" clip-path="url(#p42db3fbe10)" style="fill: #3b518b"/>
    <path d="M 151.696567 167.574536
L 151.56385 167.707252
L 151.962 167.839969
L 150.236684 168.768985
L 151.1657 167.043669
L 151.298417 167.441819
L 151.431134 167.309102
L 151.696567 167.574536
" clip-path="url(#p42db3fbe10)" style="fill: #440154"/>
    <path d="M 167.743433 167.574536
L 167.610717 167.441819
L 167.478 167.839969
L 166.548984 166.114653
L 168.2743 167.043669
L 167.87615 167.176386
L 168.008866 167.309102
L 167.743433 167.574536
" clip-path="url(#p42db3fbe10)" style="fill: #440154"/>
    <path d="M 183.79902 167.571629
L 183.66921 167.182199
L 183.020161 167.831249
L 182.890351 163.547523
L 185.356738 167.052389
L 184.448069 166.92258
L 184.577879 167.312009
L 183.79902 167.571629
" clip-path="url(#p42db3fbe10)" style="fill: #3b518b"/>
    <path d="M 200.002221 167.541524
L 199.657711 165.818972
L 198.760362 166.51691
L 199.258889 161.232521
L 201.751525 165.918677
L 200.654765 165.619561
L 200.999276 167.342114
L 200.002221 167.541524
" clip-path="url(#p42db3fbe10)" style="fill: #218f8d"/>
    <path d="M 216.309758 167.513718
L 215.794809 163.909077
L 214.860127 164.556164
L 215.651012 159.307565
L 217.879869 164.124772
L 216.80139 163.765279
L 217.316338 167.36992
L 216.309758 167.513718
" clip-path="url(#p42db3fbe10)" style="fill: #46c06f"/>
    <path d="M 232.620057 167.497962
L 232.061819 162.473816
L 231.107381 163.091394
L 232.061819 157.870059
L 234.139124 162.754533
L 233.0724 162.36153
L 233.630638 167.385676
L 232.620057 167.497962
" clip-path="url(#p42db3fbe10)" style="fill: #a2da37"/>
    <path d="M 248.931335 167.487847
L 248.393537 161.572068
L 247.426941 162.170437
L 248.485594 156.969231
L 250.464814 161.894267
L 249.406161 161.480011
L 249.943959 167.395791
L 248.931335 167.487847
" clip-path="url(#p42db3fbe10)" style="fill: #e5e419"/>
    <path d="M 265.243044 167.480812
L 264.76038 161.206182
L 263.785568 161.79107
L 264.91635 156.605067
L 266.826983 161.557115
L 265.774185 161.128197
L 266.256849 167.402827
L 265.243044 167.480812
" clip-path="url(#p42db3fbe10)" style="fill: #fde725"/>
    <path d="M 281.554972 167.475637
L 281.145444 161.33272
L 280.164715 161.907631
L 281.348354 156.733436
L 283.208358 161.704721
L 282.159992 161.265084
L 282.56952 167.408001
L 281.554972 167.475637
" clip-path="url(#p42db3fbe10)" style="fill: #f4e61e"/>
    <path d="M 297.867023 167.471673
L 297.537724 161.873596
L 296.552533 162.440827
L 297.776558 157.276037
L 299.597669 162.261701
L 298.552769 161.813887
L 298.882068 167.411965
L 297.867023 167.471673
" clip-path="url(#p42db3fbe10)" style="fill: #cde11d"/>
    <path d="M 21.566119 151.217872
L 20.60662 156.655028
L 21.696301 156.331069
L 19.310784 161.072651
L 18.692317 155.800954
L 19.605292 156.478323
L 20.564791 151.041167
L 21.566119 151.217872
" clip-path="url(#p42db3fbe10)" style="fill: #c5e021"/>
    <path d="M 37.876281 151.229225
L 36.678861 157.216328
L 37.77562 156.917212
L 35.282984 161.603368
L 34.784457 156.318979
L 35.681806 157.016918
L 36.879227 151.029814
L 37.876281 151.229225
" clip-path="url(#p42db3fbe10)" style="fill: #f1e51d"/>
    <path d="M 54.185434 151.243838
L 52.768284 157.38482
L 53.873364 157.118077
L 51.244037 161.728926
L 50.901081 156.432165
L 51.777523 157.156183
L 53.194673 151.015201
L 54.185434 151.243838
" clip-path="url(#p42db3fbe10)" style="fill: #fde725"/>
    <path d="M 70.492839 151.263288
L 68.903154 157.092134
L 70.017895 156.869185
L 67.208748 161.372738
L 67.074979 156.066572
L 67.922182 156.824596
L 69.511867 150.995751
L 70.492839 151.263288
" clip-path="url(#p42db3fbe10)" style="fill: #ece51b"/>
    <path d="M 86.796963 151.29029
L 85.123188 156.311615
L 86.248579 156.150845
L 83.193946 160.49164
L 83.354716 155.186224
L 84.158567 155.990075
L 85.832342 150.968749
L 86.796963 151.29029
" clip-path="url(#p42db3fbe10)" style="fill: #b5de2b"/>
    <path d="M 103.094245 151.329788
L 101.486906 155.080246
L 102.621761 155.01349
L 99.217195 159.085618
L 99.818001 153.811879
L 100.552319 154.679709
L 102.159659 150.929251
L 103.094245 151.329788
" clip-path="url(#p42db3fbe10)" style="fill: #5ec962"/>
    <path d="M 119.375201 151.391089
L 118.085346 153.540847
L 119.218815 153.628037
L 115.29527 157.202822
L 116.603118 152.058619
L 117.213447 153.017707
L 118.503302 150.86795
L 119.375201 151.391089
" clip-path="url(#p42db3fbe10)" style="fill: #20a386"/>
    <path d="M 135.611044 151.489013
L 135.037479 152.062578
L 136.115958 152.422071
L 131.442548 154.938523
L 133.958999 150.265112
L 134.318492 151.343592
L 134.892058 150.770026
L 135.611044 151.489013
" clip-path="url(#p42db3fbe10)" style="fill: #2b758e"/>
    <path d="M 151.69366 151.518949
L 151.304231 151.648759
L 151.95328 152.297808
L 147.669555 152.427618
L 151.174421 149.961231
L 151.044611 150.8699
L 151.43404 150.74009
L 151.69366 151.518949
" clip-path="url(#p42db3fbe10)" style="fill: #3b518b"/>
    <path d="M 167.74634 151.518949
L 167.35691 151.389139
L 167.48672 152.297808
L 163.981854 149.831421
L 168.265579 149.961231
L 167.61653 150.61028
L 168.00596 150.74009
L 167.74634 151.518949
" clip-path="url(#p42db3fbe10)" style="fill: #3b518b"/>
    <path d="M 183.828956 151.489013
L 183.255391 150.915447
L 182.895898 151.993927
L 180.379446 147.320517
L 185.052856 149.836968
L 183.974377 150.196461
L 184.547942 150.770026
L 183.828956 151.489013
" clip-path="url(#p42db3fbe10)" style="fill: #2b758e"/>
    <path d="M 200.064799 151.391089
L 198.774945 149.241332
L 198.164616 150.20042
L 196.856767 145.056217
L 200.780312 148.631003
L 199.646844 148.718192
L 200.936698 150.86795
L 200.064799 151.391089
" clip-path="url(#p42db3fbe10)" style="fill: #20a386"/>
    <path d="M 216.345755 151.329788
L 214.738416 147.57933
L 214.004097 148.44716
L 213.403292 143.173421
L 216.807857 147.245549
L 215.673002 147.178793
L 217.280341 150.929251
L 216.345755 151.329788
" clip-path="url(#p42db3fbe10)" style="fill: #5ec962"/>
    <path d="M 232.643037 151.29029
L 230.969262 146.268965
L 230.165411 147.072815
L 230.004641 141.767399
L 233.059274 146.108194
L 231.933883 145.947424
L 233.607658 150.968749
L 232.643037 151.29029
" clip-path="url(#p42db3fbe10)" style="fill: #b5de2b"/>
    <path d="M 248.947161 151.263288
L 247.357476 145.434443
L 246.510273 146.192467
L 246.644042 140.886301
L 249.453189 145.389854
L 248.338448 145.166906
L 249.928133 150.995751
L 248.947161 151.263288
" clip-path="url(#p42db3fbe10)" style="fill: #ece51b"/>
    <path d="M 265.254566 151.243838
L 263.837416 145.102856
L 262.960974 145.826874
L 263.30393 140.530113
L 265.933257 145.140962
L 264.828177 144.874219
L 266.245327 151.015201
L 265.254566 151.243838
" clip-path="url(#p42db3fbe10)" style="fill: #fde725"/>
    <path d="M 281.563719 151.229225
L 280.366298 145.242122
L 279.468949 145.94006
L 279.967476 140.655671
L 282.460112 145.341827
L 281.363353 145.042711
L 282.560773 151.029814
L 281.563719 151.229225
" clip-path="url(#p42db3fbe10)" style="fill: #f1e51d"/>
    <path d="M 297.873881 151.217872
L 296.914383 145.780716
L 296.001408 146.458085
L 296.619875 141.186388
L 299.005392 145.92797
L 297.915711 145.604011
L 298.875209 151.041167
L 297.873881 151.217872
" clip-path="url(#p42db3fbe10)" style="fill: #c5e021"/>
    <path d="M 21.553196 134.960673
L 20.046525 140.083355
L 21.165461 139.88252
L 18.267703 144.329574
L 18.239013 139.0218
L 19.071042 139.796448
L 20.577713 134.673767
L 21.553196 134.960673
" clip-path="url(#p42db3fbe10)" style="fill: #b8de29"/>
    <path d="M 37.860065 134.97799
L 35.96697 140.657273
L 37.092362 140.496503
L 34.037728 144.837298
L 34.198498 139.531881
L 35.002349 140.335732
L 36.895443 134.65645
L 37.860065 134.97799
" clip-path="url(#p42db3fbe10)" style="fill: #eae51a"/>
    <path d="M 54.164566 134.999725
L 51.907036 140.869305
L 53.038566 140.759802
L 49.789978 144.957416
L 50.191489 139.664772
L 50.95801 140.504295
L 53.215541 134.634715
L 54.164566 134.999725
" clip-path="url(#p42db3fbe10)" style="fill: #fde725"/>
    <path d="M 70.465183 135.027598
L 67.904289 140.661564
L 69.040327 140.619489
L 65.548062 144.61666
L 66.263345 139.357224
L 66.978629 140.24081
L 69.539523 134.606843
L 70.465183 135.027598
" clip-path="url(#p42db3fbe10)" style="fill: #f6e620"/>
    <path d="M 86.759074 135.064121
L 84.00534 140.020842
L 85.141084 140.070222
L 81.338811 143.773735
L 82.474555 138.588817
L 83.116497 139.52704
L 85.870231 134.570319
L 86.759074 135.064121
" clip-path="url(#p42db3fbe10)" style="fill: #d2e21b"/>
    <path d="M 103.040654 135.112722
L 100.263448 139.00081
L 101.386354 139.178111
L 97.190233 142.428627
L 98.904141 137.405102
L 99.436044 138.409807
L 102.21325 134.521719
L 103.040654 135.112722
" clip-path="url(#p42db3fbe10)" style="fill: #8ed645"/>
    <path d="M 119.298744 135.176713
L 116.724001 137.751457
L 117.80248 138.11095
L 113.12907 140.627402
L 115.645522 135.953991
L 116.005015 137.032471
L 118.579758 134.457727
L 119.298744 135.176713
" clip-path="url(#p42db3fbe10)" style="fill: #46c06f"/>
    <path d="M 135.51312 135.253169
L 133.363363 136.543024
L 134.322452 137.153353
L 129.178249 138.461201
L 132.753034 134.537657
L 132.840224 135.671125
L 134.989981 134.381271
L 135.51312 135.253169
" clip-path="url(#p42db3fbe10)" style="fill: #20a386"/>
    <path d="M 151.663556 135.315747
L 149.941003 135.660258
L 150.638941 136.557607
L 145.354553 136.05908
L 150.040708 133.566444
L 149.741592 134.663203
L 151.464145 134.318693
L 151.663556 135.315747
" clip-path="url(#p42db3fbe10)" style="fill: #218f8d"/>
    <path d="M 167.776444 135.315747
L 166.053892 134.971237
L 166.353008 136.067997
L 161.666852 133.575361
L 166.951241 133.076833
L 166.253303 133.974182
L 167.975855 134.318693
L 167.776444 135.315747
" clip-path="url(#p42db3fbe10)" style="fill: #218f8d"/>
    <path d="M 183.92688 135.253169
L 181.777122 133.963315
L 181.689932 135.096783
L 178.115147 131.173239
L 183.25935 132.481087
L 182.300261 133.091416
L 184.450019 134.381271
L 183.92688 135.253169
" clip-path="url(#p42db3fbe10)" style="fill: #20a386"/>
    <path d="M 200.141256 135.176713
L 197.566512 132.60197
L 197.207019 133.680449
L 194.690567 129.007039
L 199.363977 131.52349
L 198.285498 131.882983
L 200.860242 134.457727
L 200.141256 135.176713
" clip-path="url(#p42db3fbe10)" style="fill: #46c06f"/>
    <path d="M 216.399346 135.112722
L 213.62214 131.224633
L 213.090238 132.229339
L 211.376329 127.205813
L 215.57245 130.45633
L 214.449544 130.63363
L 217.22675 134.521719
L 216.399346 135.112722
" clip-path="url(#p42db3fbe10)" style="fill: #8ed645"/>
    <path d="M 232.680926 135.064121
L 229.927192 130.1074
L 229.28525 131.045624
L 228.149506 125.860705
L 231.951779 129.564218
L 230.816035 129.613599
L 233.569769 134.570319
L 232.680926 135.064121
" clip-path="url(#p42db3fbe10)" style="fill: #d2e21b"/>
    <path d="M 248.974817 135.027598
L 246.413923 129.393631
L 245.698639 130.277216
L 244.983356 125.01778
L 248.475621 129.014951
L 247.339583 128.972876
L 249.900477 134.606843
L 248.974817 135.027598
" clip-path="url(#p42db3fbe10)" style="fill: #f6e620"/>
    <path d="M 265.275434 134.999725
L 263.017903 129.130145
L 262.251382 129.969668
L 261.849871 124.677024
L 265.09846 128.874638
L 263.966929 128.765135
L 266.224459 134.634715
L 265.275434 134.999725
" clip-path="url(#p42db3fbe10)" style="fill: #fde725"/>
    <path d="M 281.579935 134.97799
L 279.686841 129.298708
L 278.88299 130.102559
L 278.72222 124.797142
L 281.776854 129.137938
L 280.651462 128.977167
L 282.544557 134.65645
L 281.579935 134.97799
" clip-path="url(#p42db3fbe10)" style="fill: #eae51a"/>
    <path d="M 297.886804 134.960673
L 296.380133 129.837992
L 295.548104 130.61264
L 295.576794 125.304866
L 298.474552 129.75192
L 297.355616 129.551085
L 298.862287 134.673767
L 297.886804 134.960673
" clip-path="url(#p42db3fbe10)" style="fill: #b8de29"/>
    <path d="M 21.535561 118.698494
L 19.612632 123.368463
L 20.746418 123.285503
L 17.400367 127.405847
L 17.92578 122.124064
L 18.67242 122.981317
L 20.595348 118.311347
L 21.535561 118.698494
" clip-path="url(#p42db3fbe10)" style="fill: #a2da37"/>
    <path d="M 37.838458 118.719916
L 35.397938 123.949599
L 36.53434 123.918886
L 33.00228 127.880936
L 33.770119 122.628916
L 34.476531 123.51961
L 36.917051 118.289926
L 37.838458 118.719916
" clip-path="url(#p42db3fbe10)" style="fill: #d8e219"/>
    <path d="M 54.137685 118.745953
L 51.197831 124.205682
L 52.334126 124.240115
L 48.580908 127.993333
L 49.648337 122.793921
L 50.302568 123.723617
L 53.242422 118.263888
L 54.137685 118.745953
" clip-path="url(#p42db3fbe10)" style="fill: #f8e621"/>
    <path d="M 70.43127 118.777868
L 67.052624 124.08717
L 68.183406 124.204147
L 64.167179 127.67448
L 65.609901 122.566462
L 66.194789 123.541275
L 69.573435 118.231973
L 70.43127 118.777868
" clip-path="url(#p42db3fbe10)" style="fill: #fde725"/>
    <path d="M 86.715959 118.817048
L 83.006694 123.586103
L 84.121435 123.809051
L 79.796241 126.885736
L 81.713595 121.936287
L 82.204081 122.961848
L 85.913346 118.192793
L 86.715959 118.817048
" clip-path="url(#p42db3fbe10)" style="fill: #ece51b"/>
    <path d="M 102.986445 118.864414
L 99.099716 122.751143
L 100.178195 123.110636
L 95.504785 125.627088
L 98.021236 120.953678
L 98.380729 122.032157
L 102.267459 118.145428
L 102.986445 118.864414
" clip-path="url(#p42db3fbe10)" style="fill: #c5e021"/>
    <path d="M 119.234753 118.918623
L 115.346665 121.695829
L 116.35137 122.227731
L 111.327844 123.94164
L 114.578361 119.745519
L 114.755662 120.868424
L 118.64375 118.091219
L 119.234753 118.918623
" clip-path="url(#p42db3fbe10)" style="fill: #8ed645"/>
    <path d="M 135.451819 118.972214
L 131.701361 120.579553
L 132.569192 121.313871
L 127.295453 121.914677
L 131.36758 118.510111
L 131.300824 119.644967
L 135.051282 118.037627
L 135.451819 118.972214
" clip-path="url(#p42db3fbe10)" style="fill: #5ec962"/>
    <path d="M 151.635749 119.008211
L 148.031108 119.52316
L 148.678195 120.457842
L 143.429596 119.666957
L 148.246804 117.4381
L 147.887311 118.516579
L 151.491952 118.00163
L 151.635749 119.008211
" clip-path="url(#p42db3fbe10)" style="fill: #46c06f"/>
    <path d="M 167.804251 119.008211
L 164.19961 118.493262
L 164.559103 119.571741
L 159.741896 117.342884
L 164.990495 116.552
L 164.343407 117.486682
L 167.948048 118.00163
L 167.804251 119.008211
" clip-path="url(#p42db3fbe10)" style="fill: #46c06f"/>
    <path d="M 183.988181 118.972214
L 180.237722 117.364875
L 180.304479 118.49973
L 176.232351 115.095164
L 181.50609 115.69597
L 180.63826 116.430288
L 184.388718 118.037627
L 183.988181 118.972214
" clip-path="url(#p42db3fbe10)" style="fill: #5ec962"/>
    <path d="M 200.205247 118.918623
L 196.317159 116.141417
L 196.139858 117.264323
L 192.889342 113.068201
L 197.912867 114.78211
L 196.908162 115.314013
L 200.79625 118.091219
L 200.205247 118.918623
" clip-path="url(#p42db3fbe10)" style="fill: #8ed645"/>
    <path d="M 216.453555 118.864414
L 212.566826 114.977684
L 212.207333 116.056164
L 209.690881 111.382753
L 214.364291 113.899205
L 213.285812 114.258698
L 217.172541 118.145428
L 216.453555 118.864414
" clip-path="url(#p42db3fbe10)" style="fill: #c5e021"/>
    <path d="M 232.724041 118.817048
L 229.014776 114.047993
L 228.52429 115.073554
L 226.606936 110.124106
L 230.93213 113.20079
L 229.817389 113.423738
L 233.526654 118.192793
L 232.724041 118.817048
" clip-path="url(#p42db3fbe10)" style="fill: #ece51b"/>
    <path d="M 249.00873 118.777868
L 245.630083 113.468566
L 245.045195 114.443379
L 243.602473 109.335361
L 247.6187 112.805694
L 246.487918 112.922671
L 249.866565 118.231973
L 249.00873 118.777868
" clip-path="url(#p42db3fbe10)" style="fill: #fde725"/>
    <path d="M 265.302315 118.745953
L 262.362461 113.286224
L 261.70823 114.21592
L 260.640801 109.016508
L 264.394019 112.769726
L 263.257724 112.804159
L 266.197578 118.263888
L 265.302315 118.745953
" clip-path="url(#p42db3fbe10)" style="fill: #f8e621"/>
    <path d="M 281.601542 118.719916
L 279.161023 113.490232
L 278.454611 114.380925
L 277.686772 109.128905
L 281.218832 113.090955
L 280.08243 113.060242
L 282.522949 118.289926
L 281.601542 118.719916
" clip-path="url(#p42db3fbe10)" style="fill: #d8e219"/>
    <path d="M 297.904439 118.698494
L 295.98151 114.028524
L 295.234871 114.885777
L 294.709458 109.603994
L 298.055509 113.724338
L 296.921723 113.641378
L 298.844652 118.311347
L 297.904439 118.698494
" clip-path="url(#p42db3fbe10)" style="fill: #a2da37"/>
    <path d="M 21.514772 102.430495
L 19.342848 106.533019
L 20.479358 106.559449
L 16.752663 110.339005
L 17.783451 105.132204
L 18.444213 106.05727
L 20.616137 101.954747
L 21.514772 102.430495
" clip-path="url(#p42db3fbe10)" style="fill: #84d44b"/>
    <path d="M 37.813703 102.454191
L 35.019111 107.111844
L 36.15258 107.199034
L 32.229035 110.773819
L 33.536883 105.629617
L 34.147212 106.588705
L 36.941805 101.931052
L 37.813703 102.454191
" clip-path="url(#p42db3fbe10)" style="fill: #c0df25"/>
    <path d="M 54.108056 102.482008
L 50.700486 107.404052
L 51.825878 107.564823
L 47.678007 110.876689
L 49.317863 105.828504
L 49.864481 106.82528
L 53.272051 101.903235
L 54.108056 102.482008
" clip-path="url(#p42db3fbe10)" style="fill: #eae51a"/>
    <path d="M 70.395833 102.514559
L 66.426894 107.365484
L 67.535792 107.61588
L 63.135972 110.584865
L 65.174913 105.684252
L 65.639935 106.721608
L 69.608873 101.870683
L 70.395833 102.514559
" clip-path="url(#p42db3fbe10)" style="fill: #fde725"/>
    <path d="M 86.674145 102.552114
L 82.239221 106.987039
L 83.3177 107.346532
L 78.64429 109.862984
L 81.160742 105.189573
L 81.520235 106.268053
L 85.955159 101.833128
L 86.674145 102.552114
" clip-path="url(#p42db3fbe10)" style="fill: #fde725"/>
    <path d="M 102.939079 102.593928
L 98.170024 106.303193
L 99.195586 106.793679
L 94.246137 108.711033
L 97.322821 104.385839
L 97.545769 105.50058
L 102.314824 101.791314
L 102.939079 102.593928
" clip-path="url(#p42db3fbe10)" style="fill: #ece51b"/>
    <path d="M 119.186152 102.637043
L 114.229432 105.390776
L 115.167655 106.032719
L 109.982737 107.168463
L 113.68625 103.366189
L 113.73563 104.501933
L 118.69235 101.7482
L 119.186152 102.637043
" clip-path="url(#p42db3fbe10)" style="fill: #d2e21b"/>
    <path d="M 135.412321 102.674932
L 130.390996 104.348707
L 131.194847 105.152558
L 125.88943 105.313328
L 130.230226 102.258694
L 130.069455 103.384086
L 135.090781 101.710311
L 135.412321 102.674932
" clip-path="url(#p42db3fbe10)" style="fill: #b5de2b"/>
    <path d="M 151.619994 102.697912
L 146.595848 103.25615
L 147.213425 104.210588
L 141.99209 103.25615
L 146.876565 101.178845
L 146.483561 102.245569
L 151.507707 101.687331
L 151.619994 102.697912
" clip-path="url(#p42db3fbe10)" style="fill: #a2da37"/>
    <path d="M 167.820006 102.697912
L 162.79586 102.139673
L 163.188864 103.206398
L 158.304389 101.129092
L 163.525724 100.174655
L 162.908147 101.129092
L 167.932293 101.687331
L 167.820006 102.697912
" clip-path="url(#p42db3fbe10)" style="fill: #a2da37"/>
    <path d="M 184.027679 102.674932
L 179.006354 101.001157
L 179.167124 102.126548
L 174.826329 99.071914
L 180.131745 99.232685
L 179.327894 100.036535
L 184.349219 101.710311
L 184.027679 102.674932
" clip-path="url(#p42db3fbe10)" style="fill: #b5de2b"/>
    <path d="M 200.253848 102.637043
L 195.297127 99.883309
L 195.247747 101.019053
L 191.544234 97.21678
L 196.729152 98.352524
L 195.790929 98.994466
L 200.74765 101.7482
L 200.253848 102.637043
" clip-path="url(#p42db3fbe10)" style="fill: #d2e21b"/>
    <path d="M 216.500921 102.593928
L 211.731866 98.884663
L 211.508917 99.999404
L 208.432233 95.674209
L 213.381682 97.591564
L 212.35612 98.082049
L 217.125176 101.791314
L 216.500921 102.593928
" clip-path="url(#p42db3fbe10)" style="fill: #ece51b"/>
    <path d="M 232.765855 102.552114
L 228.33093 98.11719
L 227.971437 99.195669
L 225.454985 94.522259
L 230.128395 97.03871
L 229.049916 97.398203
L 233.484841 101.833128
L 232.765855 102.552114
" clip-path="url(#p42db3fbe10)" style="fill: #fde725"/>
    <path d="M 249.044167 102.514559
L 245.075229 97.663635
L 244.610207 98.700991
L 242.571266 93.800377
L 246.971086 96.769362
L 245.862189 97.019758
L 249.831127 101.870683
L 249.044167 102.514559
" clip-path="url(#p42db3fbe10)" style="fill: #fde725"/>
    <path d="M 265.331944 102.482008
L 261.924374 97.559963
L 261.377756 98.556738
L 259.7379 93.508554
L 263.885771 96.82042
L 262.760379 96.98119
L 266.167949 101.903235
L 265.331944 102.482008
" clip-path="url(#p42db3fbe10)" style="fill: #eae51a"/>
    <path d="M 281.626297 102.454191
L 278.831704 97.796537
L 278.221375 98.755626
L 276.913527 93.611423
L 280.837072 97.186208
L 279.703603 97.273398
L 282.498195 101.931052
L 281.626297 102.454191
" clip-path="url(#p42db3fbe10)" style="fill: #c0df25"/>
    <path d="M 297.925228 102.430495
L 295.753303 98.327972
L 295.092542 99.253038
L 294.061754 94.046238
L 297.788449 97.825793
L 296.651939 97.852224
L 298.823863 101.954747
L 297.925228 102.430495
" clip-path="url(#p42db3fbe10)" style="fill: #84d44b"/>
    <path d="M 21.492292 86.156511
L 19.259311 89.607481
L 20.389175 89.733021
L 16.346773 93.172829
L 17.82815 88.075888
L 18.405636 89.055103
L 20.638617 85.604133
L 21.492292 86.156511
" clip-path="url(#p42db3fbe10)" style="fill: #60ca60"/>
    <path d="M 37.78773 86.180971
L 34.860293 90.172931
L 35.980895 90.364253
L 31.744473 93.562068
L 33.521037 88.560357
L 34.040341 89.571632
L 36.967778 85.579672
L 37.78773 86.180971
" clip-path="url(#p42db3fbe10)" style="fill: #9bd93c"/>
    <path d="M 54.078159 86.208719
L 50.455873 90.489602
L 51.560482 90.75829
L 47.112195 93.654155
L 49.231848 88.787908
L 49.679662 89.832808
L 53.301948 85.551925
L 54.078159 86.208719
" clip-path="url(#p42db3fbe10)" style="fill: #cde11d"/>
    <path d="M 70.361846 86.239815
L 66.084686 90.516974
L 67.163166 90.876468
L 62.489756 93.392919
L 65.006207 88.719509
L 65.3657 89.797988
L 69.64286 85.520829
L 70.361846 86.239815
" clip-path="url(#p42db3fbe10)" style="fill: #ece51b"/>
    <path d="M 86.63659 86.273802
L 81.785666 90.24274
L 82.823022 90.707762
L 77.922409 92.746703
L 80.891393 88.346882
L 81.14179 89.45578
L 85.992714 85.486842
L 86.63659 86.273802
" clip-path="url(#p42db3fbe10)" style="fill: #fde725"/>
    <path d="M 102.899899 86.309239
L 97.590598 89.687886
L 98.56541 90.272773
L 93.457393 91.715496
L 96.927725 87.699268
L 97.044703 88.830051
L 102.354004 85.451404
L 102.899899 86.309239
" clip-path="url(#p42db3fbe10)" style="fill: #fde725"/>
    <path d="M 119.149629 86.343152
L 113.515662 88.904046
L 114.399247 89.619329
L 109.139812 90.334612
L 113.136983 86.842347
L 113.094907 87.978385
L 118.728874 85.417491
L 119.149629 86.343152
" clip-path="url(#p42db3fbe10)" style="fill: #f6e620"/>
    <path d="M 135.38532 86.370808
L 129.556475 87.960493
L 130.314498 88.807696
L 125.008332 88.673927
L 129.511885 85.86478
L 129.288937 86.979521
L 135.117782 85.389836
L 135.38532 86.370808
" clip-path="url(#p42db3fbe10)" style="fill: #ece51b"/>
    <path d="M 151.609879 86.386634
L 145.694099 86.924432
L 146.292468 87.891028
L 141.091262 86.832375
L 146.016298 84.853155
L 145.602043 85.911808
L 151.517822 85.37401
L 151.609879 86.386634
" clip-path="url(#p42db3fbe10)" style="fill: #e5e419"/>
    <path d="M 167.830121 86.386634
L 161.914342 85.848836
L 162.328597 86.907488
L 157.403562 84.928268
L 162.604768 83.869616
L 162.006399 84.836211
L 167.922178 85.37401
L 167.830121 86.386634
" clip-path="url(#p42db3fbe10)" style="fill: #e5e419"/>
    <path d="M 184.05468 86.370808
L 178.225835 84.781123
L 178.448783 85.895863
L 173.945231 83.086717
L 179.251397 82.952948
L 178.493373 83.800151
L 184.322218 85.389836
L 184.05468 86.370808
" clip-path="url(#p42db3fbe10)" style="fill: #ece51b"/>
    <path d="M 200.290371 86.343152
L 194.656404 83.782258
L 194.69848 84.918296
L 190.701309 81.426031
L 195.960744 82.141314
L 195.077159 82.856597
L 200.711126 85.417491
L 200.290371 86.343152
" clip-path="url(#p42db3fbe10)" style="fill: #f6e620"/>
    <path d="M 216.540101 86.309239
L 211.230799 82.930593
L 211.113821 84.061375
L 207.643489 80.045148
L 212.751506 81.48787
L 211.776694 82.072758
L 217.085996 85.451404
L 216.540101 86.309239
" clip-path="url(#p42db3fbe10)" style="fill: #fde725"/>
    <path d="M 232.80341 86.273802
L 227.952485 82.304863
L 227.702089 83.413761
L 224.733104 79.01394
L 229.633717 81.052882
L 228.596361 81.517903
L 233.447286 85.486842
L 232.80341 86.273802
" clip-path="url(#p42db3fbe10)" style="fill: #fde725"/>
    <path d="M 249.078154 86.239815
L 244.800994 81.962655
L 244.441501 83.041134
L 241.92505 78.367724
L 246.59846 80.884176
L 245.519981 81.243669
L 249.79714 85.520829
L 249.078154 86.239815
" clip-path="url(#p42db3fbe10)" style="fill: #ece51b"/>
    <path d="M 265.361841 86.208719
L 261.739555 81.927836
L 261.291741 82.972735
L 259.172088 78.106488
L 263.620375 81.002353
L 262.515767 81.271042
L 266.138052 85.551925
L 265.361841 86.208719
" clip-path="url(#p42db3fbe10)" style="fill: #cde11d"/>
    <path d="M 281.65227 86.180971
L 278.724833 82.189011
L 278.205529 83.200286
L 276.428965 78.198575
L 280.665387 81.39639
L 279.544785 81.587713
L 282.472222 85.579672
L 281.65227 86.180971
" clip-path="url(#p42db3fbe10)" style="fill: #9bd93c"/>
    <path d="M 297.947708 86.156511
L 295.714727 82.70554
L 295.137241 83.684756
L 293.655864 78.587814
L 297.698266 82.027622
L 296.568402 82.153163
L 298.801383 85.604133
L 297.947708 86.156511
" clip-path="url(#p42db3fbe10)" style="fill: #60ca60"/>
    <path d="M 21.469306 69.87685
L 19.365991 72.627339
L 20.482521 72.841143
L 16.18269 75.953175
L 18.059412 70.988177
L 18.558288 72.009684
L 20.661603 69.259195
L 21.469306 69.87685
" clip-path="url(#p42db3fbe10)" style="fill: #3dbc74"/>
    <path d="M 37.761946 69.900989
L 34.92948 73.16922
L 36.030831 73.450961
L 31.548587 76.293984
L 33.725677 71.453161
L 34.161095 72.503286
L 36.993562 69.235056
L 37.761946 69.900989
" clip-path="url(#p42db3fbe10)" style="fill: #6ece58"/>
    <path d="M 54.049547 69.927515
L 50.478393 73.498669
L 51.556873 73.858162
L 46.883462 76.374613
L 49.399914 71.701203
L 49.759407 72.779682
L 53.33056 69.208529
L 54.049547 69.927515
" clip-path="url(#p42db3fbe10)" style="fill: #a2da37"/>
    <path d="M 70.33075 69.956128
L 66.049867 73.578413
L 67.094767 74.026228
L 62.22852 76.145881
L 65.124384 71.697594
L 65.393073 72.802202
L 69.673956 69.179917
L 70.33075 69.956128
" clip-path="url(#p42db3fbe10)" style="fill: #cde11d"/>
    <path d="M 86.604039 69.986025
L 81.681994 73.393594
L 82.678769 73.940213
L 77.630585 75.580069
L 80.942451 71.432198
L 81.103221 72.557589
L 86.025266 69.15002
L 86.604039 69.986025
" clip-path="url(#p42db3fbe10)" style="fill: #eae51a"/>
    <path d="M 102.867984 70.015654
L 97.408255 72.955508
L 98.337951 73.609739
L 93.138539 74.677168
L 96.891757 70.92395
L 96.92619 72.060245
L 102.38592 69.120391
L 102.867984 70.015654
" clip-path="url(#p42db3fbe10)" style="fill: #f8e621"/>
    <path d="M 119.121756 70.042535
L 113.252176 72.300066
L 114.091699 73.066587
L 108.799055 73.468098
L 112.99667 70.219509
L 112.887167 71.35104
L 118.756746 69.093509
L 119.121756 70.042535
" clip-path="url(#p42db3fbe10)" style="fill: #fde725"/>
    <path d="M 135.365869 70.063403
L 129.224888 71.480552
L 129.948905 72.356995
L 124.652145 72.014039
L 129.262994 69.384712
L 128.99625 70.489791
L 135.137232 69.072642
L 135.365869 70.063403
" clip-path="url(#p42db3fbe10)" style="fill: #fde725"/>
    <path d="M 151.602843 70.074925
L 145.328213 70.557589
L 145.913101 71.532401
L 140.727098 70.401619
L 145.679146 68.490986
L 145.250228 69.543784
L 151.524858 69.06112
L 151.602843 70.074925
" clip-path="url(#p42db3fbe10)" style="fill: #fde725"/>
    <path d="M 167.837157 70.074925
L 161.562528 69.592261
L 161.991445 70.645058
L 157.039398 68.734426
L 162.2254 67.603643
L 161.640513 68.578456
L 167.915142 69.06112
L 167.837157 70.074925
" clip-path="url(#p42db3fbe10)" style="fill: #fde725"/>
    <path d="M 184.074131 70.063403
L 177.933149 68.646253
L 178.199892 69.751333
L 173.589043 67.122005
L 178.885804 66.77905
L 178.161786 67.655492
L 184.302768 69.072642
L 184.074131 70.063403
" clip-path="url(#p42db3fbe10)" style="fill: #fde725"/>
    <path d="M 200.318244 70.042535
L 194.448664 67.785004
L 194.558167 68.916535
L 190.360553 65.667947
L 195.653197 66.069458
L 194.813674 66.835979
L 200.683254 69.093509
L 200.318244 70.042535
" clip-path="url(#p42db3fbe10)" style="fill: #fde725"/>
    <path d="M 216.572016 70.015654
L 211.112287 67.0758
L 211.077853 68.212095
L 207.324635 64.458877
L 212.524048 65.526306
L 211.594351 66.180537
L 217.05408 69.120391
L 216.572016 70.015654
" clip-path="url(#p42db3fbe10)" style="fill: #f8e621"/>
    <path d="M 232.835961 69.986025
L 227.913916 66.578455
L 227.753146 67.703847
L 224.44128 63.555976
L 229.489464 65.195832
L 228.492689 65.74245
L 233.414734 69.15002
L 232.835961 69.986025
" clip-path="url(#p42db3fbe10)" style="fill: #eae51a"/>
    <path d="M 249.10925 69.956128
L 244.828367 66.333842
L 244.559679 67.43845
L 241.663814 62.990163
L 246.530061 65.109817
L 245.485161 65.557631
L 249.766044 69.179917
L 249.10925 69.956128
" clip-path="url(#p42db3fbe10)" style="fill: #cde11d"/>
    <path d="M 265.390453 69.927515
L 261.8193 66.356362
L 261.459807 67.434841
L 258.943356 62.761431
L 263.616766 65.277883
L 262.538286 65.637376
L 266.10944 69.208529
L 265.390453 69.927515
" clip-path="url(#p42db3fbe10)" style="fill: #a2da37"/>
    <path d="M 281.678054 69.900989
L 278.845587 66.632758
L 278.410169 67.682884
L 276.233079 62.84206
L 280.715323 65.685084
L 279.613972 65.966825
L 282.446438 69.235056
L 281.678054 69.900989
" clip-path="url(#p42db3fbe10)" style="fill: #6ece58"/>
    <path d="M 297.970694 69.87685
L 295.867379 67.12636
L 295.368503 68.147867
L 293.491781 63.182869
L 297.791612 66.294901
L 296.675082 66.508705
L 298.778397 69.259195
L 297.970694 69.87685
" clip-path="url(#p42db3fbe10)" style="fill: #3dbc74"/>
    <path d="M 21.446672 53.592091
L 19.649064 55.629381
L 20.747867 55.9209
L 16.24053 58.72397
L 18.460562 53.902689
L 18.886629 54.956644
L 20.684237 52.919354
L 21.446672 53.592091
" clip-path="url(#p42db3fbe10)" style="fill: #23a983"/>
    <path d="M 37.737247 53.615216
L 35.212569 56.139894
L 36.291048 56.499387
L 31.617638 59.015839
L 34.134089 54.342429
L 34.493583 55.420908
L 37.018261 52.89623
L 37.737247 53.615216
" clip-path="url(#p42db3fbe10)" style="fill: #42be71"/>
    <path d="M 54.02302 53.639915
L 50.754789 56.472382
L 51.804915 56.9078
L 46.964092 59.08489
L 49.807115 54.602646
L 50.088856 55.703997
L 53.357087 52.87153
L 54.02302 53.639915
" clip-path="url(#p42db3fbe10)" style="fill: #6ece58"/>
    <path d="M 70.303002 53.665699
L 66.311042 56.593136
L 67.322317 57.11244
L 62.320606 58.889003
L 65.518422 54.652582
L 65.709744 55.773184
L 69.701704 52.845746
L 70.303002 53.665699
" clip-path="url(#p42db3fbe10)" style="fill: #9bd93c"/>
    <path d="M 86.576222 53.691672
L 81.918568 56.486264
L 82.877657 57.096594
L 77.733454 58.404442
L 81.308239 54.480897
L 81.395429 55.614366
L 86.053083 52.819773
L 86.576222 53.691672
" clip-path="url(#p42db3fbe10)" style="fill: #c0df25"/>
    <path d="M 102.841947 53.716426
L 97.612263 56.156945
L 98.502956 56.863357
L 93.250936 57.631197
L 97.212987 54.099136
L 97.182273 55.235538
L 102.411957 52.795019
L 102.841947 53.716426
" clip-path="url(#p42db3fbe10)" style="fill: #d8e219"/>
    <path d="M 119.100022 53.738033
L 113.420739 55.631128
L 114.22459 56.434979
L 108.919173 56.595749
L 113.259969 53.541115
L 113.099199 54.666506
L 118.778481 52.773412
L 119.100022 53.738033
" clip-path="url(#p42db3fbe10)" style="fill: #eae51a"/>
    <path d="M 135.351256 53.75425
L 129.364153 54.951671
L 130.062091 55.84902
L 124.777702 55.350492
L 129.463858 52.857856
L 129.164742 53.954616
L 135.151845 52.757196
L 135.351256 53.75425
" clip-path="url(#p42db3fbe10)" style="fill: #f1e51d"/>
    <path d="M 151.597669 53.762997
L 145.454752 54.172525
L 146.029662 55.153254
L 140.855468 53.969615
L 145.826753 52.10961
L 145.387115 53.157977
L 151.530032 52.748449
L 151.597669 53.762997
" clip-path="url(#p42db3fbe10)" style="fill: #f4e61e"/>
    <path d="M 167.842331 53.762997
L 161.699415 53.353469
L 162.139052 54.401835
L 157.167767 52.541831
L 162.341962 51.358191
L 161.767051 52.338921
L 167.909968 52.748449
L 167.842331 53.762997
" clip-path="url(#p42db3fbe10)" style="fill: #f4e61e"/>
    <path d="M 184.088744 53.75425
L 178.10164 52.556829
L 178.400757 53.653589
L 173.714601 51.160953
L 178.998989 50.662426
L 178.301051 51.559775
L 184.288155 52.757196
L 184.088744 53.75425
" clip-path="url(#p42db3fbe10)" style="fill: #f1e51d"/>
    <path d="M 200.339978 53.738033
L 194.660696 51.844939
L 194.821466 52.970331
L 190.480671 49.915697
L 195.786087 50.076467
L 194.982236 50.880318
L 200.661519 52.773412
L 200.339978 53.738033
" clip-path="url(#p42db3fbe10)" style="fill: #eae51a"/>
    <path d="M 216.598053 53.716426
L 211.368369 51.275907
L 211.399083 52.412309
L 207.437033 48.880249
L 212.689053 49.648088
L 211.798359 50.3545
L 217.028043 52.795019
L 216.598053 53.716426
" clip-path="url(#p42db3fbe10)" style="fill: #d8e219"/>
    <path d="M 232.863778 53.691672
L 228.206124 50.89708
L 228.118934 52.030548
L 224.544149 48.107004
L 229.688352 49.414852
L 228.729264 50.025181
L 233.386917 52.819773
L 232.863778 53.691672
" clip-path="url(#p42db3fbe10)" style="fill: #c0df25"/>
    <path d="M 249.136998 53.665699
L 245.145038 50.738262
L 244.953716 51.858864
L 241.755901 47.622442
L 246.757611 49.399006
L 245.746337 49.918309
L 249.738296 52.845746
L 249.136998 53.665699
" clip-path="url(#p42db3fbe10)" style="fill: #9bd93c"/>
    <path d="M 265.41698 53.639915
L 262.148749 50.807448
L 261.867008 51.9088
L 259.023985 47.426556
L 263.864808 49.603646
L 262.814682 50.039064
L 266.082913 52.87153
L 265.41698 53.639915
" clip-path="url(#p42db3fbe10)" style="fill: #6ece58"/>
    <path d="M 281.702753 53.615216
L 279.178074 51.090537
L 278.818581 52.169017
L 276.30213 47.495607
L 280.97554 50.012058
L 279.897061 50.371551
L 282.421739 52.89623
L 281.702753 53.615216
" clip-path="url(#p42db3fbe10)" style="fill: #42be71"/>
    <path d="M 297.993328 53.592091
L 296.19572 51.554802
L 295.769653 52.608756
L 293.549621 47.787475
L 298.056958 50.590546
L 296.958155 50.882065
L 298.755763 52.919354
L 297.993328 53.592091
" clip-path="url(#p42db3fbe10)" style="fill: #23a983"/>
    <path d="M 21.424948 37.302916
L 20.079943 38.647921
L 21.158423 39.007414
L 16.485012 41.523865
L 19.001464 36.850455
L 19.360957 37.928935
L 20.705961 36.58393
L 21.424948 37.302916
" clip-path="url(#p42db3fbe10)" style="fill: #20928c"/>
    <path d="M 37.714122 37.324641
L 35.676833 39.122249
L 36.730788 39.548316
L 31.909507 41.768347
L 34.712577 37.26101
L 35.004096 38.359814
L 37.041386 36.562206
L 37.714122 37.324641
" clip-path="url(#p42db3fbe10)" style="fill: #23a983"/>
    <path d="M 53.998881 37.347275
L 51.248392 39.45059
L 52.269899 39.949466
L 47.3049 41.826187
L 50.416933 37.526356
L 50.630736 38.642887
L 53.381226 36.539572
L 53.998881 37.347275
" clip-path="url(#p42db3fbe10)" style="fill: #3dbc74"/>
    <path d="M 70.278542 37.370261
L 66.827572 39.603241
L 67.806787 40.180727
L 62.709846 41.662105
L 66.149653 37.619703
L 66.275194 38.749567
L 69.726164 36.516586
L 70.278542 37.370261
" clip-path="url(#p42db3fbe10)" style="fill: #60ca60"/>
    <path d="M 86.552527 37.392741
L 82.450003 39.564665
L 83.375069 40.225427
L 78.168269 41.256215
L 81.947824 37.52952
L 81.974255 38.66603
L 86.076778 36.494106
L 86.552527 37.392741
" clip-path="url(#p42db3fbe10)" style="fill: #84d44b"/>
    <path d="M 102.820525 37.41353
L 98.150555 39.336458
L 99.007808 40.083098
L 93.726025 40.608511
L 97.846369 37.26246
L 97.763409 38.396246
L 102.433379 36.473317
L 102.820525 37.41353
" clip-path="url(#p42db3fbe10)" style="fill: #a2da37"/>
    <path d="M 119.082705 37.431165
L 113.960023 38.937836
L 114.734672 39.769865
L 109.426897 39.741174
L 113.873951 36.843417
L 113.673117 37.962353
L 118.795798 36.455682
L 119.082705 37.431165
" clip-path="url(#p42db3fbe10)" style="fill: #b8de29"/>
    <path d="M 135.339903 37.444087
L 129.902747 38.403585
L 130.580116 39.316561
L 125.308419 38.698094
L 130.050001 36.312577
L 129.726042 37.402257
L 135.163198 36.442759
L 135.339903 37.444087
" clip-path="url(#p42db3fbe10)" style="fill: #c5e021"/>
    <path d="M 151.593705 37.450946
L 145.995627 37.780245
L 146.562858 38.765436
L 141.398068 37.54141
L 146.383732 35.7203
L 145.935918 36.765199
L 151.533996 36.435901
L 151.593705 37.450946
" clip-path="url(#p42db3fbe10)" style="fill: #cde11d"/>
    <path d="M 167.846295 37.450946
L 162.248218 37.121647
L 162.696032 38.166547
L 157.710368 36.345436
L 162.875158 35.121411
L 162.307926 36.106602
L 167.906004 36.435901
L 167.846295 37.450946
" clip-path="url(#p42db3fbe10)" style="fill: #cde11d"/>
    <path d="M 184.100097 37.444087
L 178.662941 36.484589
L 178.9869 37.57427
L 174.245317 35.188753
L 179.517014 34.570286
L 178.839646 35.483261
L 184.276802 36.442759
L 184.100097 37.444087
" clip-path="url(#p42db3fbe10)" style="fill: #c5e021"/>
    <path d="M 200.357295 37.431165
L 195.234614 35.924494
L 195.435449 37.04343
L 190.988395 34.145672
L 196.296169 34.116981
L 195.521521 34.949011
L 200.644202 36.455682
L 200.357295 37.431165
" clip-path="url(#p42db3fbe10)" style="fill: #b8de29"/>
    <path d="M 216.619475 37.41353
L 211.949505 35.490601
L 212.032465 36.624387
L 207.912121 33.278336
L 213.193904 33.803749
L 212.336652 34.550388
L 217.006621 36.473317
L 216.619475 37.41353
" clip-path="url(#p42db3fbe10)" style="fill: #a2da37"/>
    <path d="M 232.887473 37.392741
L 228.78495 35.220817
L 228.75852 36.357327
L 224.978964 32.630632
L 230.185764 33.66142
L 229.260698 34.322181
L 233.363222 36.494106
L 232.887473 37.392741
" clip-path="url(#p42db3fbe10)" style="fill: #84d44b"/>
    <path d="M 249.161458 37.370261
L 245.710488 35.13728
L 245.584947 36.267144
L 242.14514 32.224742
L 247.242081 33.706119
L 246.262866 34.283605
L 249.713836 36.516586
L 249.161458 37.370261
" clip-path="url(#p42db3fbe10)" style="fill: #60ca60"/>
    <path d="M 265.441119 37.347275
L 262.69063 35.243959
L 262.476826 36.36049
L 259.364793 32.060659
L 264.329792 33.937381
L 263.308285 34.436256
L 266.058774 36.539572
L 265.441119 37.347275
" clip-path="url(#p42db3fbe10)" style="fill: #3dbc74"/>
    <path d="M 281.725878 37.324641
L 279.688588 35.527033
L 279.397069 36.625836
L 276.593999 32.118499
L 281.41528 34.338531
L 280.361325 34.764598
L 282.398614 36.562206
L 281.725878 37.324641
" clip-path="url(#p42db3fbe10)" style="fill: #23a983"/>
    <path d="M 298.015052 37.302916
L 296.670048 35.957912
L 296.310555 37.036391
L 293.794103 32.362981
L 298.467513 34.879433
L 297.389034 35.238926
L 298.734039 36.58393
L 298.015052 37.302916
" clip-path="url(#p42db3fbe10)" style="fill: #20928c"/>
   </g>
   <g id="patch_3">
    <path d="M 159.72 265.723423
C 178.105808 265.723423 195.741055 256.227237 208.741785 239.326289
C 221.742514 222.425341 229.047273 199.499519 229.047273 175.597969
C 229.047273 151.696419 221.742514 128.770597 208.741785 111.869649
C 195.741055 94.968701 178.105808 85.472514 159.72 85.472514
C 141.334192 85.472514 123.698945 94.968701 110.698215 111.869649
C 97.697486 128.770597 90.392727 151.696419 90.392727 175.597969
C 90.392727 199.499519 97.697486 222.425341 110.698215 239.326289
C 123.698945 256.227237 141.334192 265.723423 159.72 265.723423
L 159.72 265.723423
z
" clip-path="url(#p42db3fbe10)" style="fill: none; stroke: #263238; stroke-width: 1.8; stroke-linejoin: miter"/>
   </g>
   <g id="patch_4">
    <path d="M 7.2 328.117969
L 7.2 23.077969
" style="fill: none; stroke: #cccccc; stroke-width: 1.875; stroke-linejoin: miter; stroke-linecap: square"/>
   </g>
   <g id="patch_5">
    <path d="M 7.2 328.117969
L 312.24 328.117969
" style="fill: none; stroke: #cccccc; stroke-width: 1.875; stroke-linejoin: miter; stroke-linecap: square"/>
   </g>
   <g id="text_1">
    <!-- Optical Flow Captures Facial Motion -->
    <g style="fill: #262626" transform="translate(28.017813 17.077969) scale(0.13 -0.13)">
     <defs>
      <path id="DejaVuSans-Bold-4f" d="M 2719 3878
Q 2169 3878 1866 3472
Q 1563 3066 1563 2328
Q 1563 1594 1866 1187
Q 2169 781 2719 781
Q 3272 781 3575 1187
Q 3878 1594 3878 2328
Q 3878 3066 3575 3472
Q 3272 3878 2719 3878
z
M 2719 4750
Q 3844 4750 4481 4106
Q 5119 3463 5119 2328
Q 5119 1197 4481 553
Q 3844 -91 2719 -91
Q 1597 -91 958 553
Q 319 1197 319 2328
Q 319 3463 958 4106
Q 1597 4750 2719 4750
z
" transform="scale(0.015625)"/>
      <path id="DejaVuSans-Bold-70" d="M 1656 506
L 1656 -1331
L 538 -1331
L 538 3500
L 1656 3500
L 1656 2988
Q 1888 3294 2169 3439
Q 2450 3584 2816 3584
Q 3463 3584 3878 3070
Q 4294 2556 4294 1747
Q 4294 938 3878 423
Q 3463 -91 2816 -91
Q 2450 -91 2169 54
Q 1888 200 1656 506
z
M 2400 2772
Q 2041 2772 1848 2508
Q 1656 2244 1656 1747
Q 1656 1250 1848 986
Q 2041 722 2400 722
Q 2759 722 2948 984
Q 3138 1247 3138 1747
Q 3138 2247 2948 2509
Q 2759 2772 2400 2772
z
" transform="scale(0.015625)"/>
      <path id="DejaVuSans-Bold-74" d="M 1759 4494
L 1759 3500
L 2913 3500
L 2913 2700
L 1759 2700
L 1759 1216
Q 1759 972 1856 886
Q 1953 800 2241 800
L 2816 800
L 2816 0
L 1856 0
Q 1194 0 917 276
Q 641 553 641 1216
L 641 2700
L 84 2700
L 84 3500
L 641 3500
L 641 4494
L 1759 4494
z
" transform="scale(0.015625)"/>
      <path id="DejaVuSans-Bold-69" d="M 538 3500
L 1656 3500
L 1656 0
L 538 0
L 538 3500
z
M 538 4863
L 1656 4863
L 1656 3950
L 538 3950
L 538 4863
z
" transform="scale(0.015625)"/>
      <path id="DejaVuSans-Bold-63" d="M 3366 3391
L 3366 2478
Q 3138 2634 2908 2709
Q 2678 2784 2431 2784
Q 1963 2784 1702 2511
Q 1441 2238 1441 1747
Q 1441 1256 1702 982
Q 1963 709 2431 709
Q 2694 709 2930 787
Q 3166 866 3366 1019
L 3366 103
Q 3103 6 2833 -42
Q 2563 -91 2291 -91
Q 1344 -91 809 395
Q 275 881 275 1747
Q 275 2613 809 3098
Q 1344 3584 2291 3584
Q 2566 3584 2833 3536
Q 3100 3488 3366 3391
z
" transform="scale(0.015625)"/>
      <path id="DejaVuSans-Bold-61" d="M 2106 1575
Q 1756 1575 1579 1456
Q 1403 1338 1403 1106
Q 1403 894 1545 773
Q 1688 653 1941 653
Q 2256 653 2472 879
Q 2688 1106 2688 1447
L 2688 1575
L 2106 1575
z
M 3816 1997
L 3816 0
L 2688 0
L 2688 519
Q 2463 200 2181 54
Q 1900 -91 1497 -91
Q 953 -91 614 226
Q 275 544 275 1050
Q 275 1666 698 1953
Q 1122 2241 2028 2241
L 2688 2241
L 2688 2328
Q 2688 2594 2478 2717
Q 2269 2841 1825 2841
Q 1466 2841 1156 2769
Q 847 2697 581 2553
L 581 3406
Q 941 3494 1303 3539
Q 1666 3584 2028 3584
Q 2975 3584 3395 3211
Q 3816 2838 3816 1997
z
" transform="scale(0.015625)"/>
      <path id="DejaVuSans-Bold-6c" d="M 538 4863
L 1656 4863
L 1656 0
L 538 0
L 538 4863
z
" transform="scale(0.015625)"/>
      <path id="DejaVuSans-Bold-20" transform="scale(0.015625)"/>
      <path id="DejaVuSans-Bold-46" d="M 588 4666
L 3834 4666
L 3834 3756
L 1791 3756
L 1791 2888
L 3713 2888
L 3713 1978
L 1791 1978
L 1791 0
L 588 0
L 588 4666
z
" transform="scale(0.015625)"/>
      <path id="DejaVuSans-Bold-6f" d="M 2203 2784
Q 1831 2784 1636 2517
Q 1441 2250 1441 1747
Q 1441 1244 1636 976
Q 1831 709 2203 709
Q 2569 709 2762 976
Q 2956 1244 2956 1747
Q 2956 2250 2762 2517
Q 2569 2784 2203 2784
z
M 2203 3584
Q 3106 3584 3614 3096
Q 4122 2609 4122 1747
Q 4122 884 3614 396
Q 3106 -91 2203 -91
Q 1297 -91 786 396
Q 275 884 275 1747
Q 275 2609 786 3096
Q 1297 3584 2203 3584
z
" transform="scale(0.015625)"/>
      <path id="DejaVuSans-Bold-77" d="M 225 3500
L 1313 3500
L 1900 1088
L 2491 3500
L 3425 3500
L 4013 1113
L 4603 3500
L 5691 3500
L 4769 0
L 3547 0
L 2956 2406
L 2369 0
L 1147 0
L 225 3500
z
" transform="scale(0.015625)"/>
      <path id="DejaVuSans-Bold-43" d="M 4288 256
Q 3956 84 3597 -3
Q 3238 -91 2847 -91
Q 1681 -91 1000 561
Q 319 1213 319 2328
Q 319 3447 1000 4098
Q 1681 4750 2847 4750
Q 3238 4750 3597 4662
Q 3956 4575 4288 4403
L 4288 3438
Q 3953 3666 3628 3772
Q 3303 3878 2944 3878
Q 2300 3878 1931 3465
Q 1563 3053 1563 2328
Q 1563 1606 1931 1193
Q 2300 781 2944 781
Q 3303 781 3628 887
Q 3953 994 4288 1222
L 4288 256
z
" transform="scale(0.015625)"/>
      <path id="DejaVuSans-Bold-75" d="M 500 1363
L 500 3500
L 1625 3500
L 1625 3150
Q 1625 2866 1622 2436
Q 1619 2006 1619 1863
Q 1619 1441 1641 1255
Q 1663 1069 1716 984
Q 1784 875 1895 815
Q 2006 756 2150 756
Q 2500 756 2700 1025
Q 2900 1294 2900 1772
L 2900 3500
L 4019 3500
L 4019 0
L 2900 0
L 2900 506
Q 2647 200 2364 54
Q 2081 -91 1741 -91
Q 1134 -91 817 281
Q 500 653 500 1363
z
" transform="scale(0.015625)"/>
      <path id="DejaVuSans-Bold-72" d="M 3138 2547
Q 2991 2616 2845 2648
Q 2700 2681 2553 2681
Q 2122 2681 1889 2404
Q 1656 2128 1656 1613
L 1656 0
L 538 0
L 538 3500
L 1656 3500
L 1656 2925
Q 1872 3269 2151 3426
Q 2431 3584 2822 3584
Q 2878 3584 2943 3579
Q 3009 3575 3134 3559
L 3138 2547
z
" transform="scale(0.015625)"/>
      <path id="DejaVuSans-Bold-65" d="M 4031 1759
L 4031 1441
L 1416 1441
Q 1456 1047 1700 850
Q 1944 653 2381 653
Q 2734 653 3104 758
Q 3475 863 3866 1075
L 3866 213
Q 3469 63 3072 -14
Q 2675 -91 2278 -91
Q 1328 -91 801 392
Q 275 875 275 1747
Q 275 2603 792 3093
Q 1309 3584 2216 3584
Q 3041 3584 3536 3087
Q 4031 2591 4031 1759
z
M 2881 2131
Q 2881 2450 2695 2645
Q 2509 2841 2209 2841
Q 1884 2841 1681 2658
Q 1478 2475 1428 2131
L 2881 2131
z
" transform="scale(0.015625)"/>
      <path id="DejaVuSans-Bold-73" d="M 3272 3391
L 3272 2541
Q 2913 2691 2578 2766
Q 2244 2841 1947 2841
Q 1628 2841 1473 2761
Q 1319 2681 1319 2516
Q 1319 2381 1436 2309
Q 1553 2238 1856 2203
L 2053 2175
Q 2913 2066 3209 1816
Q 3506 1566 3506 1031
Q 3506 472 3093 190
Q 2681 -91 1863 -91
Q 1516 -91 1145 -36
Q 775 19 384 128
L 384 978
Q 719 816 1070 734
Q 1422 653 1784 653
Q 2113 653 2278 743
Q 2444 834 2444 1013
Q 2444 1163 2330 1236
Q 2216 1309 1875 1350
L 1678 1375
Q 931 1469 631 1722
Q 331 1975 331 2491
Q 331 3047 712 3315
Q 1094 3584 1881 3584
Q 2191 3584 2531 3537
Q 2872 3491 3272 3391
z
" transform="scale(0.015625)"/>
      <path id="DejaVuSans-Bold-4d" d="M 588 4666
L 2119 4666
L 3181 2169
L 4250 4666
L 5778 4666
L 5778 0
L 4641 0
L 4641 3413
L 3566 897
L 2803 897
L 1728 3413
L 1728 0
L 588 0
L 588 4666
z
" transform="scale(0.015625)"/>
      <path id="DejaVuSans-Bold-6e" d="M 4056 2131
L 4056 0
L 2931 0
L 2931 347
L 2931 1631
Q 2931 2084 2911 2256
Q 2891 2428 2841 2509
Q 2775 2619 2662 2680
Q 2550 2741 2406 2741
Q 2056 2741 1856 2470
Q 1656 2200 1656 1722
L 1656 0
L 538 0
L 538 3500
L 1656 3500
L 1656 2988
Q 1909 3294 2193 3439
Q 2478 3584 2822 3584
Q 3428 3584 3742 3212
Q 4056 2841 4056 2131
z
" transform="scale(0.015625)"/>
     </defs>
     <use xlink:href="#DejaVuSans-Bold-4f"/>
     <use xlink:href="#DejaVuSans-Bold-70" transform="translate(85.009766 0)"/>
     <use xlink:href="#DejaVuSans-Bold-74" transform="translate(156.591797 0)"/>
     <use xlink:href="#DejaVuSans-Bold-69" transform="translate(204.394531 0)"/>
     <use xlink:href="#DejaVuSans-Bold-63" transform="translate(238.671875 0)"/>
     <use xlink:href="#DejaVuSans-Bold-61" transform="translate(297.949219 0)"/>
     <use xlink:href="#DejaVuSans-Bold-6c" transform="translate(365.429688 0)"/>
     <use xlink:href="#DejaVuSans-Bold-20" transform="translate(399.707031 0)"/>
     <use xlink:href="#DejaVuSans-Bold-46" transform="translate(434.521484 0)"/>
     <use xlink:href="#DejaVuSans-Bold-6c" transform="translate(502.832031 0)"/>
     <use xlink:href="#DejaVuSans-Bold-6f" transform="translate(537.109375 0)"/>
     <use xlink:href="#DejaVuSans-Bold-77" transform="translate(605.810547 0)"/>
     <use xlink:href="#DejaVuSans-Bold-20" transform="translate(698.193359 0)"/>
     <use xlink:href="#DejaVuSans-Bold-43" transform="translate(733.007812 0)"/>
     <use xlink:href="#DejaVuSans-Bold-61" transform="translate(806.396484 0)"/>
     <use xlink:href="#DejaVuSans-Bold-70" transform="translate(873.876953 0)"/>
     <use xlink:href="#DejaVuSans-Bold-74" transform="translate(945.458984 0)"/>
     <use xlink:href="#DejaVuSans-Bold-75" transform="translate(993.261719 0)"/>
     <use xlink:href="#DejaVuSans-Bold-72" transform="translate(1064.453125 0)"/>
     <use xlink:href="#DejaVuSans-Bold-65" transform="translate(1113.769531 0)"/>
     <use xlink:href="#DejaVuSans-Bold-73" transform="translate(1181.591797 0)"/>
     <use xlink:href="#DejaVuSans-Bold-20" transform="translate(1241.113281 0)"/>
     <use xlink:href="#DejaVuSans-Bold-46" transform="translate(1275.927734 0)"/>
     <use xlink:href="#DejaVuSans-Bold-61" transform="translate(1338.363281 0)"/>
     <use xlink:href="#DejaVuSans-Bold-63" transform="translate(1405.84375 0)"/>
     <use xlink:href="#DejaVuSans-Bold-69" transform="translate(1465.121094 0)"/>
     <use xlink:href="#DejaVuSans-Bold-61" transform="translate(1499.398438 0)"/>
     <use xlink:href="#DejaVuSans-Bold-6c" transform="translate(1566.878906 0)"/>
     <use xlink:href="#DejaVuSans-Bold-20" transform="translate(1601.15625 0)"/>
     <use xlink:href="#DejaVuSans-Bold-4d" transform="translate(1635.970703 0)"/>
     <use xlink:href="#DejaVuSans-Bold-6f" transform="translate(1735.482422 0)"/>
     <use xlink:href="#DejaVuSans-Bold-74" transform="translate(1804.183594 0)"/>
     <use xlink:href="#DejaVuSans-Bold-69" transform="translate(1851.986328 0)"/>
     <use xlink:href="#DejaVuSans-Bold-6f" transform="translate(1886.263672 0)"/>
     <use xlink:href="#DejaVuSans-Bold-6e" transform="translate(1954.964844 0)"/>
    </g>
   </g>
  </g>
 </g>
 <defs>
  <clipPath id="p42db3fbe10">
   <rect x="7.2" y="23.077969" width="305.04" height="305.04"/>
  </clipPath>
 </defs>
</svg>
