<?xml version="1.0" encoding="utf-8" standalone="no"?>
<!DOCTYPE svg PUBLIC "-//W3C//DTD SVG 1.1//EN"
  "http://www.w3.org/Graphics/SVG/1.1/DTD/svg11.dtd">
<svg xmlns:xlink="http://www.w3.org/1999/xlink" width="407.52pt" height="405.009745pt" viewBox="0 0 407.52 405.009745" xmlns="http://www.w3.org/2000/svg" version="1.1">
 <metadata>
  <rdf:RDF xmlns:dc="http://purl.org/dc/elements/1.1/" xmlns:cc="http://creativecommons.org/ns#" xmlns:rdf="http://www.w3.org/1999/02/22-rdf-syntax-ns#">
   <cc:Work>
    <dc:type rdf:resource="http://purl.org/dc/dcmitype/StillImage"/>
    <dc:date>2026-05-23T16:02:33.594363</dc:date>
    <dc:format>image/svg+xml</dc:format>
    <dc:creator>
     <cc:Agent>
      <dc:title>Matplotlib v3.10.9, https://matplotlib.org/</dc:title>
     </cc:Agent>
    </dc:creator>
   </cc:Work>
  </rdf:RDF>
 </metadata>
 <defs>
  <style type="text/css">*{stroke-linejoin: round; stroke-linecap: butt}</style>
 </defs>
 <g id="figure_1">
  <g id="patch_1">
   <path d="M 0 405.009745
L 407.52 405.009745
L 407.52 0
L 0 0
z
" style="fill: #ffffff"/>
  </g>
  <g id="axes_1">
   <g id="patch_2">
    <path d="M 203.76 327.547537
C 230.866727 327.547537 256.866882 313.563583 276.034233 288.67548
C 295.201583 263.787376 305.9712 230.027126 305.9712 194.830033
C 305.9712 159.632939 295.201583 125.872689 276.034233 100.984586
C 256.866882 76.096482 230.866727 62.112529 203.76 62.112529
C 176.653273 62.112529 150.653118 76.096482 131.485767 100.984586
C 112.318417 125.872689 101.5488 159.632939 101.5488 194.830033
C 101.5488 230.027126 112.318417 263.787376 131.485767 288.67548
C 150.653118 313.563583 176.653273 327.547537 203.76 327.547537
z
" clip-path="url(#pc0a15b6b55)" style="fill: #f4d6c6; stroke: #263238; stroke-width: 1.5; stroke-linejoin: miter"/>
   </g>
   <g id="patch_3">
    <path d="M 160.5168 170.433433
C 166.250915 170.433433 171.750948 169.302378 175.80558 167.289369
C 179.860212 165.276361 182.1384 162.545752 182.1384 159.698929
C 182.1384 156.852105 179.860212 154.121497 175.80558 152.108488
C 171.750948 150.09548 166.250915 148.964425 160.5168 148.964425
C 154.782685 148.964425 149.282652 150.09548 145.22802 152.108488
C 141.173388 154.121497 138.8952 156.852105 138.8952 159.698929
C 138.8952 162.545752 141.173388 165.276361 145.22802 167.289369
C 149.282652 169.302378 154.782685 170.433433 160.5168 170.433433
z
" clip-path="url(#pc0a15b6b55)" style="fill: #ffffff; stroke: #263238; stroke-width: 1.1; stroke-linejoin: miter"/>
   </g>
   <g id="patch_4">
    <path d="M 247.0032 170.433433
C 252.737315 170.433433 258.237348 169.302378 262.29198 167.289369
C 266.346612 165.276361 268.6248 162.545752 268.6248 159.698929
C 268.6248 156.852105 266.346612 154.121497 262.29198 152.108488
C 258.237348 150.09548 252.737315 148.964425 247.0032 148.964425
C 241.269085 148.964425 235.769052 150.09548 231.71442 152.108488
C 227.659788 154.121497 225.3816 156.852105 225.3816 159.698929
C 225.3816 162.545752 227.659788 165.276361 231.71442 167.289369
C 235.769052 169.302378 241.269085 170.433433 247.0032 170.433433
z
" clip-path="url(#pc0a15b6b55)" style="fill: #ffffff; stroke: #263238; stroke-width: 1.1; stroke-linejoin: miter"/>
   </g>
   <g id="patch_5">
    <path d="M 160.5168 165.554113
C 162.08065 165.554113 163.580659 164.937174 164.686467 163.839169
C 165.792276 162.741164 166.4136 161.251742 166.4136 159.698929
C 166.4136 158.146116 165.792276 156.656693 164.686467 155.558688
C 163.580659 154.460684 162.08065 153.843745 160.5168 153.843745
C 158.95295 153.843745 157.452941 154.460684 156.347133 155.558688
C 155.241324 156.656693 154.62 158.146116 154.62 159.698929
C 154.62 161.251742 155.241324 162.741164 156.347133 163.839169
C 157.452941 164.937174 158.95295 165.554113 160.5168 165.554113
z
" clip-path="url(#pc0a15b6b55)" style="fill: #263238; stroke: #263238; stroke-width: 1.5; stroke-linejoin: miter"/>
   </g>
   <g id="patch_6">
    <path d="M 247.0032 165.554113
C 248.56705 165.554113 250.067059 164.937174 251.172867 163.839169
C 252.278676 162.741164 252.9 161.251742 252.9 159.698929
C 252.9 158.146116 252.278676 156.656693 251.172867 155.558688
C 250.067059 154.460684 248.56705 153.843745 247.0032 153.843745
C 245.43935 153.843745 243.939341 154.460684 242.833533 155.558688
C 241.727724 156.656693 241.1064 158.146116 241.1064 159.698929
C 241.1064 161.251742 241.727724 162.741164 242.833533 163.839169
C 243.939341 164.937174 245.43935 165.554113 247.0032 165.554113
z
" clip-path="url(#pc0a15b6b55)" style="fill: #263238; stroke: #263238; stroke-width: 1.5; stroke-linejoin: miter"/>
   </g>
   <g id="patch_7">
    <path d="M 75.996 108.954001
L 134.964 108.954001
Q 148.7232 108.954001 148.7232 95.291905
L 148.7232 67.967713
Q 148.7232 54.305617 134.964 54.305617
L 75.996 54.305617
Q 62.2368 54.305617 62.2368 67.967713
L 62.2368 95.291905
Q 62.2368 108.954001 75.996 108.954001
z
" clip-path="url(#pc0a15b6b55)" style="fill: #f7f3e8; stroke: #263238; stroke-width: 1.3; stroke-linejoin: miter"/>
   </g>
   <g id="patch_8">
    <path d="M 106.898054 83.037855
Q 125.136134 101.147222 142.263505 118.153719
" clip-path="url(#pc0a15b6b55)" style="fill: none; stroke: #6c757d; stroke-width: 1.4; stroke-linecap: round"/>
    <path d="M 140.262585 112.22107
L 142.263505 118.153719
L 136.316835 116.194866
z
" clip-path="url(#pc0a15b6b55)" style="fill: #6c757d; stroke: #6c757d; stroke-width: 1.4; stroke-linecap: round"/>
   </g>
   <g id="patch_9">
    <path d="M 319.7304 155.795473
L 378.6984 155.795473
Q 392.4576 155.795473 392.4576 142.133377
L 392.4576 114.809185
Q 392.4576 101.147089 378.6984 101.147089
L 319.7304 101.147089
Q 305.9712 101.147089 305.9712 114.809185
L 305.9712 142.133377
Q 305.9712 155.795473 319.7304 155.795473
z
" clip-path="url(#pc0a15b6b55)" style="fill: #f7f3e8; stroke: #263238; stroke-width: 1.3; stroke-linejoin: miter"/>
   </g>
   <g id="patch_10">
    <path d="M 347.324262 129.12408
Q 304.004755 144.085396 262.164744 158.535738
" clip-path="url(#pc0a15b6b55)" style="fill: none; stroke: #6c757d; stroke-width: 1.4; stroke-linecap: round"/>
    <path d="M 268.372005 159.354218
L 262.164744 158.535738
L 266.543885 154.061017
z
" clip-path="url(#pc0a15b6b55)" style="fill: #6c757d; stroke: #6c757d; stroke-width: 1.4; stroke-linecap: round"/>
   </g>
   <g id="patch_11">
    <path d="M 60.2712 241.671505
L 119.2392 241.671505
Q 132.9984 241.671505 132.9984 228.009409
L 132.9984 200.685217
Q 132.9984 187.023121 119.2392 187.023121
L 60.2712 187.023121
Q 46.512 187.023121 46.512 200.685217
L 46.512 228.009409
Q 46.512 241.671505 60.2712 241.671505
z
" clip-path="url(#pc0a15b6b55)" style="fill: #f7f3e8; stroke: #263238; stroke-width: 1.3; stroke-linejoin: miter"/>
   </g>
   <g id="patch_12">
    <path d="M 91.547322 215.23705
Q 132.998875 235.816557 173.048454 255.700024
" clip-path="url(#pc0a15b6b55)" style="fill: none; stroke: #6c757d; stroke-width: 1.4; stroke-linecap: round"/>
    <path d="M 169.277716 250.701871
L 173.048454 255.700024
L 166.787489 255.717723
z
" clip-path="url(#pc0a15b6b55)" style="fill: #6c757d; stroke: #6c757d; stroke-width: 1.4; stroke-linecap: round"/>
   </g>
   <g id="patch_13">
    <path d="M 300.0744 300.223345
L 359.0424 300.223345
Q 372.8016 300.223345 372.8016 286.561249
L 372.8016 259.237057
Q 372.8016 245.574961 359.0424 245.574961
L 300.0744 245.574961
Q 286.3152 245.574961 286.3152 259.237057
L 286.3152 286.561249
Q 286.3152 300.223345 300.0744 300.223345
z
" clip-path="url(#pc0a15b6b55)" style="fill: #f7f3e8; stroke: #263238; stroke-width: 1.3; stroke-linejoin: miter"/>
   </g>
   <g id="patch_14">
    <path d="M 327.751041 272.040864
Q 284.350466 251.430556 242.363805 231.491696
" clip-path="url(#pc0a15b6b55)" style="fill: none; stroke: #6c757d; stroke-width: 1.4; stroke-linecap: round"/>
    <path d="M 246.221261 236.423231
L 242.363805 231.491696
L 248.623507 231.364652
z
" clip-path="url(#pc0a15b6b55)" style="fill: #6c757d; stroke: #6c757d; stroke-width: 1.4; stroke-linecap: round"/>
   </g>
   <g id="line2d_1">
    <path d="M 144.792 124.567825
L 184.104 116.760913
" clip-path="url(#pc0a15b6b55)" style="fill: none; stroke: #263238; stroke-width: 2; stroke-linecap: round"/>
   </g>
   <g id="line2d_2">
    <path d="M 223.416 116.760913
L 262.728 124.567825
" clip-path="url(#pc0a15b6b55)" style="fill: none; stroke: #263238; stroke-width: 2; stroke-linecap: round"/>
   </g>
   <g id="line2d_3">
    <path d="M 203.76 171.409297
L 199.8288 210.443857
L 211.6224 210.443857
" clip-path="url(#pc0a15b6b55)" style="fill: none; stroke: #263238; stroke-width: 1.2; stroke-linecap: round"/>
   </g>
   <g id="line2d_4">
    <path d="M 172.3104 257.285329
L 235.2096 261.188785
" clip-path="url(#pc0a15b6b55)" style="fill: none; stroke: #b54a4a; stroke-width: 2; stroke-linecap: round"/>
   </g>
   <g id="text_1">
    <!-- Brows -->
    <g style="fill: #263238" transform="translate(91.866094 79.074231) scale(0.09 -0.09)">
     <defs>
      <path id="DejaVuSans-42" d="M 1259 2228
L 1259 519
L 2272 519
Q 2781 519 3026 730
Q 3272 941 3272 1375
Q 3272 1813 3026 2020
Q 2781 2228 2272 2228
L 1259 2228
z
M 1259 4147
L 1259 2741
L 2194 2741
Q 2656 2741 2882 2914
Q 3109 3088 3109 3444
Q 3109 3797 2882 3972
Q 2656 4147 2194 4147
L 1259 4147
z
M 628 4666
L 2241 4666
Q 2963 4666 3353 4366
Q 3744 4066 3744 3513
Q 3744 3084 3544 2831
Q 3344 2578 2956 2516
Q 3422 2416 3680 2098
Q 3938 1781 3938 1306
Q 3938 681 3513 340
Q 3088 0 2303 0
L 628 0
L 628 4666
z
" transform="scale(0.015625)"/>
      <path id="DejaVuSans-72" d="M 2631 2963
Q 2534 3019 2420 3045
Q 2306 3072 2169 3072
Q 1681 3072 1420 2755
Q 1159 2438 1159 1844
L 1159 0
L 581 0
L 581 3500
L 1159 3500
L 1159 2956
Q 1341 3275 1631 3429
Q 1922 3584 2338 3584
Q 2397 3584 2469 3576
Q 2541 3569 2628 3553
L 2631 2963
z
" transform="scale(0.015625)"/>
      <path id="DejaVuSans-6f" d="M 1959 3097
Q 1497 3097 1228 2736
Q 959 2375 959 1747
Q 959 1119 1226 758
Q 1494 397 1959 397
Q 2419 397 2687 759
Q 2956 1122 2956 1747
Q 2956 2369 2687 2733
Q 2419 3097 1959 3097
z
M 1959 3584
Q 2709 3584 3137 3096
Q 3566 2609 3566 1747
Q 3566 888 3137 398
Q 2709 -91 1959 -91
Q 1206 -91 779 398
Q 353 888 353 1747
Q 353 2609 779 3096
Q 1206 3584 1959 3584
z
" transform="scale(0.015625)"/>
      <path id="DejaVuSans-77" d="M 269 3500
L 844 3500
L 1563 769
L 2278 3500
L 2956 3500
L 3675 769
L 4391 3500
L 4966 3500
L 4050 0
L 3372 0
L 2619 2869
L 1863 0
L 1184 0
L 269 3500
z
" transform="scale(0.015625)"/>
      <path id="DejaVuSans-73" d="M 2834 3397
L 2834 2853
Q 2591 2978 2328 3040
Q 2066 3103 1784 3103
Q 1356 3103 1142 2972
Q 928 2841 928 2578
Q 928 2378 1081 2264
Q 1234 2150 1697 2047
L 1894 2003
Q 2506 1872 2764 1633
Q 3022 1394 3022 966
Q 3022 478 2636 193
Q 2250 -91 1575 -91
Q 1294 -91 989 -36
Q 684 19 347 128
L 347 722
Q 666 556 975 473
Q 1284 391 1588 391
Q 1994 391 2212 530
Q 2431 669 2431 922
Q 2431 1156 2273 1281
Q 2116 1406 1581 1522
L 1381 1569
Q 847 1681 609 1914
Q 372 2147 372 2553
Q 372 3047 722 3315
Q 1072 3584 1716 3584
Q 2034 3584 2315 3537
Q 2597 3491 2834 3397
z
" transform="scale(0.015625)"/>
     </defs>
     <use xlink:href="#DejaVuSans-42"/>
     <use xlink:href="#DejaVuSans-72" transform="translate(68.603516 0)"/>
     <use xlink:href="#DejaVuSans-6f" transform="translate(107.466797 0)"/>
     <use xlink:href="#DejaVuSans-77" transform="translate(168.648438 0)"/>
     <use xlink:href="#DejaVuSans-73" transform="translate(250.435547 0)"/>
    </g>
    <!-- AU1/AU2 -->
    <g style="fill: #263238" transform="translate(85.494375 89.152262) scale(0.09 -0.09)">
     <defs>
      <path id="DejaVuSans-41" d="M 2188 4044
L 1331 1722
L 3047 1722
L 2188 4044
z
M 1831 4666
L 2547 4666
L 4325 0
L 3669 0
L 3244 1197
L 1141 1197
L 716 0
L 50 0
L 1831 4666
z
" transform="scale(0.015625)"/>
      <path id="DejaVuSans-55" d="M 556 4666
L 1191 4666
L 1191 1831
Q 1191 1081 1462 751
Q 1734 422 2344 422
Q 2950 422 3222 751
Q 3494 1081 3494 1831
L 3494 4666
L 4128 4666
L 4128 1753
Q 4128 841 3676 375
Q 3225 -91 2344 -91
Q 1459 -91 1007 375
Q 556 841 556 1753
L 556 4666
z
" transform="scale(0.015625)"/>
      <path id="DejaVuSans-31" d="M 794 531
L 1825 531
L 1825 4091
L 703 3866
L 703 4441
L 1819 4666
L 2450 4666
L 2450 531
L 3481 531
L 3481 0
L 794 0
L 794 531
z
" transform="scale(0.015625)"/>
      <path id="DejaVuSans-2f" d="M 1625 4666
L 2156 4666
L 531 -594
L 0 -594
L 1625 4666
z
" transform="scale(0.015625)"/>
      <path id="DejaVuSans-32" d="M 1228 531
L 3431 531
L 3431 0
L 469 0
L 469 531
Q 828 903 1448 1529
Q 2069 2156 2228 2338
Q 2531 2678 2651 2914
Q 2772 3150 2772 3378
Q 2772 3750 2511 3984
Q 2250 4219 1831 4219
Q 1534 4219 1204 4116
Q 875 4013 500 3803
L 500 4441
Q 881 4594 1212 4672
Q 1544 4750 1819 4750
Q 2544 4750 2975 4387
Q 3406 4025 3406 3419
Q 3406 3131 3298 2873
Q 3191 2616 2906 2266
Q 2828 2175 2409 1742
Q 1991 1309 1228 531
z
" transform="scale(0.015625)"/>
     </defs>
     <use xlink:href="#DejaVuSans-41"/>
     <use xlink:href="#DejaVuSans-55" transform="translate(68.408203 0)"/>
     <use xlink:href="#DejaVuSans-31" transform="translate(141.601562 0)"/>
     <use xlink:href="#DejaVuSans-2f" transform="translate(205.224609 0)"/>
     <use xlink:href="#DejaVuSans-41" transform="translate(238.916016 0)"/>
     <use xlink:href="#DejaVuSans-55" transform="translate(307.324219 0)"/>
     <use xlink:href="#DejaVuSans-32" transform="translate(380.517578 0)"/>
    </g>
   </g>
   <g id="text_2">
    <!-- Eyes -->
    <g style="fill: #263238" transform="translate(338.5944 125.915703) scale(0.09 -0.09)">
     <defs>
      <path id="DejaVuSans-45" d="M 628 4666
L 3578 4666
L 3578 4134
L 1259 4134
L 1259 2753
L 3481 2753
L 3481 2222
L 1259 2222
L 1259 531
L 3634 531
L 3634 0
L 628 0
L 628 4666
z
" transform="scale(0.015625)"/>
      <path id="DejaVuSans-79" d="M 2059 -325
Q 1816 -950 1584 -1140
Q 1353 -1331 966 -1331
L 506 -1331
L 506 -850
L 844 -850
Q 1081 -850 1212 -737
Q 1344 -625 1503 -206
L 1606 56
L 191 3500
L 800 3500
L 1894 763
L 2988 3500
L 3597 3500
L 2059 -325
z
" transform="scale(0.015625)"/>
      <path id="DejaVuSans-65" d="M 3597 1894
L 3597 1613
L 953 1613
Q 991 1019 1311 708
Q 1631 397 2203 397
Q 2534 397 2845 478
Q 3156 559 3463 722
L 3463 178
Q 3153 47 2828 -22
Q 2503 -91 2169 -91
Q 1331 -91 842 396
Q 353 884 353 1716
Q 353 2575 817 3079
Q 1281 3584 2069 3584
Q 2775 3584 3186 3129
Q 3597 2675 3597 1894
z
M 3022 2063
Q 3016 2534 2758 2815
Q 2500 3097 2075 3097
Q 1594 3097 1305 2825
Q 1016 2553 972 2059
L 3022 2063
z
" transform="scale(0.015625)"/>
     </defs>
     <use xlink:href="#DejaVuSans-45"/>
     <use xlink:href="#DejaVuSans-79" transform="translate(63.183594 0)"/>
     <use xlink:href="#DejaVuSans-65" transform="translate(122.363281 0)"/>
     <use xlink:href="#DejaVuSans-73" transform="translate(183.886719 0)"/>
    </g>
    <!-- blink/gaze -->
    <g style="fill: #263238" transform="translate(326.138541 135.993734) scale(0.09 -0.09)">
     <defs>
      <path id="DejaVuSans-62" d="M 3116 1747
Q 3116 2381 2855 2742
Q 2594 3103 2138 3103
Q 1681 3103 1420 2742
Q 1159 2381 1159 1747
Q 1159 1113 1420 752
Q 1681 391 2138 391
Q 2594 391 2855 752
Q 3116 1113 3116 1747
z
M 1159 2969
Q 1341 3281 1617 3432
Q 1894 3584 2278 3584
Q 2916 3584 3314 3078
Q 3713 2572 3713 1747
Q 3713 922 3314 415
Q 2916 -91 2278 -91
Q 1894 -91 1617 61
Q 1341 213 1159 525
L 1159 0
L 581 0
L 581 4863
L 1159 4863
L 1159 2969
z
" transform="scale(0.015625)"/>
      <path id="DejaVuSans-6c" d="M 603 4863
L 1178 4863
L 1178 0
L 603 0
L 603 4863
z
" transform="scale(0.015625)"/>
      <path id="DejaVuSans-69" d="M 603 3500
L 1178 3500
L 1178 0
L 603 0
L 603 3500
z
M 603 4863
L 1178 4863
L 1178 4134
L 603 4134
L 603 4863
z
" transform="scale(0.015625)"/>
      <path id="DejaVuSans-6e" d="M 3513 2113
L 3513 0
L 2938 0
L 2938 2094
Q 2938 2591 2744 2837
Q 2550 3084 2163 3084
Q 1697 3084 1428 2787
Q 1159 2491 1159 1978
L 1159 0
L 581 0
L 581 3500
L 1159 3500
L 1159 2956
Q 1366 3272 1645 3428
Q 1925 3584 2291 3584
Q 2894 3584 3203 3211
Q 3513 2838 3513 2113
z
" transform="scale(0.015625)"/>
      <path id="DejaVuSans-6b" d="M 581 4863
L 1159 4863
L 1159 1991
L 2875 3500
L 3609 3500
L 1753 1863
L 3688 0
L 2938 0
L 1159 1709
L 1159 0
L 581 0
L 581 4863
z
" transform="scale(0.015625)"/>
      <path id="DejaVuSans-67" d="M 2906 1791
Q 2906 2416 2648 2759
Q 2391 3103 1925 3103
Q 1463 3103 1205 2759
Q 947 2416 947 1791
Q 947 1169 1205 825
Q 1463 481 1925 481
Q 2391 481 2648 825
Q 2906 1169 2906 1791
z
M 3481 434
Q 3481 -459 3084 -895
Q 2688 -1331 1869 -1331
Q 1566 -1331 1297 -1286
Q 1028 -1241 775 -1147
L 775 -588
Q 1028 -725 1275 -790
Q 1522 -856 1778 -856
Q 2344 -856 2625 -561
Q 2906 -266 2906 331
L 2906 616
Q 2728 306 2450 153
Q 2172 0 1784 0
Q 1141 0 747 490
Q 353 981 353 1791
Q 353 2603 747 3093
Q 1141 3584 1784 3584
Q 2172 3584 2450 3431
Q 2728 3278 2906 2969
L 2906 3500
L 3481 3500
L 3481 434
z
" transform="scale(0.015625)"/>
      <path id="DejaVuSans-61" d="M 2194 1759
Q 1497 1759 1228 1600
Q 959 1441 959 1056
Q 959 750 1161 570
Q 1363 391 1709 391
Q 2188 391 2477 730
Q 2766 1069 2766 1631
L 2766 1759
L 2194 1759
z
M 3341 1997
L 3341 0
L 2766 0
L 2766 531
Q 2569 213 2275 61
Q 1981 -91 1556 -91
Q 1019 -91 701 211
Q 384 513 384 1019
Q 384 1609 779 1909
Q 1175 2209 1959 2209
L 2766 2209
L 2766 2266
Q 2766 2663 2505 2880
Q 2244 3097 1772 3097
Q 1472 3097 1187 3025
Q 903 2953 641 2809
L 641 3341
Q 956 3463 1253 3523
Q 1550 3584 1831 3584
Q 2591 3584 2966 3190
Q 3341 2797 3341 1997
z
" transform="scale(0.015625)"/>
      <path id="DejaVuSans-7a" d="M 353 3500
L 3084 3500
L 3084 2975
L 922 459
L 3084 459
L 3084 0
L 275 0
L 275 525
L 2438 3041
L 353 3041
L 353 3500
z
" transform="scale(0.015625)"/>
     </defs>
     <use xlink:href="#DejaVuSans-62"/>
     <use xlink:href="#DejaVuSans-6c" transform="translate(63.476562 0)"/>
     <use xlink:href="#DejaVuSans-69" transform="translate(91.259766 0)"/>
     <use xlink:href="#DejaVuSans-6e" transform="translate(119.042969 0)"/>
     <use xlink:href="#DejaVuSans-6b" transform="translate(182.421875 0)"/>
     <use xlink:href="#DejaVuSans-2f" transform="translate(240.332031 0)"/>
     <use xlink:href="#DejaVuSans-67" transform="translate(274.023438 0)"/>
     <use xlink:href="#DejaVuSans-61" transform="translate(337.5 0)"/>
     <use xlink:href="#DejaVuSans-7a" transform="translate(398.779297 0)"/>
     <use xlink:href="#DejaVuSans-65" transform="translate(451.269531 0)"/>
    </g>
   </g>
   <g id="text_3">
    <!-- Mouth -->
    <g style="fill: #263238" transform="translate(75.651216 211.791735) scale(0.09 -0.09)">
     <defs>
      <path id="DejaVuSans-4d" d="M 628 4666
L 1569 4666
L 2759 1491
L 3956 4666
L 4897 4666
L 4897 0
L 4281 0
L 4281 4097
L 3078 897
L 2444 897
L 1241 4097
L 1241 0
L 628 0
L 628 4666
z
" transform="scale(0.015625)"/>
      <path id="DejaVuSans-75" d="M 544 1381
L 544 3500
L 1119 3500
L 1119 1403
Q 1119 906 1312 657
Q 1506 409 1894 409
Q 2359 409 2629 706
Q 2900 1003 2900 1516
L 2900 3500
L 3475 3500
L 3475 0
L 2900 0
L 2900 538
Q 2691 219 2414 64
Q 2138 -91 1772 -91
Q 1169 -91 856 284
Q 544 659 544 1381
z
M 1991 3584
L 1991 3584
z
" transform="scale(0.015625)"/>
      <path id="DejaVuSans-74" d="M 1172 4494
L 1172 3500
L 2356 3500
L 2356 3053
L 1172 3053
L 1172 1153
Q 1172 725 1289 603
Q 1406 481 1766 481
L 2356 481
L 2356 0
L 1766 0
Q 1100 0 847 248
Q 594 497 594 1153
L 594 3053
L 172 3053
L 172 3500
L 594 3500
L 594 4494
L 1172 4494
z
" transform="scale(0.015625)"/>
      <path id="DejaVuSans-68" d="M 3513 2113
L 3513 0
L 2938 0
L 2938 2094
Q 2938 2591 2744 2837
Q 2550 3084 2163 3084
Q 1697 3084 1428 2787
Q 1159 2491 1159 1978
L 1159 0
L 581 0
L 581 4863
L 1159 4863
L 1159 2956
Q 1366 3272 1645 3428
Q 1925 3584 2291 3584
Q 2894 3584 3203 3211
Q 3513 2838 3513 2113
z
" transform="scale(0.015625)"/>
     </defs>
     <use xlink:href="#DejaVuSans-4d"/>
     <use xlink:href="#DejaVuSans-6f" transform="translate(86.279297 0)"/>
     <use xlink:href="#DejaVuSans-75" transform="translate(147.460938 0)"/>
     <use xlink:href="#DejaVuSans-74" transform="translate(210.839844 0)"/>
     <use xlink:href="#DejaVuSans-68" transform="translate(250.048828 0)"/>
    </g>
    <!-- AU12/AU15 -->
    <g style="fill: #263238" transform="translate(64.043325 221.869766) scale(0.09 -0.09)">
     <defs>
      <path id="DejaVuSans-35" d="M 691 4666
L 3169 4666
L 3169 4134
L 1269 4134
L 1269 2991
Q 1406 3038 1543 3061
Q 1681 3084 1819 3084
Q 2600 3084 3056 2656
Q 3513 2228 3513 1497
Q 3513 744 3044 326
Q 2575 -91 1722 -91
Q 1428 -91 1123 -41
Q 819 9 494 109
L 494 744
Q 775 591 1075 516
Q 1375 441 1709 441
Q 2250 441 2565 725
Q 2881 1009 2881 1497
Q 2881 1984 2565 2268
Q 2250 2553 1709 2553
Q 1456 2553 1204 2497
Q 953 2441 691 2322
L 691 4666
z
" transform="scale(0.015625)"/>
     </defs>
     <use xlink:href="#DejaVuSans-41"/>
     <use xlink:href="#DejaVuSans-55" transform="translate(68.408203 0)"/>
     <use xlink:href="#DejaVuSans-31" transform="translate(141.601562 0)"/>
     <use xlink:href="#DejaVuSans-32" transform="translate(205.224609 0)"/>
     <use xlink:href="#DejaVuSans-2f" transform="translate(268.847656 0)"/>
     <use xlink:href="#DejaVuSans-41" transform="translate(302.539062 0)"/>
     <use xlink:href="#DejaVuSans-55" transform="translate(370.947266 0)"/>
     <use xlink:href="#DejaVuSans-31" transform="translate(444.140625 0)"/>
     <use xlink:href="#DejaVuSans-35" transform="translate(507.763672 0)"/>
    </g>
   </g>
   <g id="text_4">
    <!-- Head/face -->
    <g style="fill: #263238" transform="translate(306.689962 270.343575) scale(0.09 -0.09)">
     <defs>
      <path id="DejaVuSans-48" d="M 628 4666
L 1259 4666
L 1259 2753
L 3553 2753
L 3553 4666
L 4184 4666
L 4184 0
L 3553 0
L 3553 2222
L 1259 2222
L 1259 0
L 628 0
L 628 4666
z
" transform="scale(0.015625)"/>
      <path id="DejaVuSans-64" d="M 2906 2969
L 2906 4863
L 3481 4863
L 3481 0
L 2906 0
L 2906 525
Q 2725 213 2448 61
Q 2172 -91 1784 -91
Q 1150 -91 751 415
Q 353 922 353 1747
Q 353 2572 751 3078
Q 1150 3584 1784 3584
Q 2172 3584 2448 3432
Q 2725 3281 2906 2969
z
M 947 1747
Q 947 1113 1208 752
Q 1469 391 1925 391
Q 2381 391 2643 752
Q 2906 1113 2906 1747
Q 2906 2381 2643 2742
Q 2381 3103 1925 3103
Q 1469 3103 1208 2742
Q 947 2381 947 1747
z
" transform="scale(0.015625)"/>
      <path id="DejaVuSans-66" d="M 2375 4863
L 2375 4384
L 1825 4384
Q 1516 4384 1395 4259
Q 1275 4134 1275 3809
L 1275 3500
L 2222 3500
L 2222 3053
L 1275 3053
L 1275 0
L 697 0
L 697 3053
L 147 3053
L 147 3500
L 697 3500
L 697 3744
Q 697 4328 969 4595
Q 1241 4863 1831 4863
L 2375 4863
z
" transform="scale(0.015625)"/>
      <path id="DejaVuSans-63" d="M 3122 3366
L 3122 2828
Q 2878 2963 2633 3030
Q 2388 3097 2138 3097
Q 1578 3097 1268 2742
Q 959 2388 959 1747
Q 959 1106 1268 751
Q 1578 397 2138 397
Q 2388 397 2633 464
Q 2878 531 3122 666
L 3122 134
Q 2881 22 2623 -34
Q 2366 -91 2075 -91
Q 1284 -91 818 406
Q 353 903 353 1747
Q 353 2603 823 3093
Q 1294 3584 2113 3584
Q 2378 3584 2631 3529
Q 2884 3475 3122 3366
z
" transform="scale(0.015625)"/>
     </defs>
     <use xlink:href="#DejaVuSans-48"/>
     <use xlink:href="#DejaVuSans-65" transform="translate(75.195312 0)"/>
     <use xlink:href="#DejaVuSans-61" transform="translate(136.71875 0)"/>
     <use xlink:href="#DejaVuSans-64" transform="translate(197.998047 0)"/>
     <use xlink:href="#DejaVuSans-2f" transform="translate(261.474609 0)"/>
     <use xlink:href="#DejaVuSans-66" transform="translate(295.166016 0)"/>
     <use xlink:href="#DejaVuSans-61" transform="translate(330.371094 0)"/>
     <use xlink:href="#DejaVuSans-63" transform="translate(391.650391 0)"/>
     <use xlink:href="#DejaVuSans-65" transform="translate(446.630859 0)"/>
    </g>
    <!-- motion -->
    <g style="fill: #263238" transform="translate(313.802072 280.421606) scale(0.09 -0.09)">
     <defs>
      <path id="DejaVuSans-6d" d="M 3328 2828
Q 3544 3216 3844 3400
Q 4144 3584 4550 3584
Q 5097 3584 5394 3201
Q 5691 2819 5691 2113
L 5691 0
L 5113 0
L 5113 2094
Q 5113 2597 4934 2840
Q 4756 3084 4391 3084
Q 3944 3084 3684 2787
Q 3425 2491 3425 1978
L 3425 0
L 2847 0
L 2847 2094
Q 2847 2600 2669 2842
Q 2491 3084 2119 3084
Q 1678 3084 1418 2786
Q 1159 2488 1159 1978
L 1159 0
L 581 0
L 581 3500
L 1159 3500
L 1159 2956
Q 1356 3278 1631 3431
Q 1906 3584 2284 3584
Q 2666 3584 2933 3390
Q 3200 3197 3328 2828
z
" transform="scale(0.015625)"/>
     </defs>
     <use xlink:href="#DejaVuSans-6d"/>
     <use xlink:href="#DejaVuSans-6f" transform="translate(97.412109 0)"/>
     <use xlink:href="#DejaVuSans-74" transform="translate(158.59375 0)"/>
     <use xlink:href="#DejaVuSans-69" transform="translate(197.802734 0)"/>
     <use xlink:href="#DejaVuSans-6f" transform="translate(225.585938 0)"/>
     <use xlink:href="#DejaVuSans-6e" transform="translate(286.767578 0)"/>
    </g>
   </g>
   <g id="text_5">
    <!-- Facial Regions Used by Micro-Expression Cues -->
    <g style="fill: #262626" transform="translate(34.399453 17.077969) scale(0.13 -0.13)">
     <defs>
      <path id="DejaVuSans-Bold-46" d="M 588 4666
L 3834 4666
L 3834 3756
L 1791 3756
L 1791 2888
L 3713 2888
L 3713 1978
L 1791 1978
L 1791 0
L 588 0
L 588 4666
z
" transform="scale(0.015625)"/>
      <path id="DejaVuSans-Bold-61" d="M 2106 1575
Q 1756 1575 1579 1456
Q 1403 1338 1403 1106
Q 1403 894 1545 773
Q 1688 653 1941 653
Q 2256 653 2472 879
Q 2688 1106 2688 1447
L 2688 1575
L 2106 1575
z
M 3816 1997
L 3816 0
L 2688 0
L 2688 519
Q 2463 200 2181 54
Q 1900 -91 1497 -91
Q 953 -91 614 226
Q 275 544 275 1050
Q 275 1666 698 1953
Q 1122 2241 2028 2241
L 2688 2241
L 2688 2328
Q 2688 2594 2478 2717
Q 2269 2841 1825 2841
Q 1466 2841 1156 2769
Q 847 2697 581 2553
L 581 3406
Q 941 3494 1303 3539
Q 1666 3584 2028 3584
Q 2975 3584 3395 3211
Q 3816 2838 3816 1997
z
" transform="scale(0.015625)"/>
      <path id="DejaVuSans-Bold-63" d="M 3366 3391
L 3366 2478
Q 3138 2634 2908 2709
Q 2678 2784 2431 2784
Q 1963 2784 1702 2511
Q 1441 2238 1441 1747
Q 1441 1256 1702 982
Q 1963 709 2431 709
Q 2694 709 2930 787
Q 3166 866 3366 1019
L 3366 103
Q 3103 6 2833 -42
Q 2563 -91 2291 -91
Q 1344 -91 809 395
Q 275 881 275 1747
Q 275 2613 809 3098
Q 1344 3584 2291 3584
Q 2566 3584 2833 3536
Q 3100 3488 3366 3391
z
" transform="scale(0.015625)"/>
      <path id="DejaVuSans-Bold-69" d="M 538 3500
L 1656 3500
L 1656 0
L 538 0
L 538 3500
z
M 538 4863
L 1656 4863
L 1656 3950
L 538 3950
L 538 4863
z
" transform="scale(0.015625)"/>
      <path id="DejaVuSans-Bold-6c" d="M 538 4863
L 1656 4863
L 1656 0
L 538 0
L 538 4863
z
" transform="scale(0.015625)"/>
      <path id="DejaVuSans-Bold-20" transform="scale(0.015625)"/>
      <path id="DejaVuSans-Bold-52" d="M 2297 2597
Q 2675 2597 2839 2737
Q 3003 2878 3003 3200
Q 3003 3519 2839 3656
Q 2675 3794 2297 3794
L 1791 3794
L 1791 2597
L 2297 2597
z
M 1791 1766
L 1791 0
L 588 0
L 588 4666
L 2425 4666
Q 3347 4666 3776 4356
Q 4206 4047 4206 3378
Q 4206 2916 3982 2619
Q 3759 2322 3309 2181
Q 3556 2125 3751 1926
Q 3947 1728 4147 1325
L 4800 0
L 3519 0
L 2950 1159
Q 2778 1509 2601 1637
Q 2425 1766 2131 1766
L 1791 1766
z
" transform="scale(0.015625)"/>
      <path id="DejaVuSans-Bold-65" d="M 4031 1759
L 4031 1441
L 1416 1441
Q 1456 1047 1700 850
Q 1944 653 2381 653
Q 2734 653 3104 758
Q 3475 863 3866 1075
L 3866 213
Q 3469 63 3072 -14
Q 2675 -91 2278 -91
Q 1328 -91 801 392
Q 275 875 275 1747
Q 275 2603 792 3093
Q 1309 3584 2216 3584
Q 3041 3584 3536 3087
Q 4031 2591 4031 1759
z
M 2881 2131
Q 2881 2450 2695 2645
Q 2509 2841 2209 2841
Q 1884 2841 1681 2658
Q 1478 2475 1428 2131
L 2881 2131
z
" transform="scale(0.015625)"/>
      <path id="DejaVuSans-Bold-67" d="M 2919 594
Q 2688 288 2409 144
Q 2131 0 1766 0
Q 1125 0 706 504
Q 288 1009 288 1791
Q 288 2575 706 3076
Q 1125 3578 1766 3578
Q 2131 3578 2409 3434
Q 2688 3291 2919 2981
L 2919 3500
L 4044 3500
L 4044 353
Q 4044 -491 3511 -936
Q 2978 -1381 1966 -1381
Q 1638 -1381 1331 -1331
Q 1025 -1281 716 -1178
L 716 -306
Q 1009 -475 1290 -558
Q 1572 -641 1856 -641
Q 2406 -641 2662 -400
Q 2919 -159 2919 353
L 2919 594
z
M 2181 2772
Q 1834 2772 1640 2515
Q 1447 2259 1447 1791
Q 1447 1309 1634 1061
Q 1822 813 2181 813
Q 2531 813 2725 1069
Q 2919 1325 2919 1791
Q 2919 2259 2725 2515
Q 2531 2772 2181 2772
z
" transform="scale(0.015625)"/>
      <path id="DejaVuSans-Bold-6f" d="M 2203 2784
Q 1831 2784 1636 2517
Q 1441 2250 1441 1747
Q 1441 1244 1636 976
Q 1831 709 2203 709
Q 2569 709 2762 976
Q 2956 1244 2956 1747
Q 2956 2250 2762 2517
Q 2569 2784 2203 2784
z
M 2203 3584
Q 3106 3584 3614 3096
Q 4122 2609 4122 1747
Q 4122 884 3614 396
Q 3106 -91 2203 -91
Q 1297 -91 786 396
Q 275 884 275 1747
Q 275 2609 786 3096
Q 1297 3584 2203 3584
z
" transform="scale(0.015625)"/>
      <path id="DejaVuSans-Bold-6e" d="M 4056 2131
L 4056 0
L 2931 0
L 2931 347
L 2931 1631
Q 2931 2084 2911 2256
Q 2891 2428 2841 2509
Q 2775 2619 2662 2680
Q 2550 2741 2406 2741
Q 2056 2741 1856 2470
Q 1656 2200 1656 1722
L 1656 0
L 538 0
L 538 3500
L 1656 3500
L 1656 2988
Q 1909 3294 2193 3439
Q 2478 3584 2822 3584
Q 3428 3584 3742 3212
Q 4056 2841 4056 2131
z
" transform="scale(0.015625)"/>
      <path id="DejaVuSans-Bold-73" d="M 3272 3391
L 3272 2541
Q 2913 2691 2578 2766
Q 2244 2841 1947 2841
Q 1628 2841 1473 2761
Q 1319 2681 1319 2516
Q 1319 2381 1436 2309
Q 1553 2238 1856 2203
L 2053 2175
Q 2913 2066 3209 1816
Q 3506 1566 3506 1031
Q 3506 472 3093 190
Q 2681 -91 1863 -91
Q 1516 -91 1145 -36
Q 775 19 384 128
L 384 978
Q 719 816 1070 734
Q 1422 653 1784 653
Q 2113 653 2278 743
Q 2444 834 2444 1013
Q 2444 1163 2330 1236
Q 2216 1309 1875 1350
L 1678 1375
Q 931 1469 631 1722
Q 331 1975 331 2491
Q 331 3047 712 3315
Q 1094 3584 1881 3584
Q 2191 3584 2531 3537
Q 2872 3491 3272 3391
z
" transform="scale(0.015625)"/>
      <path id="DejaVuSans-Bold-55" d="M 588 4666
L 1791 4666
L 1791 1869
Q 1791 1291 1980 1042
Q 2169 794 2597 794
Q 3028 794 3217 1042
Q 3406 1291 3406 1869
L 3406 4666
L 4609 4666
L 4609 1869
Q 4609 878 4112 393
Q 3616 -91 2597 -91
Q 1581 -91 1084 393
Q 588 878 588 1869
L 588 4666
z
" transform="scale(0.015625)"/>
      <path id="DejaVuSans-Bold-64" d="M 2919 2988
L 2919 4863
L 4044 4863
L 4044 0
L 2919 0
L 2919 506
Q 2688 197 2409 53
Q 2131 -91 1766 -91
Q 1119 -91 703 423
Q 288 938 288 1747
Q 288 2556 703 3070
Q 1119 3584 1766 3584
Q 2128 3584 2408 3439
Q 2688 3294 2919 2988
z
M 2181 722
Q 2541 722 2730 984
Q 2919 1247 2919 1747
Q 2919 2247 2730 2509
Q 2541 2772 2181 2772
Q 1825 2772 1636 2509
Q 1447 2247 1447 1747
Q 1447 1247 1636 984
Q 1825 722 2181 722
z
" transform="scale(0.015625)"/>
      <path id="DejaVuSans-Bold-62" d="M 2400 722
Q 2759 722 2948 984
Q 3138 1247 3138 1747
Q 3138 2247 2948 2509
Q 2759 2772 2400 2772
Q 2041 2772 1848 2508
Q 1656 2244 1656 1747
Q 1656 1250 1848 986
Q 2041 722 2400 722
z
M 1656 2988
Q 1888 3294 2169 3439
Q 2450 3584 2816 3584
Q 3463 3584 3878 3070
Q 4294 2556 4294 1747
Q 4294 938 3878 423
Q 3463 -91 2816 -91
Q 2450 -91 2169 54
Q 1888 200 1656 506
L 1656 0
L 538 0
L 538 4863
L 1656 4863
L 1656 2988
z
" transform="scale(0.015625)"/>
      <path id="DejaVuSans-Bold-79" d="M 78 3500
L 1197 3500
L 2138 1125
L 2938 3500
L 4056 3500
L 2584 -331
Q 2363 -916 2067 -1148
Q 1772 -1381 1288 -1381
L 641 -1381
L 641 -647
L 991 -647
Q 1275 -647 1404 -556
Q 1534 -466 1606 -231
L 1638 -134
L 78 3500
z
" transform="scale(0.015625)"/>
      <path id="DejaVuSans-Bold-4d" d="M 588 4666
L 2119 4666
L 3181 2169
L 4250 4666
L 5778 4666
L 5778 0
L 4641 0
L 4641 3413
L 3566 897
L 2803 897
L 1728 3413
L 1728 0
L 588 0
L 588 4666
z
" transform="scale(0.015625)"/>
      <path id="DejaVuSans-Bold-72" d="M 3138 2547
Q 2991 2616 2845 2648
Q 2700 2681 2553 2681
Q 2122 2681 1889 2404
Q 1656 2128 1656 1613
L 1656 0
L 538 0
L 538 3500
L 1656 3500
L 1656 2925
Q 1872 3269 2151 3426
Q 2431 3584 2822 3584
Q 2878 3584 2943 3579
Q 3009 3575 3134 3559
L 3138 2547
z
" transform="scale(0.015625)"/>
      <path id="DejaVuSans-Bold-2d" d="M 347 2297
L 2309 2297
L 2309 1388
L 347 1388
L 347 2297
z
" transform="scale(0.015625)"/>
      <path id="DejaVuSans-Bold-45" d="M 588 4666
L 3834 4666
L 3834 3756
L 1791 3756
L 1791 2888
L 3713 2888
L 3713 1978
L 1791 1978
L 1791 909
L 3903 909
L 3903 0
L 588 0
L 588 4666
z
" transform="scale(0.015625)"/>
      <path id="DejaVuSans-Bold-78" d="M 1422 1791
L 159 3500
L 1344 3500
L 2059 2463
L 2784 3500
L 3969 3500
L 2706 1797
L 4031 0
L 2847 0
L 2059 1106
L 1281 0
L 97 0
L 1422 1791
z
" transform="scale(0.015625)"/>
      <path id="DejaVuSans-Bold-70" d="M 1656 506
L 1656 -1331
L 538 -1331
L 538 3500
L 1656 3500
L 1656 2988
Q 1888 3294 2169 3439
Q 2450 3584 2816 3584
Q 3463 3584 3878 3070
Q 4294 2556 4294 1747
Q 4294 938 3878 423
Q 3463 -91 2816 -91
Q 2450 -91 2169 54
Q 1888 200 1656 506
z
M 2400 2772
Q 2041 2772 1848 2508
Q 1656 2244 1656 1747
Q 1656 1250 1848 986
Q 2041 722 2400 722
Q 2759 722 2948 984
Q 3138 1247 3138 1747
Q 3138 2247 2948 2509
Q 2759 2772 2400 2772
z
" transform="scale(0.015625)"/>
      <path id="DejaVuSans-Bold-43" d="M 4288 256
Q 3956 84 3597 -3
Q 3238 -91 2847 -91
Q 1681 -91 1000 561
Q 319 1213 319 2328
Q 319 3447 1000 4098
Q 1681 4750 2847 4750
Q 3238 4750 3597 4662
Q 3956 4575 4288 4403
L 4288 3438
Q 3953 3666 3628 3772
Q 3303 3878 2944 3878
Q 2300 3878 1931 3465
Q 1563 3053 1563 2328
Q 1563 1606 1931 1193
Q 2300 781 2944 781
Q 3303 781 3628 887
Q 3953 994 4288 1222
L 4288 256
z
" transform="scale(0.015625)"/>
      <path id="DejaVuSans-Bold-75" d="M 500 1363
L 500 3500
L 1625 3500
L 1625 3150
Q 1625 2866 1622 2436
Q 1619 2006 1619 1863
Q 1619 1441 1641 1255
Q 1663 1069 1716 984
Q 1784 875 1895 815
Q 2006 756 2150 756
Q 2500 756 2700 1025
Q 2900 1294 2900 1772
L 2900 3500
L 4019 3500
L 4019 0
L 2900 0
L 2900 506
Q 2647 200 2364 54
Q 2081 -91 1741 -91
Q 1134 -91 817 281
Q 500 653 500 1363
z
" transform="scale(0.015625)"/>
     </defs>
     <use xlink:href="#DejaVuSans-Bold-46"/>
     <use xlink:href="#DejaVuSans-Bold-61" transform="translate(62.435547 0)"/>
     <use xlink:href="#DejaVuSans-Bold-63" transform="translate(129.916016 0)"/>
     <use xlink:href="#DejaVuSans-Bold-69" transform="translate(189.193359 0)"/>
     <use xlink:href="#DejaVuSans-Bold-61" transform="translate(223.470703 0)"/>
     <use xlink:href="#DejaVuSans-Bold-6c" transform="translate(290.951172 0)"/>
     <use xlink:href="#DejaVuSans-Bold-20" transform="translate(325.228516 0)"/>
     <use xlink:href="#DejaVuSans-Bold-52" transform="translate(360.042969 0)"/>
     <use xlink:href="#DejaVuSans-Bold-65" transform="translate(437.044922 0)"/>
     <use xlink:href="#DejaVuSans-Bold-67" transform="translate(504.867188 0)"/>
     <use xlink:href="#DejaVuSans-Bold-69" transform="translate(576.449219 0)"/>
     <use xlink:href="#DejaVuSans-Bold-6f" transform="translate(610.726562 0)"/>
     <use xlink:href="#DejaVuSans-Bold-6e" transform="translate(679.427734 0)"/>
     <use xlink:href="#DejaVuSans-Bold-73" transform="translate(750.619141 0)"/>
     <use xlink:href="#DejaVuSans-Bold-20" transform="translate(810.140625 0)"/>
     <use xlink:href="#DejaVuSans-Bold-55" transform="translate(844.955078 0)"/>
     <use xlink:href="#DejaVuSans-Bold-73" transform="translate(926.15625 0)"/>
     <use xlink:href="#DejaVuSans-Bold-65" transform="translate(985.677734 0)"/>
     <use xlink:href="#DejaVuSans-Bold-64" transform="translate(1053.5 0)"/>
     <use xlink:href="#DejaVuSans-Bold-20" transform="translate(1125.082031 0)"/>
     <use xlink:href="#DejaVuSans-Bold-62" transform="translate(1159.896484 0)"/>
     <use xlink:href="#DejaVuSans-Bold-79" transform="translate(1231.478516 0)"/>
     <use xlink:href="#DejaVuSans-Bold-20" transform="translate(1296.664062 0)"/>
     <use xlink:href="#DejaVuSans-Bold-4d" transform="translate(1331.478516 0)"/>
     <use xlink:href="#DejaVuSans-Bold-69" transform="translate(1430.990234 0)"/>
     <use xlink:href="#DejaVuSans-Bold-63" transform="translate(1465.267578 0)"/>
     <use xlink:href="#DejaVuSans-Bold-72" transform="translate(1524.544922 0)"/>
     <use xlink:href="#DejaVuSans-Bold-6f" transform="translate(1573.861328 0)"/>
     <use xlink:href="#DejaVuSans-Bold-2d" transform="translate(1642.5625 0)"/>
     <use xlink:href="#DejaVuSans-Bold-45" transform="translate(1684.066406 0)"/>
     <use xlink:href="#DejaVuSans-Bold-78" transform="translate(1752.376953 0)"/>
     <use xlink:href="#DejaVuSans-Bold-70" transform="translate(1816.878906 0)"/>
     <use xlink:href="#DejaVuSans-Bold-72" transform="translate(1888.460938 0)"/>
     <use xlink:href="#DejaVuSans-Bold-65" transform="translate(1937.777344 0)"/>
     <use xlink:href="#DejaVuSans-Bold-73" transform="translate(2005.599609 0)"/>
     <use xlink:href="#DejaVuSans-Bold-73" transform="translate(2065.121094 0)"/>
     <use xlink:href="#DejaVuSans-Bold-69" transform="translate(2124.642578 0)"/>
     <use xlink:href="#DejaVuSans-Bold-6f" transform="translate(2158.919922 0)"/>
     <use xlink:href="#DejaVuSans-Bold-6e" transform="translate(2227.621094 0)"/>
     <use xlink:href="#DejaVuSans-Bold-20" transform="translate(2298.8125 0)"/>
     <use xlink:href="#DejaVuSans-Bold-43" transform="translate(2333.626953 0)"/>
     <use xlink:href="#DejaVuSans-Bold-75" transform="translate(2407.015625 0)"/>
     <use xlink:href="#DejaVuSans-Bold-65" transform="translate(2478.207031 0)"/>
     <use xlink:href="#DejaVuSans-Bold-73" transform="translate(2546.029297 0)"/>
    </g>
   </g>
  </g>
 </g>
 <defs>
  <clipPath id="pc0a15b6b55">
   <rect x="7.2" y="7.464145" width="393.12" height="390.3456"/>
  </clipPath>
 </defs>
</svg>
