<?xml version="1.0" encoding="utf-8" standalone="no"?>
<!DOCTYPE svg PUBLIC "-//W3C//DTD SVG 1.1//EN"
  "http://www.w3.org/Graphics/SVG/1.1/DTD/svg11.dtd">
<svg xmlns:xlink="http://www.w3.org/1999/xlink" width="839.52pt" height="263.52pt" viewBox="0 0 839.52 263.52" xmlns="http://www.w3.org/2000/svg" version="1.1">
 <metadata>
  <rdf:RDF xmlns:dc="http://purl.org/dc/elements/1.1/" xmlns:cc="http://creativecommons.org/ns#" xmlns:rdf="http://www.w3.org/1999/02/22-rdf-syntax-ns#">
   <cc:Work>
    <dc:type rdf:resource="http://purl.org/dc/dcmitype/StillImage"/>
    <dc:date>2026-05-21T22:19:05.991965</dc:date>
    <dc:format>image/svg+xml</dc:format>
    <dc:creator>
     <cc:Agent>
      <dc:title>Matplotlib v3.10.9, https://matplotlib.org/</dc:title>
     </cc:Agent>
    </dc:creator>
   </cc:Work>
  </rdf:RDF>
 </metadata>
 <defs>
  <style type="text/css">*{stroke-linejoin: round; stroke-linecap: butt}</style>
 </defs>
 <g id="figure_1">
  <g id="patch_1">
   <path d="M 0 263.52
L 839.52 263.52
L 839.52 0
L 0 0
z
" style="fill: #ffffff"/>
  </g>
  <g id="axes_1">
   <g id="patch_2">
    <path d="M 85.5864 106.848
L 242.3592 106.848
Q 271.2384 106.848 271.2384 98.1288
L 271.2384 75.708
Q 271.2384 66.9888 242.3592 66.9888
L 85.5864 66.9888
Q 56.7072 66.9888 56.7072 75.708
L 56.7072 98.1288
Q 56.7072 106.848 85.5864 106.848
z
" clip-path="url(#p444513bfaf)" style="fill: #e8f2fa; stroke: #263238; stroke-width: 1.3; stroke-linejoin: miter"/>
   </g>
   <g id="patch_3">
    <path d="M 85.5864 191.5488
L 242.3592 191.5488
Q 271.2384 191.5488 271.2384 182.8296
L 271.2384 160.4088
Q 271.2384 151.6896 242.3592 151.6896
L 85.5864 151.6896
Q 56.7072 151.6896 56.7072 160.4088
L 56.7072 182.8296
Q 56.7072 191.5488 85.5864 191.5488
z
" clip-path="url(#p444513bfaf)" style="fill: #fff1e6; stroke: #263238; stroke-width: 1.3; stroke-linejoin: miter"/>
   </g>
   <g id="patch_4">
    <path d="M 374.3784 154.1808
L 531.1512 154.1808
Q 560.0304 154.1808 560.0304 145.4616
L 560.0304 113.076
Q 560.0304 104.3568 531.1512 104.3568
L 374.3784 104.3568
Q 345.4992 104.3568 345.4992 113.076
L 345.4992 145.4616
Q 345.4992 154.1808 374.3784 154.1808
z
" clip-path="url(#p444513bfaf)" style="fill: #f4eef8; stroke: #263238; stroke-width: 1.3; stroke-linejoin: miter"/>
   </g>
   <g id="patch_5">
    <path d="M 663.1704 154.1808
L 770.436 154.1808
Q 799.3152 154.1808 799.3152 145.4616
L 799.3152 113.076
Q 799.3152 104.3568 770.436 104.3568
L 663.1704 104.3568
Q 634.2912 104.3568 634.2912 113.076
L 634.2912 145.4616
Q 634.2912 154.1808 663.1704 154.1808
z
" clip-path="url(#p444513bfaf)" style="fill: #eaf6ea; stroke: #263238; stroke-width: 1.3; stroke-linejoin: miter"/>
   </g>
   <g id="patch_6">
    <path d="M 256.624802 87.5764
Q 308.36935 105.602592 358.635777 123.113852
" clip-path="url(#p444513bfaf)" style="fill: none; stroke: #263238; stroke-width: 1.4; stroke-linecap: round"/>
    <path d="M 354.268624 118.62743
L 358.635777 123.113852
L 352.426348 123.915721
z
" clip-path="url(#p444513bfaf)" style="fill: #263238; stroke: #263238; stroke-width: 1.4; stroke-linecap: round"/>
   </g>
   <g id="patch_7">
    <path d="M 256.624802 170.9612
Q 308.36935 152.935008 358.635777 135.423748
" clip-path="url(#p444513bfaf)" style="fill: none; stroke: #263238; stroke-width: 1.4; stroke-linecap: round"/>
    <path d="M 352.426348 134.621879
L 358.635777 135.423748
L 354.268624 139.91017
z
" clip-path="url(#p444513bfaf)" style="fill: #263238; stroke: #263238; stroke-width: 1.4; stroke-linecap: round"/>
   </g>
   <g id="patch_8">
    <path d="M 545.5281 129.2688
Q 597.160172 129.2688 647.226997 129.2688
" clip-path="url(#p444513bfaf)" style="fill: none; stroke: #263238; stroke-width: 1.4; stroke-linecap: round"/>
    <path d="M 641.626997 126.4688
L 647.226997 129.2688
L 641.626997 132.0688
z
" clip-path="url(#p444513bfaf)" style="fill: #263238; stroke: #263238; stroke-width: 1.4; stroke-linecap: round"/>
   </g>
   <g id="text_1">
    <!-- Cross-attention -->
    <g style="fill: #263238" transform="translate(125.658737 84.078869) scale(0.1 -0.1)">
     <defs>
      <path id="DejaVuSans-43" d="M 4122 4306
L 4122 3641
Q 3803 3938 3442 4084
Q 3081 4231 2675 4231
Q 1875 4231 1450 3742
Q 1025 3253 1025 2328
Q 1025 1406 1450 917
Q 1875 428 2675 428
Q 3081 428 3442 575
Q 3803 722 4122 1019
L 4122 359
Q 3791 134 3420 21
Q 3050 -91 2638 -91
Q 1578 -91 968 557
Q 359 1206 359 2328
Q 359 3453 968 4101
Q 1578 4750 2638 4750
Q 3056 4750 3426 4639
Q 3797 4528 4122 4306
z
" transform="scale(0.015625)"/>
      <path id="DejaVuSans-72" d="M 2631 2963
Q 2534 3019 2420 3045
Q 2306 3072 2169 3072
Q 1681 3072 1420 2755
Q 1159 2438 1159 1844
L 1159 0
L 581 0
L 581 3500
L 1159 3500
L 1159 2956
Q 1341 3275 1631 3429
Q 1922 3584 2338 3584
Q 2397 3584 2469 3576
Q 2541 3569 2628 3553
L 2631 2963
z
" transform="scale(0.015625)"/>
      <path id="DejaVuSans-6f" d="M 1959 3097
Q 1497 3097 1228 2736
Q 959 2375 959 1747
Q 959 1119 1226 758
Q 1494 397 1959 397
Q 2419 397 2687 759
Q 2956 1122 2956 1747
Q 2956 2369 2687 2733
Q 2419 3097 1959 3097
z
M 1959 3584
Q 2709 3584 3137 3096
Q 3566 2609 3566 1747
Q 3566 888 3137 398
Q 2709 -91 1959 -91
Q 1206 -91 779 398
Q 353 888 353 1747
Q 353 2609 779 3096
Q 1206 3584 1959 3584
z
" transform="scale(0.015625)"/>
      <path id="DejaVuSans-73" d="M 2834 3397
L 2834 2853
Q 2591 2978 2328 3040
Q 2066 3103 1784 3103
Q 1356 3103 1142 2972
Q 928 2841 928 2578
Q 928 2378 1081 2264
Q 1234 2150 1697 2047
L 1894 2003
Q 2506 1872 2764 1633
Q 3022 1394 3022 966
Q 3022 478 2636 193
Q 2250 -91 1575 -91
Q 1294 -91 989 -36
Q 684 19 347 128
L 347 722
Q 666 556 975 473
Q 1284 391 1588 391
Q 1994 391 2212 530
Q 2431 669 2431 922
Q 2431 1156 2273 1281
Q 2116 1406 1581 1522
L 1381 1569
Q 847 1681 609 1914
Q 372 2147 372 2553
Q 372 3047 722 3315
Q 1072 3584 1716 3584
Q 2034 3584 2315 3537
Q 2597 3491 2834 3397
z
" transform="scale(0.015625)"/>
      <path id="DejaVuSans-2d" d="M 313 2009
L 1997 2009
L 1997 1497
L 313 1497
L 313 2009
z
" transform="scale(0.015625)"/>
      <path id="DejaVuSans-61" d="M 2194 1759
Q 1497 1759 1228 1600
Q 959 1441 959 1056
Q 959 750 1161 570
Q 1363 391 1709 391
Q 2188 391 2477 730
Q 2766 1069 2766 1631
L 2766 1759
L 2194 1759
z
M 3341 1997
L 3341 0
L 2766 0
L 2766 531
Q 2569 213 2275 61
Q 1981 -91 1556 -91
Q 1019 -91 701 211
Q 384 513 384 1019
Q 384 1609 779 1909
Q 1175 2209 1959 2209
L 2766 2209
L 2766 2266
Q 2766 2663 2505 2880
Q 2244 3097 1772 3097
Q 1472 3097 1187 3025
Q 903 2953 641 2809
L 641 3341
Q 956 3463 1253 3523
Q 1550 3584 1831 3584
Q 2591 3584 2966 3190
Q 3341 2797 3341 1997
z
" transform="scale(0.015625)"/>
      <path id="DejaVuSans-74" d="M 1172 4494
L 1172 3500
L 2356 3500
L 2356 3053
L 1172 3053
L 1172 1153
Q 1172 725 1289 603
Q 1406 481 1766 481
L 2356 481
L 2356 0
L 1766 0
Q 1100 0 847 248
Q 594 497 594 1153
L 594 3053
L 172 3053
L 172 3500
L 594 3500
L 594 4494
L 1172 4494
z
" transform="scale(0.015625)"/>
      <path id="DejaVuSans-65" d="M 3597 1894
L 3597 1613
L 953 1613
Q 991 1019 1311 708
Q 1631 397 2203 397
Q 2534 397 2845 478
Q 3156 559 3463 722
L 3463 178
Q 3153 47 2828 -22
Q 2503 -91 2169 -91
Q 1331 -91 842 396
Q 353 884 353 1716
Q 353 2575 817 3079
Q 1281 3584 2069 3584
Q 2775 3584 3186 3129
Q 3597 2675 3597 1894
z
M 3022 2063
Q 3016 2534 2758 2815
Q 2500 3097 2075 3097
Q 1594 3097 1305 2825
Q 1016 2553 972 2059
L 3022 2063
z
" transform="scale(0.015625)"/>
      <path id="DejaVuSans-6e" d="M 3513 2113
L 3513 0
L 2938 0
L 2938 2094
Q 2938 2591 2744 2837
Q 2550 3084 2163 3084
Q 1697 3084 1428 2787
Q 1159 2491 1159 1978
L 1159 0
L 581 0
L 581 3500
L 1159 3500
L 1159 2956
Q 1366 3272 1645 3428
Q 1925 3584 2291 3584
Q 2894 3584 3203 3211
Q 3513 2838 3513 2113
z
" transform="scale(0.015625)"/>
      <path id="DejaVuSans-69" d="M 603 3500
L 1178 3500
L 1178 0
L 603 0
L 603 3500
z
M 603 4863
L 1178 4863
L 1178 4134
L 603 4134
L 603 4863
z
" transform="scale(0.015625)"/>
     </defs>
     <use xlink:href="#DejaVuSans-43"/>
     <use xlink:href="#DejaVuSans-72" transform="translate(69.824219 0)"/>
     <use xlink:href="#DejaVuSans-6f" transform="translate(108.6875 0)"/>
     <use xlink:href="#DejaVuSans-73" transform="translate(169.869141 0)"/>
     <use xlink:href="#DejaVuSans-73" transform="translate(221.96875 0)"/>
     <use xlink:href="#DejaVuSans-2d" transform="translate(274.068359 0)"/>
     <use xlink:href="#DejaVuSans-61" transform="translate(310.152344 0)"/>
     <use xlink:href="#DejaVuSans-74" transform="translate(371.431641 0)"/>
     <use xlink:href="#DejaVuSans-74" transform="translate(410.640625 0)"/>
     <use xlink:href="#DejaVuSans-65" transform="translate(449.849609 0)"/>
     <use xlink:href="#DejaVuSans-6e" transform="translate(511.373047 0)"/>
     <use xlink:href="#DejaVuSans-74" transform="translate(574.751953 0)"/>
     <use xlink:href="#DejaVuSans-69" transform="translate(613.960938 0)"/>
     <use xlink:href="#DejaVuSans-6f" transform="translate(641.744141 0)"/>
     <use xlink:href="#DejaVuSans-6e" transform="translate(702.925781 0)"/>
    </g>
    <!-- score -->
    <g style="fill: #263238" transform="translate(150.539987 95.276681) scale(0.1 -0.1)">
     <defs>
      <path id="DejaVuSans-63" d="M 3122 3366
L 3122 2828
Q 2878 2963 2633 3030
Q 2388 3097 2138 3097
Q 1578 3097 1268 2742
Q 959 2388 959 1747
Q 959 1106 1268 751
Q 1578 397 2138 397
Q 2388 397 2633 464
Q 2878 531 3122 666
L 3122 134
Q 2881 22 2623 -34
Q 2366 -91 2075 -91
Q 1284 -91 818 406
Q 353 903 353 1747
Q 353 2603 823 3093
Q 1294 3584 2113 3584
Q 2378 3584 2631 3529
Q 2884 3475 3122 3366
z
" transform="scale(0.015625)"/>
     </defs>
     <use xlink:href="#DejaVuSans-73"/>
     <use xlink:href="#DejaVuSans-63" transform="translate(52.099609 0)"/>
     <use xlink:href="#DejaVuSans-6f" transform="translate(107.080078 0)"/>
     <use xlink:href="#DejaVuSans-72" transform="translate(168.261719 0)"/>
     <use xlink:href="#DejaVuSans-65" transform="translate(207.125 0)"/>
    </g>
   </g>
   <g id="text_2">
    <!-- Gated prior-KL -->
    <g style="fill: #263238" transform="translate(127.950925 168.779669) scale(0.1 -0.1)">
     <defs>
      <path id="DejaVuSans-47" d="M 3809 666
L 3809 1919
L 2778 1919
L 2778 2438
L 4434 2438
L 4434 434
Q 4069 175 3628 42
Q 3188 -91 2688 -91
Q 1594 -91 976 548
Q 359 1188 359 2328
Q 359 3472 976 4111
Q 1594 4750 2688 4750
Q 3144 4750 3555 4637
Q 3966 4525 4313 4306
L 4313 3634
Q 3963 3931 3569 4081
Q 3175 4231 2741 4231
Q 1884 4231 1454 3753
Q 1025 3275 1025 2328
Q 1025 1384 1454 906
Q 1884 428 2741 428
Q 3075 428 3337 486
Q 3600 544 3809 666
z
" transform="scale(0.015625)"/>
      <path id="DejaVuSans-64" d="M 2906 2969
L 2906 4863
L 3481 4863
L 3481 0
L 2906 0
L 2906 525
Q 2725 213 2448 61
Q 2172 -91 1784 -91
Q 1150 -91 751 415
Q 353 922 353 1747
Q 353 2572 751 3078
Q 1150 3584 1784 3584
Q 2172 3584 2448 3432
Q 2725 3281 2906 2969
z
M 947 1747
Q 947 1113 1208 752
Q 1469 391 1925 391
Q 2381 391 2643 752
Q 2906 1113 2906 1747
Q 2906 2381 2643 2742
Q 2381 3103 1925 3103
Q 1469 3103 1208 2742
Q 947 2381 947 1747
z
" transform="scale(0.015625)"/>
      <path id="DejaVuSans-20" transform="scale(0.015625)"/>
      <path id="DejaVuSans-70" d="M 1159 525
L 1159 -1331
L 581 -1331
L 581 3500
L 1159 3500
L 1159 2969
Q 1341 3281 1617 3432
Q 1894 3584 2278 3584
Q 2916 3584 3314 3078
Q 3713 2572 3713 1747
Q 3713 922 3314 415
Q 2916 -91 2278 -91
Q 1894 -91 1617 61
Q 1341 213 1159 525
z
M 3116 1747
Q 3116 2381 2855 2742
Q 2594 3103 2138 3103
Q 1681 3103 1420 2742
Q 1159 2381 1159 1747
Q 1159 1113 1420 752
Q 1681 391 2138 391
Q 2594 391 2855 752
Q 3116 1113 3116 1747
z
" transform="scale(0.015625)"/>
      <path id="DejaVuSans-4b" d="M 628 4666
L 1259 4666
L 1259 2694
L 3353 4666
L 4166 4666
L 1850 2491
L 4331 0
L 3500 0
L 1259 2247
L 1259 0
L 628 0
L 628 4666
z
" transform="scale(0.015625)"/>
      <path id="DejaVuSans-4c" d="M 628 4666
L 1259 4666
L 1259 531
L 3531 531
L 3531 0
L 628 0
L 628 4666
z
" transform="scale(0.015625)"/>
     </defs>
     <use xlink:href="#DejaVuSans-47"/>
     <use xlink:href="#DejaVuSans-61" transform="translate(77.490234 0)"/>
     <use xlink:href="#DejaVuSans-74" transform="translate(138.769531 0)"/>
     <use xlink:href="#DejaVuSans-65" transform="translate(177.978516 0)"/>
     <use xlink:href="#DejaVuSans-64" transform="translate(239.501953 0)"/>
     <use xlink:href="#DejaVuSans-20" transform="translate(302.978516 0)"/>
     <use xlink:href="#DejaVuSans-70" transform="translate(334.765625 0)"/>
     <use xlink:href="#DejaVuSans-72" transform="translate(398.242188 0)"/>
     <use xlink:href="#DejaVuSans-69" transform="translate(439.355469 0)"/>
     <use xlink:href="#DejaVuSans-6f" transform="translate(467.138672 0)"/>
     <use xlink:href="#DejaVuSans-72" transform="translate(528.320312 0)"/>
     <use xlink:href="#DejaVuSans-2d" transform="translate(563.058594 0)"/>
     <use xlink:href="#DejaVuSans-4b" transform="translate(599.142578 0)"/>
     <use xlink:href="#DejaVuSans-4c" transform="translate(664.71875 0)"/>
    </g>
    <!-- score -->
    <g style="fill: #263238" transform="translate(150.539987 179.977481) scale(0.1 -0.1)">
     <use xlink:href="#DejaVuSans-73"/>
     <use xlink:href="#DejaVuSans-63" transform="translate(52.099609 0)"/>
     <use xlink:href="#DejaVuSans-6f" transform="translate(107.080078 0)"/>
     <use xlink:href="#DejaVuSans-72" transform="translate(168.261719 0)"/>
     <use xlink:href="#DejaVuSans-65" transform="translate(207.125 0)"/>
    </g>
   </g>
   <g id="text_3">
    <!-- Grid-search weights -->
    <g style="fill: #263238" transform="translate(402.810113 126.429269) scale(0.1 -0.1)">
     <defs>
      <path id="DejaVuSans-68" d="M 3513 2113
L 3513 0
L 2938 0
L 2938 2094
Q 2938 2591 2744 2837
Q 2550 3084 2163 3084
Q 1697 3084 1428 2787
Q 1159 2491 1159 1978
L 1159 0
L 581 0
L 581 4863
L 1159 4863
L 1159 2956
Q 1366 3272 1645 3428
Q 1925 3584 2291 3584
Q 2894 3584 3203 3211
Q 3513 2838 3513 2113
z
" transform="scale(0.015625)"/>
      <path id="DejaVuSans-77" d="M 269 3500
L 844 3500
L 1563 769
L 2278 3500
L 2956 3500
L 3675 769
L 4391 3500
L 4966 3500
L 4050 0
L 3372 0
L 2619 2869
L 1863 0
L 1184 0
L 269 3500
z
" transform="scale(0.015625)"/>
      <path id="DejaVuSans-67" d="M 2906 1791
Q 2906 2416 2648 2759
Q 2391 3103 1925 3103
Q 1463 3103 1205 2759
Q 947 2416 947 1791
Q 947 1169 1205 825
Q 1463 481 1925 481
Q 2391 481 2648 825
Q 2906 1169 2906 1791
z
M 3481 434
Q 3481 -459 3084 -895
Q 2688 -1331 1869 -1331
Q 1566 -1331 1297 -1286
Q 1028 -1241 775 -1147
L 775 -588
Q 1028 -725 1275 -790
Q 1522 -856 1778 -856
Q 2344 -856 2625 -561
Q 2906 -266 2906 331
L 2906 616
Q 2728 306 2450 153
Q 2172 0 1784 0
Q 1141 0 747 490
Q 353 981 353 1791
Q 353 2603 747 3093
Q 1141 3584 1784 3584
Q 2172 3584 2450 3431
Q 2728 3278 2906 2969
L 2906 3500
L 3481 3500
L 3481 434
z
" transform="scale(0.015625)"/>
     </defs>
     <use xlink:href="#DejaVuSans-47"/>
     <use xlink:href="#DejaVuSans-72" transform="translate(77.490234 0)"/>
     <use xlink:href="#DejaVuSans-69" transform="translate(118.603516 0)"/>
     <use xlink:href="#DejaVuSans-64" transform="translate(146.386719 0)"/>
     <use xlink:href="#DejaVuSans-2d" transform="translate(209.863281 0)"/>
     <use xlink:href="#DejaVuSans-73" transform="translate(245.947266 0)"/>
     <use xlink:href="#DejaVuSans-65" transform="translate(298.046875 0)"/>
     <use xlink:href="#DejaVuSans-61" transform="translate(359.570312 0)"/>
     <use xlink:href="#DejaVuSans-72" transform="translate(420.849609 0)"/>
     <use xlink:href="#DejaVuSans-63" transform="translate(459.712891 0)"/>
     <use xlink:href="#DejaVuSans-68" transform="translate(514.693359 0)"/>
     <use xlink:href="#DejaVuSans-20" transform="translate(578.072266 0)"/>
     <use xlink:href="#DejaVuSans-77" transform="translate(609.859375 0)"/>
     <use xlink:href="#DejaVuSans-65" transform="translate(691.646484 0)"/>
     <use xlink:href="#DejaVuSans-69" transform="translate(753.169922 0)"/>
     <use xlink:href="#DejaVuSans-67" transform="translate(780.953125 0)"/>
     <use xlink:href="#DejaVuSans-68" transform="translate(844.429688 0)"/>
     <use xlink:href="#DejaVuSans-74" transform="translate(907.808594 0)"/>
     <use xlink:href="#DejaVuSans-73" transform="translate(947.017578 0)"/>
    </g>
    <!-- on DOLOS val -->
    <g style="fill: #263238" transform="translate(418.445269 137.627081) scale(0.1 -0.1)">
     <defs>
      <path id="DejaVuSans-44" d="M 1259 4147
L 1259 519
L 2022 519
Q 2988 519 3436 956
Q 3884 1394 3884 2338
Q 3884 3275 3436 3711
Q 2988 4147 2022 4147
L 1259 4147
z
M 628 4666
L 1925 4666
Q 3281 4666 3915 4102
Q 4550 3538 4550 2338
Q 4550 1131 3912 565
Q 3275 0 1925 0
L 628 0
L 628 4666
z
" transform="scale(0.015625)"/>
      <path id="DejaVuSans-4f" d="M 2522 4238
Q 1834 4238 1429 3725
Q 1025 3213 1025 2328
Q 1025 1447 1429 934
Q 1834 422 2522 422
Q 3209 422 3611 934
Q 4013 1447 4013 2328
Q 4013 3213 3611 3725
Q 3209 4238 2522 4238
z
M 2522 4750
Q 3503 4750 4090 4092
Q 4678 3434 4678 2328
Q 4678 1225 4090 567
Q 3503 -91 2522 -91
Q 1538 -91 948 565
Q 359 1222 359 2328
Q 359 3434 948 4092
Q 1538 4750 2522 4750
z
" transform="scale(0.015625)"/>
      <path id="DejaVuSans-53" d="M 3425 4513
L 3425 3897
Q 3066 4069 2747 4153
Q 2428 4238 2131 4238
Q 1616 4238 1336 4038
Q 1056 3838 1056 3469
Q 1056 3159 1242 3001
Q 1428 2844 1947 2747
L 2328 2669
Q 3034 2534 3370 2195
Q 3706 1856 3706 1288
Q 3706 609 3251 259
Q 2797 -91 1919 -91
Q 1588 -91 1214 -16
Q 841 59 441 206
L 441 856
Q 825 641 1194 531
Q 1563 422 1919 422
Q 2459 422 2753 634
Q 3047 847 3047 1241
Q 3047 1584 2836 1778
Q 2625 1972 2144 2069
L 1759 2144
Q 1053 2284 737 2584
Q 422 2884 422 3419
Q 422 4038 858 4394
Q 1294 4750 2059 4750
Q 2388 4750 2728 4690
Q 3069 4631 3425 4513
z
" transform="scale(0.015625)"/>
      <path id="DejaVuSans-76" d="M 191 3500
L 800 3500
L 1894 563
L 2988 3500
L 3597 3500
L 2284 0
L 1503 0
L 191 3500
z
" transform="scale(0.015625)"/>
      <path id="DejaVuSans-6c" d="M 603 4863
L 1178 4863
L 1178 0
L 603 0
L 603 4863
z
" transform="scale(0.015625)"/>
     </defs>
     <use xlink:href="#DejaVuSans-6f"/>
     <use xlink:href="#DejaVuSans-6e" transform="translate(61.181641 0)"/>
     <use xlink:href="#DejaVuSans-20" transform="translate(124.560547 0)"/>
     <use xlink:href="#DejaVuSans-44" transform="translate(156.347656 0)"/>
     <use xlink:href="#DejaVuSans-4f" transform="translate(233.349609 0)"/>
     <use xlink:href="#DejaVuSans-4c" transform="translate(312.060547 0)"/>
     <use xlink:href="#DejaVuSans-4f" transform="translate(364.148438 0)"/>
     <use xlink:href="#DejaVuSans-53" transform="translate(442.859375 0)"/>
     <use xlink:href="#DejaVuSans-20" transform="translate(506.335938 0)"/>
     <use xlink:href="#DejaVuSans-76" transform="translate(538.123047 0)"/>
     <use xlink:href="#DejaVuSans-61" transform="translate(597.302734 0)"/>
     <use xlink:href="#DejaVuSans-6c" transform="translate(658.582031 0)"/>
    </g>
   </g>
   <g id="text_4">
    <!-- Final score -->
    <g style="fill: #263238" transform="translate(690.257106 126.429269) scale(0.1 -0.1)">
     <defs>
      <path id="DejaVuSans-46" d="M 628 4666
L 3309 4666
L 3309 4134
L 1259 4134
L 1259 2759
L 3109 2759
L 3109 2228
L 1259 2228
L 1259 0
L 628 0
L 628 4666
z
" transform="scale(0.015625)"/>
     </defs>
     <use xlink:href="#DejaVuSans-46"/>
     <use xlink:href="#DejaVuSans-69" transform="translate(50.269531 0)"/>
     <use xlink:href="#DejaVuSans-6e" transform="translate(78.052734 0)"/>
     <use xlink:href="#DejaVuSans-61" transform="translate(141.431641 0)"/>
     <use xlink:href="#DejaVuSans-6c" transform="translate(202.710938 0)"/>
     <use xlink:href="#DejaVuSans-20" transform="translate(230.494141 0)"/>
     <use xlink:href="#DejaVuSans-73" transform="translate(262.28125 0)"/>
     <use xlink:href="#DejaVuSans-63" transform="translate(314.380859 0)"/>
     <use xlink:href="#DejaVuSans-6f" transform="translate(369.361328 0)"/>
     <use xlink:href="#DejaVuSans-72" transform="translate(430.542969 0)"/>
     <use xlink:href="#DejaVuSans-65" transform="translate(469.40625 0)"/>
    </g>
    <!-- + threshold -->
    <g style="fill: #263238" transform="translate(687.479763 137.627081) scale(0.1 -0.1)">
     <defs>
      <path id="DejaVuSans-2b" d="M 2944 4013
L 2944 2272
L 4684 2272
L 4684 1741
L 2944 1741
L 2944 0
L 2419 0
L 2419 1741
L 678 1741
L 678 2272
L 2419 2272
L 2419 4013
L 2944 4013
z
" transform="scale(0.015625)"/>
     </defs>
     <use xlink:href="#DejaVuSans-2b"/>
     <use xlink:href="#DejaVuSans-20" transform="translate(83.789062 0)"/>
     <use xlink:href="#DejaVuSans-74" transform="translate(115.576172 0)"/>
     <use xlink:href="#DejaVuSans-68" transform="translate(154.785156 0)"/>
     <use xlink:href="#DejaVuSans-72" transform="translate(218.164062 0)"/>
     <use xlink:href="#DejaVuSans-65" transform="translate(257.027344 0)"/>
     <use xlink:href="#DejaVuSans-73" transform="translate(318.550781 0)"/>
     <use xlink:href="#DejaVuSans-68" transform="translate(370.650391 0)"/>
     <use xlink:href="#DejaVuSans-6f" transform="translate(434.029297 0)"/>
     <use xlink:href="#DejaVuSans-6c" transform="translate(495.210938 0)"/>
     <use xlink:href="#DejaVuSans-64" transform="translate(522.994141 0)"/>
    </g>
   </g>
   <g id="text_5">
    <!-- Prediction-Level Ensemble -->
    <g style="fill: #262626" transform="translate(322.426562 21.1296) scale(0.13 -0.13)">
     <defs>
      <path id="DejaVuSans-Bold-50" d="M 588 4666
L 2584 4666
Q 3475 4666 3951 4270
Q 4428 3875 4428 3144
Q 4428 2409 3951 2014
Q 3475 1619 2584 1619
L 1791 1619
L 1791 0
L 588 0
L 588 4666
z
M 1791 3794
L 1791 2491
L 2456 2491
Q 2806 2491 2997 2661
Q 3188 2831 3188 3144
Q 3188 3456 2997 3625
Q 2806 3794 2456 3794
L 1791 3794
z
" transform="scale(0.015625)"/>
      <path id="DejaVuSans-Bold-72" d="M 3138 2547
Q 2991 2616 2845 2648
Q 2700 2681 2553 2681
Q 2122 2681 1889 2404
Q 1656 2128 1656 1613
L 1656 0
L 538 0
L 538 3500
L 1656 3500
L 1656 2925
Q 1872 3269 2151 3426
Q 2431 3584 2822 3584
Q 2878 3584 2943 3579
Q 3009 3575 3134 3559
L 3138 2547
z
" transform="scale(0.015625)"/>
      <path id="DejaVuSans-Bold-65" d="M 4031 1759
L 4031 1441
L 1416 1441
Q 1456 1047 1700 850
Q 1944 653 2381 653
Q 2734 653 3104 758
Q 3475 863 3866 1075
L 3866 213
Q 3469 63 3072 -14
Q 2675 -91 2278 -91
Q 1328 -91 801 392
Q 275 875 275 1747
Q 275 2603 792 3093
Q 1309 3584 2216 3584
Q 3041 3584 3536 3087
Q 4031 2591 4031 1759
z
M 2881 2131
Q 2881 2450 2695 2645
Q 2509 2841 2209 2841
Q 1884 2841 1681 2658
Q 1478 2475 1428 2131
L 2881 2131
z
" transform="scale(0.015625)"/>
      <path id="DejaVuSans-Bold-64" d="M 2919 2988
L 2919 4863
L 4044 4863
L 4044 0
L 2919 0
L 2919 506
Q 2688 197 2409 53
Q 2131 -91 1766 -91
Q 1119 -91 703 423
Q 288 938 288 1747
Q 288 2556 703 3070
Q 1119 3584 1766 3584
Q 2128 3584 2408 3439
Q 2688 3294 2919 2988
z
M 2181 722
Q 2541 722 2730 984
Q 2919 1247 2919 1747
Q 2919 2247 2730 2509
Q 2541 2772 2181 2772
Q 1825 2772 1636 2509
Q 1447 2247 1447 1747
Q 1447 1247 1636 984
Q 1825 722 2181 722
z
" transform="scale(0.015625)"/>
      <path id="DejaVuSans-Bold-69" d="M 538 3500
L 1656 3500
L 1656 0
L 538 0
L 538 3500
z
M 538 4863
L 1656 4863
L 1656 3950
L 538 3950
L 538 4863
z
" transform="scale(0.015625)"/>
      <path id="DejaVuSans-Bold-63" d="M 3366 3391
L 3366 2478
Q 3138 2634 2908 2709
Q 2678 2784 2431 2784
Q 1963 2784 1702 2511
Q 1441 2238 1441 1747
Q 1441 1256 1702 982
Q 1963 709 2431 709
Q 2694 709 2930 787
Q 3166 866 3366 1019
L 3366 103
Q 3103 6 2833 -42
Q 2563 -91 2291 -91
Q 1344 -91 809 395
Q 275 881 275 1747
Q 275 2613 809 3098
Q 1344 3584 2291 3584
Q 2566 3584 2833 3536
Q 3100 3488 3366 3391
z
" transform="scale(0.015625)"/>
      <path id="DejaVuSans-Bold-74" d="M 1759 4494
L 1759 3500
L 2913 3500
L 2913 2700
L 1759 2700
L 1759 1216
Q 1759 972 1856 886
Q 1953 800 2241 800
L 2816 800
L 2816 0
L 1856 0
Q 1194 0 917 276
Q 641 553 641 1216
L 641 2700
L 84 2700
L 84 3500
L 641 3500
L 641 4494
L 1759 4494
z
" transform="scale(0.015625)"/>
      <path id="DejaVuSans-Bold-6f" d="M 2203 2784
Q 1831 2784 1636 2517
Q 1441 2250 1441 1747
Q 1441 1244 1636 976
Q 1831 709 2203 709
Q 2569 709 2762 976
Q 2956 1244 2956 1747
Q 2956 2250 2762 2517
Q 2569 2784 2203 2784
z
M 2203 3584
Q 3106 3584 3614 3096
Q 4122 2609 4122 1747
Q 4122 884 3614 396
Q 3106 -91 2203 -91
Q 1297 -91 786 396
Q 275 884 275 1747
Q 275 2609 786 3096
Q 1297 3584 2203 3584
z
" transform="scale(0.015625)"/>
      <path id="DejaVuSans-Bold-6e" d="M 4056 2131
L 4056 0
L 2931 0
L 2931 347
L 2931 1631
Q 2931 2084 2911 2256
Q 2891 2428 2841 2509
Q 2775 2619 2662 2680
Q 2550 2741 2406 2741
Q 2056 2741 1856 2470
Q 1656 2200 1656 1722
L 1656 0
L 538 0
L 538 3500
L 1656 3500
L 1656 2988
Q 1909 3294 2193 3439
Q 2478 3584 2822 3584
Q 3428 3584 3742 3212
Q 4056 2841 4056 2131
z
" transform="scale(0.015625)"/>
      <path id="DejaVuSans-Bold-2d" d="M 347 2297
L 2309 2297
L 2309 1388
L 347 1388
L 347 2297
z
" transform="scale(0.015625)"/>
      <path id="DejaVuSans-Bold-4c" d="M 588 4666
L 1791 4666
L 1791 909
L 3903 909
L 3903 0
L 588 0
L 588 4666
z
" transform="scale(0.015625)"/>
      <path id="DejaVuSans-Bold-76" d="M 97 3500
L 1216 3500
L 2088 1081
L 2956 3500
L 4078 3500
L 2700 0
L 1472 0
L 97 3500
z
" transform="scale(0.015625)"/>
      <path id="DejaVuSans-Bold-6c" d="M 538 4863
L 1656 4863
L 1656 0
L 538 0
L 538 4863
z
" transform="scale(0.015625)"/>
      <path id="DejaVuSans-Bold-20" transform="scale(0.015625)"/>
      <path id="DejaVuSans-Bold-45" d="M 588 4666
L 3834 4666
L 3834 3756
L 1791 3756
L 1791 2888
L 3713 2888
L 3713 1978
L 1791 1978
L 1791 909
L 3903 909
L 3903 0
L 588 0
L 588 4666
z
" transform="scale(0.015625)"/>
      <path id="DejaVuSans-Bold-73" d="M 3272 3391
L 3272 2541
Q 2913 2691 2578 2766
Q 2244 2841 1947 2841
Q 1628 2841 1473 2761
Q 1319 2681 1319 2516
Q 1319 2381 1436 2309
Q 1553 2238 1856 2203
L 2053 2175
Q 2913 2066 3209 1816
Q 3506 1566 3506 1031
Q 3506 472 3093 190
Q 2681 -91 1863 -91
Q 1516 -91 1145 -36
Q 775 19 384 128
L 384 978
Q 719 816 1070 734
Q 1422 653 1784 653
Q 2113 653 2278 743
Q 2444 834 2444 1013
Q 2444 1163 2330 1236
Q 2216 1309 1875 1350
L 1678 1375
Q 931 1469 631 1722
Q 331 1975 331 2491
Q 331 3047 712 3315
Q 1094 3584 1881 3584
Q 2191 3584 2531 3537
Q 2872 3491 3272 3391
z
" transform="scale(0.015625)"/>
      <path id="DejaVuSans-Bold-6d" d="M 3781 2919
Q 3994 3244 4286 3414
Q 4578 3584 4928 3584
Q 5531 3584 5847 3212
Q 6163 2841 6163 2131
L 6163 0
L 5038 0
L 5038 1825
Q 5041 1866 5042 1909
Q 5044 1953 5044 2034
Q 5044 2406 4934 2573
Q 4825 2741 4581 2741
Q 4263 2741 4089 2478
Q 3916 2216 3909 1719
L 3909 0
L 2784 0
L 2784 1825
Q 2784 2406 2684 2573
Q 2584 2741 2328 2741
Q 2006 2741 1831 2477
Q 1656 2213 1656 1722
L 1656 0
L 531 0
L 531 3500
L 1656 3500
L 1656 2988
Q 1863 3284 2130 3434
Q 2397 3584 2719 3584
Q 3081 3584 3359 3409
Q 3638 3234 3781 2919
z
" transform="scale(0.015625)"/>
      <path id="DejaVuSans-Bold-62" d="M 2400 722
Q 2759 722 2948 984
Q 3138 1247 3138 1747
Q 3138 2247 2948 2509
Q 2759 2772 2400 2772
Q 2041 2772 1848 2508
Q 1656 2244 1656 1747
Q 1656 1250 1848 986
Q 2041 722 2400 722
z
M 1656 2988
Q 1888 3294 2169 3439
Q 2450 3584 2816 3584
Q 3463 3584 3878 3070
Q 4294 2556 4294 1747
Q 4294 938 3878 423
Q 3463 -91 2816 -91
Q 2450 -91 2169 54
Q 1888 200 1656 506
L 1656 0
L 538 0
L 538 4863
L 1656 4863
L 1656 2988
z
" transform="scale(0.015625)"/>
     </defs>
     <use xlink:href="#DejaVuSans-Bold-50"/>
     <use xlink:href="#DejaVuSans-Bold-72" transform="translate(73.291016 0)"/>
     <use xlink:href="#DejaVuSans-Bold-65" transform="translate(122.607422 0)"/>
     <use xlink:href="#DejaVuSans-Bold-64" transform="translate(190.429688 0)"/>
     <use xlink:href="#DejaVuSans-Bold-69" transform="translate(262.011719 0)"/>
     <use xlink:href="#DejaVuSans-Bold-63" transform="translate(296.289062 0)"/>
     <use xlink:href="#DejaVuSans-Bold-74" transform="translate(355.566406 0)"/>
     <use xlink:href="#DejaVuSans-Bold-69" transform="translate(403.369141 0)"/>
     <use xlink:href="#DejaVuSans-Bold-6f" transform="translate(437.646484 0)"/>
     <use xlink:href="#DejaVuSans-Bold-6e" transform="translate(506.347656 0)"/>
     <use xlink:href="#DejaVuSans-Bold-2d" transform="translate(577.539062 0)"/>
     <use xlink:href="#DejaVuSans-Bold-4c" transform="translate(619.042969 0)"/>
     <use xlink:href="#DejaVuSans-Bold-65" transform="translate(682.763672 0)"/>
     <use xlink:href="#DejaVuSans-Bold-76" transform="translate(750.585938 0)"/>
     <use xlink:href="#DejaVuSans-Bold-65" transform="translate(815.771484 0)"/>
     <use xlink:href="#DejaVuSans-Bold-6c" transform="translate(883.59375 0)"/>
     <use xlink:href="#DejaVuSans-Bold-20" transform="translate(917.871094 0)"/>
     <use xlink:href="#DejaVuSans-Bold-45" transform="translate(952.685547 0)"/>
     <use xlink:href="#DejaVuSans-Bold-6e" transform="translate(1020.996094 0)"/>
     <use xlink:href="#DejaVuSans-Bold-73" transform="translate(1092.1875 0)"/>
     <use xlink:href="#DejaVuSans-Bold-65" transform="translate(1151.708984 0)"/>
     <use xlink:href="#DejaVuSans-Bold-6d" transform="translate(1219.53125 0)"/>
     <use xlink:href="#DejaVuSans-Bold-62" transform="translate(1323.730469 0)"/>
     <use xlink:href="#DejaVuSans-Bold-6c" transform="translate(1395.3125 0)"/>
     <use xlink:href="#DejaVuSans-Bold-65" transform="translate(1429.589844 0)"/>
    </g>
   </g>
  </g>
 </g>
 <defs>
  <clipPath id="p444513bfaf">
   <rect x="7.2" y="7.2" width="825.12" height="249.12"/>
  </clipPath>
 </defs>
</svg>
