<?xml version="1.0" encoding="utf-8" standalone="no"?>
<!DOCTYPE svg PUBLIC "-//W3C//DTD SVG 1.1//EN"
  "http://www.w3.org/Graphics/SVG/1.1/DTD/svg11.dtd">
<svg xmlns:xlink="http://www.w3.org/1999/xlink" width="839.52pt" height="263.52pt" viewBox="0 0 839.52 263.52" xmlns="http://www.w3.org/2000/svg" version="1.1">
 <metadata>
  <rdf:RDF xmlns:dc="http://purl.org/dc/elements/1.1/" xmlns:cc="http://creativecommons.org/ns#" xmlns:rdf="http://www.w3.org/1999/02/22-rdf-syntax-ns#">
   <cc:Work>
    <dc:type rdf:resource="http://purl.org/dc/dcmitype/StillImage"/>
    <dc:date>2026-05-23T16:02:35.482557</dc:date>
    <dc:format>image/svg+xml</dc:format>
    <dc:creator>
     <cc:Agent>
      <dc:title>Matplotlib v3.10.9, https://matplotlib.org/</dc:title>
     </cc:Agent>
    </dc:creator>
   </cc:Work>
  </rdf:RDF>
 </metadata>
 <defs>
  <style type="text/css">*{stroke-linejoin: round; stroke-linecap: butt}</style>
 </defs>
 <g id="figure_1">
  <g id="patch_1">
   <path d="M 0 263.52
L 839.52 263.52
L 839.52 0
L 0 0
z
" style="fill: #ffffff"/>
  </g>
  <g id="axes_1">
   <g id="patch_2">
    <path d="M 60.8328 124.2864
L 217.6056 124.2864
Q 246.4848 124.2864 246.4848 115.5672
L 246.4848 78.1992
Q 246.4848 69.48 217.6056 69.48
L 60.8328 69.48
Q 31.9536 69.48 31.9536 78.1992
L 31.9536 115.5672
Q 31.9536 124.2864 60.8328 124.2864
z
" clip-path="url(#p99bd43d3aa)" style="fill: #e8f2fa; stroke: #263238; stroke-width: 1.3; stroke-linejoin: miter"/>
   </g>
   <g id="patch_3">
    <path d="M 300.1176 124.2864
L 456.8904 124.2864
Q 485.7696 124.2864 485.7696 115.5672
L 485.7696 78.1992
Q 485.7696 69.48 456.8904 69.48
L 300.1176 69.48
Q 271.2384 69.48 271.2384 78.1992
L 271.2384 115.5672
Q 271.2384 124.2864 300.1176 124.2864
z
" clip-path="url(#p99bd43d3aa)" style="fill: #eaf6ea; stroke: #263238; stroke-width: 1.3; stroke-linejoin: miter"/>
   </g>
   <g id="patch_4">
    <path d="M 539.4024 124.2864
L 663.1704 124.2864
Q 692.0496 124.2864 692.0496 115.5672
L 692.0496 78.1992
Q 692.0496 69.48 663.1704 69.48
L 539.4024 69.48
Q 510.5232 69.48 510.5232 78.1992
L 510.5232 115.5672
Q 510.5232 124.2864 539.4024 124.2864
z
" clip-path="url(#p99bd43d3aa)" style="fill: #fff1e6; stroke: #263238; stroke-width: 1.3; stroke-linejoin: miter"/>
   </g>
   <g id="patch_5">
    <path d="M 539.4024 216.4608
L 720.9288 216.4608
Q 749.808 216.4608 749.808 207.7416
L 749.808 175.356
Q 749.808 166.6368 720.9288 166.6368
L 539.4024 166.6368
Q 510.5232 166.6368 510.5232 175.356
L 510.5232 207.7416
Q 510.5232 216.4608 539.4024 216.4608
z
" clip-path="url(#p99bd43d3aa)" style="fill: #f8eaea; stroke: #263238; stroke-width: 1.3; stroke-linejoin: miter"/>
   </g>
   <g id="patch_6">
    <path d="M 231.981241 96.8832
Q 258.862154 96.8832 284.177819 96.8832
" clip-path="url(#p99bd43d3aa)" style="fill: none; stroke: #263238; stroke-width: 1.4; stroke-linecap: round"/>
    <path d="M 278.577819 94.0832
L 284.177819 96.8832
L 278.577819 99.6832
z
" clip-path="url(#p99bd43d3aa)" style="fill: #263238; stroke: #263238; stroke-width: 1.4; stroke-linecap: round"/>
   </g>
   <g id="patch_7">
    <path d="M 471.266041 96.8832
Q 498.146954 96.8832 523.462619 96.8832
" clip-path="url(#p99bd43d3aa)" style="fill: none; stroke: #263238; stroke-width: 1.4; stroke-linecap: round"/>
    <path d="M 517.862619 94.0832
L 523.462619 96.8832
L 517.862619 99.6832
z
" clip-path="url(#p99bd43d3aa)" style="fill: #263238; stroke: #263238; stroke-width: 1.4; stroke-linecap: round"/>
   </g>
   <g id="patch_8">
    <path d="M 380.429691 119.834847
Q 473.391105 145.461133 564.843555 170.671448
" clip-path="url(#p99bd43d3aa)" style="fill: none; stroke: #b54a4a; stroke-width: 1.4; stroke-linecap: round"/>
    <path d="M 560.189034 166.483915
L 564.843555 170.671448
L 558.700816 171.882546
z
" clip-path="url(#p99bd43d3aa)" style="fill: #b54a4a; stroke: #b54a4a; stroke-width: 1.4; stroke-linecap: round"/>
   </g>
   <g id="text_1">
    <!-- DOLOS train -->
    <g style="fill: #263238" transform="translate(108.491856 94.043669) scale(0.1 -0.1)">
     <defs>
      <path id="DejaVuSans-44" d="M 1259 4147
L 1259 519
L 2022 519
Q 2988 519 3436 956
Q 3884 1394 3884 2338
Q 3884 3275 3436 3711
Q 2988 4147 2022 4147
L 1259 4147
z
M 628 4666
L 1925 4666
Q 3281 4666 3915 4102
Q 4550 3538 4550 2338
Q 4550 1131 3912 565
Q 3275 0 1925 0
L 628 0
L 628 4666
z
" transform="scale(0.015625)"/>
      <path id="DejaVuSans-4f" d="M 2522 4238
Q 1834 4238 1429 3725
Q 1025 3213 1025 2328
Q 1025 1447 1429 934
Q 1834 422 2522 422
Q 3209 422 3611 934
Q 4013 1447 4013 2328
Q 4013 3213 3611 3725
Q 3209 4238 2522 4238
z
M 2522 4750
Q 3503 4750 4090 4092
Q 4678 3434 4678 2328
Q 4678 1225 4090 567
Q 3503 -91 2522 -91
Q 1538 -91 948 565
Q 359 1222 359 2328
Q 359 3434 948 4092
Q 1538 4750 2522 4750
z
" transform="scale(0.015625)"/>
      <path id="DejaVuSans-4c" d="M 628 4666
L 1259 4666
L 1259 531
L 3531 531
L 3531 0
L 628 0
L 628 4666
z
" transform="scale(0.015625)"/>
      <path id="DejaVuSans-53" d="M 3425 4513
L 3425 3897
Q 3066 4069 2747 4153
Q 2428 4238 2131 4238
Q 1616 4238 1336 4038
Q 1056 3838 1056 3469
Q 1056 3159 1242 3001
Q 1428 2844 1947 2747
L 2328 2669
Q 3034 2534 3370 2195
Q 3706 1856 3706 1288
Q 3706 609 3251 259
Q 2797 -91 1919 -91
Q 1588 -91 1214 -16
Q 841 59 441 206
L 441 856
Q 825 641 1194 531
Q 1563 422 1919 422
Q 2459 422 2753 634
Q 3047 847 3047 1241
Q 3047 1584 2836 1778
Q 2625 1972 2144 2069
L 1759 2144
Q 1053 2284 737 2584
Q 422 2884 422 3419
Q 422 4038 858 4394
Q 1294 4750 2059 4750
Q 2388 4750 2728 4690
Q 3069 4631 3425 4513
z
" transform="scale(0.015625)"/>
      <path id="DejaVuSans-20" transform="scale(0.015625)"/>
      <path id="DejaVuSans-74" d="M 1172 4494
L 1172 3500
L 2356 3500
L 2356 3053
L 1172 3053
L 1172 1153
Q 1172 725 1289 603
Q 1406 481 1766 481
L 2356 481
L 2356 0
L 1766 0
Q 1100 0 847 248
Q 594 497 594 1153
L 594 3053
L 172 3053
L 172 3500
L 594 3500
L 594 4494
L 1172 4494
z
" transform="scale(0.015625)"/>
      <path id="DejaVuSans-72" d="M 2631 2963
Q 2534 3019 2420 3045
Q 2306 3072 2169 3072
Q 1681 3072 1420 2755
Q 1159 2438 1159 1844
L 1159 0
L 581 0
L 581 3500
L 1159 3500
L 1159 2956
Q 1341 3275 1631 3429
Q 1922 3584 2338 3584
Q 2397 3584 2469 3576
Q 2541 3569 2628 3553
L 2631 2963
z
" transform="scale(0.015625)"/>
      <path id="DejaVuSans-61" d="M 2194 1759
Q 1497 1759 1228 1600
Q 959 1441 959 1056
Q 959 750 1161 570
Q 1363 391 1709 391
Q 2188 391 2477 730
Q 2766 1069 2766 1631
L 2766 1759
L 2194 1759
z
M 3341 1997
L 3341 0
L 2766 0
L 2766 531
Q 2569 213 2275 61
Q 1981 -91 1556 -91
Q 1019 -91 701 211
Q 384 513 384 1019
Q 384 1609 779 1909
Q 1175 2209 1959 2209
L 2766 2209
L 2766 2266
Q 2766 2663 2505 2880
Q 2244 3097 1772 3097
Q 1472 3097 1187 3025
Q 903 2953 641 2809
L 641 3341
Q 956 3463 1253 3523
Q 1550 3584 1831 3584
Q 2591 3584 2966 3190
Q 3341 2797 3341 1997
z
" transform="scale(0.015625)"/>
      <path id="DejaVuSans-69" d="M 603 3500
L 1178 3500
L 1178 0
L 603 0
L 603 3500
z
M 603 4863
L 1178 4863
L 1178 4134
L 603 4134
L 603 4863
z
" transform="scale(0.015625)"/>
      <path id="DejaVuSans-6e" d="M 3513 2113
L 3513 0
L 2938 0
L 2938 2094
Q 2938 2591 2744 2837
Q 2550 3084 2163 3084
Q 1697 3084 1428 2787
Q 1159 2491 1159 1978
L 1159 0
L 581 0
L 581 3500
L 1159 3500
L 1159 2956
Q 1366 3272 1645 3428
Q 1925 3584 2291 3584
Q 2894 3584 3203 3211
Q 3513 2838 3513 2113
z
" transform="scale(0.015625)"/>
     </defs>
     <use xlink:href="#DejaVuSans-44"/>
     <use xlink:href="#DejaVuSans-4f" transform="translate(77.001953 0)"/>
     <use xlink:href="#DejaVuSans-4c" transform="translate(155.712891 0)"/>
     <use xlink:href="#DejaVuSans-4f" transform="translate(207.800781 0)"/>
     <use xlink:href="#DejaVuSans-53" transform="translate(286.511719 0)"/>
     <use xlink:href="#DejaVuSans-20" transform="translate(349.988281 0)"/>
     <use xlink:href="#DejaVuSans-74" transform="translate(381.775391 0)"/>
     <use xlink:href="#DejaVuSans-72" transform="translate(420.984375 0)"/>
     <use xlink:href="#DejaVuSans-61" transform="translate(462.097656 0)"/>
     <use xlink:href="#DejaVuSans-69" transform="translate(523.376953 0)"/>
     <use xlink:href="#DejaVuSans-6e" transform="translate(551.160156 0)"/>
    </g>
    <!-- learn parameters -->
    <g style="fill: #263238" transform="translate(95.962169 105.241481) scale(0.1 -0.1)">
     <defs>
      <path id="DejaVuSans-6c" d="M 603 4863
L 1178 4863
L 1178 0
L 603 0
L 603 4863
z
" transform="scale(0.015625)"/>
      <path id="DejaVuSans-65" d="M 3597 1894
L 3597 1613
L 953 1613
Q 991 1019 1311 708
Q 1631 397 2203 397
Q 2534 397 2845 478
Q 3156 559 3463 722
L 3463 178
Q 3153 47 2828 -22
Q 2503 -91 2169 -91
Q 1331 -91 842 396
Q 353 884 353 1716
Q 353 2575 817 3079
Q 1281 3584 2069 3584
Q 2775 3584 3186 3129
Q 3597 2675 3597 1894
z
M 3022 2063
Q 3016 2534 2758 2815
Q 2500 3097 2075 3097
Q 1594 3097 1305 2825
Q 1016 2553 972 2059
L 3022 2063
z
" transform="scale(0.015625)"/>
      <path id="DejaVuSans-70" d="M 1159 525
L 1159 -1331
L 581 -1331
L 581 3500
L 1159 3500
L 1159 2969
Q 1341 3281 1617 3432
Q 1894 3584 2278 3584
Q 2916 3584 3314 3078
Q 3713 2572 3713 1747
Q 3713 922 3314 415
Q 2916 -91 2278 -91
Q 1894 -91 1617 61
Q 1341 213 1159 525
z
M 3116 1747
Q 3116 2381 2855 2742
Q 2594 3103 2138 3103
Q 1681 3103 1420 2742
Q 1159 2381 1159 1747
Q 1159 1113 1420 752
Q 1681 391 2138 391
Q 2594 391 2855 752
Q 3116 1113 3116 1747
z
" transform="scale(0.015625)"/>
      <path id="DejaVuSans-6d" d="M 3328 2828
Q 3544 3216 3844 3400
Q 4144 3584 4550 3584
Q 5097 3584 5394 3201
Q 5691 2819 5691 2113
L 5691 0
L 5113 0
L 5113 2094
Q 5113 2597 4934 2840
Q 4756 3084 4391 3084
Q 3944 3084 3684 2787
Q 3425 2491 3425 1978
L 3425 0
L 2847 0
L 2847 2094
Q 2847 2600 2669 2842
Q 2491 3084 2119 3084
Q 1678 3084 1418 2786
Q 1159 2488 1159 1978
L 1159 0
L 581 0
L 581 3500
L 1159 3500
L 1159 2956
Q 1356 3278 1631 3431
Q 1906 3584 2284 3584
Q 2666 3584 2933 3390
Q 3200 3197 3328 2828
z
" transform="scale(0.015625)"/>
      <path id="DejaVuSans-73" d="M 2834 3397
L 2834 2853
Q 2591 2978 2328 3040
Q 2066 3103 1784 3103
Q 1356 3103 1142 2972
Q 928 2841 928 2578
Q 928 2378 1081 2264
Q 1234 2150 1697 2047
L 1894 2003
Q 2506 1872 2764 1633
Q 3022 1394 3022 966
Q 3022 478 2636 193
Q 2250 -91 1575 -91
Q 1294 -91 989 -36
Q 684 19 347 128
L 347 722
Q 666 556 975 473
Q 1284 391 1588 391
Q 1994 391 2212 530
Q 2431 669 2431 922
Q 2431 1156 2273 1281
Q 2116 1406 1581 1522
L 1381 1569
Q 847 1681 609 1914
Q 372 2147 372 2553
Q 372 3047 722 3315
Q 1072 3584 1716 3584
Q 2034 3584 2315 3537
Q 2597 3491 2834 3397
z
" transform="scale(0.015625)"/>
     </defs>
     <use xlink:href="#DejaVuSans-6c"/>
     <use xlink:href="#DejaVuSans-65" transform="translate(27.783203 0)"/>
     <use xlink:href="#DejaVuSans-61" transform="translate(89.306641 0)"/>
     <use xlink:href="#DejaVuSans-72" transform="translate(150.585938 0)"/>
     <use xlink:href="#DejaVuSans-6e" transform="translate(189.949219 0)"/>
     <use xlink:href="#DejaVuSans-20" transform="translate(253.328125 0)"/>
     <use xlink:href="#DejaVuSans-70" transform="translate(285.115234 0)"/>
     <use xlink:href="#DejaVuSans-61" transform="translate(348.591797 0)"/>
     <use xlink:href="#DejaVuSans-72" transform="translate(409.871094 0)"/>
     <use xlink:href="#DejaVuSans-61" transform="translate(450.984375 0)"/>
     <use xlink:href="#DejaVuSans-6d" transform="translate(512.263672 0)"/>
     <use xlink:href="#DejaVuSans-65" transform="translate(609.675781 0)"/>
     <use xlink:href="#DejaVuSans-74" transform="translate(671.199219 0)"/>
     <use xlink:href="#DejaVuSans-65" transform="translate(710.408203 0)"/>
     <use xlink:href="#DejaVuSans-72" transform="translate(771.931641 0)"/>
     <use xlink:href="#DejaVuSans-73" transform="translate(813.044922 0)"/>
    </g>
   </g>
   <g id="text_2">
    <!-- DOLOS val -->
    <g style="fill: #263238" transform="translate(354.651891 89.288606) scale(0.09 -0.09)">
     <defs>
      <path id="DejaVuSans-76" d="M 191 3500
L 800 3500
L 1894 563
L 2988 3500
L 3597 3500
L 2284 0
L 1503 0
L 191 3500
z
" transform="scale(0.015625)"/>
     </defs>
     <use xlink:href="#DejaVuSans-44"/>
     <use xlink:href="#DejaVuSans-4f" transform="translate(77.001953 0)"/>
     <use xlink:href="#DejaVuSans-4c" transform="translate(155.712891 0)"/>
     <use xlink:href="#DejaVuSans-4f" transform="translate(207.800781 0)"/>
     <use xlink:href="#DejaVuSans-53" transform="translate(286.511719 0)"/>
     <use xlink:href="#DejaVuSans-20" transform="translate(349.988281 0)"/>
     <use xlink:href="#DejaVuSans-76" transform="translate(381.775391 0)"/>
     <use xlink:href="#DejaVuSans-61" transform="translate(440.955078 0)"/>
     <use xlink:href="#DejaVuSans-6c" transform="translate(502.234375 0)"/>
    </g>
    <!-- select checkpoint -->
    <g style="fill: #263238" transform="translate(339.051656 99.366637) scale(0.09 -0.09)">
     <defs>
      <path id="DejaVuSans-63" d="M 3122 3366
L 3122 2828
Q 2878 2963 2633 3030
Q 2388 3097 2138 3097
Q 1578 3097 1268 2742
Q 959 2388 959 1747
Q 959 1106 1268 751
Q 1578 397 2138 397
Q 2388 397 2633 464
Q 2878 531 3122 666
L 3122 134
Q 2881 22 2623 -34
Q 2366 -91 2075 -91
Q 1284 -91 818 406
Q 353 903 353 1747
Q 353 2603 823 3093
Q 1294 3584 2113 3584
Q 2378 3584 2631 3529
Q 2884 3475 3122 3366
z
" transform="scale(0.015625)"/>
      <path id="DejaVuSans-68" d="M 3513 2113
L 3513 0
L 2938 0
L 2938 2094
Q 2938 2591 2744 2837
Q 2550 3084 2163 3084
Q 1697 3084 1428 2787
Q 1159 2491 1159 1978
L 1159 0
L 581 0
L 581 4863
L 1159 4863
L 1159 2956
Q 1366 3272 1645 3428
Q 1925 3584 2291 3584
Q 2894 3584 3203 3211
Q 3513 2838 3513 2113
z
" transform="scale(0.015625)"/>
      <path id="DejaVuSans-6b" d="M 581 4863
L 1159 4863
L 1159 1991
L 2875 3500
L 3609 3500
L 1753 1863
L 3688 0
L 2938 0
L 1159 1709
L 1159 0
L 581 0
L 581 4863
z
" transform="scale(0.015625)"/>
      <path id="DejaVuSans-6f" d="M 1959 3097
Q 1497 3097 1228 2736
Q 959 2375 959 1747
Q 959 1119 1226 758
Q 1494 397 1959 397
Q 2419 397 2687 759
Q 2956 1122 2956 1747
Q 2956 2369 2687 2733
Q 2419 3097 1959 3097
z
M 1959 3584
Q 2709 3584 3137 3096
Q 3566 2609 3566 1747
Q 3566 888 3137 398
Q 2709 -91 1959 -91
Q 1206 -91 779 398
Q 353 888 353 1747
Q 353 2609 779 3096
Q 1206 3584 1959 3584
z
" transform="scale(0.015625)"/>
     </defs>
     <use xlink:href="#DejaVuSans-73"/>
     <use xlink:href="#DejaVuSans-65" transform="translate(52.099609 0)"/>
     <use xlink:href="#DejaVuSans-6c" transform="translate(113.623047 0)"/>
     <use xlink:href="#DejaVuSans-65" transform="translate(141.40625 0)"/>
     <use xlink:href="#DejaVuSans-63" transform="translate(202.929688 0)"/>
     <use xlink:href="#DejaVuSans-74" transform="translate(257.910156 0)"/>
     <use xlink:href="#DejaVuSans-20" transform="translate(297.119141 0)"/>
     <use xlink:href="#DejaVuSans-63" transform="translate(328.90625 0)"/>
     <use xlink:href="#DejaVuSans-68" transform="translate(383.886719 0)"/>
     <use xlink:href="#DejaVuSans-65" transform="translate(447.265625 0)"/>
     <use xlink:href="#DejaVuSans-63" transform="translate(508.789062 0)"/>
     <use xlink:href="#DejaVuSans-6b" transform="translate(563.769531 0)"/>
     <use xlink:href="#DejaVuSans-70" transform="translate(621.679688 0)"/>
     <use xlink:href="#DejaVuSans-6f" transform="translate(685.15625 0)"/>
     <use xlink:href="#DejaVuSans-69" transform="translate(746.337891 0)"/>
     <use xlink:href="#DejaVuSans-6e" transform="translate(774.121094 0)"/>
     <use xlink:href="#DejaVuSans-74" transform="translate(837.5 0)"/>
    </g>
    <!-- threshold/weights -->
    <g style="fill: #263238" transform="translate(338.281734 109.444669) scale(0.09 -0.09)">
     <defs>
      <path id="DejaVuSans-64" d="M 2906 2969
L 2906 4863
L 3481 4863
L 3481 0
L 2906 0
L 2906 525
Q 2725 213 2448 61
Q 2172 -91 1784 -91
Q 1150 -91 751 415
Q 353 922 353 1747
Q 353 2572 751 3078
Q 1150 3584 1784 3584
Q 2172 3584 2448 3432
Q 2725 3281 2906 2969
z
M 947 1747
Q 947 1113 1208 752
Q 1469 391 1925 391
Q 2381 391 2643 752
Q 2906 1113 2906 1747
Q 2906 2381 2643 2742
Q 2381 3103 1925 3103
Q 1469 3103 1208 2742
Q 947 2381 947 1747
z
" transform="scale(0.015625)"/>
      <path id="DejaVuSans-2f" d="M 1625 4666
L 2156 4666
L 531 -594
L 0 -594
L 1625 4666
z
" transform="scale(0.015625)"/>
      <path id="DejaVuSans-77" d="M 269 3500
L 844 3500
L 1563 769
L 2278 3500
L 2956 3500
L 3675 769
L 4391 3500
L 4966 3500
L 4050 0
L 3372 0
L 2619 2869
L 1863 0
L 1184 0
L 269 3500
z
" transform="scale(0.015625)"/>
      <path id="DejaVuSans-67" d="M 2906 1791
Q 2906 2416 2648 2759
Q 2391 3103 1925 3103
Q 1463 3103 1205 2759
Q 947 2416 947 1791
Q 947 1169 1205 825
Q 1463 481 1925 481
Q 2391 481 2648 825
Q 2906 1169 2906 1791
z
M 3481 434
Q 3481 -459 3084 -895
Q 2688 -1331 1869 -1331
Q 1566 -1331 1297 -1286
Q 1028 -1241 775 -1147
L 775 -588
Q 1028 -725 1275 -790
Q 1522 -856 1778 -856
Q 2344 -856 2625 -561
Q 2906 -266 2906 331
L 2906 616
Q 2728 306 2450 153
Q 2172 0 1784 0
Q 1141 0 747 490
Q 353 981 353 1791
Q 353 2603 747 3093
Q 1141 3584 1784 3584
Q 2172 3584 2450 3431
Q 2728 3278 2906 2969
L 2906 3500
L 3481 3500
L 3481 434
z
" transform="scale(0.015625)"/>
     </defs>
     <use xlink:href="#DejaVuSans-74"/>
     <use xlink:href="#DejaVuSans-68" transform="translate(39.208984 0)"/>
     <use xlink:href="#DejaVuSans-72" transform="translate(102.587891 0)"/>
     <use xlink:href="#DejaVuSans-65" transform="translate(141.451172 0)"/>
     <use xlink:href="#DejaVuSans-73" transform="translate(202.974609 0)"/>
     <use xlink:href="#DejaVuSans-68" transform="translate(255.074219 0)"/>
     <use xlink:href="#DejaVuSans-6f" transform="translate(318.453125 0)"/>
     <use xlink:href="#DejaVuSans-6c" transform="translate(379.634766 0)"/>
     <use xlink:href="#DejaVuSans-64" transform="translate(407.417969 0)"/>
     <use xlink:href="#DejaVuSans-2f" transform="translate(470.894531 0)"/>
     <use xlink:href="#DejaVuSans-77" transform="translate(504.585938 0)"/>
     <use xlink:href="#DejaVuSans-65" transform="translate(586.373047 0)"/>
     <use xlink:href="#DejaVuSans-69" transform="translate(647.896484 0)"/>
     <use xlink:href="#DejaVuSans-67" transform="translate(675.679688 0)"/>
     <use xlink:href="#DejaVuSans-68" transform="translate(739.15625 0)"/>
     <use xlink:href="#DejaVuSans-74" transform="translate(802.535156 0)"/>
     <use xlink:href="#DejaVuSans-73" transform="translate(841.744141 0)"/>
    </g>
   </g>
   <g id="text_3">
    <!-- DOLOS test -->
    <g style="fill: #263238" transform="translate(575.464134 94.327622) scale(0.09 -0.09)">
     <use xlink:href="#DejaVuSans-44"/>
     <use xlink:href="#DejaVuSans-4f" transform="translate(77.001953 0)"/>
     <use xlink:href="#DejaVuSans-4c" transform="translate(155.712891 0)"/>
     <use xlink:href="#DejaVuSans-4f" transform="translate(207.800781 0)"/>
     <use xlink:href="#DejaVuSans-53" transform="translate(286.511719 0)"/>
     <use xlink:href="#DejaVuSans-20" transform="translate(349.988281 0)"/>
     <use xlink:href="#DejaVuSans-74" transform="translate(381.775391 0)"/>
     <use xlink:href="#DejaVuSans-65" transform="translate(420.984375 0)"/>
     <use xlink:href="#DejaVuSans-73" transform="translate(482.507812 0)"/>
     <use xlink:href="#DejaVuSans-74" transform="translate(534.607422 0)"/>
    </g>
    <!-- in-domain result -->
    <g style="fill: #263238" transform="translate(564.549525 104.405653) scale(0.09 -0.09)">
     <defs>
      <path id="DejaVuSans-2d" d="M 313 2009
L 1997 2009
L 1997 1497
L 313 1497
L 313 2009
z
" transform="scale(0.015625)"/>
      <path id="DejaVuSans-75" d="M 544 1381
L 544 3500
L 1119 3500
L 1119 1403
Q 1119 906 1312 657
Q 1506 409 1894 409
Q 2359 409 2629 706
Q 2900 1003 2900 1516
L 2900 3500
L 3475 3500
L 3475 0
L 2900 0
L 2900 538
Q 2691 219 2414 64
Q 2138 -91 1772 -91
Q 1169 -91 856 284
Q 544 659 544 1381
z
M 1991 3584
L 1991 3584
z
" transform="scale(0.015625)"/>
     </defs>
     <use xlink:href="#DejaVuSans-69"/>
     <use xlink:href="#DejaVuSans-6e" transform="translate(27.783203 0)"/>
     <use xlink:href="#DejaVuSans-2d" transform="translate(91.162109 0)"/>
     <use xlink:href="#DejaVuSans-64" transform="translate(127.246094 0)"/>
     <use xlink:href="#DejaVuSans-6f" transform="translate(190.722656 0)"/>
     <use xlink:href="#DejaVuSans-6d" transform="translate(251.904297 0)"/>
     <use xlink:href="#DejaVuSans-61" transform="translate(349.316406 0)"/>
     <use xlink:href="#DejaVuSans-69" transform="translate(410.595703 0)"/>
     <use xlink:href="#DejaVuSans-6e" transform="translate(438.378906 0)"/>
     <use xlink:href="#DejaVuSans-20" transform="translate(501.757812 0)"/>
     <use xlink:href="#DejaVuSans-72" transform="translate(533.544922 0)"/>
     <use xlink:href="#DejaVuSans-65" transform="translate(572.408203 0)"/>
     <use xlink:href="#DejaVuSans-73" transform="translate(633.931641 0)"/>
     <use xlink:href="#DejaVuSans-75" transform="translate(686.03125 0)"/>
     <use xlink:href="#DejaVuSans-6c" transform="translate(749.410156 0)"/>
     <use xlink:href="#DejaVuSans-74" transform="translate(777.193359 0)"/>
    </g>
   </g>
   <g id="text_4">
    <!-- Final report -->
    <g style="fill: #263238" transform="translate(604.621772 188.993222) scale(0.09 -0.09)">
     <defs>
      <path id="DejaVuSans-46" d="M 628 4666
L 3309 4666
L 3309 4134
L 1259 4134
L 1259 2759
L 3109 2759
L 3109 2228
L 1259 2228
L 1259 0
L 628 0
L 628 4666
z
" transform="scale(0.015625)"/>
     </defs>
     <use xlink:href="#DejaVuSans-46"/>
     <use xlink:href="#DejaVuSans-69" transform="translate(50.269531 0)"/>
     <use xlink:href="#DejaVuSans-6e" transform="translate(78.052734 0)"/>
     <use xlink:href="#DejaVuSans-61" transform="translate(141.431641 0)"/>
     <use xlink:href="#DejaVuSans-6c" transform="translate(202.710938 0)"/>
     <use xlink:href="#DejaVuSans-20" transform="translate(230.494141 0)"/>
     <use xlink:href="#DejaVuSans-72" transform="translate(262.28125 0)"/>
     <use xlink:href="#DejaVuSans-65" transform="translate(301.144531 0)"/>
     <use xlink:href="#DejaVuSans-70" transform="translate(362.667969 0)"/>
     <use xlink:href="#DejaVuSans-6f" transform="translate(426.144531 0)"/>
     <use xlink:href="#DejaVuSans-72" transform="translate(487.326172 0)"/>
     <use xlink:href="#DejaVuSans-74" transform="translate(528.439453 0)"/>
    </g>
    <!-- 3-fold DOLOS mean -->
    <g style="fill: #263238" transform="translate(585.861694 199.071253) scale(0.09 -0.09)">
     <defs>
      <path id="DejaVuSans-33" d="M 2597 2516
Q 3050 2419 3304 2112
Q 3559 1806 3559 1356
Q 3559 666 3084 287
Q 2609 -91 1734 -91
Q 1441 -91 1130 -33
Q 819 25 488 141
L 488 750
Q 750 597 1062 519
Q 1375 441 1716 441
Q 2309 441 2620 675
Q 2931 909 2931 1356
Q 2931 1769 2642 2001
Q 2353 2234 1838 2234
L 1294 2234
L 1294 2753
L 1863 2753
Q 2328 2753 2575 2939
Q 2822 3125 2822 3475
Q 2822 3834 2567 4026
Q 2313 4219 1838 4219
Q 1578 4219 1281 4162
Q 984 4106 628 3988
L 628 4550
Q 988 4650 1302 4700
Q 1616 4750 1894 4750
Q 2613 4750 3031 4423
Q 3450 4097 3450 3541
Q 3450 3153 3228 2886
Q 3006 2619 2597 2516
z
" transform="scale(0.015625)"/>
      <path id="DejaVuSans-66" d="M 2375 4863
L 2375 4384
L 1825 4384
Q 1516 4384 1395 4259
Q 1275 4134 1275 3809
L 1275 3500
L 2222 3500
L 2222 3053
L 1275 3053
L 1275 0
L 697 0
L 697 3053
L 147 3053
L 147 3500
L 697 3500
L 697 3744
Q 697 4328 969 4595
Q 1241 4863 1831 4863
L 2375 4863
z
" transform="scale(0.015625)"/>
     </defs>
     <use xlink:href="#DejaVuSans-33"/>
     <use xlink:href="#DejaVuSans-2d" transform="translate(63.623047 0)"/>
     <use xlink:href="#DejaVuSans-66" transform="translate(99.707031 0)"/>
     <use xlink:href="#DejaVuSans-6f" transform="translate(134.912109 0)"/>
     <use xlink:href="#DejaVuSans-6c" transform="translate(196.09375 0)"/>
     <use xlink:href="#DejaVuSans-64" transform="translate(223.876953 0)"/>
     <use xlink:href="#DejaVuSans-20" transform="translate(287.353516 0)"/>
     <use xlink:href="#DejaVuSans-44" transform="translate(319.140625 0)"/>
     <use xlink:href="#DejaVuSans-4f" transform="translate(396.142578 0)"/>
     <use xlink:href="#DejaVuSans-4c" transform="translate(474.853516 0)"/>
     <use xlink:href="#DejaVuSans-4f" transform="translate(526.941406 0)"/>
     <use xlink:href="#DejaVuSans-53" transform="translate(605.652344 0)"/>
     <use xlink:href="#DejaVuSans-20" transform="translate(669.128906 0)"/>
     <use xlink:href="#DejaVuSans-6d" transform="translate(700.916016 0)"/>
     <use xlink:href="#DejaVuSans-65" transform="translate(798.328125 0)"/>
     <use xlink:href="#DejaVuSans-61" transform="translate(859.851562 0)"/>
     <use xlink:href="#DejaVuSans-6e" transform="translate(921.130859 0)"/>
    </g>
   </g>
   <g id="text_5">
    <!-- Evaluation Protocol: DOLOS 3-Fold Only -->
    <g style="fill: #262626" transform="translate(274.42 21.1296) scale(0.13 -0.13)">
     <defs>
      <path id="DejaVuSans-Bold-45" d="M 588 4666
L 3834 4666
L 3834 3756
L 1791 3756
L 1791 2888
L 3713 2888
L 3713 1978
L 1791 1978
L 1791 909
L 3903 909
L 3903 0
L 588 0
L 588 4666
z
" transform="scale(0.015625)"/>
      <path id="DejaVuSans-Bold-76" d="M 97 3500
L 1216 3500
L 2088 1081
L 2956 3500
L 4078 3500
L 2700 0
L 1472 0
L 97 3500
z
" transform="scale(0.015625)"/>
      <path id="DejaVuSans-Bold-61" d="M 2106 1575
Q 1756 1575 1579 1456
Q 1403 1338 1403 1106
Q 1403 894 1545 773
Q 1688 653 1941 653
Q 2256 653 2472 879
Q 2688 1106 2688 1447
L 2688 1575
L 2106 1575
z
M 3816 1997
L 3816 0
L 2688 0
L 2688 519
Q 2463 200 2181 54
Q 1900 -91 1497 -91
Q 953 -91 614 226
Q 275 544 275 1050
Q 275 1666 698 1953
Q 1122 2241 2028 2241
L 2688 2241
L 2688 2328
Q 2688 2594 2478 2717
Q 2269 2841 1825 2841
Q 1466 2841 1156 2769
Q 847 2697 581 2553
L 581 3406
Q 941 3494 1303 3539
Q 1666 3584 2028 3584
Q 2975 3584 3395 3211
Q 3816 2838 3816 1997
z
" transform="scale(0.015625)"/>
      <path id="DejaVuSans-Bold-6c" d="M 538 4863
L 1656 4863
L 1656 0
L 538 0
L 538 4863
z
" transform="scale(0.015625)"/>
      <path id="DejaVuSans-Bold-75" d="M 500 1363
L 500 3500
L 1625 3500
L 1625 3150
Q 1625 2866 1622 2436
Q 1619 2006 1619 1863
Q 1619 1441 1641 1255
Q 1663 1069 1716 984
Q 1784 875 1895 815
Q 2006 756 2150 756
Q 2500 756 2700 1025
Q 2900 1294 2900 1772
L 2900 3500
L 4019 3500
L 4019 0
L 2900 0
L 2900 506
Q 2647 200 2364 54
Q 2081 -91 1741 -91
Q 1134 -91 817 281
Q 500 653 500 1363
z
" transform="scale(0.015625)"/>
      <path id="DejaVuSans-Bold-74" d="M 1759 4494
L 1759 3500
L 2913 3500
L 2913 2700
L 1759 2700
L 1759 1216
Q 1759 972 1856 886
Q 1953 800 2241 800
L 2816 800
L 2816 0
L 1856 0
Q 1194 0 917 276
Q 641 553 641 1216
L 641 2700
L 84 2700
L 84 3500
L 641 3500
L 641 4494
L 1759 4494
z
" transform="scale(0.015625)"/>
      <path id="DejaVuSans-Bold-69" d="M 538 3500
L 1656 3500
L 1656 0
L 538 0
L 538 3500
z
M 538 4863
L 1656 4863
L 1656 3950
L 538 3950
L 538 4863
z
" transform="scale(0.015625)"/>
      <path id="DejaVuSans-Bold-6f" d="M 2203 2784
Q 1831 2784 1636 2517
Q 1441 2250 1441 1747
Q 1441 1244 1636 976
Q 1831 709 2203 709
Q 2569 709 2762 976
Q 2956 1244 2956 1747
Q 2956 2250 2762 2517
Q 2569 2784 2203 2784
z
M 2203 3584
Q 3106 3584 3614 3096
Q 4122 2609 4122 1747
Q 4122 884 3614 396
Q 3106 -91 2203 -91
Q 1297 -91 786 396
Q 275 884 275 1747
Q 275 2609 786 3096
Q 1297 3584 2203 3584
z
" transform="scale(0.015625)"/>
      <path id="DejaVuSans-Bold-6e" d="M 4056 2131
L 4056 0
L 2931 0
L 2931 347
L 2931 1631
Q 2931 2084 2911 2256
Q 2891 2428 2841 2509
Q 2775 2619 2662 2680
Q 2550 2741 2406 2741
Q 2056 2741 1856 2470
Q 1656 2200 1656 1722
L 1656 0
L 538 0
L 538 3500
L 1656 3500
L 1656 2988
Q 1909 3294 2193 3439
Q 2478 3584 2822 3584
Q 3428 3584 3742 3212
Q 4056 2841 4056 2131
z
" transform="scale(0.015625)"/>
      <path id="DejaVuSans-Bold-20" transform="scale(0.015625)"/>
      <path id="DejaVuSans-Bold-50" d="M 588 4666
L 2584 4666
Q 3475 4666 3951 4270
Q 4428 3875 4428 3144
Q 4428 2409 3951 2014
Q 3475 1619 2584 1619
L 1791 1619
L 1791 0
L 588 0
L 588 4666
z
M 1791 3794
L 1791 2491
L 2456 2491
Q 2806 2491 2997 2661
Q 3188 2831 3188 3144
Q 3188 3456 2997 3625
Q 2806 3794 2456 3794
L 1791 3794
z
" transform="scale(0.015625)"/>
      <path id="DejaVuSans-Bold-72" d="M 3138 2547
Q 2991 2616 2845 2648
Q 2700 2681 2553 2681
Q 2122 2681 1889 2404
Q 1656 2128 1656 1613
L 1656 0
L 538 0
L 538 3500
L 1656 3500
L 1656 2925
Q 1872 3269 2151 3426
Q 2431 3584 2822 3584
Q 2878 3584 2943 3579
Q 3009 3575 3134 3559
L 3138 2547
z
" transform="scale(0.015625)"/>
      <path id="DejaVuSans-Bold-63" d="M 3366 3391
L 3366 2478
Q 3138 2634 2908 2709
Q 2678 2784 2431 2784
Q 1963 2784 1702 2511
Q 1441 2238 1441 1747
Q 1441 1256 1702 982
Q 1963 709 2431 709
Q 2694 709 2930 787
Q 3166 866 3366 1019
L 3366 103
Q 3103 6 2833 -42
Q 2563 -91 2291 -91
Q 1344 -91 809 395
Q 275 881 275 1747
Q 275 2613 809 3098
Q 1344 3584 2291 3584
Q 2566 3584 2833 3536
Q 3100 3488 3366 3391
z
" transform="scale(0.015625)"/>
      <path id="DejaVuSans-Bold-3a" d="M 716 3500
L 1844 3500
L 1844 2291
L 716 2291
L 716 3500
z
M 716 1209
L 1844 1209
L 1844 0
L 716 0
L 716 1209
z
" transform="scale(0.015625)"/>
      <path id="DejaVuSans-Bold-44" d="M 1791 3756
L 1791 909
L 2222 909
Q 2959 909 3348 1275
Q 3738 1641 3738 2338
Q 3738 3031 3350 3393
Q 2963 3756 2222 3756
L 1791 3756
z
M 588 4666
L 1856 4666
Q 2919 4666 3439 4514
Q 3959 4363 4331 4000
Q 4659 3684 4818 3271
Q 4978 2859 4978 2338
Q 4978 1809 4818 1395
Q 4659 981 4331 666
Q 3956 303 3431 151
Q 2906 0 1856 0
L 588 0
L 588 4666
z
" transform="scale(0.015625)"/>
      <path id="DejaVuSans-Bold-4f" d="M 2719 3878
Q 2169 3878 1866 3472
Q 1563 3066 1563 2328
Q 1563 1594 1866 1187
Q 2169 781 2719 781
Q 3272 781 3575 1187
Q 3878 1594 3878 2328
Q 3878 3066 3575 3472
Q 3272 3878 2719 3878
z
M 2719 4750
Q 3844 4750 4481 4106
Q 5119 3463 5119 2328
Q 5119 1197 4481 553
Q 3844 -91 2719 -91
Q 1597 -91 958 553
Q 319 1197 319 2328
Q 319 3463 958 4106
Q 1597 4750 2719 4750
z
" transform="scale(0.015625)"/>
      <path id="DejaVuSans-Bold-4c" d="M 588 4666
L 1791 4666
L 1791 909
L 3903 909
L 3903 0
L 588 0
L 588 4666
z
" transform="scale(0.015625)"/>
      <path id="DejaVuSans-Bold-53" d="M 3834 4519
L 3834 3531
Q 3450 3703 3084 3790
Q 2719 3878 2394 3878
Q 1963 3878 1756 3759
Q 1550 3641 1550 3391
Q 1550 3203 1689 3098
Q 1828 2994 2194 2919
L 2706 2816
Q 3484 2659 3812 2340
Q 4141 2022 4141 1434
Q 4141 663 3683 286
Q 3225 -91 2284 -91
Q 1841 -91 1394 -6
Q 947 78 500 244
L 500 1259
Q 947 1022 1364 901
Q 1781 781 2169 781
Q 2563 781 2772 912
Q 2981 1044 2981 1288
Q 2981 1506 2839 1625
Q 2697 1744 2272 1838
L 1806 1941
Q 1106 2091 782 2419
Q 459 2747 459 3303
Q 459 4000 909 4375
Q 1359 4750 2203 4750
Q 2588 4750 2994 4692
Q 3400 4634 3834 4519
z
" transform="scale(0.015625)"/>
      <path id="DejaVuSans-Bold-33" d="M 2981 2516
Q 3453 2394 3698 2092
Q 3944 1791 3944 1325
Q 3944 631 3412 270
Q 2881 -91 1863 -91
Q 1503 -91 1142 -33
Q 781 25 428 141
L 428 1069
Q 766 900 1098 814
Q 1431 728 1753 728
Q 2231 728 2486 893
Q 2741 1059 2741 1369
Q 2741 1688 2480 1852
Q 2219 2016 1709 2016
L 1228 2016
L 1228 2791
L 1734 2791
Q 2188 2791 2409 2933
Q 2631 3075 2631 3366
Q 2631 3634 2415 3781
Q 2200 3928 1806 3928
Q 1516 3928 1219 3862
Q 922 3797 628 3669
L 628 4550
Q 984 4650 1334 4700
Q 1684 4750 2022 4750
Q 2931 4750 3382 4451
Q 3834 4153 3834 3553
Q 3834 3144 3618 2883
Q 3403 2622 2981 2516
z
" transform="scale(0.015625)"/>
      <path id="DejaVuSans-Bold-2d" d="M 347 2297
L 2309 2297
L 2309 1388
L 347 1388
L 347 2297
z
" transform="scale(0.015625)"/>
      <path id="DejaVuSans-Bold-46" d="M 588 4666
L 3834 4666
L 3834 3756
L 1791 3756
L 1791 2888
L 3713 2888
L 3713 1978
L 1791 1978
L 1791 0
L 588 0
L 588 4666
z
" transform="scale(0.015625)"/>
      <path id="DejaVuSans-Bold-64" d="M 2919 2988
L 2919 4863
L 4044 4863
L 4044 0
L 2919 0
L 2919 506
Q 2688 197 2409 53
Q 2131 -91 1766 -91
Q 1119 -91 703 423
Q 288 938 288 1747
Q 288 2556 703 3070
Q 1119 3584 1766 3584
Q 2128 3584 2408 3439
Q 2688 3294 2919 2988
z
M 2181 722
Q 2541 722 2730 984
Q 2919 1247 2919 1747
Q 2919 2247 2730 2509
Q 2541 2772 2181 2772
Q 1825 2772 1636 2509
Q 1447 2247 1447 1747
Q 1447 1247 1636 984
Q 1825 722 2181 722
z
" transform="scale(0.015625)"/>
      <path id="DejaVuSans-Bold-79" d="M 78 3500
L 1197 3500
L 2138 1125
L 2938 3500
L 4056 3500
L 2584 -331
Q 2363 -916 2067 -1148
Q 1772 -1381 1288 -1381
L 641 -1381
L 641 -647
L 991 -647
Q 1275 -647 1404 -556
Q 1534 -466 1606 -231
L 1638 -134
L 78 3500
z
" transform="scale(0.015625)"/>
     </defs>
     <use xlink:href="#DejaVuSans-Bold-45"/>
     <use xlink:href="#DejaVuSans-Bold-76" transform="translate(68.310547 0)"/>
     <use xlink:href="#DejaVuSans-Bold-61" transform="translate(133.496094 0)"/>
     <use xlink:href="#DejaVuSans-Bold-6c" transform="translate(200.976562 0)"/>
     <use xlink:href="#DejaVuSans-Bold-75" transform="translate(235.253906 0)"/>
     <use xlink:href="#DejaVuSans-Bold-61" transform="translate(306.445312 0)"/>
     <use xlink:href="#DejaVuSans-Bold-74" transform="translate(373.925781 0)"/>
     <use xlink:href="#DejaVuSans-Bold-69" transform="translate(421.728516 0)"/>
     <use xlink:href="#DejaVuSans-Bold-6f" transform="translate(456.005859 0)"/>
     <use xlink:href="#DejaVuSans-Bold-6e" transform="translate(524.707031 0)"/>
     <use xlink:href="#DejaVuSans-Bold-20" transform="translate(595.898438 0)"/>
     <use xlink:href="#DejaVuSans-Bold-50" transform="translate(630.712891 0)"/>
     <use xlink:href="#DejaVuSans-Bold-72" transform="translate(704.003906 0)"/>
     <use xlink:href="#DejaVuSans-Bold-6f" transform="translate(753.320312 0)"/>
     <use xlink:href="#DejaVuSans-Bold-74" transform="translate(822.021484 0)"/>
     <use xlink:href="#DejaVuSans-Bold-6f" transform="translate(869.824219 0)"/>
     <use xlink:href="#DejaVuSans-Bold-63" transform="translate(938.525391 0)"/>
     <use xlink:href="#DejaVuSans-Bold-6f" transform="translate(997.802734 0)"/>
     <use xlink:href="#DejaVuSans-Bold-6c" transform="translate(1066.503906 0)"/>
     <use xlink:href="#DejaVuSans-Bold-3a" transform="translate(1100.78125 0)"/>
     <use xlink:href="#DejaVuSans-Bold-20" transform="translate(1140.771484 0)"/>
     <use xlink:href="#DejaVuSans-Bold-44" transform="translate(1175.585938 0)"/>
     <use xlink:href="#DejaVuSans-Bold-4f" transform="translate(1258.59375 0)"/>
     <use xlink:href="#DejaVuSans-Bold-4c" transform="translate(1343.603516 0)"/>
     <use xlink:href="#DejaVuSans-Bold-4f" transform="translate(1403.699219 0)"/>
     <use xlink:href="#DejaVuSans-Bold-53" transform="translate(1488.708984 0)"/>
     <use xlink:href="#DejaVuSans-Bold-20" transform="translate(1560.730469 0)"/>
     <use xlink:href="#DejaVuSans-Bold-33" transform="translate(1595.544922 0)"/>
     <use xlink:href="#DejaVuSans-Bold-2d" transform="translate(1665.125 0)"/>
     <use xlink:href="#DejaVuSans-Bold-46" transform="translate(1706.628906 0)"/>
     <use xlink:href="#DejaVuSans-Bold-6f" transform="translate(1770.939453 0)"/>
     <use xlink:href="#DejaVuSans-Bold-6c" transform="translate(1839.640625 0)"/>
     <use xlink:href="#DejaVuSans-Bold-64" transform="translate(1873.917969 0)"/>
     <use xlink:href="#DejaVuSans-Bold-20" transform="translate(1945.5 0)"/>
     <use xlink:href="#DejaVuSans-Bold-4f" transform="translate(1980.314453 0)"/>
     <use xlink:href="#DejaVuSans-Bold-6e" transform="translate(2065.324219 0)"/>
     <use xlink:href="#DejaVuSans-Bold-6c" transform="translate(2136.515625 0)"/>
     <use xlink:href="#DejaVuSans-Bold-79" transform="translate(2170.792969 0)"/>
    </g>
   </g>
  </g>
 </g>
 <defs>
  <clipPath id="p99bd43d3aa">
   <rect x="7.2" y="7.2" width="825.12" height="249.12"/>
  </clipPath>
 </defs>
</svg>
