<?xml version="1.0" encoding="utf-8" standalone="no"?>
<!DOCTYPE svg PUBLIC "-//W3C//DTD SVG 1.1//EN"
  "http://www.w3.org/Graphics/SVG/1.1/DTD/svg11.dtd">
<svg xmlns:xlink="http://www.w3.org/1999/xlink" width="479.27875pt" height="406.514219pt" viewBox="0 0 479.27875 406.514219" xmlns="http://www.w3.org/2000/svg" version="1.1">
 <metadata>
  <rdf:RDF xmlns:dc="http://purl.org/dc/elements/1.1/" xmlns:cc="http://creativecommons.org/ns#" xmlns:rdf="http://www.w3.org/1999/02/22-rdf-syntax-ns#">
   <cc:Work>
    <dc:type rdf:resource="http://purl.org/dc/dcmitype/StillImage"/>
    <dc:date>2026-05-23T16:02:38.762283</dc:date>
    <dc:format>image/svg+xml</dc:format>
    <dc:creator>
     <cc:Agent>
      <dc:title>Matplotlib v3.10.9, https://matplotlib.org/</dc:title>
     </cc:Agent>
    </dc:creator>
   </cc:Work>
  </rdf:RDF>
 </metadata>
 <defs>
  <style type="text/css">*{stroke-linejoin: round; stroke-linecap: butt}</style>
 </defs>
 <g id="figure_1">
  <g id="patch_1">
   <path d="M 0 406.514219
L 479.27875 406.514219
L 479.27875 0
L 0 0
z
" style="fill: #ffffff"/>
  </g>
  <g id="axes_1">
   <g id="patch_2">
    <path d="M 48.65875 363.457969
L 472.07875 363.457969
L 472.07875 23.077969
L 48.65875 23.077969
z
" style="fill: #ffffff"/>
   </g>
   <g id="matplotlib.axis_1">
    <g id="xtick_1">
     <g id="line2d_1">
      <path d="M 67.905114 363.457969
L 67.905114 23.077969
" clip-path="url(#p413a34293a)" style="fill: none; stroke: #cccccc; stroke-width: 1.5; stroke-linecap: round"/>
     </g>
     <g id="text_1">
      <!-- 0.0 -->
      <g style="fill: #262626" transform="translate(60.748707 382.796562) scale(0.09 -0.09)">
       <defs>
        <path id="DejaVuSans-30" d="M 2034 4250
Q 1547 4250 1301 3770
Q 1056 3291 1056 2328
Q 1056 1369 1301 889
Q 1547 409 2034 409
Q 2525 409 2770 889
Q 3016 1369 3016 2328
Q 3016 3291 2770 3770
Q 2525 4250 2034 4250
z
M 2034 4750
Q 2819 4750 3233 4129
Q 3647 3509 3647 2328
Q 3647 1150 3233 529
Q 2819 -91 2034 -91
Q 1250 -91 836 529
Q 422 1150 422 2328
Q 422 3509 836 4129
Q 1250 4750 2034 4750
z
" transform="scale(0.015625)"/>
        <path id="DejaVuSans-2e" d="M 684 794
L 1344 794
L 1344 0
L 684 0
L 684 794
z
" transform="scale(0.015625)"/>
       </defs>
       <use xlink:href="#DejaVuSans-30"/>
       <use xlink:href="#DejaVuSans-2e" transform="translate(63.623047 0)"/>
       <use xlink:href="#DejaVuSans-30" transform="translate(95.410156 0)"/>
      </g>
     </g>
    </g>
    <g id="xtick_2">
     <g id="line2d_2">
      <path d="M 144.890568 363.457969
L 144.890568 23.077969
" clip-path="url(#p413a34293a)" style="fill: none; stroke: #cccccc; stroke-width: 1.5; stroke-linecap: round"/>
     </g>
     <g id="text_2">
      <!-- 0.2 -->
      <g style="fill: #262626" transform="translate(137.734162 382.796562) scale(0.09 -0.09)">
       <defs>
        <path id="DejaVuSans-32" d="M 1228 531
L 3431 531
L 3431 0
L 469 0
L 469 531
Q 828 903 1448 1529
Q 2069 2156 2228 2338
Q 2531 2678 2651 2914
Q 2772 3150 2772 3378
Q 2772 3750 2511 3984
Q 2250 4219 1831 4219
Q 1534 4219 1204 4116
Q 875 4013 500 3803
L 500 4441
Q 881 4594 1212 4672
Q 1544 4750 1819 4750
Q 2544 4750 2975 4387
Q 3406 4025 3406 3419
Q 3406 3131 3298 2873
Q 3191 2616 2906 2266
Q 2828 2175 2409 1742
Q 1991 1309 1228 531
z
" transform="scale(0.015625)"/>
       </defs>
       <use xlink:href="#DejaVuSans-30"/>
       <use xlink:href="#DejaVuSans-2e" transform="translate(63.623047 0)"/>
       <use xlink:href="#DejaVuSans-32" transform="translate(95.410156 0)"/>
      </g>
     </g>
    </g>
    <g id="xtick_3">
     <g id="line2d_3">
      <path d="M 221.876023 363.457969
L 221.876023 23.077969
" clip-path="url(#p413a34293a)" style="fill: none; stroke: #cccccc; stroke-width: 1.5; stroke-linecap: round"/>
     </g>
     <g id="text_3">
      <!-- 0.4 -->
      <g style="fill: #262626" transform="translate(214.719616 382.796562) scale(0.09 -0.09)">
       <defs>
        <path id="DejaVuSans-34" d="M 2419 4116
L 825 1625
L 2419 1625
L 2419 4116
z
M 2253 4666
L 3047 4666
L 3047 1625
L 3713 1625
L 3713 1100
L 3047 1100
L 3047 0
L 2419 0
L 2419 1100
L 313 1100
L 313 1709
L 2253 4666
z
" transform="scale(0.015625)"/>
       </defs>
       <use xlink:href="#DejaVuSans-30"/>
       <use xlink:href="#DejaVuSans-2e" transform="translate(63.623047 0)"/>
       <use xlink:href="#DejaVuSans-34" transform="translate(95.410156 0)"/>
      </g>
     </g>
    </g>
    <g id="xtick_4">
     <g id="line2d_4">
      <path d="M 298.861477 363.457969
L 298.861477 23.077969
" clip-path="url(#p413a34293a)" style="fill: none; stroke: #cccccc; stroke-width: 1.5; stroke-linecap: round"/>
     </g>
     <g id="text_4">
      <!-- 0.6 -->
      <g style="fill: #262626" transform="translate(291.705071 382.796562) scale(0.09 -0.09)">
       <defs>
        <path id="DejaVuSans-36" d="M 2113 2584
Q 1688 2584 1439 2293
Q 1191 2003 1191 1497
Q 1191 994 1439 701
Q 1688 409 2113 409
Q 2538 409 2786 701
Q 3034 994 3034 1497
Q 3034 2003 2786 2293
Q 2538 2584 2113 2584
z
M 3366 4563
L 3366 3988
Q 3128 4100 2886 4159
Q 2644 4219 2406 4219
Q 1781 4219 1451 3797
Q 1122 3375 1075 2522
Q 1259 2794 1537 2939
Q 1816 3084 2150 3084
Q 2853 3084 3261 2657
Q 3669 2231 3669 1497
Q 3669 778 3244 343
Q 2819 -91 2113 -91
Q 1303 -91 875 529
Q 447 1150 447 2328
Q 447 3434 972 4092
Q 1497 4750 2381 4750
Q 2619 4750 2861 4703
Q 3103 4656 3366 4563
z
" transform="scale(0.015625)"/>
       </defs>
       <use xlink:href="#DejaVuSans-30"/>
       <use xlink:href="#DejaVuSans-2e" transform="translate(63.623047 0)"/>
       <use xlink:href="#DejaVuSans-36" transform="translate(95.410156 0)"/>
      </g>
     </g>
    </g>
    <g id="xtick_5">
     <g id="line2d_5">
      <path d="M 375.846932 363.457969
L 375.846932 23.077969
" clip-path="url(#p413a34293a)" style="fill: none; stroke: #cccccc; stroke-width: 1.5; stroke-linecap: round"/>
     </g>
     <g id="text_5">
      <!-- 0.8 -->
      <g style="fill: #262626" transform="translate(368.690526 382.796562) scale(0.09 -0.09)">
       <defs>
        <path id="DejaVuSans-38" d="M 2034 2216
Q 1584 2216 1326 1975
Q 1069 1734 1069 1313
Q 1069 891 1326 650
Q 1584 409 2034 409
Q 2484 409 2743 651
Q 3003 894 3003 1313
Q 3003 1734 2745 1975
Q 2488 2216 2034 2216
z
M 1403 2484
Q 997 2584 770 2862
Q 544 3141 544 3541
Q 544 4100 942 4425
Q 1341 4750 2034 4750
Q 2731 4750 3128 4425
Q 3525 4100 3525 3541
Q 3525 3141 3298 2862
Q 3072 2584 2669 2484
Q 3125 2378 3379 2068
Q 3634 1759 3634 1313
Q 3634 634 3220 271
Q 2806 -91 2034 -91
Q 1263 -91 848 271
Q 434 634 434 1313
Q 434 1759 690 2068
Q 947 2378 1403 2484
z
M 1172 3481
Q 1172 3119 1398 2916
Q 1625 2713 2034 2713
Q 2441 2713 2670 2916
Q 2900 3119 2900 3481
Q 2900 3844 2670 4047
Q 2441 4250 2034 4250
Q 1625 4250 1398 4047
Q 1172 3844 1172 3481
z
" transform="scale(0.015625)"/>
       </defs>
       <use xlink:href="#DejaVuSans-30"/>
       <use xlink:href="#DejaVuSans-2e" transform="translate(63.623047 0)"/>
       <use xlink:href="#DejaVuSans-38" transform="translate(95.410156 0)"/>
      </g>
     </g>
    </g>
    <g id="xtick_6">
     <g id="line2d_6">
      <path d="M 452.832386 363.457969
L 452.832386 23.077969
" clip-path="url(#p413a34293a)" style="fill: none; stroke: #cccccc; stroke-width: 1.5; stroke-linecap: round"/>
     </g>
     <g id="text_6">
      <!-- 1.0 -->
      <g style="fill: #262626" transform="translate(445.67598 382.796562) scale(0.09 -0.09)">
       <defs>
        <path id="DejaVuSans-31" d="M 794 531
L 1825 531
L 1825 4091
L 703 3866
L 703 4441
L 1819 4666
L 2450 4666
L 2450 531
L 3481 531
L 3481 0
L 794 0
L 794 531
z
" transform="scale(0.015625)"/>
       </defs>
       <use xlink:href="#DejaVuSans-31"/>
       <use xlink:href="#DejaVuSans-2e" transform="translate(63.623047 0)"/>
       <use xlink:href="#DejaVuSans-30" transform="translate(95.410156 0)"/>
      </g>
     </g>
    </g>
    <g id="text_7">
     <!-- Recall (Lie) -->
     <g style="fill: #262626" transform="translate(229.943438 397.026563) scale(0.11 -0.11)">
      <defs>
       <path id="DejaVuSans-52" d="M 2841 2188
Q 3044 2119 3236 1894
Q 3428 1669 3622 1275
L 4263 0
L 3584 0
L 2988 1197
Q 2756 1666 2539 1819
Q 2322 1972 1947 1972
L 1259 1972
L 1259 0
L 628 0
L 628 4666
L 2053 4666
Q 2853 4666 3247 4331
Q 3641 3997 3641 3322
Q 3641 2881 3436 2590
Q 3231 2300 2841 2188
z
M 1259 4147
L 1259 2491
L 2053 2491
Q 2509 2491 2742 2702
Q 2975 2913 2975 3322
Q 2975 3731 2742 3939
Q 2509 4147 2053 4147
L 1259 4147
z
" transform="scale(0.015625)"/>
       <path id="DejaVuSans-65" d="M 3597 1894
L 3597 1613
L 953 1613
Q 991 1019 1311 708
Q 1631 397 2203 397
Q 2534 397 2845 478
Q 3156 559 3463 722
L 3463 178
Q 3153 47 2828 -22
Q 2503 -91 2169 -91
Q 1331 -91 842 396
Q 353 884 353 1716
Q 353 2575 817 3079
Q 1281 3584 2069 3584
Q 2775 3584 3186 3129
Q 3597 2675 3597 1894
z
M 3022 2063
Q 3016 2534 2758 2815
Q 2500 3097 2075 3097
Q 1594 3097 1305 2825
Q 1016 2553 972 2059
L 3022 2063
z
" transform="scale(0.015625)"/>
       <path id="DejaVuSans-63" d="M 3122 3366
L 3122 2828
Q 2878 2963 2633 3030
Q 2388 3097 2138 3097
Q 1578 3097 1268 2742
Q 959 2388 959 1747
Q 959 1106 1268 751
Q 1578 397 2138 397
Q 2388 397 2633 464
Q 2878 531 3122 666
L 3122 134
Q 2881 22 2623 -34
Q 2366 -91 2075 -91
Q 1284 -91 818 406
Q 353 903 353 1747
Q 353 2603 823 3093
Q 1294 3584 2113 3584
Q 2378 3584 2631 3529
Q 2884 3475 3122 3366
z
" transform="scale(0.015625)"/>
       <path id="DejaVuSans-61" d="M 2194 1759
Q 1497 1759 1228 1600
Q 959 1441 959 1056
Q 959 750 1161 570
Q 1363 391 1709 391
Q 2188 391 2477 730
Q 2766 1069 2766 1631
L 2766 1759
L 2194 1759
z
M 3341 1997
L 3341 0
L 2766 0
L 2766 531
Q 2569 213 2275 61
Q 1981 -91 1556 -91
Q 1019 -91 701 211
Q 384 513 384 1019
Q 384 1609 779 1909
Q 1175 2209 1959 2209
L 2766 2209
L 2766 2266
Q 2766 2663 2505 2880
Q 2244 3097 1772 3097
Q 1472 3097 1187 3025
Q 903 2953 641 2809
L 641 3341
Q 956 3463 1253 3523
Q 1550 3584 1831 3584
Q 2591 3584 2966 3190
Q 3341 2797 3341 1997
z
" transform="scale(0.015625)"/>
       <path id="DejaVuSans-6c" d="M 603 4863
L 1178 4863
L 1178 0
L 603 0
L 603 4863
z
" transform="scale(0.015625)"/>
       <path id="DejaVuSans-20" transform="scale(0.015625)"/>
       <path id="DejaVuSans-28" d="M 1984 4856
Q 1566 4138 1362 3434
Q 1159 2731 1159 2009
Q 1159 1288 1364 580
Q 1569 -128 1984 -844
L 1484 -844
Q 1016 -109 783 600
Q 550 1309 550 2009
Q 550 2706 781 3412
Q 1013 4119 1484 4856
L 1984 4856
z
" transform="scale(0.015625)"/>
       <path id="DejaVuSans-4c" d="M 628 4666
L 1259 4666
L 1259 531
L 3531 531
L 3531 0
L 628 0
L 628 4666
z
" transform="scale(0.015625)"/>
       <path id="DejaVuSans-69" d="M 603 3500
L 1178 3500
L 1178 0
L 603 0
L 603 3500
z
M 603 4863
L 1178 4863
L 1178 4134
L 603 4134
L 603 4863
z
" transform="scale(0.015625)"/>
       <path id="DejaVuSans-29" d="M 513 4856
L 1013 4856
Q 1481 4119 1714 3412
Q 1947 2706 1947 2009
Q 1947 1309 1714 600
Q 1481 -109 1013 -844
L 513 -844
Q 928 -128 1133 580
Q 1338 1288 1338 2009
Q 1338 2731 1133 3434
Q 928 4138 513 4856
z
" transform="scale(0.015625)"/>
      </defs>
      <use xlink:href="#DejaVuSans-52"/>
      <use xlink:href="#DejaVuSans-65" transform="translate(64.982422 0)"/>
      <use xlink:href="#DejaVuSans-63" transform="translate(126.505859 0)"/>
      <use xlink:href="#DejaVuSans-61" transform="translate(181.486328 0)"/>
      <use xlink:href="#DejaVuSans-6c" transform="translate(242.765625 0)"/>
      <use xlink:href="#DejaVuSans-6c" transform="translate(270.548828 0)"/>
      <use xlink:href="#DejaVuSans-20" transform="translate(298.332031 0)"/>
      <use xlink:href="#DejaVuSans-28" transform="translate(330.119141 0)"/>
      <use xlink:href="#DejaVuSans-4c" transform="translate(369.132812 0)"/>
      <use xlink:href="#DejaVuSans-69" transform="translate(424.845703 0)"/>
      <use xlink:href="#DejaVuSans-65" transform="translate(452.628906 0)"/>
      <use xlink:href="#DejaVuSans-29" transform="translate(514.152344 0)"/>
     </g>
    </g>
   </g>
   <g id="matplotlib.axis_2">
    <g id="ytick_1">
     <g id="line2d_7">
      <path d="M 48.65875 347.986151
L 472.07875 347.986151
" clip-path="url(#p413a34293a)" style="fill: none; stroke: #cccccc; stroke-width: 1.5; stroke-linecap: round"/>
     </g>
     <g id="text_8">
      <!-- 0.0 -->
      <g style="fill: #262626" transform="translate(21.845938 351.405447) scale(0.09 -0.09)">
       <use xlink:href="#DejaVuSans-30"/>
       <use xlink:href="#DejaVuSans-2e" transform="translate(63.623047 0)"/>
       <use xlink:href="#DejaVuSans-30" transform="translate(95.410156 0)"/>
      </g>
     </g>
    </g>
    <g id="ytick_2">
     <g id="line2d_8">
      <path d="M 48.65875 286.098878
L 472.07875 286.098878
" clip-path="url(#p413a34293a)" style="fill: none; stroke: #cccccc; stroke-width: 1.5; stroke-linecap: round"/>
     </g>
     <g id="text_9">
      <!-- 0.2 -->
      <g style="fill: #262626" transform="translate(21.845938 289.518175) scale(0.09 -0.09)">
       <use xlink:href="#DejaVuSans-30"/>
       <use xlink:href="#DejaVuSans-2e" transform="translate(63.623047 0)"/>
       <use xlink:href="#DejaVuSans-32" transform="translate(95.410156 0)"/>
      </g>
     </g>
    </g>
    <g id="ytick_3">
     <g id="line2d_9">
      <path d="M 48.65875 224.211605
L 472.07875 224.211605
" clip-path="url(#p413a34293a)" style="fill: none; stroke: #cccccc; stroke-width: 1.5; stroke-linecap: round"/>
     </g>
     <g id="text_10">
      <!-- 0.4 -->
      <g style="fill: #262626" transform="translate(21.845938 227.630902) scale(0.09 -0.09)">
       <use xlink:href="#DejaVuSans-30"/>
       <use xlink:href="#DejaVuSans-2e" transform="translate(63.623047 0)"/>
       <use xlink:href="#DejaVuSans-34" transform="translate(95.410156 0)"/>
      </g>
     </g>
    </g>
    <g id="ytick_4">
     <g id="line2d_10">
      <path d="M 48.65875 162.324332
L 472.07875 162.324332
" clip-path="url(#p413a34293a)" style="fill: none; stroke: #cccccc; stroke-width: 1.5; stroke-linecap: round"/>
     </g>
     <g id="text_11">
      <!-- 0.6 -->
      <g style="fill: #262626" transform="translate(21.845938 165.743629) scale(0.09 -0.09)">
       <use xlink:href="#DejaVuSans-30"/>
       <use xlink:href="#DejaVuSans-2e" transform="translate(63.623047 0)"/>
       <use xlink:href="#DejaVuSans-36" transform="translate(95.410156 0)"/>
      </g>
     </g>
    </g>
    <g id="ytick_5">
     <g id="line2d_11">
      <path d="M 48.65875 100.43706
L 472.07875 100.43706
" clip-path="url(#p413a34293a)" style="fill: none; stroke: #cccccc; stroke-width: 1.5; stroke-linecap: round"/>
     </g>
     <g id="text_12">
      <!-- 0.8 -->
      <g style="fill: #262626" transform="translate(21.845938 103.856357) scale(0.09 -0.09)">
       <use xlink:href="#DejaVuSans-30"/>
       <use xlink:href="#DejaVuSans-2e" transform="translate(63.623047 0)"/>
       <use xlink:href="#DejaVuSans-38" transform="translate(95.410156 0)"/>
      </g>
     </g>
    </g>
    <g id="ytick_6">
     <g id="line2d_12">
      <path d="M 48.65875 38.549787
L 472.07875 38.549787
" clip-path="url(#p413a34293a)" style="fill: none; stroke: #cccccc; stroke-width: 1.5; stroke-linecap: round"/>
     </g>
     <g id="text_13">
      <!-- 1.0 -->
      <g style="fill: #262626" transform="translate(21.845938 41.969084) scale(0.09 -0.09)">
       <use xlink:href="#DejaVuSans-31"/>
       <use xlink:href="#DejaVuSans-2e" transform="translate(63.623047 0)"/>
       <use xlink:href="#DejaVuSans-30" transform="translate(95.410156 0)"/>
      </g>
     </g>
    </g>
    <g id="text_14">
     <!-- Precision (Lie) -->
     <g style="fill: #262626" transform="translate(15.558281 231.822109) rotate(-90) scale(0.11 -0.11)">
      <defs>
       <path id="DejaVuSans-50" d="M 1259 4147
L 1259 2394
L 2053 2394
Q 2494 2394 2734 2622
Q 2975 2850 2975 3272
Q 2975 3691 2734 3919
Q 2494 4147 2053 4147
L 1259 4147
z
M 628 4666
L 2053 4666
Q 2838 4666 3239 4311
Q 3641 3956 3641 3272
Q 3641 2581 3239 2228
Q 2838 1875 2053 1875
L 1259 1875
L 1259 0
L 628 0
L 628 4666
z
" transform="scale(0.015625)"/>
       <path id="DejaVuSans-72" d="M 2631 2963
Q 2534 3019 2420 3045
Q 2306 3072 2169 3072
Q 1681 3072 1420 2755
Q 1159 2438 1159 1844
L 1159 0
L 581 0
L 581 3500
L 1159 3500
L 1159 2956
Q 1341 3275 1631 3429
Q 1922 3584 2338 3584
Q 2397 3584 2469 3576
Q 2541 3569 2628 3553
L 2631 2963
z
" transform="scale(0.015625)"/>
       <path id="DejaVuSans-73" d="M 2834 3397
L 2834 2853
Q 2591 2978 2328 3040
Q 2066 3103 1784 3103
Q 1356 3103 1142 2972
Q 928 2841 928 2578
Q 928 2378 1081 2264
Q 1234 2150 1697 2047
L 1894 2003
Q 2506 1872 2764 1633
Q 3022 1394 3022 966
Q 3022 478 2636 193
Q 2250 -91 1575 -91
Q 1294 -91 989 -36
Q 684 19 347 128
L 347 722
Q 666 556 975 473
Q 1284 391 1588 391
Q 1994 391 2212 530
Q 2431 669 2431 922
Q 2431 1156 2273 1281
Q 2116 1406 1581 1522
L 1381 1569
Q 847 1681 609 1914
Q 372 2147 372 2553
Q 372 3047 722 3315
Q 1072 3584 1716 3584
Q 2034 3584 2315 3537
Q 2597 3491 2834 3397
z
" transform="scale(0.015625)"/>
       <path id="DejaVuSans-6f" d="M 1959 3097
Q 1497 3097 1228 2736
Q 959 2375 959 1747
Q 959 1119 1226 758
Q 1494 397 1959 397
Q 2419 397 2687 759
Q 2956 1122 2956 1747
Q 2956 2369 2687 2733
Q 2419 3097 1959 3097
z
M 1959 3584
Q 2709 3584 3137 3096
Q 3566 2609 3566 1747
Q 3566 888 3137 398
Q 2709 -91 1959 -91
Q 1206 -91 779 398
Q 353 888 353 1747
Q 353 2609 779 3096
Q 1206 3584 1959 3584
z
" transform="scale(0.015625)"/>
       <path id="DejaVuSans-6e" d="M 3513 2113
L 3513 0
L 2938 0
L 2938 2094
Q 2938 2591 2744 2837
Q 2550 3084 2163 3084
Q 1697 3084 1428 2787
Q 1159 2491 1159 1978
L 1159 0
L 581 0
L 581 3500
L 1159 3500
L 1159 2956
Q 1366 3272 1645 3428
Q 1925 3584 2291 3584
Q 2894 3584 3203 3211
Q 3513 2838 3513 2113
z
" transform="scale(0.015625)"/>
      </defs>
      <use xlink:href="#DejaVuSans-50"/>
      <use xlink:href="#DejaVuSans-72" transform="translate(58.552734 0)"/>
      <use xlink:href="#DejaVuSans-65" transform="translate(97.416016 0)"/>
      <use xlink:href="#DejaVuSans-63" transform="translate(158.939453 0)"/>
      <use xlink:href="#DejaVuSans-69" transform="translate(213.919922 0)"/>
      <use xlink:href="#DejaVuSans-73" transform="translate(241.703125 0)"/>
      <use xlink:href="#DejaVuSans-69" transform="translate(293.802734 0)"/>
      <use xlink:href="#DejaVuSans-6f" transform="translate(321.585938 0)"/>
      <use xlink:href="#DejaVuSans-6e" transform="translate(382.767578 0)"/>
      <use xlink:href="#DejaVuSans-20" transform="translate(446.146484 0)"/>
      <use xlink:href="#DejaVuSans-28" transform="translate(477.933594 0)"/>
      <use xlink:href="#DejaVuSans-4c" transform="translate(516.947266 0)"/>
      <use xlink:href="#DejaVuSans-69" transform="translate(572.660156 0)"/>
      <use xlink:href="#DejaVuSans-65" transform="translate(600.443359 0)"/>
      <use xlink:href="#DejaVuSans-29" transform="translate(661.966797 0)"/>
     </g>
    </g>
   </g>
   <g id="line2d_13">
    <path d="M 452.832386 184.612406
L 452.832386 182.295048
L 452.322549 182.397067
L 452.322549 181.688917
L 451.812711 181.791014
L 451.812711 181.553592
L 450.793037 181.758176
L 450.793037 181.520027
L 450.283199 181.622514
L 450.283199 181.383658
L 449.263524 181.589026
L 449.263524 181.229378
L 448.753687 181.332247
L 448.753687 180.85024
L 447.734012 181.056324
L 447.734012 180.93536
L 446.714337 181.142015
L 446.714337 180.656297
L 446.2045 180.759798
L 446.2045 180.51585
L 445.694662 180.619475
L 445.694662 180.49722
L 445.184825 180.600983
L 445.184825 180.478536
L 444.674987 180.582437
L 444.674987 179.0988
L 444.16515 179.202679
L 444.16515 178.70221
L 443.655312 178.80618
L 443.655312 178.176322
L 443.145475 178.280365
L 443.145475 178.153814
L 441.615963 178.466827
L 441.615963 177.958523
L 441.106125 178.063106
L 441.106125 177.423336
L 439.576613 177.737766
L 439.576613 177.60918
L 436.007751 178.348296
L 436.007751 178.219392
L 435.497913 178.325604
L 435.497913 178.067173
L 434.988076 178.173512
L 434.988076 178.043983
L 433.458563 178.363924
L 433.458563 178.234144
L 432.948726 178.3411
L 432.948726 177.950513
L 432.438888 178.057579
L 432.438888 177.533916
L 431.929051 177.641075
L 431.929051 177.509635
L 431.419214 177.61694
L 431.419214 177.353415
L 430.399539 177.568448
L 430.399539 177.038789
L 429.379864 177.254336
L 429.379864 176.854807
L 428.870026 176.962774
L 428.870026 176.561311
L 428.360189 176.669385
L 428.360189 176.535125
L 427.340514 176.751742
L 427.340514 176.34757
L 426.320839 176.564745
L 426.320839 176.294151
L 425.811002 176.402954
L 425.811002 176.267315
L 424.281489 176.594694
L 424.281489 176.458777
L 423.261814 176.677854
L 423.261814 176.405287
L 422.751977 176.515045
L 422.751977 176.241566
L 421.222465 176.571762
L 421.222465 176.297279
L 420.20279 176.518206
L 420.20279 176.104698
L 418.16344 176.548423
L 418.16344 176.132649
L 417.143765 176.355455
L 417.143765 176.07706
L 416.633928 176.188689
L 416.633928 175.629088
L 414.08474 176.18951
L 414.08474 175.908107
L 413.574903 176.020696
L 413.574903 175.738323
L 413.065065 175.851049
L 413.065065 175.709491
L 412.045391 175.793615
L 412.045391 175.651542
L 411.535553 175.764756
L 411.535553 175.622424
L 410.515878 175.849365
L 410.515878 175.133918
L 410.006041 175.247548
L 410.006041 175.103719
L 407.966691 175.56004
L 407.966691 175.415871
L 405.417504 175.990456
L 405.417504 175.701144
L 404.907666 175.816591
L 404.907666 175.380719
L 404.397829 175.496286
L 404.397829 175.350479
L 403.887991 175.466215
L 403.887991 175.027233
L 402.868317 175.25914
L 402.868317 175.112264
L 402.358479 175.228487
L 402.358479 175.081334
L 399.809292 175.665301
L 399.809292 174.925092
L 399.299454 175.042353
L 399.299454 174.744431
L 398.27978 174.979452
L 398.27978 174.830051
L 397.769942 174.947838
L 397.769942 174.648205
L 394.710917 175.358902
L 394.710917 174.906998
L 393.691242 175.145385
L 393.691242 174.994168
L 393.181405 175.113646
L 393.181405 174.962137
L 392.671568 175.081797
L 392.671568 174.625584
L 391.651893 174.865366
L 391.651893 174.099344
L 390.632218 174.339681
L 390.632218 174.03125
L 390.12238 174.151678
L 390.12238 173.997021
L 389.102705 174.23846
L 389.102705 173.772648
L 388.592868 173.893599
L 388.592868 173.737742
L 385.533843 174.46783
L 385.533843 174.154902
L 385.024006 174.277289
L 385.024006 173.647909
L 380.435469 174.758305
L 380.435469 174.599961
L 379.925631 174.724436
L 379.925631 174.565771
L 379.415794 174.690442
L 379.415794 173.892579
L 377.376444 174.392923
L 377.376444 174.071454
L 376.866607 174.197053
L 376.866607 173.225259
L 376.356769 173.350889
L 376.356769 172.696825
L 375.846932 172.822548
L 375.846932 172.493603
L 375.337094 172.61949
L 375.337094 172.123637
L 374.317419 172.375901
L 374.317419 171.542835
L 373.807582 171.669134
L 373.807582 171.165371
L 373.297745 171.291792
L 373.297745 170.954267
L 372.787907 171.080849
L 372.787907 170.572013
L 371.768232 170.825658
L 371.768232 170.484637
L 371.258395 170.611742
L 371.258395 170.26932
L 370.23872 170.524097
L 370.23872 170.352304
L 368.709208 170.736195
L 368.709208 170.56394
L 368.19937 170.692359
L 368.19937 169.999805
L 367.689533 170.128299
L 367.689533 169.254734
L 367.179695 169.383254
L 367.179695 169.031327
L 366.669858 169.160007
L 366.669858 167.018377
L 365.650183 167.275314
L 365.650183 167.094422
L 364.630508 167.352285
L 364.630508 166.807113
L 363.100996 167.195379
L 363.100996 166.829776
L 362.081321 167.089715
L 362.081321 166.722413
L 361.571483 166.852669
L 361.571483 166.483762
L 360.551808 166.744852
L 360.551808 166.374215
L 359.532134 166.636151
L 359.532134 166.077004
L 359.022296 166.208204
L 359.022296 165.268298
L 358.512459 165.399476
L 358.512459 165.020666
L 357.492784 165.283599
L 357.492784 165.093482
L 356.982946 165.225298
L 356.982946 165.034724
L 356.473109 165.166754
L 356.473109 164.97572
L 354.943596 165.373286
L 354.943596 165.181667
L 354.433759 165.314684
L 354.433759 165.1226
L 353.923922 165.255835
L 353.923922 165.063284
L 353.414084 165.196737
L 353.414084 164.616454
L 352.394409 164.883827
L 352.394409 164.494662
L 350.355059 165.032313
L 350.355059 164.050801
L 348.825547 164.456079
L 348.825547 164.060113
L 347.805872 164.331487
L 347.805872 162.93107
L 346.27636 163.338878
L 346.27636 162.934393
L 344.746848 163.344452
L 344.746848 162.937752
L 343.727173 163.21234
L 343.727173 163.00817
L 343.217335 163.145845
L 343.217335 162.941149
L 342.707498 163.079055
L 342.707498 162.873831
L 341.687823 163.150414
L 341.687823 162.738294
L 341.177985 162.876897
L 341.177985 162.462783
L 340.668148 162.601543
L 340.668148 162.393713
L 339.138636 162.811634
L 339.138636 162.603104
L 337.609123 163.023624
L 337.609123 162.604682
L 336.079611 163.027597
L 336.079611 162.817178
L 334.040261 163.385257
L 334.040261 163.174043
L 333.020586 163.459879
L 333.020586 163.248023
L 331.491074 163.679008
L 331.491074 163.466427
L 330.981236 163.610673
L 330.981236 163.397522
L 328.432049 164.123381
L 328.432049 163.479754
L 327.922212 163.6257
L 327.922212 162.977305
L 326.902537 163.269731
L 326.902537 163.052418
L 325.882862 163.346056
L 325.882862 163.128063
L 325.373025 163.275319
L 325.373025 162.837615
L 324.35335 163.132836
L 324.35335 162.913034
L 323.843512 163.061086
L 323.843512 162.840674
L 322.823837 163.137666
L 322.823837 162.916555
L 320.784488 163.514472
L 320.784488 163.069962
L 319.764813 163.370736
L 319.764813 162.249135
L 318.745138 162.550473
L 318.745138 162.324332
L 318.2353 162.475461
L 318.2353 162.248676
L 317.725463 162.400082
L 317.725463 162.172648
L 316.705788 162.47639
L 316.705788 162.24821
L 316.19595 162.400548
L 316.19595 161.712345
L 315.686113 161.864773
L 315.686113 161.63414
L 315.176276 161.78685
L 315.176276 161.323668
L 314.666438 161.476562
L 314.666438 161.01087
L 314.156601 161.163946
L 314.156601 160.69572
L 313.646763 160.848977
L 313.646763 160.61388
L 313.136926 160.76742
L 313.136926 160.531628
L 312.117251 160.839663
L 312.117251 160.365874
L 311.607413 160.520267
L 311.607413 160.282367
L 311.097576 160.437046
L 311.097576 160.198434
L 309.568064 160.66452
L 309.568064 160.424979
L 308.548389 160.737479
L 308.548389 160.497109
L 308.038551 160.653853
L 308.038551 160.171038
L 305.489364 160.959762
L 305.489364 159.984396
L 304.979527 160.142927
L 304.979527 159.897381
L 304.469689 160.056212
L 304.469689 159.809908
L 303.959852 159.969042
L 303.959852 159.474261
L 302.940177 159.793323
L 302.940177 159.295458
L 302.430339 159.455386
L 302.430339 159.205345
L 301.920502 159.365578
L 301.920502 159.114753
L 300.900827 159.43626
L 300.900827 158.932116
L 299.881152 159.254856
L 299.881152 157.208989
L 298.861477 157.531432
L 298.861477 157.27231
L 296.31229 158.085478
L 296.31229 157.824983
L 295.802453 157.988823
L 295.802453 157.465414
L 295.292615 157.629436
L 295.292615 157.366512
L 294.782778 157.530851
L 294.782778 157.267062
L 294.27294 157.431719
L 294.27294 156.901665
L 289.684403 158.4019
L 289.684403 156.786125
L 289.174566 156.954313
L 289.174566 156.135605
L 288.154891 156.472527
L 288.154891 155.64585
L 286.115541 156.323685
L 286.115541 155.767335
L 285.605704 155.93771
L 285.605704 155.658163
L 285.095866 155.828875
L 285.095866 155.548354
L 284.586029 155.719404
L 284.586029 155.155572
L 284.076191 155.326799
L 284.076191 155.043477
L 282.036842 155.732789
L 282.036842 155.162304
L 279.997492 155.858498
L 279.997492 155.571312
L 277.958142 156.2752
L 277.958142 155.986479
L 277.448304 156.163608
L 277.448304 155.873846
L 276.938467 156.051341
L 276.938467 155.468838
L 276.42863 155.646526
L 276.42863 155.353772
L 274.899117 155.88957
L 274.899117 155.300317
L 273.879442 155.659549
L 273.879442 155.065949
L 273.369605 155.246035
L 273.369605 154.947676
L 272.34993 155.30916
L 272.34993 155.009507
L 269.800743 155.922201
L 269.800743 155.620687
L 268.781068 155.989415
L 268.781068 155.686581
L 268.27123 155.871631
L 268.27123 154.9568
L 267.761393 155.141867
L 267.761393 154.83479
L 265.722043 155.580207
L 265.722043 154.961538
L 263.172856 155.904907
L 263.172856 155.593087
L 262.663019 155.783401
L 262.663019 155.470367
L 260.623669 156.23706
L 260.623669 155.289371
L 257.054807 156.651332
L 257.054807 156.331909
L 255.015457 157.123721
L 255.015457 156.802404
L 253.995782 157.201906
L 253.995782 156.87909
L 253.485944 157.079648
L 253.485944 156.430306
L 252.976107 156.631125
L 252.976107 156.304581
L 251.956432 156.70785
L 251.956432 156.379757
L 251.446595 156.582214
L 251.446595 156.252776
L 249.407245 157.068741
L 249.407245 156.737287
L 247.877733 157.35607
L 247.877733 157.0228
L 246.34822 157.647438
L 246.34822 157.312335
L 243.799033 158.367065
L 243.799033 158.029664
L 240.230171 159.536617
L 240.230171 159.196456
L 239.210496 159.633581
L 239.210496 159.291744
L 237.680984 159.95274
L 237.680984 159.263973
L 236.661309 159.707775
L 236.661309 159.013021
L 233.602284 160.36149
L 233.602284 160.010789
L 232.582609 160.466553
L 232.582609 160.114073
L 232.072772 160.343007
L 232.072772 159.988964
L 231.562934 160.218527
L 231.562934 159.862907
L 230.033422 160.556125
L 230.033422 159.839375
L 229.523584 160.071731
L 229.523584 159.71105
L 229.013747 159.944053
L 229.013747 159.218021
L 227.484235 159.920943
L 227.484235 159.555058
L 224.935047 160.743714
L 224.935047 159.633581
L 222.895698 160.598393
L 222.895698 160.224365
L 220.856348 161.203637
L 220.856348 160.82706
L 220.34651 161.074084
L 220.34651 160.69572
L 219.836673 160.94348
L 219.836673 160.181596
L 219.326835 160.429824
L 219.326835 160.046273
L 218.816998 160.295241
L 218.816998 159.909839
L 216.777648 160.914891
L 216.777648 160.526777
L 215.248136 161.290724
L 215.248136 160.900148
L 214.738298 161.156648
L 214.738298 159.974183
L 214.228461 160.230894
L 214.228461 159.433632
L 213.718624 159.690831
L 213.718624 159.289349
L 210.659599 160.854008
L 210.659599 160.44896
L 210.149761 160.713384
L 210.149761 159.486706
L 209.130087 160.017131
L 209.130087 159.604013
L 208.620249 159.870652
L 208.620249 159.455386
L 208.110412 159.722876
L 208.110412 158.886151
L 206.071062 159.9654
L 206.071062 159.542882
L 204.54155 160.364102
L 204.54155 159.938655
L 203.521875 160.49168
L 203.521875 160.06361
L 203.012037 160.341674
L 203.012037 159.911297
L 202.5022 160.190288
L 202.5022 159.757579
L 201.992362 160.037505
L 201.992362 159.165353
L 201.482525 159.445855
L 201.482525 159.006367
L 200.972687 159.287807
L 200.972687 158.845891
L 199.953012 159.41199
L 199.953012 158.96724
L 198.933338 159.537939
L 198.933338 159.090318
L 197.913663 159.665691
L 197.913663 158.762475
L 196.893988 159.341813
L 196.893988 157.505859
L 195.364475 158.380536
L 195.364475 157.914674
L 192.815288 159.399312
L 192.815288 158.456378
L 192.305451 158.756896
L 192.305451 158.281445
L 191.795613 158.583036
L 191.795613 158.104746
L 190.775938 158.711624
L 190.775938 158.230009
L 189.246426 159.150626
L 189.246426 158.177247
L 187.207076 159.423366
L 187.207076 158.931035
L 184.657889 160.52338
L 184.657889 159.023678
L 183.638214 159.66965
L 183.638214 158.14276
L 183.128377 158.46686
L 183.128377 157.951862
L 182.618539 158.277208
L 182.618539 157.758878
L 181.089027 158.744077
L 181.089027 157.695644
L 178.53984 159.369041
L 178.53984 158.837725
L 177.520165 159.519244
L 177.520165 158.445358
L 177.010327 158.787917
L 177.010327 158.245802
L 175.480815 159.283628
L 175.480815 158.736664
L 174.970978 159.086045
L 174.970978 158.535316
L 173.951303 159.239043
L 173.951303 158.125491
L 172.931628 158.835139
L 172.931628 157.136178
L 171.402115 158.210979
L 171.402115 157.635903
L 170.382441 158.362037
L 170.382441 156.020999
L 169.872603 156.384687
L 169.872603 155.789651
L 169.362766 156.154885
L 169.362766 155.555412
L 168.343091 156.291296
L 168.343091 155.078038
L 167.323416 155.820256
L 167.323416 155.206307
L 166.813578 155.580207
L 166.813578 152.446559
L 164.774229 153.950147
L 164.774229 153.307644
L 161.205366 156.030711
L 161.205366 155.377802
L 158.656179 157.399048
L 158.656179 156.070915
L 157.126667 157.312335
L 157.126667 155.276671
L 156.106992 156.113423
L 156.106992 154.728061
L 152.028292 158.183177
L 152.028292 156.042542
L 151.518455 156.48591
L 151.518455 155.760531
L 151.008618 156.206199
L 151.008618 155.474214
L 148.969268 157.286996
L 148.969268 156.544976
L 147.949593 157.470429
L 147.949593 156.720367
L 147.439755 157.187444
L 147.439755 155.667136
L 145.910243 157.083878
L 145.910243 156.310994
L 145.400406 156.789698
L 145.400406 155.222514
L 144.890568 155.702649
L 144.890568 154.106935
L 143.361056 155.563538
L 143.361056 154.751628
L 142.341381 155.74058
L 142.341381 154.090403
L 141.831543 154.588423
L 141.831543 152.906704
L 140.811869 153.909835
L 140.811869 150.444186
L 140.302031 150.945955
L 140.302031 147.347047
L 139.792194 147.846117
L 139.792194 145.992969
L 137.752844 148.020199
L 137.752844 147.072493
L 137.243006 147.589267
L 137.243006 145.662374
L 136.223332 146.702302
L 136.223332 145.72043
L 135.713494 146.245776
L 135.713494 144.248347
L 135.203657 144.77421
L 135.203657 143.758151
L 133.674144 145.360308
L 133.674144 143.282095
L 132.654469 144.367404
L 132.654469 142.23527
L 132.144632 142.780983
L 132.144632 139.488922
L 131.634795 140.031605
L 131.634795 138.907526
L 131.124957 139.452949
L 131.124957 138.313423
L 130.61512 138.861575
L 130.61512 137.706191
L 127.046258 141.695241
L 124.49707 144.746882
L 124.49707 137.265682
L 123.987233 137.875039
L 123.987233 136.570001
L 123.477395 137.182628
L 123.477395 133.154535
L 120.418371 136.913664
L 120.418371 135.506514
L 119.398696 136.81674
L 119.398696 132.447718
L 116.339671 136.500866
L 116.339671 134.968364
L 115.829834 135.672149
L 115.829834 134.111017
L 113.280646 137.758392
L 113.280646 125.890696
L 112.770809 126.600785
L 112.770809 119.15926
L 110.731459 121.963068
L 110.731459 119.980409
L 109.201947 122.181237
L 109.201947 120.128465
L 108.692109 120.876893
L 108.692109 116.63186
L 106.65276 119.664174
L 106.65276 117.425723
L 104.103572 121.491493
L 102.064223 125.058878
L 102.064223 122.635755
L 101.044548 124.504332
L 101.044548 121.993301
L 100.024873 123.911542
L 100.024873 118.639199
L 97.985523 122.594231
L 96.965848 124.721939
L 96.965848 118.922868
L 95.946173 121.066151
L 95.946173 117.999664
L 94.926498 120.206605
L 94.926498 116.998443
L 93.396986 120.459413
L 93.396986 117.063491
L 91.357636 122.048488
L 90.337961 124.786151
L 90.337961 121.066151
L 89.828124 122.464733
L 89.828124 118.576433
L 87.788774 124.504332
L 87.788774 120.287694
L 86.769099 123.493102
L 86.769099 109.462287
L 85.749424 112.545439
L 85.749424 107.313423
L 85.239587 108.876233
L 85.239587 103.315537
L 83.710075 108.172969
L 83.200237 109.958179
L 83.200237 103.694285
L 81.670725 109.278099
L 80.141212 115.908878
L 78.6117 123.911542
L 77.592025 130.234635
L 77.592025 121.859577
L 77.082188 125.191969
L 77.082188 105.818562
L 76.062513 112.225112
L 75.042838 119.980409
L 74.023163 129.560482
L 74.023163 115.908878
L 73.513326 121.066151
L 73.513326 104.857579
L 72.493651 115.908878
L 71.983813 122.941522
L 71.983813 100.43706
L 71.473976 107.313423
L 70.964138 115.908878
L 70.454301 126.960177
L 70.454301 90.122514
L 69.944463 100.43706
L 69.434626 115.908878
L 68.924789 141.695241
L 68.414951 193.267969
L 67.905114 347.986151
L 67.905114 38.549787
L 67.905114 38.549787
" clip-path="url(#p413a34293a)" style="fill: none; stroke: #d9853b; stroke-width: 2.5; stroke-linecap: round"/>
   </g>
   <g id="line2d_14">
    <path d="M 48.65875 184.612406
L 472.07875 184.612406
" clip-path="url(#p413a34293a)" style="fill: none; stroke-dasharray: 3.7,1.6; stroke-dashoffset: 0; stroke: #6c757d"/>
   </g>
   <g id="patch_3">
    <path d="M 48.65875 363.457969
L 48.65875 23.077969
" style="fill: none; stroke: #cccccc; stroke-width: 1.875; stroke-linejoin: miter; stroke-linecap: square"/>
   </g>
   <g id="patch_4">
    <path d="M 48.65875 363.457969
L 472.07875 363.457969
" style="fill: none; stroke: #cccccc; stroke-width: 1.875; stroke-linejoin: miter; stroke-linecap: square"/>
   </g>
   <g id="text_15">
    <!-- DOLOS Final Ensemble Precision-Recall Curve -->
    <g style="fill: #262626" transform="translate(93.257813 17.077969) scale(0.13 -0.13)">
     <defs>
      <path id="DejaVuSans-Bold-44" d="M 1791 3756
L 1791 909
L 2222 909
Q 2959 909 3348 1275
Q 3738 1641 3738 2338
Q 3738 3031 3350 3393
Q 2963 3756 2222 3756
L 1791 3756
z
M 588 4666
L 1856 4666
Q 2919 4666 3439 4514
Q 3959 4363 4331 4000
Q 4659 3684 4818 3271
Q 4978 2859 4978 2338
Q 4978 1809 4818 1395
Q 4659 981 4331 666
Q 3956 303 3431 151
Q 2906 0 1856 0
L 588 0
L 588 4666
z
" transform="scale(0.015625)"/>
      <path id="DejaVuSans-Bold-4f" d="M 2719 3878
Q 2169 3878 1866 3472
Q 1563 3066 1563 2328
Q 1563 1594 1866 1187
Q 2169 781 2719 781
Q 3272 781 3575 1187
Q 3878 1594 3878 2328
Q 3878 3066 3575 3472
Q 3272 3878 2719 3878
z
M 2719 4750
Q 3844 4750 4481 4106
Q 5119 3463 5119 2328
Q 5119 1197 4481 553
Q 3844 -91 2719 -91
Q 1597 -91 958 553
Q 319 1197 319 2328
Q 319 3463 958 4106
Q 1597 4750 2719 4750
z
" transform="scale(0.015625)"/>
      <path id="DejaVuSans-Bold-4c" d="M 588 4666
L 1791 4666
L 1791 909
L 3903 909
L 3903 0
L 588 0
L 588 4666
z
" transform="scale(0.015625)"/>
      <path id="DejaVuSans-Bold-53" d="M 3834 4519
L 3834 3531
Q 3450 3703 3084 3790
Q 2719 3878 2394 3878
Q 1963 3878 1756 3759
Q 1550 3641 1550 3391
Q 1550 3203 1689 3098
Q 1828 2994 2194 2919
L 2706 2816
Q 3484 2659 3812 2340
Q 4141 2022 4141 1434
Q 4141 663 3683 286
Q 3225 -91 2284 -91
Q 1841 -91 1394 -6
Q 947 78 500 244
L 500 1259
Q 947 1022 1364 901
Q 1781 781 2169 781
Q 2563 781 2772 912
Q 2981 1044 2981 1288
Q 2981 1506 2839 1625
Q 2697 1744 2272 1838
L 1806 1941
Q 1106 2091 782 2419
Q 459 2747 459 3303
Q 459 4000 909 4375
Q 1359 4750 2203 4750
Q 2588 4750 2994 4692
Q 3400 4634 3834 4519
z
" transform="scale(0.015625)"/>
      <path id="DejaVuSans-Bold-20" transform="scale(0.015625)"/>
      <path id="DejaVuSans-Bold-46" d="M 588 4666
L 3834 4666
L 3834 3756
L 1791 3756
L 1791 2888
L 3713 2888
L 3713 1978
L 1791 1978
L 1791 0
L 588 0
L 588 4666
z
" transform="scale(0.015625)"/>
      <path id="DejaVuSans-Bold-69" d="M 538 3500
L 1656 3500
L 1656 0
L 538 0
L 538 3500
z
M 538 4863
L 1656 4863
L 1656 3950
L 538 3950
L 538 4863
z
" transform="scale(0.015625)"/>
      <path id="DejaVuSans-Bold-6e" d="M 4056 2131
L 4056 0
L 2931 0
L 2931 347
L 2931 1631
Q 2931 2084 2911 2256
Q 2891 2428 2841 2509
Q 2775 2619 2662 2680
Q 2550 2741 2406 2741
Q 2056 2741 1856 2470
Q 1656 2200 1656 1722
L 1656 0
L 538 0
L 538 3500
L 1656 3500
L 1656 2988
Q 1909 3294 2193 3439
Q 2478 3584 2822 3584
Q 3428 3584 3742 3212
Q 4056 2841 4056 2131
z
" transform="scale(0.015625)"/>
      <path id="DejaVuSans-Bold-61" d="M 2106 1575
Q 1756 1575 1579 1456
Q 1403 1338 1403 1106
Q 1403 894 1545 773
Q 1688 653 1941 653
Q 2256 653 2472 879
Q 2688 1106 2688 1447
L 2688 1575
L 2106 1575
z
M 3816 1997
L 3816 0
L 2688 0
L 2688 519
Q 2463 200 2181 54
Q 1900 -91 1497 -91
Q 953 -91 614 226
Q 275 544 275 1050
Q 275 1666 698 1953
Q 1122 2241 2028 2241
L 2688 2241
L 2688 2328
Q 2688 2594 2478 2717
Q 2269 2841 1825 2841
Q 1466 2841 1156 2769
Q 847 2697 581 2553
L 581 3406
Q 941 3494 1303 3539
Q 1666 3584 2028 3584
Q 2975 3584 3395 3211
Q 3816 2838 3816 1997
z
" transform="scale(0.015625)"/>
      <path id="DejaVuSans-Bold-6c" d="M 538 4863
L 1656 4863
L 1656 0
L 538 0
L 538 4863
z
" transform="scale(0.015625)"/>
      <path id="DejaVuSans-Bold-45" d="M 588 4666
L 3834 4666
L 3834 3756
L 1791 3756
L 1791 2888
L 3713 2888
L 3713 1978
L 1791 1978
L 1791 909
L 3903 909
L 3903 0
L 588 0
L 588 4666
z
" transform="scale(0.015625)"/>
      <path id="DejaVuSans-Bold-73" d="M 3272 3391
L 3272 2541
Q 2913 2691 2578 2766
Q 2244 2841 1947 2841
Q 1628 2841 1473 2761
Q 1319 2681 1319 2516
Q 1319 2381 1436 2309
Q 1553 2238 1856 2203
L 2053 2175
Q 2913 2066 3209 1816
Q 3506 1566 3506 1031
Q 3506 472 3093 190
Q 2681 -91 1863 -91
Q 1516 -91 1145 -36
Q 775 19 384 128
L 384 978
Q 719 816 1070 734
Q 1422 653 1784 653
Q 2113 653 2278 743
Q 2444 834 2444 1013
Q 2444 1163 2330 1236
Q 2216 1309 1875 1350
L 1678 1375
Q 931 1469 631 1722
Q 331 1975 331 2491
Q 331 3047 712 3315
Q 1094 3584 1881 3584
Q 2191 3584 2531 3537
Q 2872 3491 3272 3391
z
" transform="scale(0.015625)"/>
      <path id="DejaVuSans-Bold-65" d="M 4031 1759
L 4031 1441
L 1416 1441
Q 1456 1047 1700 850
Q 1944 653 2381 653
Q 2734 653 3104 758
Q 3475 863 3866 1075
L 3866 213
Q 3469 63 3072 -14
Q 2675 -91 2278 -91
Q 1328 -91 801 392
Q 275 875 275 1747
Q 275 2603 792 3093
Q 1309 3584 2216 3584
Q 3041 3584 3536 3087
Q 4031 2591 4031 1759
z
M 2881 2131
Q 2881 2450 2695 2645
Q 2509 2841 2209 2841
Q 1884 2841 1681 2658
Q 1478 2475 1428 2131
L 2881 2131
z
" transform="scale(0.015625)"/>
      <path id="DejaVuSans-Bold-6d" d="M 3781 2919
Q 3994 3244 4286 3414
Q 4578 3584 4928 3584
Q 5531 3584 5847 3212
Q 6163 2841 6163 2131
L 6163 0
L 5038 0
L 5038 1825
Q 5041 1866 5042 1909
Q 5044 1953 5044 2034
Q 5044 2406 4934 2573
Q 4825 2741 4581 2741
Q 4263 2741 4089 2478
Q 3916 2216 3909 1719
L 3909 0
L 2784 0
L 2784 1825
Q 2784 2406 2684 2573
Q 2584 2741 2328 2741
Q 2006 2741 1831 2477
Q 1656 2213 1656 1722
L 1656 0
L 531 0
L 531 3500
L 1656 3500
L 1656 2988
Q 1863 3284 2130 3434
Q 2397 3584 2719 3584
Q 3081 3584 3359 3409
Q 3638 3234 3781 2919
z
" transform="scale(0.015625)"/>
      <path id="DejaVuSans-Bold-62" d="M 2400 722
Q 2759 722 2948 984
Q 3138 1247 3138 1747
Q 3138 2247 2948 2509
Q 2759 2772 2400 2772
Q 2041 2772 1848 2508
Q 1656 2244 1656 1747
Q 1656 1250 1848 986
Q 2041 722 2400 722
z
M 1656 2988
Q 1888 3294 2169 3439
Q 2450 3584 2816 3584
Q 3463 3584 3878 3070
Q 4294 2556 4294 1747
Q 4294 938 3878 423
Q 3463 -91 2816 -91
Q 2450 -91 2169 54
Q 1888 200 1656 506
L 1656 0
L 538 0
L 538 4863
L 1656 4863
L 1656 2988
z
" transform="scale(0.015625)"/>
      <path id="DejaVuSans-Bold-50" d="M 588 4666
L 2584 4666
Q 3475 4666 3951 4270
Q 4428 3875 4428 3144
Q 4428 2409 3951 2014
Q 3475 1619 2584 1619
L 1791 1619
L 1791 0
L 588 0
L 588 4666
z
M 1791 3794
L 1791 2491
L 2456 2491
Q 2806 2491 2997 2661
Q 3188 2831 3188 3144
Q 3188 3456 2997 3625
Q 2806 3794 2456 3794
L 1791 3794
z
" transform="scale(0.015625)"/>
      <path id="DejaVuSans-Bold-72" d="M 3138 2547
Q 2991 2616 2845 2648
Q 2700 2681 2553 2681
Q 2122 2681 1889 2404
Q 1656 2128 1656 1613
L 1656 0
L 538 0
L 538 3500
L 1656 3500
L 1656 2925
Q 1872 3269 2151 3426
Q 2431 3584 2822 3584
Q 2878 3584 2943 3579
Q 3009 3575 3134 3559
L 3138 2547
z
" transform="scale(0.015625)"/>
      <path id="DejaVuSans-Bold-63" d="M 3366 3391
L 3366 2478
Q 3138 2634 2908 2709
Q 2678 2784 2431 2784
Q 1963 2784 1702 2511
Q 1441 2238 1441 1747
Q 1441 1256 1702 982
Q 1963 709 2431 709
Q 2694 709 2930 787
Q 3166 866 3366 1019
L 3366 103
Q 3103 6 2833 -42
Q 2563 -91 2291 -91
Q 1344 -91 809 395
Q 275 881 275 1747
Q 275 2613 809 3098
Q 1344 3584 2291 3584
Q 2566 3584 2833 3536
Q 3100 3488 3366 3391
z
" transform="scale(0.015625)"/>
      <path id="DejaVuSans-Bold-6f" d="M 2203 2784
Q 1831 2784 1636 2517
Q 1441 2250 1441 1747
Q 1441 1244 1636 976
Q 1831 709 2203 709
Q 2569 709 2762 976
Q 2956 1244 2956 1747
Q 2956 2250 2762 2517
Q 2569 2784 2203 2784
z
M 2203 3584
Q 3106 3584 3614 3096
Q 4122 2609 4122 1747
Q 4122 884 3614 396
Q 3106 -91 2203 -91
Q 1297 -91 786 396
Q 275 884 275 1747
Q 275 2609 786 3096
Q 1297 3584 2203 3584
z
" transform="scale(0.015625)"/>
      <path id="DejaVuSans-Bold-2d" d="M 347 2297
L 2309 2297
L 2309 1388
L 347 1388
L 347 2297
z
" transform="scale(0.015625)"/>
      <path id="DejaVuSans-Bold-52" d="M 2297 2597
Q 2675 2597 2839 2737
Q 3003 2878 3003 3200
Q 3003 3519 2839 3656
Q 2675 3794 2297 3794
L 1791 3794
L 1791 2597
L 2297 2597
z
M 1791 1766
L 1791 0
L 588 0
L 588 4666
L 2425 4666
Q 3347 4666 3776 4356
Q 4206 4047 4206 3378
Q 4206 2916 3982 2619
Q 3759 2322 3309 2181
Q 3556 2125 3751 1926
Q 3947 1728 4147 1325
L 4800 0
L 3519 0
L 2950 1159
Q 2778 1509 2601 1637
Q 2425 1766 2131 1766
L 1791 1766
z
" transform="scale(0.015625)"/>
      <path id="DejaVuSans-Bold-43" d="M 4288 256
Q 3956 84 3597 -3
Q 3238 -91 2847 -91
Q 1681 -91 1000 561
Q 319 1213 319 2328
Q 319 3447 1000 4098
Q 1681 4750 2847 4750
Q 3238 4750 3597 4662
Q 3956 4575 4288 4403
L 4288 3438
Q 3953 3666 3628 3772
Q 3303 3878 2944 3878
Q 2300 3878 1931 3465
Q 1563 3053 1563 2328
Q 1563 1606 1931 1193
Q 2300 781 2944 781
Q 3303 781 3628 887
Q 3953 994 4288 1222
L 4288 256
z
" transform="scale(0.015625)"/>
      <path id="DejaVuSans-Bold-75" d="M 500 1363
L 500 3500
L 1625 3500
L 1625 3150
Q 1625 2866 1622 2436
Q 1619 2006 1619 1863
Q 1619 1441 1641 1255
Q 1663 1069 1716 984
Q 1784 875 1895 815
Q 2006 756 2150 756
Q 2500 756 2700 1025
Q 2900 1294 2900 1772
L 2900 3500
L 4019 3500
L 4019 0
L 2900 0
L 2900 506
Q 2647 200 2364 54
Q 2081 -91 1741 -91
Q 1134 -91 817 281
Q 500 653 500 1363
z
" transform="scale(0.015625)"/>
      <path id="DejaVuSans-Bold-76" d="M 97 3500
L 1216 3500
L 2088 1081
L 2956 3500
L 4078 3500
L 2700 0
L 1472 0
L 97 3500
z
" transform="scale(0.015625)"/>
     </defs>
     <use xlink:href="#DejaVuSans-Bold-44"/>
     <use xlink:href="#DejaVuSans-Bold-4f" transform="translate(83.007812 0)"/>
     <use xlink:href="#DejaVuSans-Bold-4c" transform="translate(168.017578 0)"/>
     <use xlink:href="#DejaVuSans-Bold-4f" transform="translate(228.113281 0)"/>
     <use xlink:href="#DejaVuSans-Bold-53" transform="translate(313.123047 0)"/>
     <use xlink:href="#DejaVuSans-Bold-20" transform="translate(385.144531 0)"/>
     <use xlink:href="#DejaVuSans-Bold-46" transform="translate(419.958984 0)"/>
     <use xlink:href="#DejaVuSans-Bold-69" transform="translate(488.269531 0)"/>
     <use xlink:href="#DejaVuSans-Bold-6e" transform="translate(522.546875 0)"/>
     <use xlink:href="#DejaVuSans-Bold-61" transform="translate(593.738281 0)"/>
     <use xlink:href="#DejaVuSans-Bold-6c" transform="translate(661.21875 0)"/>
     <use xlink:href="#DejaVuSans-Bold-20" transform="translate(695.496094 0)"/>
     <use xlink:href="#DejaVuSans-Bold-45" transform="translate(730.310547 0)"/>
     <use xlink:href="#DejaVuSans-Bold-6e" transform="translate(798.621094 0)"/>
     <use xlink:href="#DejaVuSans-Bold-73" transform="translate(869.8125 0)"/>
     <use xlink:href="#DejaVuSans-Bold-65" transform="translate(929.333984 0)"/>
     <use xlink:href="#DejaVuSans-Bold-6d" transform="translate(997.15625 0)"/>
     <use xlink:href="#DejaVuSans-Bold-62" transform="translate(1101.355469 0)"/>
     <use xlink:href="#DejaVuSans-Bold-6c" transform="translate(1172.9375 0)"/>
     <use xlink:href="#DejaVuSans-Bold-65" transform="translate(1207.214844 0)"/>
     <use xlink:href="#DejaVuSans-Bold-20" transform="translate(1275.037109 0)"/>
     <use xlink:href="#DejaVuSans-Bold-50" transform="translate(1309.851562 0)"/>
     <use xlink:href="#DejaVuSans-Bold-72" transform="translate(1383.142578 0)"/>
     <use xlink:href="#DejaVuSans-Bold-65" transform="translate(1432.458984 0)"/>
     <use xlink:href="#DejaVuSans-Bold-63" transform="translate(1500.28125 0)"/>
     <use xlink:href="#DejaVuSans-Bold-69" transform="translate(1559.558594 0)"/>
     <use xlink:href="#DejaVuSans-Bold-73" transform="translate(1593.835938 0)"/>
     <use xlink:href="#DejaVuSans-Bold-69" transform="translate(1653.357422 0)"/>
     <use xlink:href="#DejaVuSans-Bold-6f" transform="translate(1687.634766 0)"/>
     <use xlink:href="#DejaVuSans-Bold-6e" transform="translate(1756.335938 0)"/>
     <use xlink:href="#DejaVuSans-Bold-2d" transform="translate(1827.527344 0)"/>
     <use xlink:href="#DejaVuSans-Bold-52" transform="translate(1869.03125 0)"/>
     <use xlink:href="#DejaVuSans-Bold-65" transform="translate(1946.033203 0)"/>
     <use xlink:href="#DejaVuSans-Bold-63" transform="translate(2013.855469 0)"/>
     <use xlink:href="#DejaVuSans-Bold-61" transform="translate(2073.132812 0)"/>
     <use xlink:href="#DejaVuSans-Bold-6c" transform="translate(2140.613281 0)"/>
     <use xlink:href="#DejaVuSans-Bold-6c" transform="translate(2174.890625 0)"/>
     <use xlink:href="#DejaVuSans-Bold-20" transform="translate(2209.167969 0)"/>
     <use xlink:href="#DejaVuSans-Bold-43" transform="translate(2243.982422 0)"/>
     <use xlink:href="#DejaVuSans-Bold-75" transform="translate(2317.371094 0)"/>
     <use xlink:href="#DejaVuSans-Bold-72" transform="translate(2388.5625 0)"/>
     <use xlink:href="#DejaVuSans-Bold-76" transform="translate(2437.878906 0)"/>
     <use xlink:href="#DejaVuSans-Bold-65" transform="translate(2503.064453 0)"/>
    </g>
   </g>
   <g id="legend_1">
    <g id="patch_5">
     <path d="M 54.95875 358.957969
L 156.924531 358.957969
Q 158.724531 358.957969 158.724531 357.157969
L 158.724531 331.637344
Q 158.724531 329.837344 156.924531 329.837344
L 54.95875 329.837344
Q 53.15875 329.837344 53.15875 331.637344
L 53.15875 357.157969
Q 53.15875 358.957969 54.95875 358.957969
z
" style="fill: #ffffff; opacity: 0.8; stroke: #cccccc; stroke-width: 1.5; stroke-linejoin: miter"/>
    </g>
    <g id="line2d_15">
     <path d="M 56.75875 337.125938
L 65.75875 337.125938
L 74.75875 337.125938
" style="fill: none; stroke: #d9853b; stroke-width: 2.5; stroke-linecap: round"/>
    </g>
    <g id="text_16">
     <!-- AP=61.84 -->
     <g style="fill: #262626" transform="translate(81.95875 340.275937) scale(0.09 -0.09)">
      <defs>
       <path id="DejaVuSans-41" d="M 2188 4044
L 1331 1722
L 3047 1722
L 2188 4044
z
M 1831 4666
L 2547 4666
L 4325 0
L 3669 0
L 3244 1197
L 1141 1197
L 716 0
L 50 0
L 1831 4666
z
" transform="scale(0.015625)"/>
       <path id="DejaVuSans-3d" d="M 678 2906
L 4684 2906
L 4684 2381
L 678 2381
L 678 2906
z
M 678 1631
L 4684 1631
L 4684 1100
L 678 1100
L 678 1631
z
" transform="scale(0.015625)"/>
      </defs>
      <use xlink:href="#DejaVuSans-41"/>
      <use xlink:href="#DejaVuSans-50" transform="translate(68.408203 0)"/>
      <use xlink:href="#DejaVuSans-3d" transform="translate(128.710938 0)"/>
      <use xlink:href="#DejaVuSans-36" transform="translate(212.5 0)"/>
      <use xlink:href="#DejaVuSans-31" transform="translate(276.123047 0)"/>
      <use xlink:href="#DejaVuSans-2e" transform="translate(339.746094 0)"/>
      <use xlink:href="#DejaVuSans-38" transform="translate(371.533203 0)"/>
      <use xlink:href="#DejaVuSans-34" transform="translate(435.15625 0)"/>
     </g>
    </g>
    <g id="line2d_16">
     <path d="M 56.75875 350.33625
L 65.75875 350.33625
L 74.75875 350.33625
" style="fill: none; stroke-dasharray: 3.7,1.6; stroke-dashoffset: 0; stroke: #6c757d"/>
    </g>
    <g id="text_17">
     <!-- Lie prior=52.8% -->
     <g style="fill: #262626" transform="translate(81.95875 353.48625) scale(0.09 -0.09)">
      <defs>
       <path id="DejaVuSans-70" d="M 1159 525
L 1159 -1331
L 581 -1331
L 581 3500
L 1159 3500
L 1159 2969
Q 1341 3281 1617 3432
Q 1894 3584 2278 3584
Q 2916 3584 3314 3078
Q 3713 2572 3713 1747
Q 3713 922 3314 415
Q 2916 -91 2278 -91
Q 1894 -91 1617 61
Q 1341 213 1159 525
z
M 3116 1747
Q 3116 2381 2855 2742
Q 2594 3103 2138 3103
Q 1681 3103 1420 2742
Q 1159 2381 1159 1747
Q 1159 1113 1420 752
Q 1681 391 2138 391
Q 2594 391 2855 752
Q 3116 1113 3116 1747
z
" transform="scale(0.015625)"/>
       <path id="DejaVuSans-35" d="M 691 4666
L 3169 4666
L 3169 4134
L 1269 4134
L 1269 2991
Q 1406 3038 1543 3061
Q 1681 3084 1819 3084
Q 2600 3084 3056 2656
Q 3513 2228 3513 1497
Q 3513 744 3044 326
Q 2575 -91 1722 -91
Q 1428 -91 1123 -41
Q 819 9 494 109
L 494 744
Q 775 591 1075 516
Q 1375 441 1709 441
Q 2250 441 2565 725
Q 2881 1009 2881 1497
Q 2881 1984 2565 2268
Q 2250 2553 1709 2553
Q 1456 2553 1204 2497
Q 953 2441 691 2322
L 691 4666
z
" transform="scale(0.015625)"/>
       <path id="DejaVuSans-25" d="M 4653 2053
Q 4381 2053 4226 1822
Q 4072 1591 4072 1178
Q 4072 772 4226 539
Q 4381 306 4653 306
Q 4919 306 5073 539
Q 5228 772 5228 1178
Q 5228 1588 5073 1820
Q 4919 2053 4653 2053
z
M 4653 2450
Q 5147 2450 5437 2106
Q 5728 1763 5728 1178
Q 5728 594 5436 251
Q 5144 -91 4653 -91
Q 4153 -91 3862 251
Q 3572 594 3572 1178
Q 3572 1766 3864 2108
Q 4156 2450 4653 2450
z
M 1428 4353
Q 1159 4353 1004 4120
Q 850 3888 850 3481
Q 850 3069 1003 2837
Q 1156 2606 1428 2606
Q 1700 2606 1854 2837
Q 2009 3069 2009 3481
Q 2009 3884 1853 4118
Q 1697 4353 1428 4353
z
M 4250 4750
L 4750 4750
L 1831 -91
L 1331 -91
L 4250 4750
z
M 1428 4750
Q 1922 4750 2215 4408
Q 2509 4066 2509 3481
Q 2509 2891 2217 2550
Q 1925 2209 1428 2209
Q 931 2209 642 2551
Q 353 2894 353 3481
Q 353 4063 643 4406
Q 934 4750 1428 4750
z
" transform="scale(0.015625)"/>
      </defs>
      <use xlink:href="#DejaVuSans-4c"/>
      <use xlink:href="#DejaVuSans-69" transform="translate(55.712891 0)"/>
      <use xlink:href="#DejaVuSans-65" transform="translate(83.496094 0)"/>
      <use xlink:href="#DejaVuSans-20" transform="translate(145.019531 0)"/>
      <use xlink:href="#DejaVuSans-70" transform="translate(176.806641 0)"/>
      <use xlink:href="#DejaVuSans-72" transform="translate(240.283203 0)"/>
      <use xlink:href="#DejaVuSans-69" transform="translate(281.396484 0)"/>
      <use xlink:href="#DejaVuSans-6f" transform="translate(309.179688 0)"/>
      <use xlink:href="#DejaVuSans-72" transform="translate(370.361328 0)"/>
      <use xlink:href="#DejaVuSans-3d" transform="translate(411.474609 0)"/>
      <use xlink:href="#DejaVuSans-35" transform="translate(495.263672 0)"/>
      <use xlink:href="#DejaVuSans-32" transform="translate(558.886719 0)"/>
      <use xlink:href="#DejaVuSans-2e" transform="translate(622.509766 0)"/>
      <use xlink:href="#DejaVuSans-38" transform="translate(654.296875 0)"/>
      <use xlink:href="#DejaVuSans-25" transform="translate(717.919922 0)"/>
     </g>
    </g>
   </g>
  </g>
 </g>
 <defs>
  <clipPath id="p413a34293a">
   <rect x="48.65875" y="23.077969" width="423.42" height="340.38"/>
  </clipPath>
 </defs>
</svg>
