<?xml version="1.0" encoding="utf-8" standalone="no"?>
<!DOCTYPE svg PUBLIC "-//W3C//DTD SVG 1.1//EN"
  "http://www.w3.org/Graphics/SVG/1.1/DTD/svg11.dtd">
<svg xmlns:xlink="http://www.w3.org/1999/xlink" width="479.27875pt" height="406.514219pt" viewBox="0 0 479.27875 406.514219" xmlns="http://www.w3.org/2000/svg" version="1.1">
 <metadata>
  <rdf:RDF xmlns:dc="http://purl.org/dc/elements/1.1/" xmlns:cc="http://creativecommons.org/ns#" xmlns:rdf="http://www.w3.org/1999/02/22-rdf-syntax-ns#">
   <cc:Work>
    <dc:type rdf:resource="http://purl.org/dc/dcmitype/StillImage"/>
    <dc:date>2026-05-23T16:02:38.500576</dc:date>
    <dc:format>image/svg+xml</dc:format>
    <dc:creator>
     <cc:Agent>
      <dc:title>Matplotlib v3.10.9, https://matplotlib.org/</dc:title>
     </cc:Agent>
    </dc:creator>
   </cc:Work>
  </rdf:RDF>
 </metadata>
 <defs>
  <style type="text/css">*{stroke-linejoin: round; stroke-linecap: butt}</style>
 </defs>
 <g id="figure_1">
  <g id="patch_1">
   <path d="M 0 406.514219
L 479.27875 406.514219
L 479.27875 0
L 0 0
z
" style="fill: #ffffff"/>
  </g>
  <g id="axes_1">
   <g id="patch_2">
    <path d="M 48.65875 363.457969
L 472.07875 363.457969
L 472.07875 23.077969
L 48.65875 23.077969
z
" style="fill: #ffffff"/>
   </g>
   <g id="matplotlib.axis_1">
    <g id="xtick_1">
     <g id="line2d_1">
      <path d="M 67.905114 363.457969
L 67.905114 23.077969
" clip-path="url(#p5159aba8df)" style="fill: none; stroke: #cccccc; stroke-width: 1.5; stroke-linecap: round"/>
     </g>
     <g id="text_1">
      <!-- 0.0 -->
      <g style="fill: #262626" transform="translate(60.748707 382.796562) scale(0.09 -0.09)">
       <defs>
        <path id="DejaVuSans-30" d="M 2034 4250
Q 1547 4250 1301 3770
Q 1056 3291 1056 2328
Q 1056 1369 1301 889
Q 1547 409 2034 409
Q 2525 409 2770 889
Q 3016 1369 3016 2328
Q 3016 3291 2770 3770
Q 2525 4250 2034 4250
z
M 2034 4750
Q 2819 4750 3233 4129
Q 3647 3509 3647 2328
Q 3647 1150 3233 529
Q 2819 -91 2034 -91
Q 1250 -91 836 529
Q 422 1150 422 2328
Q 422 3509 836 4129
Q 1250 4750 2034 4750
z
" transform="scale(0.015625)"/>
        <path id="DejaVuSans-2e" d="M 684 794
L 1344 794
L 1344 0
L 684 0
L 684 794
z
" transform="scale(0.015625)"/>
       </defs>
       <use xlink:href="#DejaVuSans-30"/>
       <use xlink:href="#DejaVuSans-2e" transform="translate(63.623047 0)"/>
       <use xlink:href="#DejaVuSans-30" transform="translate(95.410156 0)"/>
      </g>
     </g>
    </g>
    <g id="xtick_2">
     <g id="line2d_2">
      <path d="M 144.890568 363.457969
L 144.890568 23.077969
" clip-path="url(#p5159aba8df)" style="fill: none; stroke: #cccccc; stroke-width: 1.5; stroke-linecap: round"/>
     </g>
     <g id="text_2">
      <!-- 0.2 -->
      <g style="fill: #262626" transform="translate(137.734162 382.796562) scale(0.09 -0.09)">
       <defs>
        <path id="DejaVuSans-32" d="M 1228 531
L 3431 531
L 3431 0
L 469 0
L 469 531
Q 828 903 1448 1529
Q 2069 2156 2228 2338
Q 2531 2678 2651 2914
Q 2772 3150 2772 3378
Q 2772 3750 2511 3984
Q 2250 4219 1831 4219
Q 1534 4219 1204 4116
Q 875 4013 500 3803
L 500 4441
Q 881 4594 1212 4672
Q 1544 4750 1819 4750
Q 2544 4750 2975 4387
Q 3406 4025 3406 3419
Q 3406 3131 3298 2873
Q 3191 2616 2906 2266
Q 2828 2175 2409 1742
Q 1991 1309 1228 531
z
" transform="scale(0.015625)"/>
       </defs>
       <use xlink:href="#DejaVuSans-30"/>
       <use xlink:href="#DejaVuSans-2e" transform="translate(63.623047 0)"/>
       <use xlink:href="#DejaVuSans-32" transform="translate(95.410156 0)"/>
      </g>
     </g>
    </g>
    <g id="xtick_3">
     <g id="line2d_3">
      <path d="M 221.876023 363.457969
L 221.876023 23.077969
" clip-path="url(#p5159aba8df)" style="fill: none; stroke: #cccccc; stroke-width: 1.5; stroke-linecap: round"/>
     </g>
     <g id="text_3">
      <!-- 0.4 -->
      <g style="fill: #262626" transform="translate(214.719616 382.796562) scale(0.09 -0.09)">
       <defs>
        <path id="DejaVuSans-34" d="M 2419 4116
L 825 1625
L 2419 1625
L 2419 4116
z
M 2253 4666
L 3047 4666
L 3047 1625
L 3713 1625
L 3713 1100
L 3047 1100
L 3047 0
L 2419 0
L 2419 1100
L 313 1100
L 313 1709
L 2253 4666
z
" transform="scale(0.015625)"/>
       </defs>
       <use xlink:href="#DejaVuSans-30"/>
       <use xlink:href="#DejaVuSans-2e" transform="translate(63.623047 0)"/>
       <use xlink:href="#DejaVuSans-34" transform="translate(95.410156 0)"/>
      </g>
     </g>
    </g>
    <g id="xtick_4">
     <g id="line2d_4">
      <path d="M 298.861477 363.457969
L 298.861477 23.077969
" clip-path="url(#p5159aba8df)" style="fill: none; stroke: #cccccc; stroke-width: 1.5; stroke-linecap: round"/>
     </g>
     <g id="text_4">
      <!-- 0.6 -->
      <g style="fill: #262626" transform="translate(291.705071 382.796562) scale(0.09 -0.09)">
       <defs>
        <path id="DejaVuSans-36" d="M 2113 2584
Q 1688 2584 1439 2293
Q 1191 2003 1191 1497
Q 1191 994 1439 701
Q 1688 409 2113 409
Q 2538 409 2786 701
Q 3034 994 3034 1497
Q 3034 2003 2786 2293
Q 2538 2584 2113 2584
z
M 3366 4563
L 3366 3988
Q 3128 4100 2886 4159
Q 2644 4219 2406 4219
Q 1781 4219 1451 3797
Q 1122 3375 1075 2522
Q 1259 2794 1537 2939
Q 1816 3084 2150 3084
Q 2853 3084 3261 2657
Q 3669 2231 3669 1497
Q 3669 778 3244 343
Q 2819 -91 2113 -91
Q 1303 -91 875 529
Q 447 1150 447 2328
Q 447 3434 972 4092
Q 1497 4750 2381 4750
Q 2619 4750 2861 4703
Q 3103 4656 3366 4563
z
" transform="scale(0.015625)"/>
       </defs>
       <use xlink:href="#DejaVuSans-30"/>
       <use xlink:href="#DejaVuSans-2e" transform="translate(63.623047 0)"/>
       <use xlink:href="#DejaVuSans-36" transform="translate(95.410156 0)"/>
      </g>
     </g>
    </g>
    <g id="xtick_5">
     <g id="line2d_5">
      <path d="M 375.846932 363.457969
L 375.846932 23.077969
" clip-path="url(#p5159aba8df)" style="fill: none; stroke: #cccccc; stroke-width: 1.5; stroke-linecap: round"/>
     </g>
     <g id="text_5">
      <!-- 0.8 -->
      <g style="fill: #262626" transform="translate(368.690526 382.796562) scale(0.09 -0.09)">
       <defs>
        <path id="DejaVuSans-38" d="M 2034 2216
Q 1584 2216 1326 1975
Q 1069 1734 1069 1313
Q 1069 891 1326 650
Q 1584 409 2034 409
Q 2484 409 2743 651
Q 3003 894 3003 1313
Q 3003 1734 2745 1975
Q 2488 2216 2034 2216
z
M 1403 2484
Q 997 2584 770 2862
Q 544 3141 544 3541
Q 544 4100 942 4425
Q 1341 4750 2034 4750
Q 2731 4750 3128 4425
Q 3525 4100 3525 3541
Q 3525 3141 3298 2862
Q 3072 2584 2669 2484
Q 3125 2378 3379 2068
Q 3634 1759 3634 1313
Q 3634 634 3220 271
Q 2806 -91 2034 -91
Q 1263 -91 848 271
Q 434 634 434 1313
Q 434 1759 690 2068
Q 947 2378 1403 2484
z
M 1172 3481
Q 1172 3119 1398 2916
Q 1625 2713 2034 2713
Q 2441 2713 2670 2916
Q 2900 3119 2900 3481
Q 2900 3844 2670 4047
Q 2441 4250 2034 4250
Q 1625 4250 1398 4047
Q 1172 3844 1172 3481
z
" transform="scale(0.015625)"/>
       </defs>
       <use xlink:href="#DejaVuSans-30"/>
       <use xlink:href="#DejaVuSans-2e" transform="translate(63.623047 0)"/>
       <use xlink:href="#DejaVuSans-38" transform="translate(95.410156 0)"/>
      </g>
     </g>
    </g>
    <g id="xtick_6">
     <g id="line2d_6">
      <path d="M 452.832386 363.457969
L 452.832386 23.077969
" clip-path="url(#p5159aba8df)" style="fill: none; stroke: #cccccc; stroke-width: 1.5; stroke-linecap: round"/>
     </g>
     <g id="text_6">
      <!-- 1.0 -->
      <g style="fill: #262626" transform="translate(445.67598 382.796562) scale(0.09 -0.09)">
       <defs>
        <path id="DejaVuSans-31" d="M 794 531
L 1825 531
L 1825 4091
L 703 3866
L 703 4441
L 1819 4666
L 2450 4666
L 2450 531
L 3481 531
L 3481 0
L 794 0
L 794 531
z
" transform="scale(0.015625)"/>
       </defs>
       <use xlink:href="#DejaVuSans-31"/>
       <use xlink:href="#DejaVuSans-2e" transform="translate(63.623047 0)"/>
       <use xlink:href="#DejaVuSans-30" transform="translate(95.410156 0)"/>
      </g>
     </g>
    </g>
    <g id="text_7">
     <!-- False positive rate -->
     <g style="fill: #262626" transform="translate(210.317891 397.026563) scale(0.11 -0.11)">
      <defs>
       <path id="DejaVuSans-46" d="M 628 4666
L 3309 4666
L 3309 4134
L 1259 4134
L 1259 2759
L 3109 2759
L 3109 2228
L 1259 2228
L 1259 0
L 628 0
L 628 4666
z
" transform="scale(0.015625)"/>
       <path id="DejaVuSans-61" d="M 2194 1759
Q 1497 1759 1228 1600
Q 959 1441 959 1056
Q 959 750 1161 570
Q 1363 391 1709 391
Q 2188 391 2477 730
Q 2766 1069 2766 1631
L 2766 1759
L 2194 1759
z
M 3341 1997
L 3341 0
L 2766 0
L 2766 531
Q 2569 213 2275 61
Q 1981 -91 1556 -91
Q 1019 -91 701 211
Q 384 513 384 1019
Q 384 1609 779 1909
Q 1175 2209 1959 2209
L 2766 2209
L 2766 2266
Q 2766 2663 2505 2880
Q 2244 3097 1772 3097
Q 1472 3097 1187 3025
Q 903 2953 641 2809
L 641 3341
Q 956 3463 1253 3523
Q 1550 3584 1831 3584
Q 2591 3584 2966 3190
Q 3341 2797 3341 1997
z
" transform="scale(0.015625)"/>
       <path id="DejaVuSans-6c" d="M 603 4863
L 1178 4863
L 1178 0
L 603 0
L 603 4863
z
" transform="scale(0.015625)"/>
       <path id="DejaVuSans-73" d="M 2834 3397
L 2834 2853
Q 2591 2978 2328 3040
Q 2066 3103 1784 3103
Q 1356 3103 1142 2972
Q 928 2841 928 2578
Q 928 2378 1081 2264
Q 1234 2150 1697 2047
L 1894 2003
Q 2506 1872 2764 1633
Q 3022 1394 3022 966
Q 3022 478 2636 193
Q 2250 -91 1575 -91
Q 1294 -91 989 -36
Q 684 19 347 128
L 347 722
Q 666 556 975 473
Q 1284 391 1588 391
Q 1994 391 2212 530
Q 2431 669 2431 922
Q 2431 1156 2273 1281
Q 2116 1406 1581 1522
L 1381 1569
Q 847 1681 609 1914
Q 372 2147 372 2553
Q 372 3047 722 3315
Q 1072 3584 1716 3584
Q 2034 3584 2315 3537
Q 2597 3491 2834 3397
z
" transform="scale(0.015625)"/>
       <path id="DejaVuSans-65" d="M 3597 1894
L 3597 1613
L 953 1613
Q 991 1019 1311 708
Q 1631 397 2203 397
Q 2534 397 2845 478
Q 3156 559 3463 722
L 3463 178
Q 3153 47 2828 -22
Q 2503 -91 2169 -91
Q 1331 -91 842 396
Q 353 884 353 1716
Q 353 2575 817 3079
Q 1281 3584 2069 3584
Q 2775 3584 3186 3129
Q 3597 2675 3597 1894
z
M 3022 2063
Q 3016 2534 2758 2815
Q 2500 3097 2075 3097
Q 1594 3097 1305 2825
Q 1016 2553 972 2059
L 3022 2063
z
" transform="scale(0.015625)"/>
       <path id="DejaVuSans-20" transform="scale(0.015625)"/>
       <path id="DejaVuSans-70" d="M 1159 525
L 1159 -1331
L 581 -1331
L 581 3500
L 1159 3500
L 1159 2969
Q 1341 3281 1617 3432
Q 1894 3584 2278 3584
Q 2916 3584 3314 3078
Q 3713 2572 3713 1747
Q 3713 922 3314 415
Q 2916 -91 2278 -91
Q 1894 -91 1617 61
Q 1341 213 1159 525
z
M 3116 1747
Q 3116 2381 2855 2742
Q 2594 3103 2138 3103
Q 1681 3103 1420 2742
Q 1159 2381 1159 1747
Q 1159 1113 1420 752
Q 1681 391 2138 391
Q 2594 391 2855 752
Q 3116 1113 3116 1747
z
" transform="scale(0.015625)"/>
       <path id="DejaVuSans-6f" d="M 1959 3097
Q 1497 3097 1228 2736
Q 959 2375 959 1747
Q 959 1119 1226 758
Q 1494 397 1959 397
Q 2419 397 2687 759
Q 2956 1122 2956 1747
Q 2956 2369 2687 2733
Q 2419 3097 1959 3097
z
M 1959 3584
Q 2709 3584 3137 3096
Q 3566 2609 3566 1747
Q 3566 888 3137 398
Q 2709 -91 1959 -91
Q 1206 -91 779 398
Q 353 888 353 1747
Q 353 2609 779 3096
Q 1206 3584 1959 3584
z
" transform="scale(0.015625)"/>
       <path id="DejaVuSans-69" d="M 603 3500
L 1178 3500
L 1178 0
L 603 0
L 603 3500
z
M 603 4863
L 1178 4863
L 1178 4134
L 603 4134
L 603 4863
z
" transform="scale(0.015625)"/>
       <path id="DejaVuSans-74" d="M 1172 4494
L 1172 3500
L 2356 3500
L 2356 3053
L 1172 3053
L 1172 1153
Q 1172 725 1289 603
Q 1406 481 1766 481
L 2356 481
L 2356 0
L 1766 0
Q 1100 0 847 248
Q 594 497 594 1153
L 594 3053
L 172 3053
L 172 3500
L 594 3500
L 594 4494
L 1172 4494
z
" transform="scale(0.015625)"/>
       <path id="DejaVuSans-76" d="M 191 3500
L 800 3500
L 1894 563
L 2988 3500
L 3597 3500
L 2284 0
L 1503 0
L 191 3500
z
" transform="scale(0.015625)"/>
       <path id="DejaVuSans-72" d="M 2631 2963
Q 2534 3019 2420 3045
Q 2306 3072 2169 3072
Q 1681 3072 1420 2755
Q 1159 2438 1159 1844
L 1159 0
L 581 0
L 581 3500
L 1159 3500
L 1159 2956
Q 1341 3275 1631 3429
Q 1922 3584 2338 3584
Q 2397 3584 2469 3576
Q 2541 3569 2628 3553
L 2631 2963
z
" transform="scale(0.015625)"/>
      </defs>
      <use xlink:href="#DejaVuSans-46"/>
      <use xlink:href="#DejaVuSans-61" transform="translate(48.394531 0)"/>
      <use xlink:href="#DejaVuSans-6c" transform="translate(109.673828 0)"/>
      <use xlink:href="#DejaVuSans-73" transform="translate(137.457031 0)"/>
      <use xlink:href="#DejaVuSans-65" transform="translate(189.556641 0)"/>
      <use xlink:href="#DejaVuSans-20" transform="translate(251.080078 0)"/>
      <use xlink:href="#DejaVuSans-70" transform="translate(282.867188 0)"/>
      <use xlink:href="#DejaVuSans-6f" transform="translate(346.34375 0)"/>
      <use xlink:href="#DejaVuSans-73" transform="translate(407.525391 0)"/>
      <use xlink:href="#DejaVuSans-69" transform="translate(459.625 0)"/>
      <use xlink:href="#DejaVuSans-74" transform="translate(487.408203 0)"/>
      <use xlink:href="#DejaVuSans-69" transform="translate(526.617188 0)"/>
      <use xlink:href="#DejaVuSans-76" transform="translate(554.400391 0)"/>
      <use xlink:href="#DejaVuSans-65" transform="translate(613.580078 0)"/>
      <use xlink:href="#DejaVuSans-20" transform="translate(675.103516 0)"/>
      <use xlink:href="#DejaVuSans-72" transform="translate(706.890625 0)"/>
      <use xlink:href="#DejaVuSans-61" transform="translate(748.003906 0)"/>
      <use xlink:href="#DejaVuSans-74" transform="translate(809.283203 0)"/>
      <use xlink:href="#DejaVuSans-65" transform="translate(848.492188 0)"/>
     </g>
    </g>
   </g>
   <g id="matplotlib.axis_2">
    <g id="ytick_1">
     <g id="line2d_7">
      <path d="M 48.65875 347.986151
L 472.07875 347.986151
" clip-path="url(#p5159aba8df)" style="fill: none; stroke: #cccccc; stroke-width: 1.5; stroke-linecap: round"/>
     </g>
     <g id="text_8">
      <!-- 0.0 -->
      <g style="fill: #262626" transform="translate(21.845938 351.405447) scale(0.09 -0.09)">
       <use xlink:href="#DejaVuSans-30"/>
       <use xlink:href="#DejaVuSans-2e" transform="translate(63.623047 0)"/>
       <use xlink:href="#DejaVuSans-30" transform="translate(95.410156 0)"/>
      </g>
     </g>
    </g>
    <g id="ytick_2">
     <g id="line2d_8">
      <path d="M 48.65875 286.098878
L 472.07875 286.098878
" clip-path="url(#p5159aba8df)" style="fill: none; stroke: #cccccc; stroke-width: 1.5; stroke-linecap: round"/>
     </g>
     <g id="text_9">
      <!-- 0.2 -->
      <g style="fill: #262626" transform="translate(21.845938 289.518175) scale(0.09 -0.09)">
       <use xlink:href="#DejaVuSans-30"/>
       <use xlink:href="#DejaVuSans-2e" transform="translate(63.623047 0)"/>
       <use xlink:href="#DejaVuSans-32" transform="translate(95.410156 0)"/>
      </g>
     </g>
    </g>
    <g id="ytick_3">
     <g id="line2d_9">
      <path d="M 48.65875 224.211605
L 472.07875 224.211605
" clip-path="url(#p5159aba8df)" style="fill: none; stroke: #cccccc; stroke-width: 1.5; stroke-linecap: round"/>
     </g>
     <g id="text_10">
      <!-- 0.4 -->
      <g style="fill: #262626" transform="translate(21.845938 227.630902) scale(0.09 -0.09)">
       <use xlink:href="#DejaVuSans-30"/>
       <use xlink:href="#DejaVuSans-2e" transform="translate(63.623047 0)"/>
       <use xlink:href="#DejaVuSans-34" transform="translate(95.410156 0)"/>
      </g>
     </g>
    </g>
    <g id="ytick_4">
     <g id="line2d_10">
      <path d="M 48.65875 162.324332
L 472.07875 162.324332
" clip-path="url(#p5159aba8df)" style="fill: none; stroke: #cccccc; stroke-width: 1.5; stroke-linecap: round"/>
     </g>
     <g id="text_11">
      <!-- 0.6 -->
      <g style="fill: #262626" transform="translate(21.845938 165.743629) scale(0.09 -0.09)">
       <use xlink:href="#DejaVuSans-30"/>
       <use xlink:href="#DejaVuSans-2e" transform="translate(63.623047 0)"/>
       <use xlink:href="#DejaVuSans-36" transform="translate(95.410156 0)"/>
      </g>
     </g>
    </g>
    <g id="ytick_5">
     <g id="line2d_11">
      <path d="M 48.65875 100.43706
L 472.07875 100.43706
" clip-path="url(#p5159aba8df)" style="fill: none; stroke: #cccccc; stroke-width: 1.5; stroke-linecap: round"/>
     </g>
     <g id="text_12">
      <!-- 0.8 -->
      <g style="fill: #262626" transform="translate(21.845938 103.856357) scale(0.09 -0.09)">
       <use xlink:href="#DejaVuSans-30"/>
       <use xlink:href="#DejaVuSans-2e" transform="translate(63.623047 0)"/>
       <use xlink:href="#DejaVuSans-38" transform="translate(95.410156 0)"/>
      </g>
     </g>
    </g>
    <g id="ytick_6">
     <g id="line2d_12">
      <path d="M 48.65875 38.549787
L 472.07875 38.549787
" clip-path="url(#p5159aba8df)" style="fill: none; stroke: #cccccc; stroke-width: 1.5; stroke-linecap: round"/>
     </g>
     <g id="text_13">
      <!-- 1.0 -->
      <g style="fill: #262626" transform="translate(21.845938 41.969084) scale(0.09 -0.09)">
       <use xlink:href="#DejaVuSans-31"/>
       <use xlink:href="#DejaVuSans-2e" transform="translate(63.623047 0)"/>
       <use xlink:href="#DejaVuSans-30" transform="translate(95.410156 0)"/>
      </g>
     </g>
    </g>
    <g id="text_14">
     <!-- True positive rate -->
     <g style="fill: #262626" transform="translate(15.558281 241.188437) rotate(-90) scale(0.11 -0.11)">
      <defs>
       <path id="DejaVuSans-54" d="M -19 4666
L 3928 4666
L 3928 4134
L 2272 4134
L 2272 0
L 1638 0
L 1638 4134
L -19 4134
L -19 4666
z
" transform="scale(0.015625)"/>
       <path id="DejaVuSans-75" d="M 544 1381
L 544 3500
L 1119 3500
L 1119 1403
Q 1119 906 1312 657
Q 1506 409 1894 409
Q 2359 409 2629 706
Q 2900 1003 2900 1516
L 2900 3500
L 3475 3500
L 3475 0
L 2900 0
L 2900 538
Q 2691 219 2414 64
Q 2138 -91 1772 -91
Q 1169 -91 856 284
Q 544 659 544 1381
z
M 1991 3584
L 1991 3584
z
" transform="scale(0.015625)"/>
      </defs>
      <use xlink:href="#DejaVuSans-54"/>
      <use xlink:href="#DejaVuSans-72" transform="translate(46.333984 0)"/>
      <use xlink:href="#DejaVuSans-75" transform="translate(87.447266 0)"/>
      <use xlink:href="#DejaVuSans-65" transform="translate(150.826172 0)"/>
      <use xlink:href="#DejaVuSans-20" transform="translate(212.349609 0)"/>
      <use xlink:href="#DejaVuSans-70" transform="translate(244.136719 0)"/>
      <use xlink:href="#DejaVuSans-6f" transform="translate(307.613281 0)"/>
      <use xlink:href="#DejaVuSans-73" transform="translate(368.794922 0)"/>
      <use xlink:href="#DejaVuSans-69" transform="translate(420.894531 0)"/>
      <use xlink:href="#DejaVuSans-74" transform="translate(448.677734 0)"/>
      <use xlink:href="#DejaVuSans-69" transform="translate(487.886719 0)"/>
      <use xlink:href="#DejaVuSans-76" transform="translate(515.669922 0)"/>
      <use xlink:href="#DejaVuSans-65" transform="translate(574.849609 0)"/>
      <use xlink:href="#DejaVuSans-20" transform="translate(636.373047 0)"/>
      <use xlink:href="#DejaVuSans-72" transform="translate(668.160156 0)"/>
      <use xlink:href="#DejaVuSans-61" transform="translate(709.273438 0)"/>
      <use xlink:href="#DejaVuSans-74" transform="translate(770.552734 0)"/>
      <use xlink:href="#DejaVuSans-65" transform="translate(809.761719 0)"/>
     </g>
    </g>
   </g>
   <g id="line2d_13">
    <path d="M 67.905114 347.986151
L 68.475376 347.986151
L 68.475376 345.936903
L 69.045639 345.936903
L 69.045639 344.707355
L 69.615902 344.707355
L 69.615902 343.477806
L 70.186164 343.477806
L 70.186164 343.067957
L 70.756427 343.067957
L 70.756427 340.60886
L 71.896952 340.60886
L 71.896952 340.19901
L 72.467215 340.19901
L 72.467215 335.690666
L 73.037477 335.690666
L 73.037477 334.051268
L 73.60774 334.051268
L 73.60774 333.641418
L 74.178003 333.641418
L 74.178003 332.82172
L 75.88879 332.82172
L 75.88879 332.002021
L 76.459053 332.002021
L 76.459053 330.362623
L 77.029316 330.362623
L 77.029316 329.952773
L 77.599578 329.952773
L 77.599578 327.493676
L 78.169841 327.493676
L 78.169841 326.264128
L 78.740104 326.264128
L 78.740104 325.444429
L 79.310366 325.444429
L 79.310366 324.62473
L 80.450891 324.62473
L 80.450891 322.165633
L 81.591417 322.165633
L 81.591417 321.345934
L 82.161679 321.345934
L 82.161679 320.526235
L 82.731942 320.526235
L 82.731942 316.837589
L 83.302205 316.837589
L 83.302205 315.198192
L 84.44273 315.198192
L 84.44273 314.788342
L 85.012992 314.788342
L 85.012992 313.558794
L 85.583255 313.558794
L 85.583255 311.919396
L 87.864306 311.919396
L 87.864306 311.509546
L 91.856144 311.509546
L 91.856144 309.460299
L 92.426407 309.460299
L 92.426407 309.050449
L 92.996669 309.050449
L 92.996669 306.591352
L 94.707457 306.591352
L 94.707457 305.771653
L 95.27772 305.771653
L 95.27772 303.312556
L 96.988508 303.312556
L 96.988508 302.902707
L 97.55877 302.902707
L 97.55877 302.492857
L 100.980346 302.492857
L 100.980346 297.574664
L 101.550609 297.574664
L 101.550609 297.164814
L 102.120871 297.164814
L 102.120871 296.754965
L 102.691134 296.754965
L 102.691134 296.345115
L 104.401922 296.345115
L 104.401922 295.935266
L 105.542447 295.935266
L 105.542447 295.115567
L 106.682972 295.115567
L 106.682972 293.886018
L 107.253235 293.886018
L 107.253235 293.476169
L 108.39376 293.476169
L 108.39376 293.066319
L 108.964023 293.066319
L 108.964023 292.24662
L 110.104548 292.24662
L 110.104548 291.836771
L 110.674811 291.836771
L 110.674811 290.197373
L 111.815336 290.197373
L 111.815336 289.787523
L 114.096386 289.787523
L 114.096386 289.377674
L 116.377437 289.377674
L 116.377437 288.557975
L 117.517962 288.557975
L 117.517962 288.148125
L 118.658487 288.148125
L 118.658487 287.328426
L 119.22875 287.328426
L 119.22875 286.098878
L 120.369275 286.098878
L 120.369275 285.689028
L 121.509801 285.689028
L 121.509801 285.279179
L 122.080063 285.279179
L 122.080063 284.04963
L 123.220588 284.04963
L 123.220588 283.639781
L 123.790851 283.639781
L 123.790851 282.820082
L 124.361114 282.820082
L 124.361114 281.180684
L 124.931376 281.180684
L 124.931376 280.770834
L 125.501639 280.770834
L 125.501639 280.360985
L 127.212427 280.360985
L 127.212427 277.082189
L 128.352952 277.082189
L 128.352952 276.26249
L 130.06374 276.26249
L 130.06374 275.032942
L 131.204265 275.032942
L 131.204265 272.983694
L 131.774528 272.983694
L 131.774528 270.114748
L 132.34479 270.114748
L 132.34479 268.47535
L 135.196104 268.47535
L 135.196104 268.0655
L 135.766366 268.0655
L 135.766366 267.245801
L 136.906891 267.245801
L 136.906891 266.426102
L 137.477154 266.426102
L 137.477154 266.016253
L 138.047417 266.016253
L 138.047417 265.606403
L 140.328467 265.606403
L 140.328467 264.786704
L 140.89873 264.786704
L 140.89873 263.557156
L 142.609518 263.557156
L 142.609518 262.737457
L 143.750043 262.737457
L 143.750043 261.917758
L 144.320306 261.917758
L 144.320306 261.507909
L 144.890568 261.507909
L 144.890568 260.27836
L 145.460831 260.27836
L 145.460831 259.868511
L 146.601356 259.868511
L 146.601356 259.048812
L 147.171619 259.048812
L 147.171619 256.999564
L 148.312144 256.999564
L 148.312144 255.770016
L 148.882407 255.770016
L 148.882407 255.360166
L 149.452669 255.360166
L 149.452669 254.950317
L 151.163457 254.950317
L 151.163457 254.130618
L 152.874245 254.130618
L 152.874245 252.08137
L 153.444508 252.08137
L 153.444508 250.441972
L 154.585033 250.441972
L 154.585033 249.212424
L 155.155295 249.212424
L 155.155295 248.392725
L 155.725558 248.392725
L 155.725558 247.982875
L 156.295821 247.982875
L 156.295821 247.573026
L 157.436346 247.573026
L 157.436346 245.523779
L 158.006609 245.523779
L 158.006609 244.29423
L 160.287659 244.29423
L 160.287659 243.474531
L 161.428184 243.474531
L 161.428184 242.654832
L 161.998447 242.654832
L 161.998447 241.835133
L 162.56871 241.835133
L 162.56871 241.015434
L 163.138972 241.015434
L 163.138972 240.605585
L 163.709235 240.605585
L 163.709235 240.195735
L 164.84976 240.195735
L 164.84976 239.785886
L 165.420023 239.785886
L 165.420023 239.376036
L 165.990285 239.376036
L 165.990285 238.966187
L 166.560548 238.966187
L 166.560548 238.146488
L 167.130811 238.146488
L 167.130811 236.916939
L 167.701073 236.916939
L 167.701073 235.277541
L 168.841598 235.277541
L 168.841598 234.867692
L 169.411861 234.867692
L 169.411861 234.457842
L 169.982124 234.457842
L 169.982124 233.638143
L 171.692912 233.638143
L 171.692912 233.228294
L 172.263174 233.228294
L 172.263174 230.769197
L 172.833437 230.769197
L 172.833437 230.359347
L 173.973962 230.359347
L 173.973962 229.949498
L 175.68475 229.949498
L 175.68475 229.539648
L 176.255013 229.539648
L 176.255013 228.3101
L 176.825275 228.3101
L 176.825275 226.670702
L 177.395538 226.670702
L 177.395538 226.260853
L 177.965801 226.260853
L 177.965801 225.851003
L 179.106326 225.851003
L 179.106326 225.441154
L 179.676588 225.441154
L 179.676588 225.031304
L 180.246851 225.031304
L 180.246851 223.391906
L 180.817114 223.391906
L 180.817114 221.752508
L 182.527902 221.752508
L 182.527902 219.703261
L 183.098164 219.703261
L 183.098164 218.473712
L 184.238689 218.473712
L 184.238689 218.063863
L 184.808952 218.063863
L 184.808952 217.654013
L 185.949477 217.654013
L 185.949477 216.424465
L 186.51974 216.424465
L 186.51974 216.014615
L 187.090003 216.014615
L 187.090003 215.604766
L 187.660265 215.604766
L 187.660265 214.785067
L 188.230528 214.785067
L 188.230528 212.32597
L 189.371053 212.32597
L 189.371053 211.506271
L 190.511578 211.506271
L 190.511578 210.276723
L 191.081841 210.276723
L 191.081841 209.457024
L 191.652104 209.457024
L 191.652104 206.588077
L 192.222366 206.588077
L 192.222366 204.53883
L 192.792629 204.53883
L 192.792629 203.309281
L 193.362891 203.309281
L 193.362891 202.079733
L 193.933154 202.079733
L 193.933154 200.440335
L 194.503417 200.440335
L 194.503417 200.030485
L 195.073679 200.030485
L 195.073679 199.210786
L 195.643942 199.210786
L 195.643942 198.800937
L 196.784467 198.800937
L 196.784467 198.391087
L 197.35473 198.391087
L 197.35473 197.571388
L 197.924992 197.571388
L 197.924992 195.93199
L 198.495255 195.93199
L 198.495255 193.063044
L 200.206043 193.063044
L 200.206043 191.423646
L 200.776306 191.423646
L 200.776306 191.013797
L 201.346568 191.013797
L 201.346568 188.964549
L 202.487093 188.964549
L 202.487093 187.325151
L 203.057356 187.325151
L 203.057356 186.915302
L 204.768144 186.915302
L 204.768144 186.505452
L 205.338407 186.505452
L 205.338407 185.685753
L 205.908669 185.685753
L 205.908669 183.636506
L 206.478932 183.636506
L 206.478932 182.816807
L 207.049194 182.816807
L 207.049194 182.406957
L 208.18972 182.406957
L 208.18972 181.587258
L 209.330245 181.587258
L 209.330245 180.35771
L 209.900508 180.35771
L 209.900508 179.94786
L 211.041033 179.94786
L 211.041033 179.538011
L 211.611295 179.538011
L 211.611295 179.128161
L 212.181558 179.128161
L 212.181558 177.488763
L 212.751821 177.488763
L 212.751821 175.849365
L 213.892346 175.849365
L 213.892346 174.209968
L 214.462609 174.209968
L 214.462609 173.800118
L 215.603134 173.800118
L 215.603134 173.390269
L 216.173396 173.390269
L 216.173396 172.980419
L 216.743659 172.980419
L 216.743659 172.57057
L 217.884184 172.57057
L 217.884184 170.931172
L 219.594972 170.931172
L 219.594972 170.111473
L 221.30576 170.111473
L 221.30576 169.701623
L 224.727336 169.701623
L 224.727336 166.012978
L 225.867861 166.012978
L 225.867861 165.603128
L 226.438124 165.603128
L 226.438124 165.193279
L 227.008386 165.193279
L 227.008386 164.783429
L 228.148912 164.783429
L 228.148912 164.37358
L 228.719174 164.37358
L 228.719174 162.324332
L 229.289437 162.324332
L 229.289437 161.504633
L 233.851538 161.504633
L 233.851538 160.684934
L 234.992063 160.684934
L 234.992063 159.865235
L 235.562326 159.865235
L 235.562326 159.455386
L 236.132588 159.455386
L 236.132588 159.045536
L 237.273114 159.045536
L 237.273114 158.225838
L 238.413639 158.225838
L 238.413639 157.815988
L 238.983902 157.815988
L 238.983902 157.406139
L 239.554164 157.406139
L 239.554164 156.996289
L 241.835215 156.996289
L 241.835215 154.947042
L 242.97574 154.947042
L 242.97574 154.537192
L 243.546003 154.537192
L 243.546003 153.717493
L 244.116265 153.717493
L 244.116265 152.487945
L 244.686528 152.487945
L 244.686528 152.078095
L 245.25679 152.078095
L 245.25679 151.668246
L 246.397316 151.668246
L 246.397316 150.848547
L 246.967578 150.848547
L 246.967578 150.438697
L 247.537841 150.438697
L 247.537841 150.028848
L 248.678366 150.028848
L 248.678366 149.618998
L 249.818891 149.618998
L 249.818891 149.209149
L 250.959417 149.209149
L 250.959417 148.799299
L 251.529679 148.799299
L 251.529679 148.38945
L 253.240467 148.38945
L 253.240467 147.9796
L 253.81073 147.9796
L 253.81073 147.159901
L 254.380992 147.159901
L 254.380992 146.750052
L 254.951255 146.750052
L 254.951255 146.340202
L 255.521518 146.340202
L 255.521518 145.520503
L 258.372831 145.520503
L 258.372831 144.700804
L 259.513356 144.700804
L 259.513356 143.061406
L 260.083619 143.061406
L 260.083619 142.241707
L 260.653881 142.241707
L 260.653881 141.831858
L 261.224144 141.831858
L 261.224144 141.012159
L 262.364669 141.012159
L 262.364669 140.60231
L 262.934932 140.60231
L 262.934932 139.782611
L 263.505194 139.782611
L 263.505194 138.962912
L 265.215982 138.962912
L 265.215982 138.553062
L 266.92677 138.553062
L 266.92677 136.503815
L 267.497033 136.503815
L 267.497033 136.093965
L 268.067295 136.093965
L 268.067295 134.864417
L 268.637558 134.864417
L 268.637558 134.044718
L 269.207821 134.044718
L 269.207821 132.40532
L 269.778083 132.40532
L 269.778083 131.175771
L 270.918609 131.175771
L 270.918609 129.946223
L 271.488871 129.946223
L 271.488871 128.716674
L 272.059134 128.716674
L 272.059134 128.306825
L 273.199659 128.306825
L 273.199659 127.896975
L 274.340184 127.896975
L 274.340184 127.077276
L 274.910447 127.077276
L 274.910447 126.667427
L 275.48071 126.667427
L 275.48071 126.257577
L 276.050972 126.257577
L 276.050972 125.437878
L 277.191497 125.437878
L 277.191497 124.20833
L 278.332023 124.20833
L 278.332023 122.978782
L 282.323861 122.978782
L 282.323861 122.159083
L 283.464386 122.159083
L 283.464386 120.929534
L 286.315699 120.929534
L 286.315699 119.290136
L 287.456225 119.290136
L 287.456225 118.470437
L 289.167013 118.470437
L 289.167013 118.060588
L 289.737275 118.060588
L 289.737275 117.650738
L 290.307538 117.650738
L 290.307538 117.240889
L 290.877801 117.240889
L 290.877801 116.01134
L 291.448063 116.01134
L 291.448063 115.601491
L 292.018326 115.601491
L 292.018326 115.191641
L 292.588588 115.191641
L 292.588588 114.371942
L 293.729114 114.371942
L 293.729114 113.962093
L 296.580427 113.962093
L 296.580427 113.552243
L 298.291215 113.552243
L 298.291215 112.732544
L 299.43174 112.732544
L 299.43174 111.912845
L 300.572265 111.912845
L 300.572265 111.502996
L 301.71279 111.502996
L 301.71279 110.683297
L 302.853316 110.683297
L 302.853316 109.453748
L 304.564104 109.453748
L 304.564104 108.634049
L 305.134366 108.634049
L 305.134366 107.81435
L 311.977518 107.81435
L 311.977518 107.404501
L 313.118043 107.404501
L 313.118043 106.994651
L 315.969356 106.994651
L 315.969356 106.584802
L 318.250407 106.584802
L 318.250407 106.174952
L 318.820669 106.174952
L 318.820669 104.945404
L 319.390932 104.945404
L 319.390932 104.125705
L 320.531457 104.125705
L 320.531457 103.715856
L 321.671982 103.715856
L 321.671982 102.896157
L 323.38277 102.896157
L 323.38277 102.486307
L 324.523295 102.486307
L 324.523295 102.076458
L 326.234083 102.076458
L 326.234083 101.666608
L 329.085396 101.666608
L 329.085396 100.846909
L 330.796184 100.846909
L 330.796184 100.43706
L 331.93671 100.43706
L 331.93671 100.02721
L 334.21776 100.02721
L 334.21776 99.617361
L 337.639336 99.617361
L 337.639336 99.207511
L 338.779861 99.207511
L 338.779861 97.568113
L 341.631174 97.568113
L 341.631174 97.158264
L 342.201437 97.158264
L 342.201437 96.748414
L 342.771699 96.748414
L 342.771699 93.059769
L 345.05275 93.059769
L 345.05275 92.649919
L 346.193275 92.649919
L 346.193275 90.190822
L 346.763538 90.190822
L 346.763538 89.780973
L 348.474326 89.780973
L 348.474326 88.961274
L 349.044588 88.961274
L 349.044588 88.551424
L 350.185114 88.551424
L 350.185114 87.731726
L 353.036427 87.731726
L 353.036427 86.912027
L 354.747215 86.912027
L 354.747215 86.502177
L 355.317477 86.502177
L 355.317477 86.092328
L 355.88774 86.092328
L 355.88774 85.272629
L 357.598528 85.272629
L 357.598528 82.813532
L 358.739053 82.813532
L 358.739053 82.403682
L 359.309316 82.403682
L 359.309316 81.583983
L 360.449841 81.583983
L 360.449841 81.174134
L 363.301154 81.174134
L 363.301154 79.124886
L 363.871417 79.124886
L 363.871417 78.715037
L 364.441679 78.715037
L 364.441679 77.895338
L 366.152467 77.895338
L 366.152467 77.485488
L 366.72273 77.485488
L 366.72273 77.075639
L 368.433518 77.075639
L 368.433518 76.665789
L 369.574043 76.665789
L 369.574043 74.616542
L 370.144306 74.616542
L 370.144306 72.977144
L 370.714568 72.977144
L 370.714568 72.567294
L 373.565881 72.567294
L 373.565881 71.747595
L 374.136144 71.747595
L 374.136144 71.337746
L 374.706407 71.337746
L 375.276669 70.518047
L 375.846932 70.518047
L 375.846932 70.108198
L 376.987457 70.108198
L 376.987457 69.698348
L 378.127982 69.698348
L 378.127982 67.649101
L 380.409033 67.649101
L 380.409033 67.239251
L 381.549558 67.239251
L 381.549558 66.419552
L 383.260346 66.419552
L 383.260346 64.780154
L 384.971134 64.780154
L 384.971134 63.960455
L 386.111659 63.960455
L 386.111659 62.730907
L 387.252184 62.730907
L 387.252184 62.321057
L 388.39271 62.321057
L 388.39271 61.501358
L 388.962972 61.501358
L 388.962972 60.27181
L 389.533235 60.27181
L 389.533235 59.86196
L 390.67376 59.86196
L 390.67376 59.042261
L 392.384548 59.042261
L 392.384548 58.222562
L 392.954811 58.222562
L 392.954811 57.812713
L 394.665598 57.812713
L 394.665598 57.402863
L 396.376386 57.402863
L 396.376386 56.583164
L 398.657437 56.583164
L 398.657437 55.763465
L 399.797962 55.763465
L 399.797962 55.353616
L 400.368225 55.353616
L 400.368225 54.943766
L 402.649275 54.943766
L 402.649275 54.533917
L 404.360063 54.533917
L 404.360063 54.124067
L 404.930326 54.124067
L 404.930326 52.894519
L 405.500588 52.894519
L 405.500588 52.48467
L 406.641114 52.48467
L 406.641114 52.07482
L 407.211376 52.07482
L 407.211376 49.205874
L 407.781639 49.205874
L 407.781639 47.976325
L 410.632952 47.976325
L 410.632952 47.566476
L 412.914003 47.566476
L 412.914003 46.336927
L 413.484265 46.336927
L 413.484265 45.927078
L 416.335578 45.927078
L 416.335578 45.517228
L 418.616629 45.517228
L 418.616629 45.107379
L 425.45978 45.107379
L 425.45978 44.697529
L 426.030043 44.697529
L 426.030043 44.28768
L 426.600306 44.28768
L 426.600306 43.87783
L 427.740831 43.87783
L 427.740831 43.467981
L 430.021881 43.467981
L 430.021881 42.648282
L 430.592144 42.648282
L 430.592144 41.828583
L 432.873194 41.828583
L 432.873194 41.418733
L 434.583982 41.418733
L 434.583982 40.599034
L 435.724508 40.599034
L 435.724508 40.189185
L 436.865033 40.189185
L 436.865033 39.369486
L 438.005558 39.369486
L 438.005558 38.959636
L 441.427134 38.959636
L 441.427134 38.549787
L 452.832386 38.549787
L 452.832386 38.549787
" clip-path="url(#p5159aba8df)" style="fill: none; stroke: #b54a4a; stroke-width: 2.5; stroke-linecap: round"/>
   </g>
   <g id="line2d_14">
    <path d="M 67.905114 347.986151
L 69.600828 347.986151
L 69.600828 344.374053
L 71.296543 344.374053
L 71.296543 341.965988
L 72.992258 341.965988
L 72.992258 333.53776
L 76.383688 333.53776
L 76.383688 332.333728
L 78.079403 332.333728
L 78.079403 329.925662
L 81.470832 329.925662
L 81.470832 322.701467
L 83.166547 322.701467
L 83.166547 320.293402
L 84.862262 320.293402
L 84.862262 317.885337
L 86.557977 317.885337
L 86.557977 314.273239
L 88.253692 314.273239
L 88.253692 311.865174
L 91.645122 311.865174
L 91.645122 309.457109
L 93.340837 309.457109
L 93.340837 302.232914
L 95.036551 302.232914
L 95.036551 299.824849
L 96.732266 299.824849
L 96.732266 293.804686
L 98.427981 293.804686
L 98.427981 291.396621
L 100.123696 291.396621
L 100.123696 290.192588
L 101.819411 290.192588
L 101.819411 287.784523
L 103.515126 287.784523
L 103.515126 286.580491
L 105.210841 286.580491
L 105.210841 284.172426
L 106.906555 284.172426
L 106.906555 275.744198
L 108.60227 275.744198
L 108.60227 273.336133
L 110.297985 273.336133
L 110.297985 270.928068
L 113.689415 270.928068
L 113.689415 264.907905
L 115.38513 264.907905
L 115.38513 262.49984
L 117.080845 262.49984
L 117.080845 261.295807
L 118.776559 261.295807
L 118.776559 260.091775
L 122.167989 260.091775
L 122.167989 258.887742
L 125.559419 258.887742
L 125.559419 255.275645
L 127.255134 255.275645
L 127.255134 252.86758
L 128.950849 252.86758
L 128.950849 250.459515
L 134.037993 250.459515
L 134.037993 248.051449
L 135.733708 248.051449
L 135.733708 244.439352
L 137.429423 244.439352
L 137.429423 243.235319
L 139.125138 243.235319
L 139.125138 237.215157
L 140.820853 237.215157
L 140.820853 234.807091
L 144.212282 234.807091
L 144.212282 221.562734
L 145.907997 221.562734
L 145.907997 217.950636
L 149.299427 217.950636
L 149.299427 214.338538
L 152.690857 214.338538
L 152.690857 211.930473
L 154.386571 211.930473
L 154.386571 208.318376
L 156.082286 208.318376
L 156.082286 205.91031
L 159.473716 205.91031
L 159.473716 202.298213
L 164.560861 202.298213
L 164.560861 201.09418
L 167.95229 201.09418
L 167.95229 195.074018
L 173.039435 195.074018
L 173.039435 191.46192
L 174.73515 191.46192
L 174.73515 190.257887
L 183.213724 190.257887
L 183.213724 189.053855
L 184.909439 189.053855
L 184.909439 186.64579
L 193.388013 186.64579
L 193.388013 179.421595
L 200.170873 179.421595
L 200.170873 178.217562
L 201.866587 178.217562
L 201.866587 170.993367
L 203.562302 170.993367
L 203.562302 169.789334
L 208.649447 169.789334
L 208.649447 168.585302
L 210.345162 168.585302
L 210.345162 167.381269
L 217.128021 167.381269
L 217.128021 164.973204
L 220.519451 164.973204
L 220.519451 163.769171
L 222.215166 163.769171
L 222.215166 160.157074
L 225.606595 160.157074
L 225.606595 154.136911
L 228.998025 154.136911
L 228.998025 152.932879
L 230.69374 152.932879
L 230.69374 150.524813
L 232.389455 150.524813
L 232.389455 149.320781
L 240.868029 149.320781
L 240.868029 143.300618
L 242.563744 143.300618
L 242.563744 142.096586
L 244.259459 142.096586
L 244.259459 139.688521
L 247.650889 139.688521
L 247.650889 138.484488
L 254.433748 138.484488
L 254.433748 137.280455
L 257.825178 137.280455
L 257.825178 132.464325
L 259.520893 132.464325
L 259.520893 127.648195
L 261.216607 127.648195
L 261.216607 126.444163
L 266.303752 126.444163
L 266.303752 124.036098
L 267.999467 124.036098
L 267.999467 122.832065
L 271.390897 122.832065
L 271.390897 121.628032
L 274.782326 121.628032
L 274.782326 120.424
L 278.173756 120.424
L 278.173756 114.403837
L 283.260901 114.403837
L 283.260901 113.199805
L 284.956615 113.199805
L 284.956615 111.995772
L 290.04376 111.995772
L 290.04376 108.383674
L 293.43519 108.383674
L 293.43519 105.975609
L 295.130905 105.975609
L 295.130905 104.771577
L 296.826619 104.771577
L 296.826619 103.567544
L 300.218049 103.567544
L 300.218049 101.159479
L 301.913764 101.159479
L 301.913764 97.547382
L 303.609479 97.547382
L 303.609479 96.343349
L 305.305194 96.343349
L 305.305194 93.935284
L 307.000909 93.935284
L 307.000909 91.527219
L 308.696623 91.527219
L 308.696623 90.323186
L 313.783768 90.323186
L 313.783768 89.119154
L 318.870913 89.119154
L 318.870913 86.711089
L 325.653772 86.711089
L 325.653772 84.303024
L 329.045202 84.303024
L 329.045202 83.098991
L 330.740917 83.098991
L 330.740917 81.894958
L 337.523776 81.894958
L 337.523776 80.690926
L 344.306635 80.690926
L 344.306635 75.874796
L 347.698065 75.874796
L 347.698065 74.670763
L 349.39378 74.670763
L 349.39378 63.83447
L 356.176639 63.83447
L 356.176639 62.630438
L 361.263784 62.630438
L 361.263784 59.01834
L 362.959499 59.01834
L 362.959499 57.814308
L 371.438073 57.814308
L 371.438073 56.610275
L 376.525218 56.610275
L 376.525218 55.406243
L 393.482366 55.406243
L 393.482366 54.20221
L 395.178081 54.20221
L 395.178081 52.998177
L 396.873796 52.998177
L 396.873796 51.794145
L 400.265226 51.794145
L 400.265226 50.590112
L 405.35237 50.590112
L 405.35237 45.773982
L 412.13523 45.773982
L 412.13523 44.56995
L 417.222374 44.56995
L 417.222374 42.161885
L 420.613804 42.161885
L 420.613804 40.957852
L 422.309519 40.957852
L 422.309519 39.753819
L 432.483808 39.753819
L 432.483808 38.549787
L 452.832386 38.549787
L 452.832386 38.549787
" clip-path="url(#p5159aba8df)" style="fill: none; stroke: #4c72b0; stroke-opacity: 0.75; stroke-width: 1.4; stroke-linecap: round"/>
   </g>
   <g id="line2d_15">
    <path d="M 67.905114 347.986151
L 67.905114 346.763082
L 71.266924 346.763082
L 71.266924 345.540013
L 74.628734 345.540013
L 74.628734 338.201602
L 77.990544 338.201602
L 77.990544 336.978533
L 79.671449 336.978533
L 79.671449 325.970915
L 83.03326 325.970915
L 83.03326 321.078641
L 84.714165 321.078641
L 84.714165 317.409435
L 86.39507 317.409435
L 86.39507 316.186366
L 88.075975 316.186366
L 88.075975 311.294092
L 89.75688 311.294092
L 89.75688 308.847954
L 91.437785 308.847954
L 91.437785 306.401817
L 93.11869 306.401817
L 93.11869 299.063405
L 96.480501 299.063405
L 96.480501 296.617268
L 99.842311 296.617268
L 99.842311 292.948062
L 101.523216 292.948062
L 101.523216 283.163513
L 103.204121 283.163513
L 103.204121 275.825101
L 104.885026 275.825101
L 104.885026 272.155895
L 106.565931 272.155895
L 106.565931 269.709758
L 108.246837 269.709758
L 108.246837 268.48669
L 109.927742 268.48669
L 109.927742 267.263621
L 111.608647 267.263621
L 111.608647 266.040552
L 113.289552 266.040552
L 113.289552 262.371346
L 114.970457 262.371346
L 114.970457 258.702141
L 116.651362 258.702141
L 116.651362 252.586797
L 121.694078 252.586797
L 121.694078 239.133042
L 123.374983 239.133042
L 123.374983 237.909974
L 128.417698 237.909974
L 128.417698 236.686905
L 130.098603 236.686905
L 130.098603 231.794631
L 131.779508 231.794631
L 131.779508 229.348493
L 133.460413 229.348493
L 133.460413 228.125425
L 136.822224 228.125425
L 136.822224 225.679287
L 140.184034 225.679287
L 140.184034 223.23315
L 141.864939 223.23315
L 141.864939 222.010082
L 145.226749 222.010082
L 145.226749 215.894738
L 146.907654 215.894738
L 146.907654 212.225533
L 150.269465 212.225533
L 150.269465 208.556327
L 151.95037 208.556327
L 151.95037 207.333258
L 153.631275 207.333258
L 153.631275 206.110189
L 155.31218 206.110189
L 155.31218 204.887121
L 156.993085 204.887121
L 156.993085 203.664052
L 160.354895 203.664052
L 160.354895 201.217915
L 165.397611 201.217915
L 165.397611 198.771778
L 170.440326 198.771778
L 170.440326 197.548709
L 180.525757 197.548709
L 180.525757 187.76416
L 183.887567 187.76416
L 183.887567 185.318023
L 185.568472 185.318023
L 185.568472 184.094954
L 188.930282 184.094954
L 188.930282 182.871885
L 190.611187 182.871885
L 190.611187 177.979611
L 192.292093 177.979611
L 192.292093 176.756542
L 202.377523 176.756542
L 202.377523 174.310405
L 205.739334 174.310405
L 205.739334 173.087336
L 207.420239 173.087336
L 207.420239 171.864268
L 209.101144 171.864268
L 209.101144 170.641199
L 212.462954 170.641199
L 212.462954 168.195062
L 215.824764 168.195062
L 215.824764 166.971993
L 219.186575 166.971993
L 219.186575 165.748925
L 224.22929 165.748925
L 224.22929 159.633581
L 225.910195 159.633581
L 225.910195 158.410513
L 227.5911 158.410513
L 227.5911 155.964376
L 229.272005 155.964376
L 229.272005 153.518238
L 230.95291 153.518238
L 230.95291 152.29517
L 232.633816 152.29517
L 232.633816 151.072101
L 235.995626 151.072101
L 235.995626 149.849032
L 237.676531 149.849032
L 237.676531 148.625964
L 239.357436 148.625964
L 239.357436 147.402895
L 242.719246 147.402895
L 242.719246 146.179826
L 246.081056 146.179826
L 246.081056 144.956758
L 247.761962 144.956758
L 247.761962 143.733689
L 254.485582 143.733689
L 254.485582 142.510621
L 256.166487 142.510621
L 256.166487 140.064483
L 257.847392 140.064483
L 257.847392 137.618346
L 266.251918 137.618346
L 266.251918 136.395277
L 269.613728 136.395277
L 269.613728 132.726072
L 271.294633 132.726072
L 271.294633 131.503003
L 272.975538 131.503003
L 272.975538 130.279934
L 274.656444 130.279934
L 274.656444 127.833797
L 276.337349 127.833797
L 276.337349 126.610728
L 278.018254 126.610728
L 278.018254 125.38766
L 279.699159 125.38766
L 279.699159 124.164591
L 284.741874 124.164591
L 284.741874 122.941522
L 288.103684 122.941522
L 288.103684 118.049248
L 289.78459 118.049248
L 289.78459 116.826179
L 291.465495 116.826179
L 291.465495 113.156973
L 293.1464 113.156973
L 293.1464 110.710836
L 294.827305 110.710836
L 294.827305 107.04163
L 296.50821 107.04163
L 296.50821 104.595493
L 299.87002 104.595493
L 299.87002 102.149356
L 301.550925 102.149356
L 301.550925 98.48015
L 304.912736 98.48015
L 304.912736 97.257081
L 308.274546 97.257081
L 308.274546 94.810944
L 309.955451 94.810944
L 309.955451 93.587875
L 311.636356 93.587875
L 311.636356 92.364807
L 313.317261 92.364807
L 313.317261 89.918669
L 314.998166 89.918669
L 314.998166 86.249464
L 326.764502 86.249464
L 326.764502 85.026395
L 328.445407 85.026395
L 328.445407 83.803326
L 335.169028 83.803326
L 335.169028 81.357189
L 338.530838 81.357189
L 338.530838 78.911052
L 345.254459 78.911052
L 345.254459 76.464914
L 346.935364 76.464914
L 346.935364 75.241846
L 348.616269 75.241846
L 348.616269 74.018777
L 351.978079 74.018777
L 351.978079 72.795709
L 357.020794 72.795709
L 357.020794 71.57264
L 362.06351 71.57264
L 362.06351 69.126503
L 363.744415 69.126503
L 363.744415 66.680365
L 367.106225 66.680365
L 367.106225 65.457297
L 370.468035 65.457297
L 370.468035 64.234228
L 373.829846 64.234228
L 373.829846 63.01116
L 377.191656 63.01116
L 377.191656 60.565022
L 378.872561 60.565022
L 378.872561 58.118885
L 395.681612 58.118885
L 395.681612 56.895816
L 404.086138 56.895816
L 404.086138 55.672748
L 409.128853 55.672748
L 409.128853 54.449679
L 414.171569 54.449679
L 414.171569 53.226611
L 417.533379 53.226611
L 417.533379 50.780473
L 437.70424 50.780473
L 437.70424 49.557405
L 442.746956 49.557405
L 442.746956 48.334336
L 447.789671 48.334336
L 447.789671 45.888199
L 449.470576 45.888199
L 449.470576 44.66513
L 451.151481 44.66513
L 451.151481 40.995924
L 452.832386 38.549787
L 452.832386 38.549787
" clip-path="url(#p5159aba8df)" style="fill: none; stroke: #dd8452; stroke-opacity: 0.75; stroke-width: 1.4; stroke-linecap: round"/>
   </g>
   <g id="line2d_16">
    <path d="M 67.905114 347.986151
L 69.662772 347.986151
L 69.662772 341.671123
L 71.420431 341.671123
L 71.420431 337.882106
L 73.17809 337.882106
L 73.17809 334.093089
L 74.935749 334.093089
L 74.935749 332.830084
L 76.693408 332.830084
L 76.693408 325.25205
L 80.208725 325.25205
L 80.208725 323.989045
L 81.966384 323.989045
L 81.966384 310.095984
L 83.724043 310.095984
L 83.724043 305.043961
L 85.481701 305.043961
L 85.481701 303.780956
L 87.23936 303.780956
L 87.23936 301.254945
L 92.512337 301.254945
L 92.512337 298.728933
L 94.269995 298.728933
L 94.269995 293.676911
L 96.027654 293.676911
L 96.027654 292.413906
L 97.785313 292.413906
L 97.785313 284.835872
L 99.542972 284.835872
L 99.542972 281.046856
L 101.30063 281.046856
L 101.30063 278.520844
L 103.058289 278.520844
L 103.058289 275.994833
L 106.573607 275.994833
L 106.573607 268.4168
L 110.088924 268.4168
L 110.088924 265.890789
L 111.846583 265.890789
L 111.846583 263.364778
L 113.604242 263.364778
L 113.604242 251.997728
L 115.361901 251.997728
L 115.361901 246.945705
L 118.877218 246.945705
L 118.877218 245.6827
L 120.634877 245.6827
L 120.634877 241.893683
L 122.392536 241.893683
L 122.392536 236.841661
L 129.423171 236.841661
L 129.423171 235.578655
L 141.726782 235.578655
L 141.726782 229.263627
L 143.484441 229.263627
L 143.484441 228.000622
L 145.2421 228.000622
L 145.2421 220.422588
L 150.515076 220.422588
L 150.515076 217.896577
L 152.272735 217.896577
L 152.272735 210.318544
L 157.545711 210.318544
L 157.545711 209.055538
L 159.30337 209.055538
L 159.30337 207.792533
L 169.849323 207.792533
L 169.849323 192.636466
L 171.606982 192.636466
L 171.606982 191.37346
L 173.36464 191.37346
L 173.36464 190.110455
L 175.122299 190.110455
L 175.122299 188.847449
L 180.395276 188.847449
L 180.395276 187.584444
L 183.910593 187.584444
L 183.910593 185.058433
L 187.425911 185.058433
L 187.425911 181.269416
L 189.183569 181.269416
L 189.183569 180.00641
L 192.698887 180.00641
L 192.698887 178.743405
L 194.456546 178.743405
L 194.456546 176.217394
L 197.971863 176.217394
L 197.971863 174.954388
L 199.729522 174.954388
L 199.729522 169.902366
L 203.24484 169.902366
L 203.24484 168.63936
L 210.275475 168.63936
L 210.275475 167.376355
L 217.30611 167.376355
L 217.30611 164.850344
L 220.821427 164.850344
L 220.821427 163.587338
L 224.336745 163.587338
L 224.336745 161.061327
L 226.094404 161.061327
L 226.094404 157.27231
L 229.609721 157.27231
L 229.609721 156.009305
L 231.36738 156.009305
L 231.36738 154.746299
L 233.125039 154.746299
L 233.125039 152.220288
L 236.640356 152.220288
L 236.640356 150.957282
L 238.398015 150.957282
L 238.398015 148.431271
L 240.155674 148.431271
L 240.155674 143.379249
L 241.913333 143.379249
L 241.913333 142.116243
L 243.670992 142.116243
L 243.670992 140.853238
L 248.943968 140.853238
L 248.943968 133.275204
L 252.459285 133.275204
L 252.459285 130.749193
L 255.974603 130.749193
L 255.974603 129.486188
L 257.732262 129.486188
L 257.732262 125.697171
L 259.489921 125.697171
L 259.489921 120.645149
L 261.247579 120.645149
L 261.247579 118.119138
L 268.278215 118.119138
L 268.278215 115.593126
L 271.793532 115.593126
L 271.793532 113.067115
L 277.066508 113.067115
L 277.066508 111.80411
L 284.097144 111.80411
L 284.097144 110.541104
L 287.612461 110.541104
L 287.612461 108.015093
L 289.37012 108.015093
L 289.37012 105.489082
L 292.885437 105.489082
L 292.885437 104.226076
L 294.643096 104.226076
L 294.643096 99.174054
L 298.158414 99.174054
L 298.158414 97.911049
L 299.916073 97.911049
L 299.916073 96.648043
L 305.189049 96.648043
L 305.189049 91.596021
L 310.462025 91.596021
L 310.462025 90.333015
L 312.219684 90.333015
L 312.219684 89.07001
L 313.977343 89.07001
L 313.977343 86.543998
L 315.735002 86.543998
L 315.735002 85.280993
L 321.007978 85.280993
L 321.007978 82.754982
L 324.523295 82.754982
L 324.523295 80.228971
L 326.280954 80.228971
L 326.280954 78.965965
L 331.553931 78.965965
L 331.553931 77.702959
L 333.311589 77.702959
L 333.311589 76.439954
L 342.099883 76.439954
L 342.099883 75.176948
L 343.857542 75.176948
L 343.857542 73.913943
L 354.403495 73.913943
L 354.403495 72.650937
L 356.161153 72.650937
L 356.161153 71.387932
L 357.918812 71.387932
L 357.918812 68.861921
L 370.222424 68.861921
L 370.222424 65.072904
L 371.980083 65.072904
L 371.980083 61.283887
L 375.4954 61.283887
L 375.4954 60.020882
L 380.768376 60.020882
L 380.768376 57.49487
L 384.283694 57.49487
L 384.283694 56.231865
L 386.041353 56.231865
L 386.041353 53.705854
L 389.55667 53.705854
L 389.55667 52.442848
L 396.587305 52.442848
L 396.587305 51.179843
L 400.102623 51.179843
L 400.102623 48.653831
L 407.133258 48.653831
L 407.133258 46.12782
L 410.648576 46.12782
L 410.648576 43.601809
L 417.679211 43.601809
L 417.679211 42.338804
L 419.43687 42.338804
L 419.43687 41.075798
L 435.255799 41.075798
L 435.255799 38.549787
L 452.832386 38.549787
L 452.832386 38.549787
" clip-path="url(#p5159aba8df)" style="fill: none; stroke: #55a868; stroke-opacity: 0.75; stroke-width: 1.4; stroke-linecap: round"/>
   </g>
   <g id="line2d_17">
    <path d="M 67.905114 347.986151
L 452.832386 38.549787
" clip-path="url(#p5159aba8df)" style="fill: none; stroke-dasharray: 3.7,1.6; stroke-dashoffset: 0; stroke: #6c757d"/>
   </g>
   <g id="patch_3">
    <path d="M 48.65875 363.457969
L 48.65875 23.077969
" style="fill: none; stroke: #cccccc; stroke-width: 1.875; stroke-linejoin: miter; stroke-linecap: square"/>
   </g>
   <g id="patch_4">
    <path d="M 48.65875 363.457969
L 472.07875 363.457969
" style="fill: none; stroke: #cccccc; stroke-width: 1.875; stroke-linejoin: miter; stroke-linecap: square"/>
   </g>
   <g id="text_15">
    <!-- DOLOS Final Ensemble ROC Curves -->
    <g style="fill: #262626" transform="translate(132.545234 17.077969) scale(0.13 -0.13)">
     <defs>
      <path id="DejaVuSans-Bold-44" d="M 1791 3756
L 1791 909
L 2222 909
Q 2959 909 3348 1275
Q 3738 1641 3738 2338
Q 3738 3031 3350 3393
Q 2963 3756 2222 3756
L 1791 3756
z
M 588 4666
L 1856 4666
Q 2919 4666 3439 4514
Q 3959 4363 4331 4000
Q 4659 3684 4818 3271
Q 4978 2859 4978 2338
Q 4978 1809 4818 1395
Q 4659 981 4331 666
Q 3956 303 3431 151
Q 2906 0 1856 0
L 588 0
L 588 4666
z
" transform="scale(0.015625)"/>
      <path id="DejaVuSans-Bold-4f" d="M 2719 3878
Q 2169 3878 1866 3472
Q 1563 3066 1563 2328
Q 1563 1594 1866 1187
Q 2169 781 2719 781
Q 3272 781 3575 1187
Q 3878 1594 3878 2328
Q 3878 3066 3575 3472
Q 3272 3878 2719 3878
z
M 2719 4750
Q 3844 4750 4481 4106
Q 5119 3463 5119 2328
Q 5119 1197 4481 553
Q 3844 -91 2719 -91
Q 1597 -91 958 553
Q 319 1197 319 2328
Q 319 3463 958 4106
Q 1597 4750 2719 4750
z
" transform="scale(0.015625)"/>
      <path id="DejaVuSans-Bold-4c" d="M 588 4666
L 1791 4666
L 1791 909
L 3903 909
L 3903 0
L 588 0
L 588 4666
z
" transform="scale(0.015625)"/>
      <path id="DejaVuSans-Bold-53" d="M 3834 4519
L 3834 3531
Q 3450 3703 3084 3790
Q 2719 3878 2394 3878
Q 1963 3878 1756 3759
Q 1550 3641 1550 3391
Q 1550 3203 1689 3098
Q 1828 2994 2194 2919
L 2706 2816
Q 3484 2659 3812 2340
Q 4141 2022 4141 1434
Q 4141 663 3683 286
Q 3225 -91 2284 -91
Q 1841 -91 1394 -6
Q 947 78 500 244
L 500 1259
Q 947 1022 1364 901
Q 1781 781 2169 781
Q 2563 781 2772 912
Q 2981 1044 2981 1288
Q 2981 1506 2839 1625
Q 2697 1744 2272 1838
L 1806 1941
Q 1106 2091 782 2419
Q 459 2747 459 3303
Q 459 4000 909 4375
Q 1359 4750 2203 4750
Q 2588 4750 2994 4692
Q 3400 4634 3834 4519
z
" transform="scale(0.015625)"/>
      <path id="DejaVuSans-Bold-20" transform="scale(0.015625)"/>
      <path id="DejaVuSans-Bold-46" d="M 588 4666
L 3834 4666
L 3834 3756
L 1791 3756
L 1791 2888
L 3713 2888
L 3713 1978
L 1791 1978
L 1791 0
L 588 0
L 588 4666
z
" transform="scale(0.015625)"/>
      <path id="DejaVuSans-Bold-69" d="M 538 3500
L 1656 3500
L 1656 0
L 538 0
L 538 3500
z
M 538 4863
L 1656 4863
L 1656 3950
L 538 3950
L 538 4863
z
" transform="scale(0.015625)"/>
      <path id="DejaVuSans-Bold-6e" d="M 4056 2131
L 4056 0
L 2931 0
L 2931 347
L 2931 1631
Q 2931 2084 2911 2256
Q 2891 2428 2841 2509
Q 2775 2619 2662 2680
Q 2550 2741 2406 2741
Q 2056 2741 1856 2470
Q 1656 2200 1656 1722
L 1656 0
L 538 0
L 538 3500
L 1656 3500
L 1656 2988
Q 1909 3294 2193 3439
Q 2478 3584 2822 3584
Q 3428 3584 3742 3212
Q 4056 2841 4056 2131
z
" transform="scale(0.015625)"/>
      <path id="DejaVuSans-Bold-61" d="M 2106 1575
Q 1756 1575 1579 1456
Q 1403 1338 1403 1106
Q 1403 894 1545 773
Q 1688 653 1941 653
Q 2256 653 2472 879
Q 2688 1106 2688 1447
L 2688 1575
L 2106 1575
z
M 3816 1997
L 3816 0
L 2688 0
L 2688 519
Q 2463 200 2181 54
Q 1900 -91 1497 -91
Q 953 -91 614 226
Q 275 544 275 1050
Q 275 1666 698 1953
Q 1122 2241 2028 2241
L 2688 2241
L 2688 2328
Q 2688 2594 2478 2717
Q 2269 2841 1825 2841
Q 1466 2841 1156 2769
Q 847 2697 581 2553
L 581 3406
Q 941 3494 1303 3539
Q 1666 3584 2028 3584
Q 2975 3584 3395 3211
Q 3816 2838 3816 1997
z
" transform="scale(0.015625)"/>
      <path id="DejaVuSans-Bold-6c" d="M 538 4863
L 1656 4863
L 1656 0
L 538 0
L 538 4863
z
" transform="scale(0.015625)"/>
      <path id="DejaVuSans-Bold-45" d="M 588 4666
L 3834 4666
L 3834 3756
L 1791 3756
L 1791 2888
L 3713 2888
L 3713 1978
L 1791 1978
L 1791 909
L 3903 909
L 3903 0
L 588 0
L 588 4666
z
" transform="scale(0.015625)"/>
      <path id="DejaVuSans-Bold-73" d="M 3272 3391
L 3272 2541
Q 2913 2691 2578 2766
Q 2244 2841 1947 2841
Q 1628 2841 1473 2761
Q 1319 2681 1319 2516
Q 1319 2381 1436 2309
Q 1553 2238 1856 2203
L 2053 2175
Q 2913 2066 3209 1816
Q 3506 1566 3506 1031
Q 3506 472 3093 190
Q 2681 -91 1863 -91
Q 1516 -91 1145 -36
Q 775 19 384 128
L 384 978
Q 719 816 1070 734
Q 1422 653 1784 653
Q 2113 653 2278 743
Q 2444 834 2444 1013
Q 2444 1163 2330 1236
Q 2216 1309 1875 1350
L 1678 1375
Q 931 1469 631 1722
Q 331 1975 331 2491
Q 331 3047 712 3315
Q 1094 3584 1881 3584
Q 2191 3584 2531 3537
Q 2872 3491 3272 3391
z
" transform="scale(0.015625)"/>
      <path id="DejaVuSans-Bold-65" d="M 4031 1759
L 4031 1441
L 1416 1441
Q 1456 1047 1700 850
Q 1944 653 2381 653
Q 2734 653 3104 758
Q 3475 863 3866 1075
L 3866 213
Q 3469 63 3072 -14
Q 2675 -91 2278 -91
Q 1328 -91 801 392
Q 275 875 275 1747
Q 275 2603 792 3093
Q 1309 3584 2216 3584
Q 3041 3584 3536 3087
Q 4031 2591 4031 1759
z
M 2881 2131
Q 2881 2450 2695 2645
Q 2509 2841 2209 2841
Q 1884 2841 1681 2658
Q 1478 2475 1428 2131
L 2881 2131
z
" transform="scale(0.015625)"/>
      <path id="DejaVuSans-Bold-6d" d="M 3781 2919
Q 3994 3244 4286 3414
Q 4578 3584 4928 3584
Q 5531 3584 5847 3212
Q 6163 2841 6163 2131
L 6163 0
L 5038 0
L 5038 1825
Q 5041 1866 5042 1909
Q 5044 1953 5044 2034
Q 5044 2406 4934 2573
Q 4825 2741 4581 2741
Q 4263 2741 4089 2478
Q 3916 2216 3909 1719
L 3909 0
L 2784 0
L 2784 1825
Q 2784 2406 2684 2573
Q 2584 2741 2328 2741
Q 2006 2741 1831 2477
Q 1656 2213 1656 1722
L 1656 0
L 531 0
L 531 3500
L 1656 3500
L 1656 2988
Q 1863 3284 2130 3434
Q 2397 3584 2719 3584
Q 3081 3584 3359 3409
Q 3638 3234 3781 2919
z
" transform="scale(0.015625)"/>
      <path id="DejaVuSans-Bold-62" d="M 2400 722
Q 2759 722 2948 984
Q 3138 1247 3138 1747
Q 3138 2247 2948 2509
Q 2759 2772 2400 2772
Q 2041 2772 1848 2508
Q 1656 2244 1656 1747
Q 1656 1250 1848 986
Q 2041 722 2400 722
z
M 1656 2988
Q 1888 3294 2169 3439
Q 2450 3584 2816 3584
Q 3463 3584 3878 3070
Q 4294 2556 4294 1747
Q 4294 938 3878 423
Q 3463 -91 2816 -91
Q 2450 -91 2169 54
Q 1888 200 1656 506
L 1656 0
L 538 0
L 538 4863
L 1656 4863
L 1656 2988
z
" transform="scale(0.015625)"/>
      <path id="DejaVuSans-Bold-52" d="M 2297 2597
Q 2675 2597 2839 2737
Q 3003 2878 3003 3200
Q 3003 3519 2839 3656
Q 2675 3794 2297 3794
L 1791 3794
L 1791 2597
L 2297 2597
z
M 1791 1766
L 1791 0
L 588 0
L 588 4666
L 2425 4666
Q 3347 4666 3776 4356
Q 4206 4047 4206 3378
Q 4206 2916 3982 2619
Q 3759 2322 3309 2181
Q 3556 2125 3751 1926
Q 3947 1728 4147 1325
L 4800 0
L 3519 0
L 2950 1159
Q 2778 1509 2601 1637
Q 2425 1766 2131 1766
L 1791 1766
z
" transform="scale(0.015625)"/>
      <path id="DejaVuSans-Bold-43" d="M 4288 256
Q 3956 84 3597 -3
Q 3238 -91 2847 -91
Q 1681 -91 1000 561
Q 319 1213 319 2328
Q 319 3447 1000 4098
Q 1681 4750 2847 4750
Q 3238 4750 3597 4662
Q 3956 4575 4288 4403
L 4288 3438
Q 3953 3666 3628 3772
Q 3303 3878 2944 3878
Q 2300 3878 1931 3465
Q 1563 3053 1563 2328
Q 1563 1606 1931 1193
Q 2300 781 2944 781
Q 3303 781 3628 887
Q 3953 994 4288 1222
L 4288 256
z
" transform="scale(0.015625)"/>
      <path id="DejaVuSans-Bold-75" d="M 500 1363
L 500 3500
L 1625 3500
L 1625 3150
Q 1625 2866 1622 2436
Q 1619 2006 1619 1863
Q 1619 1441 1641 1255
Q 1663 1069 1716 984
Q 1784 875 1895 815
Q 2006 756 2150 756
Q 2500 756 2700 1025
Q 2900 1294 2900 1772
L 2900 3500
L 4019 3500
L 4019 0
L 2900 0
L 2900 506
Q 2647 200 2364 54
Q 2081 -91 1741 -91
Q 1134 -91 817 281
Q 500 653 500 1363
z
" transform="scale(0.015625)"/>
      <path id="DejaVuSans-Bold-72" d="M 3138 2547
Q 2991 2616 2845 2648
Q 2700 2681 2553 2681
Q 2122 2681 1889 2404
Q 1656 2128 1656 1613
L 1656 0
L 538 0
L 538 3500
L 1656 3500
L 1656 2925
Q 1872 3269 2151 3426
Q 2431 3584 2822 3584
Q 2878 3584 2943 3579
Q 3009 3575 3134 3559
L 3138 2547
z
" transform="scale(0.015625)"/>
      <path id="DejaVuSans-Bold-76" d="M 97 3500
L 1216 3500
L 2088 1081
L 2956 3500
L 4078 3500
L 2700 0
L 1472 0
L 97 3500
z
" transform="scale(0.015625)"/>
     </defs>
     <use xlink:href="#DejaVuSans-Bold-44"/>
     <use xlink:href="#DejaVuSans-Bold-4f" transform="translate(83.007812 0)"/>
     <use xlink:href="#DejaVuSans-Bold-4c" transform="translate(168.017578 0)"/>
     <use xlink:href="#DejaVuSans-Bold-4f" transform="translate(228.113281 0)"/>
     <use xlink:href="#DejaVuSans-Bold-53" transform="translate(313.123047 0)"/>
     <use xlink:href="#DejaVuSans-Bold-20" transform="translate(385.144531 0)"/>
     <use xlink:href="#DejaVuSans-Bold-46" transform="translate(419.958984 0)"/>
     <use xlink:href="#DejaVuSans-Bold-69" transform="translate(488.269531 0)"/>
     <use xlink:href="#DejaVuSans-Bold-6e" transform="translate(522.546875 0)"/>
     <use xlink:href="#DejaVuSans-Bold-61" transform="translate(593.738281 0)"/>
     <use xlink:href="#DejaVuSans-Bold-6c" transform="translate(661.21875 0)"/>
     <use xlink:href="#DejaVuSans-Bold-20" transform="translate(695.496094 0)"/>
     <use xlink:href="#DejaVuSans-Bold-45" transform="translate(730.310547 0)"/>
     <use xlink:href="#DejaVuSans-Bold-6e" transform="translate(798.621094 0)"/>
     <use xlink:href="#DejaVuSans-Bold-73" transform="translate(869.8125 0)"/>
     <use xlink:href="#DejaVuSans-Bold-65" transform="translate(929.333984 0)"/>
     <use xlink:href="#DejaVuSans-Bold-6d" transform="translate(997.15625 0)"/>
     <use xlink:href="#DejaVuSans-Bold-62" transform="translate(1101.355469 0)"/>
     <use xlink:href="#DejaVuSans-Bold-6c" transform="translate(1172.9375 0)"/>
     <use xlink:href="#DejaVuSans-Bold-65" transform="translate(1207.214844 0)"/>
     <use xlink:href="#DejaVuSans-Bold-20" transform="translate(1275.037109 0)"/>
     <use xlink:href="#DejaVuSans-Bold-52" transform="translate(1309.851562 0)"/>
     <use xlink:href="#DejaVuSans-Bold-4f" transform="translate(1386.853516 0)"/>
     <use xlink:href="#DejaVuSans-Bold-43" transform="translate(1471.863281 0)"/>
     <use xlink:href="#DejaVuSans-Bold-20" transform="translate(1545.251953 0)"/>
     <use xlink:href="#DejaVuSans-Bold-43" transform="translate(1580.066406 0)"/>
     <use xlink:href="#DejaVuSans-Bold-75" transform="translate(1653.455078 0)"/>
     <use xlink:href="#DejaVuSans-Bold-72" transform="translate(1724.646484 0)"/>
     <use xlink:href="#DejaVuSans-Bold-76" transform="translate(1773.962891 0)"/>
     <use xlink:href="#DejaVuSans-Bold-65" transform="translate(1839.148438 0)"/>
     <use xlink:href="#DejaVuSans-Bold-73" transform="translate(1906.970703 0)"/>
    </g>
   </g>
   <g id="legend_1">
    <g id="patch_5">
     <path d="M 346.188438 358.957969
L 465.77875 358.957969
Q 467.57875 358.957969 467.57875 357.157969
L 467.57875 305.216719
Q 467.57875 303.416719 465.77875 303.416719
L 346.188438 303.416719
Q 344.388438 303.416719 344.388438 305.216719
L 344.388438 357.157969
Q 344.388438 358.957969 346.188438 358.957969
z
" style="fill: #ffffff; opacity: 0.8; stroke: #cccccc; stroke-width: 1.5; stroke-linejoin: miter"/>
    </g>
    <g id="line2d_18">
     <path d="M 347.988438 310.705312
L 356.988438 310.705312
L 365.988438 310.705312
" style="fill: none; stroke: #b54a4a; stroke-width: 2.5; stroke-linecap: round"/>
    </g>
    <g id="text_16">
     <!-- All folds AUC=60.85 -->
     <g style="fill: #262626" transform="translate(373.188438 313.855312) scale(0.09 -0.09)">
      <defs>
       <path id="DejaVuSans-41" d="M 2188 4044
L 1331 1722
L 3047 1722
L 2188 4044
z
M 1831 4666
L 2547 4666
L 4325 0
L 3669 0
L 3244 1197
L 1141 1197
L 716 0
L 50 0
L 1831 4666
z
" transform="scale(0.015625)"/>
       <path id="DejaVuSans-66" d="M 2375 4863
L 2375 4384
L 1825 4384
Q 1516 4384 1395 4259
Q 1275 4134 1275 3809
L 1275 3500
L 2222 3500
L 2222 3053
L 1275 3053
L 1275 0
L 697 0
L 697 3053
L 147 3053
L 147 3500
L 697 3500
L 697 3744
Q 697 4328 969 4595
Q 1241 4863 1831 4863
L 2375 4863
z
" transform="scale(0.015625)"/>
       <path id="DejaVuSans-64" d="M 2906 2969
L 2906 4863
L 3481 4863
L 3481 0
L 2906 0
L 2906 525
Q 2725 213 2448 61
Q 2172 -91 1784 -91
Q 1150 -91 751 415
Q 353 922 353 1747
Q 353 2572 751 3078
Q 1150 3584 1784 3584
Q 2172 3584 2448 3432
Q 2725 3281 2906 2969
z
M 947 1747
Q 947 1113 1208 752
Q 1469 391 1925 391
Q 2381 391 2643 752
Q 2906 1113 2906 1747
Q 2906 2381 2643 2742
Q 2381 3103 1925 3103
Q 1469 3103 1208 2742
Q 947 2381 947 1747
z
" transform="scale(0.015625)"/>
       <path id="DejaVuSans-55" d="M 556 4666
L 1191 4666
L 1191 1831
Q 1191 1081 1462 751
Q 1734 422 2344 422
Q 2950 422 3222 751
Q 3494 1081 3494 1831
L 3494 4666
L 4128 4666
L 4128 1753
Q 4128 841 3676 375
Q 3225 -91 2344 -91
Q 1459 -91 1007 375
Q 556 841 556 1753
L 556 4666
z
" transform="scale(0.015625)"/>
       <path id="DejaVuSans-43" d="M 4122 4306
L 4122 3641
Q 3803 3938 3442 4084
Q 3081 4231 2675 4231
Q 1875 4231 1450 3742
Q 1025 3253 1025 2328
Q 1025 1406 1450 917
Q 1875 428 2675 428
Q 3081 428 3442 575
Q 3803 722 4122 1019
L 4122 359
Q 3791 134 3420 21
Q 3050 -91 2638 -91
Q 1578 -91 968 557
Q 359 1206 359 2328
Q 359 3453 968 4101
Q 1578 4750 2638 4750
Q 3056 4750 3426 4639
Q 3797 4528 4122 4306
z
" transform="scale(0.015625)"/>
       <path id="DejaVuSans-3d" d="M 678 2906
L 4684 2906
L 4684 2381
L 678 2381
L 678 2906
z
M 678 1631
L 4684 1631
L 4684 1100
L 678 1100
L 678 1631
z
" transform="scale(0.015625)"/>
       <path id="DejaVuSans-35" d="M 691 4666
L 3169 4666
L 3169 4134
L 1269 4134
L 1269 2991
Q 1406 3038 1543 3061
Q 1681 3084 1819 3084
Q 2600 3084 3056 2656
Q 3513 2228 3513 1497
Q 3513 744 3044 326
Q 2575 -91 1722 -91
Q 1428 -91 1123 -41
Q 819 9 494 109
L 494 744
Q 775 591 1075 516
Q 1375 441 1709 441
Q 2250 441 2565 725
Q 2881 1009 2881 1497
Q 2881 1984 2565 2268
Q 2250 2553 1709 2553
Q 1456 2553 1204 2497
Q 953 2441 691 2322
L 691 4666
z
" transform="scale(0.015625)"/>
      </defs>
      <use xlink:href="#DejaVuSans-41"/>
      <use xlink:href="#DejaVuSans-6c" transform="translate(68.408203 0)"/>
      <use xlink:href="#DejaVuSans-6c" transform="translate(96.191406 0)"/>
      <use xlink:href="#DejaVuSans-20" transform="translate(123.974609 0)"/>
      <use xlink:href="#DejaVuSans-66" transform="translate(155.761719 0)"/>
      <use xlink:href="#DejaVuSans-6f" transform="translate(190.966797 0)"/>
      <use xlink:href="#DejaVuSans-6c" transform="translate(252.148438 0)"/>
      <use xlink:href="#DejaVuSans-64" transform="translate(279.931641 0)"/>
      <use xlink:href="#DejaVuSans-73" transform="translate(343.408203 0)"/>
      <use xlink:href="#DejaVuSans-20" transform="translate(395.507812 0)"/>
      <use xlink:href="#DejaVuSans-41" transform="translate(427.294922 0)"/>
      <use xlink:href="#DejaVuSans-55" transform="translate(495.703125 0)"/>
      <use xlink:href="#DejaVuSans-43" transform="translate(568.896484 0)"/>
      <use xlink:href="#DejaVuSans-3d" transform="translate(638.720703 0)"/>
      <use xlink:href="#DejaVuSans-36" transform="translate(722.509766 0)"/>
      <use xlink:href="#DejaVuSans-30" transform="translate(786.132812 0)"/>
      <use xlink:href="#DejaVuSans-2e" transform="translate(849.755859 0)"/>
      <use xlink:href="#DejaVuSans-38" transform="translate(881.542969 0)"/>
      <use xlink:href="#DejaVuSans-35" transform="translate(945.166016 0)"/>
     </g>
    </g>
    <g id="line2d_19">
     <path d="M 347.988438 323.915625
L 356.988438 323.915625
L 365.988438 323.915625
" style="fill: none; stroke: #4c72b0; stroke-opacity: 0.75; stroke-width: 1.4; stroke-linecap: round"/>
    </g>
    <g id="text_17">
     <!-- fold1 AUC=65.4 -->
     <g style="fill: #262626" transform="translate(373.188438 327.065625) scale(0.09 -0.09)">
      <use xlink:href="#DejaVuSans-66"/>
      <use xlink:href="#DejaVuSans-6f" transform="translate(35.205078 0)"/>
      <use xlink:href="#DejaVuSans-6c" transform="translate(96.386719 0)"/>
      <use xlink:href="#DejaVuSans-64" transform="translate(124.169922 0)"/>
      <use xlink:href="#DejaVuSans-31" transform="translate(187.646484 0)"/>
      <use xlink:href="#DejaVuSans-20" transform="translate(251.269531 0)"/>
      <use xlink:href="#DejaVuSans-41" transform="translate(283.056641 0)"/>
      <use xlink:href="#DejaVuSans-55" transform="translate(351.464844 0)"/>
      <use xlink:href="#DejaVuSans-43" transform="translate(424.658203 0)"/>
      <use xlink:href="#DejaVuSans-3d" transform="translate(494.482422 0)"/>
      <use xlink:href="#DejaVuSans-36" transform="translate(578.271484 0)"/>
      <use xlink:href="#DejaVuSans-35" transform="translate(641.894531 0)"/>
      <use xlink:href="#DejaVuSans-2e" transform="translate(705.517578 0)"/>
      <use xlink:href="#DejaVuSans-34" transform="translate(737.304688 0)"/>
     </g>
    </g>
    <g id="line2d_20">
     <path d="M 347.988438 337.125938
L 356.988438 337.125938
L 365.988438 337.125938
" style="fill: none; stroke: #dd8452; stroke-opacity: 0.75; stroke-width: 1.4; stroke-linecap: round"/>
    </g>
    <g id="text_18">
     <!-- fold2 AUC=64.7 -->
     <g style="fill: #262626" transform="translate(373.188438 340.275937) scale(0.09 -0.09)">
      <defs>
       <path id="DejaVuSans-37" d="M 525 4666
L 3525 4666
L 3525 4397
L 1831 0
L 1172 0
L 2766 4134
L 525 4134
L 525 4666
z
" transform="scale(0.015625)"/>
      </defs>
      <use xlink:href="#DejaVuSans-66"/>
      <use xlink:href="#DejaVuSans-6f" transform="translate(35.205078 0)"/>
      <use xlink:href="#DejaVuSans-6c" transform="translate(96.386719 0)"/>
      <use xlink:href="#DejaVuSans-64" transform="translate(124.169922 0)"/>
      <use xlink:href="#DejaVuSans-32" transform="translate(187.646484 0)"/>
      <use xlink:href="#DejaVuSans-20" transform="translate(251.269531 0)"/>
      <use xlink:href="#DejaVuSans-41" transform="translate(283.056641 0)"/>
      <use xlink:href="#DejaVuSans-55" transform="translate(351.464844 0)"/>
      <use xlink:href="#DejaVuSans-43" transform="translate(424.658203 0)"/>
      <use xlink:href="#DejaVuSans-3d" transform="translate(494.482422 0)"/>
      <use xlink:href="#DejaVuSans-36" transform="translate(578.271484 0)"/>
      <use xlink:href="#DejaVuSans-34" transform="translate(641.894531 0)"/>
      <use xlink:href="#DejaVuSans-2e" transform="translate(705.517578 0)"/>
      <use xlink:href="#DejaVuSans-37" transform="translate(737.304688 0)"/>
     </g>
    </g>
    <g id="line2d_21">
     <path d="M 347.988438 350.33625
L 356.988438 350.33625
L 365.988438 350.33625
" style="fill: none; stroke: #55a868; stroke-opacity: 0.75; stroke-width: 1.4; stroke-linecap: round"/>
    </g>
    <g id="text_19">
     <!-- fold3 AUC=66.1 -->
     <g style="fill: #262626" transform="translate(373.188438 353.48625) scale(0.09 -0.09)">
      <defs>
       <path id="DejaVuSans-33" d="M 2597 2516
Q 3050 2419 3304 2112
Q 3559 1806 3559 1356
Q 3559 666 3084 287
Q 2609 -91 1734 -91
Q 1441 -91 1130 -33
Q 819 25 488 141
L 488 750
Q 750 597 1062 519
Q 1375 441 1716 441
Q 2309 441 2620 675
Q 2931 909 2931 1356
Q 2931 1769 2642 2001
Q 2353 2234 1838 2234
L 1294 2234
L 1294 2753
L 1863 2753
Q 2328 2753 2575 2939
Q 2822 3125 2822 3475
Q 2822 3834 2567 4026
Q 2313 4219 1838 4219
Q 1578 4219 1281 4162
Q 984 4106 628 3988
L 628 4550
Q 988 4650 1302 4700
Q 1616 4750 1894 4750
Q 2613 4750 3031 4423
Q 3450 4097 3450 3541
Q 3450 3153 3228 2886
Q 3006 2619 2597 2516
z
" transform="scale(0.015625)"/>
      </defs>
      <use xlink:href="#DejaVuSans-66"/>
      <use xlink:href="#DejaVuSans-6f" transform="translate(35.205078 0)"/>
      <use xlink:href="#DejaVuSans-6c" transform="translate(96.386719 0)"/>
      <use xlink:href="#DejaVuSans-64" transform="translate(124.169922 0)"/>
      <use xlink:href="#DejaVuSans-33" transform="translate(187.646484 0)"/>
      <use xlink:href="#DejaVuSans-20" transform="translate(251.269531 0)"/>
      <use xlink:href="#DejaVuSans-41" transform="translate(283.056641 0)"/>
      <use xlink:href="#DejaVuSans-55" transform="translate(351.464844 0)"/>
      <use xlink:href="#DejaVuSans-43" transform="translate(424.658203 0)"/>
      <use xlink:href="#DejaVuSans-3d" transform="translate(494.482422 0)"/>
      <use xlink:href="#DejaVuSans-36" transform="translate(578.271484 0)"/>
      <use xlink:href="#DejaVuSans-36" transform="translate(641.894531 0)"/>
      <use xlink:href="#DejaVuSans-2e" transform="translate(705.517578 0)"/>
      <use xlink:href="#DejaVuSans-31" transform="translate(737.304688 0)"/>
     </g>
    </g>
   </g>
  </g>
 </g>
 <defs>
  <clipPath id="p5159aba8df">
   <rect x="48.65875" y="23.077969" width="423.42" height="340.38"/>
  </clipPath>
 </defs>
</svg>
