<?xml version="1.0" encoding="utf-8" standalone="no"?>
<!DOCTYPE svg PUBLIC "-//W3C//DTD SVG 1.1//EN"
  "http://www.w3.org/Graphics/SVG/1.1/DTD/svg11.dtd">
<svg xmlns:xlink="http://www.w3.org/1999/xlink" width="695.245pt" height="334.514219pt" viewBox="0 0 695.245 334.514219" xmlns="http://www.w3.org/2000/svg" version="1.1">
 <metadata>
  <rdf:RDF xmlns:dc="http://purl.org/dc/elements/1.1/" xmlns:cc="http://creativecommons.org/ns#" xmlns:rdf="http://www.w3.org/1999/02/22-rdf-syntax-ns#">
   <cc:Work>
    <dc:type rdf:resource="http://purl.org/dc/dcmitype/StillImage"/>
    <dc:date>2026-05-21T22:19:11.163444</dc:date>
    <dc:format>image/svg+xml</dc:format>
    <dc:creator>
     <cc:Agent>
      <dc:title>Matplotlib v3.10.9, https://matplotlib.org/</dc:title>
     </cc:Agent>
    </dc:creator>
   </cc:Work>
  </rdf:RDF>
 </metadata>
 <defs>
  <style type="text/css">*{stroke-linejoin: round; stroke-linecap: butt}</style>
 </defs>
 <g id="figure_1">
  <g id="patch_1">
   <path d="M 0 334.514219
L 695.245 334.514219
L 695.245 0
L 0 0
z
" style="fill: #ffffff"/>
  </g>
  <g id="axes_1">
   <g id="patch_2">
    <path d="M 54.385 291.457969
L 688.045 291.457969
L 688.045 23.077969
L 54.385 23.077969
z
" style="fill: #ffffff"/>
   </g>
   <g id="matplotlib.axis_1">
    <g id="xtick_1">
     <g id="text_1">
      <!-- BRI -->
      <g style="fill: #262626" transform="translate(110.209281 310.796562) scale(0.09 -0.09)">
       <defs>
        <path id="DejaVuSans-42" d="M 1259 2228
L 1259 519
L 2272 519
Q 2781 519 3026 730
Q 3272 941 3272 1375
Q 3272 1813 3026 2020
Q 2781 2228 2272 2228
L 1259 2228
z
M 1259 4147
L 1259 2741
L 2194 2741
Q 2656 2741 2882 2914
Q 3109 3088 3109 3444
Q 3109 3797 2882 3972
Q 2656 4147 2194 4147
L 1259 4147
z
M 628 4666
L 2241 4666
Q 2963 4666 3353 4366
Q 3744 4066 3744 3513
Q 3744 3084 3544 2831
Q 3344 2578 2956 2516
Q 3422 2416 3680 2098
Q 3938 1781 3938 1306
Q 3938 681 3513 340
Q 3088 0 2303 0
L 628 0
L 628 4666
z
" transform="scale(0.015625)"/>
        <path id="DejaVuSans-52" d="M 2841 2188
Q 3044 2119 3236 1894
Q 3428 1669 3622 1275
L 4263 0
L 3584 0
L 2988 1197
Q 2756 1666 2539 1819
Q 2322 1972 1947 1972
L 1259 1972
L 1259 0
L 628 0
L 628 4666
L 2053 4666
Q 2853 4666 3247 4331
Q 3641 3997 3641 3322
Q 3641 2881 3436 2590
Q 3231 2300 2841 2188
z
M 1259 4147
L 1259 2491
L 2053 2491
Q 2509 2491 2742 2702
Q 2975 2913 2975 3322
Q 2975 3731 2742 3939
Q 2509 4147 2053 4147
L 1259 4147
z
" transform="scale(0.015625)"/>
        <path id="DejaVuSans-49" d="M 628 4666
L 1259 4666
L 1259 0
L 628 0
L 628 4666
z
" transform="scale(0.015625)"/>
       </defs>
       <use xlink:href="#DejaVuSans-42"/>
       <use xlink:href="#DejaVuSans-52" transform="translate(68.603516 0)"/>
       <use xlink:href="#DejaVuSans-49" transform="translate(138.085938 0)"/>
      </g>
     </g>
    </g>
    <g id="xtick_2">
     <g id="text_2">
      <!-- SB -->
      <g style="fill: #262626" transform="translate(238.538781 310.796562) scale(0.09 -0.09)">
       <defs>
        <path id="DejaVuSans-53" d="M 3425 4513
L 3425 3897
Q 3066 4069 2747 4153
Q 2428 4238 2131 4238
Q 1616 4238 1336 4038
Q 1056 3838 1056 3469
Q 1056 3159 1242 3001
Q 1428 2844 1947 2747
L 2328 2669
Q 3034 2534 3370 2195
Q 3706 1856 3706 1288
Q 3706 609 3251 259
Q 2797 -91 1919 -91
Q 1588 -91 1214 -16
Q 841 59 441 206
L 441 856
Q 825 641 1194 531
Q 1563 422 1919 422
Q 2459 422 2753 634
Q 3047 847 3047 1241
Q 3047 1584 2836 1778
Q 2625 1972 2144 2069
L 1759 2144
Q 1053 2284 737 2584
Q 422 2884 422 3419
Q 422 4038 858 4394
Q 1294 4750 2059 4750
Q 2388 4750 2728 4690
Q 3069 4631 3425 4513
z
" transform="scale(0.015625)"/>
       </defs>
       <use xlink:href="#DejaVuSans-53"/>
       <use xlink:href="#DejaVuSans-42" transform="translate(63.476562 0)"/>
      </g>
     </g>
    </g>
    <g id="xtick_3">
     <g id="text_3">
      <!-- YW -->
      <g style="fill: #262626" transform="translate(364.017109 310.796562) scale(0.09 -0.09)">
       <defs>
        <path id="DejaVuSans-59" d="M -13 4666
L 666 4666
L 1959 2747
L 3244 4666
L 3922 4666
L 2272 2222
L 2272 0
L 1638 0
L 1638 2222
L -13 4666
z
" transform="scale(0.015625)"/>
        <path id="DejaVuSans-57" d="M 213 4666
L 850 4666
L 1831 722
L 2809 4666
L 3519 4666
L 4500 722
L 5478 4666
L 6119 4666
L 4947 0
L 4153 0
L 3169 4050
L 2175 0
L 1381 0
L 213 4666
z
" transform="scale(0.015625)"/>
       </defs>
       <use xlink:href="#DejaVuSans-59"/>
       <use xlink:href="#DejaVuSans-57" transform="translate(61.083984 0)"/>
      </g>
     </g>
    </g>
    <g id="xtick_4">
     <g id="text_4">
      <!-- AN -->
      <g style="fill: #262626" transform="translate(491.502156 310.796562) scale(0.09 -0.09)">
       <defs>
        <path id="DejaVuSans-41" d="M 2188 4044
L 1331 1722
L 3047 1722
L 2188 4044
z
M 1831 4666
L 2547 4666
L 4325 0
L 3669 0
L 3244 1197
L 1141 1197
L 716 0
L 50 0
L 1831 4666
z
" transform="scale(0.015625)"/>
        <path id="DejaVuSans-4e" d="M 628 4666
L 1478 4666
L 3547 763
L 3547 4666
L 4159 4666
L 4159 0
L 3309 0
L 1241 3903
L 1241 0
L 628 0
L 628 4666
z
" transform="scale(0.015625)"/>
       </defs>
       <use xlink:href="#DejaVuSans-41"/>
       <use xlink:href="#DejaVuSans-4e" transform="translate(68.408203 0)"/>
      </g>
     </g>
    </g>
    <g id="xtick_5">
     <g id="text_5">
      <!-- LS -->
      <g style="fill: #262626" transform="translate(619.314859 310.796562) scale(0.09 -0.09)">
       <defs>
        <path id="DejaVuSans-4c" d="M 628 4666
L 1259 4666
L 1259 531
L 3531 531
L 3531 0
L 628 0
L 628 4666
z
" transform="scale(0.015625)"/>
       </defs>
       <use xlink:href="#DejaVuSans-4c"/>
       <use xlink:href="#DejaVuSans-53" transform="translate(55.712891 0)"/>
      </g>
     </g>
    </g>
    <g id="text_6">
     <!-- Host -->
     <g style="fill: #262626" transform="translate(358.692187 325.026563) scale(0.11 -0.11)">
      <defs>
       <path id="DejaVuSans-48" d="M 628 4666
L 1259 4666
L 1259 2753
L 3553 2753
L 3553 4666
L 4184 4666
L 4184 0
L 3553 0
L 3553 2222
L 1259 2222
L 1259 0
L 628 0
L 628 4666
z
" transform="scale(0.015625)"/>
       <path id="DejaVuSans-6f" d="M 1959 3097
Q 1497 3097 1228 2736
Q 959 2375 959 1747
Q 959 1119 1226 758
Q 1494 397 1959 397
Q 2419 397 2687 759
Q 2956 1122 2956 1747
Q 2956 2369 2687 2733
Q 2419 3097 1959 3097
z
M 1959 3584
Q 2709 3584 3137 3096
Q 3566 2609 3566 1747
Q 3566 888 3137 398
Q 2709 -91 1959 -91
Q 1206 -91 779 398
Q 353 888 353 1747
Q 353 2609 779 3096
Q 1206 3584 1959 3584
z
" transform="scale(0.015625)"/>
       <path id="DejaVuSans-73" d="M 2834 3397
L 2834 2853
Q 2591 2978 2328 3040
Q 2066 3103 1784 3103
Q 1356 3103 1142 2972
Q 928 2841 928 2578
Q 928 2378 1081 2264
Q 1234 2150 1697 2047
L 1894 2003
Q 2506 1872 2764 1633
Q 3022 1394 3022 966
Q 3022 478 2636 193
Q 2250 -91 1575 -91
Q 1294 -91 989 -36
Q 684 19 347 128
L 347 722
Q 666 556 975 473
Q 1284 391 1588 391
Q 1994 391 2212 530
Q 2431 669 2431 922
Q 2431 1156 2273 1281
Q 2116 1406 1581 1522
L 1381 1569
Q 847 1681 609 1914
Q 372 2147 372 2553
Q 372 3047 722 3315
Q 1072 3584 1716 3584
Q 2034 3584 2315 3537
Q 2597 3491 2834 3397
z
" transform="scale(0.015625)"/>
       <path id="DejaVuSans-74" d="M 1172 4494
L 1172 3500
L 2356 3500
L 2356 3053
L 1172 3053
L 1172 1153
Q 1172 725 1289 603
Q 1406 481 1766 481
L 2356 481
L 2356 0
L 1766 0
Q 1100 0 847 248
Q 594 497 594 1153
L 594 3053
L 172 3053
L 172 3500
L 594 3500
L 594 4494
L 1172 4494
z
" transform="scale(0.015625)"/>
      </defs>
      <use xlink:href="#DejaVuSans-48"/>
      <use xlink:href="#DejaVuSans-6f" transform="translate(75.195312 0)"/>
      <use xlink:href="#DejaVuSans-73" transform="translate(136.376953 0)"/>
      <use xlink:href="#DejaVuSans-74" transform="translate(188.476562 0)"/>
     </g>
    </g>
   </g>
   <g id="matplotlib.axis_2">
    <g id="ytick_1">
     <g id="line2d_1">
      <path d="M 54.385 258.409498
L 688.045 258.409498
" clip-path="url(#pdf5e9335d7)" style="fill: none; stroke: #cccccc; stroke-width: 1.5; stroke-linecap: round"/>
     </g>
     <g id="text_7">
      <!-- 0.30 -->
      <g style="fill: #262626" transform="translate(21.845938 261.828795) scale(0.09 -0.09)">
       <defs>
        <path id="DejaVuSans-30" d="M 2034 4250
Q 1547 4250 1301 3770
Q 1056 3291 1056 2328
Q 1056 1369 1301 889
Q 1547 409 2034 409
Q 2525 409 2770 889
Q 3016 1369 3016 2328
Q 3016 3291 2770 3770
Q 2525 4250 2034 4250
z
M 2034 4750
Q 2819 4750 3233 4129
Q 3647 3509 3647 2328
Q 3647 1150 3233 529
Q 2819 -91 2034 -91
Q 1250 -91 836 529
Q 422 1150 422 2328
Q 422 3509 836 4129
Q 1250 4750 2034 4750
z
" transform="scale(0.015625)"/>
        <path id="DejaVuSans-2e" d="M 684 794
L 1344 794
L 1344 0
L 684 0
L 684 794
z
" transform="scale(0.015625)"/>
        <path id="DejaVuSans-33" d="M 2597 2516
Q 3050 2419 3304 2112
Q 3559 1806 3559 1356
Q 3559 666 3084 287
Q 2609 -91 1734 -91
Q 1441 -91 1130 -33
Q 819 25 488 141
L 488 750
Q 750 597 1062 519
Q 1375 441 1716 441
Q 2309 441 2620 675
Q 2931 909 2931 1356
Q 2931 1769 2642 2001
Q 2353 2234 1838 2234
L 1294 2234
L 1294 2753
L 1863 2753
Q 2328 2753 2575 2939
Q 2822 3125 2822 3475
Q 2822 3834 2567 4026
Q 2313 4219 1838 4219
Q 1578 4219 1281 4162
Q 984 4106 628 3988
L 628 4550
Q 988 4650 1302 4700
Q 1616 4750 1894 4750
Q 2613 4750 3031 4423
Q 3450 4097 3450 3541
Q 3450 3153 3228 2886
Q 3006 2619 2597 2516
z
" transform="scale(0.015625)"/>
       </defs>
       <use xlink:href="#DejaVuSans-30"/>
       <use xlink:href="#DejaVuSans-2e" transform="translate(63.623047 0)"/>
       <use xlink:href="#DejaVuSans-33" transform="translate(95.410156 0)"/>
       <use xlink:href="#DejaVuSans-30" transform="translate(159.033203 0)"/>
      </g>
     </g>
    </g>
    <g id="ytick_2">
     <g id="line2d_2">
      <path d="M 54.385 218.602145
L 688.045 218.602145
" clip-path="url(#pdf5e9335d7)" style="fill: none; stroke: #cccccc; stroke-width: 1.5; stroke-linecap: round"/>
     </g>
     <g id="text_8">
      <!-- 0.35 -->
      <g style="fill: #262626" transform="translate(21.845938 222.021442) scale(0.09 -0.09)">
       <defs>
        <path id="DejaVuSans-35" d="M 691 4666
L 3169 4666
L 3169 4134
L 1269 4134
L 1269 2991
Q 1406 3038 1543 3061
Q 1681 3084 1819 3084
Q 2600 3084 3056 2656
Q 3513 2228 3513 1497
Q 3513 744 3044 326
Q 2575 -91 1722 -91
Q 1428 -91 1123 -41
Q 819 9 494 109
L 494 744
Q 775 591 1075 516
Q 1375 441 1709 441
Q 2250 441 2565 725
Q 2881 1009 2881 1497
Q 2881 1984 2565 2268
Q 2250 2553 1709 2553
Q 1456 2553 1204 2497
Q 953 2441 691 2322
L 691 4666
z
" transform="scale(0.015625)"/>
       </defs>
       <use xlink:href="#DejaVuSans-30"/>
       <use xlink:href="#DejaVuSans-2e" transform="translate(63.623047 0)"/>
       <use xlink:href="#DejaVuSans-33" transform="translate(95.410156 0)"/>
       <use xlink:href="#DejaVuSans-35" transform="translate(159.033203 0)"/>
      </g>
     </g>
    </g>
    <g id="ytick_3">
     <g id="line2d_3">
      <path d="M 54.385 178.794793
L 688.045 178.794793
" clip-path="url(#pdf5e9335d7)" style="fill: none; stroke: #cccccc; stroke-width: 1.5; stroke-linecap: round"/>
     </g>
     <g id="text_9">
      <!-- 0.40 -->
      <g style="fill: #262626" transform="translate(21.845938 182.21409) scale(0.09 -0.09)">
       <defs>
        <path id="DejaVuSans-34" d="M 2419 4116
L 825 1625
L 2419 1625
L 2419 4116
z
M 2253 4666
L 3047 4666
L 3047 1625
L 3713 1625
L 3713 1100
L 3047 1100
L 3047 0
L 2419 0
L 2419 1100
L 313 1100
L 313 1709
L 2253 4666
z
" transform="scale(0.015625)"/>
       </defs>
       <use xlink:href="#DejaVuSans-30"/>
       <use xlink:href="#DejaVuSans-2e" transform="translate(63.623047 0)"/>
       <use xlink:href="#DejaVuSans-34" transform="translate(95.410156 0)"/>
       <use xlink:href="#DejaVuSans-30" transform="translate(159.033203 0)"/>
      </g>
     </g>
    </g>
    <g id="ytick_4">
     <g id="line2d_4">
      <path d="M 54.385 138.98744
L 688.045 138.98744
" clip-path="url(#pdf5e9335d7)" style="fill: none; stroke: #cccccc; stroke-width: 1.5; stroke-linecap: round"/>
     </g>
     <g id="text_10">
      <!-- 0.45 -->
      <g style="fill: #262626" transform="translate(21.845938 142.406737) scale(0.09 -0.09)">
       <use xlink:href="#DejaVuSans-30"/>
       <use xlink:href="#DejaVuSans-2e" transform="translate(63.623047 0)"/>
       <use xlink:href="#DejaVuSans-34" transform="translate(95.410156 0)"/>
       <use xlink:href="#DejaVuSans-35" transform="translate(159.033203 0)"/>
      </g>
     </g>
    </g>
    <g id="ytick_5">
     <g id="line2d_5">
      <path d="M 54.385 99.180088
L 688.045 99.180088
" clip-path="url(#pdf5e9335d7)" style="fill: none; stroke: #cccccc; stroke-width: 1.5; stroke-linecap: round"/>
     </g>
     <g id="text_11">
      <!-- 0.50 -->
      <g style="fill: #262626" transform="translate(21.845938 102.599385) scale(0.09 -0.09)">
       <use xlink:href="#DejaVuSans-30"/>
       <use xlink:href="#DejaVuSans-2e" transform="translate(63.623047 0)"/>
       <use xlink:href="#DejaVuSans-35" transform="translate(95.410156 0)"/>
       <use xlink:href="#DejaVuSans-30" transform="translate(159.033203 0)"/>
      </g>
     </g>
    </g>
    <g id="ytick_6">
     <g id="line2d_6">
      <path d="M 54.385 59.372735
L 688.045 59.372735
" clip-path="url(#pdf5e9335d7)" style="fill: none; stroke: #cccccc; stroke-width: 1.5; stroke-linecap: round"/>
     </g>
     <g id="text_12">
      <!-- 0.55 -->
      <g style="fill: #262626" transform="translate(21.845938 62.792032) scale(0.09 -0.09)">
       <use xlink:href="#DejaVuSans-30"/>
       <use xlink:href="#DejaVuSans-2e" transform="translate(63.623047 0)"/>
       <use xlink:href="#DejaVuSans-35" transform="translate(95.410156 0)"/>
       <use xlink:href="#DejaVuSans-35" transform="translate(159.033203 0)"/>
      </g>
     </g>
    </g>
    <g id="text_13">
     <!-- Predicted P(lie) -->
     <g style="fill: #262626" transform="translate(15.558281 198.881484) rotate(-90) scale(0.11 -0.11)">
      <defs>
       <path id="DejaVuSans-50" d="M 1259 4147
L 1259 2394
L 2053 2394
Q 2494 2394 2734 2622
Q 2975 2850 2975 3272
Q 2975 3691 2734 3919
Q 2494 4147 2053 4147
L 1259 4147
z
M 628 4666
L 2053 4666
Q 2838 4666 3239 4311
Q 3641 3956 3641 3272
Q 3641 2581 3239 2228
Q 2838 1875 2053 1875
L 1259 1875
L 1259 0
L 628 0
L 628 4666
z
" transform="scale(0.015625)"/>
       <path id="DejaVuSans-72" d="M 2631 2963
Q 2534 3019 2420 3045
Q 2306 3072 2169 3072
Q 1681 3072 1420 2755
Q 1159 2438 1159 1844
L 1159 0
L 581 0
L 581 3500
L 1159 3500
L 1159 2956
Q 1341 3275 1631 3429
Q 1922 3584 2338 3584
Q 2397 3584 2469 3576
Q 2541 3569 2628 3553
L 2631 2963
z
" transform="scale(0.015625)"/>
       <path id="DejaVuSans-65" d="M 3597 1894
L 3597 1613
L 953 1613
Q 991 1019 1311 708
Q 1631 397 2203 397
Q 2534 397 2845 478
Q 3156 559 3463 722
L 3463 178
Q 3153 47 2828 -22
Q 2503 -91 2169 -91
Q 1331 -91 842 396
Q 353 884 353 1716
Q 353 2575 817 3079
Q 1281 3584 2069 3584
Q 2775 3584 3186 3129
Q 3597 2675 3597 1894
z
M 3022 2063
Q 3016 2534 2758 2815
Q 2500 3097 2075 3097
Q 1594 3097 1305 2825
Q 1016 2553 972 2059
L 3022 2063
z
" transform="scale(0.015625)"/>
       <path id="DejaVuSans-64" d="M 2906 2969
L 2906 4863
L 3481 4863
L 3481 0
L 2906 0
L 2906 525
Q 2725 213 2448 61
Q 2172 -91 1784 -91
Q 1150 -91 751 415
Q 353 922 353 1747
Q 353 2572 751 3078
Q 1150 3584 1784 3584
Q 2172 3584 2448 3432
Q 2725 3281 2906 2969
z
M 947 1747
Q 947 1113 1208 752
Q 1469 391 1925 391
Q 2381 391 2643 752
Q 2906 1113 2906 1747
Q 2906 2381 2643 2742
Q 2381 3103 1925 3103
Q 1469 3103 1208 2742
Q 947 2381 947 1747
z
" transform="scale(0.015625)"/>
       <path id="DejaVuSans-69" d="M 603 3500
L 1178 3500
L 1178 0
L 603 0
L 603 3500
z
M 603 4863
L 1178 4863
L 1178 4134
L 603 4134
L 603 4863
z
" transform="scale(0.015625)"/>
       <path id="DejaVuSans-63" d="M 3122 3366
L 3122 2828
Q 2878 2963 2633 3030
Q 2388 3097 2138 3097
Q 1578 3097 1268 2742
Q 959 2388 959 1747
Q 959 1106 1268 751
Q 1578 397 2138 397
Q 2388 397 2633 464
Q 2878 531 3122 666
L 3122 134
Q 2881 22 2623 -34
Q 2366 -91 2075 -91
Q 1284 -91 818 406
Q 353 903 353 1747
Q 353 2603 823 3093
Q 1294 3584 2113 3584
Q 2378 3584 2631 3529
Q 2884 3475 3122 3366
z
" transform="scale(0.015625)"/>
       <path id="DejaVuSans-20" transform="scale(0.015625)"/>
       <path id="DejaVuSans-28" d="M 1984 4856
Q 1566 4138 1362 3434
Q 1159 2731 1159 2009
Q 1159 1288 1364 580
Q 1569 -128 1984 -844
L 1484 -844
Q 1016 -109 783 600
Q 550 1309 550 2009
Q 550 2706 781 3412
Q 1013 4119 1484 4856
L 1984 4856
z
" transform="scale(0.015625)"/>
       <path id="DejaVuSans-6c" d="M 603 4863
L 1178 4863
L 1178 0
L 603 0
L 603 4863
z
" transform="scale(0.015625)"/>
       <path id="DejaVuSans-29" d="M 513 4856
L 1013 4856
Q 1481 4119 1714 3412
Q 1947 2706 1947 2009
Q 1947 1309 1714 600
Q 1481 -109 1013 -844
L 513 -844
Q 928 -128 1133 580
Q 1338 1288 1338 2009
Q 1338 2731 1133 3434
Q 928 4138 513 4856
z
" transform="scale(0.015625)"/>
      </defs>
      <use xlink:href="#DejaVuSans-50"/>
      <use xlink:href="#DejaVuSans-72" transform="translate(58.552734 0)"/>
      <use xlink:href="#DejaVuSans-65" transform="translate(97.416016 0)"/>
      <use xlink:href="#DejaVuSans-64" transform="translate(158.939453 0)"/>
      <use xlink:href="#DejaVuSans-69" transform="translate(222.416016 0)"/>
      <use xlink:href="#DejaVuSans-63" transform="translate(250.199219 0)"/>
      <use xlink:href="#DejaVuSans-74" transform="translate(305.179688 0)"/>
      <use xlink:href="#DejaVuSans-65" transform="translate(344.388672 0)"/>
      <use xlink:href="#DejaVuSans-64" transform="translate(405.912109 0)"/>
      <use xlink:href="#DejaVuSans-20" transform="translate(469.388672 0)"/>
      <use xlink:href="#DejaVuSans-50" transform="translate(501.175781 0)"/>
      <use xlink:href="#DejaVuSans-28" transform="translate(561.478516 0)"/>
      <use xlink:href="#DejaVuSans-6c" transform="translate(600.492188 0)"/>
      <use xlink:href="#DejaVuSans-69" transform="translate(628.275391 0)"/>
      <use xlink:href="#DejaVuSans-65" transform="translate(656.058594 0)"/>
      <use xlink:href="#DejaVuSans-29" transform="translate(717.582031 0)"/>
     </g>
    </g>
   </g>
   <g id="patch_3">
    <path d="M 117.751 497.253613
L 117.751 497.253613
L 117.751 497.253613
L 117.751 497.253613
z
" clip-path="url(#pdf5e9335d7)" style="fill: #c5864f; stroke: #3c3c3c; stroke-width: 1.5; stroke-linejoin: miter"/>
   </g>
   <g id="patch_4">
    <path d="M 117.751 497.253613
L 117.751 497.253613
L 117.751 497.253613
L 117.751 497.253613
z
" clip-path="url(#pdf5e9335d7)" style="fill: #3c698d; stroke: #3c3c3c; stroke-width: 1.5; stroke-linejoin: miter"/>
   </g>
   <g id="patch_5">
    <path d="M 67.0582 125.200166
L 117.751 125.200166
L 117.751 77.820809
L 67.0582 77.820809
L 67.0582 125.200166
z
" clip-path="url(#pdf5e9335d7)" style="fill: #c5864f; stroke: #3c3c3c; stroke-linejoin: miter"/>
   </g>
   <g id="line2d_7">
    <path d="M 92.4046 125.200166
L 92.4046 192.3308
" clip-path="url(#pdf5e9335d7)" style="fill: none; stroke: #3c3c3c"/>
   </g>
   <g id="line2d_8">
    <path d="M 92.4046 77.820809
L 92.4046 45.105354
" clip-path="url(#pdf5e9335d7)" style="fill: none; stroke: #3c3c3c"/>
   </g>
   <g id="line2d_9">
    <path d="M 79.7314 192.3308
L 105.0778 192.3308
" clip-path="url(#pdf5e9335d7)" style="fill: none; stroke: #3c3c3c; stroke-linecap: round"/>
   </g>
   <g id="line2d_10">
    <path d="M 79.7314 45.105354
L 105.0778 45.105354
" clip-path="url(#pdf5e9335d7)" style="fill: none; stroke: #3c3c3c; stroke-linecap: round"/>
   </g>
   <g id="line2d_11">
    <defs>
     <path id="m91d0099045" d="M 0 4.5
C 1.193414 4.5 2.338109 4.025852 3.181981 3.181981
C 4.025852 2.338109 4.5 1.193414 4.5 0
C 4.5 -1.193414 4.025852 -2.338109 3.181981 -3.181981
C 2.338109 -4.025852 1.193414 -4.5 0 -4.5
C -1.193414 -4.5 -2.338109 -4.025852 -3.181981 -3.181981
C -4.025852 -2.338109 -4.5 -1.193414 -4.5 0
C -4.5 1.193414 -4.025852 2.338109 -3.181981 3.181981
C -2.338109 4.025852 -1.193414 4.5 0 4.5
z
" style="stroke: #3c3c3c"/>
    </defs>
    <g clip-path="url(#pdf5e9335d7)">
     <use xlink:href="#m91d0099045" x="92.4046" y="208.376628" style="fill-opacity: 0; stroke: #3c3c3c"/>
     <use xlink:href="#m91d0099045" x="92.4046" y="216.166363" style="fill-opacity: 0; stroke: #3c3c3c"/>
    </g>
   </g>
   <g id="patch_6">
    <path d="M 193.7902 116.197186
L 244.483 116.197186
L 244.483 76.259626
L 193.7902 76.259626
L 193.7902 116.197186
z
" clip-path="url(#pdf5e9335d7)" style="fill: #c5864f; stroke: #3c3c3c; stroke-linejoin: miter"/>
   </g>
   <g id="line2d_12">
    <path d="M 219.1366 116.197186
L 219.1366 167.580543
" clip-path="url(#pdf5e9335d7)" style="fill: none; stroke: #3c3c3c"/>
   </g>
   <g id="line2d_13">
    <path d="M 219.1366 76.259626
L 219.1366 46.918478
" clip-path="url(#pdf5e9335d7)" style="fill: none; stroke: #3c3c3c"/>
   </g>
   <g id="line2d_14">
    <path d="M 206.4634 167.580543
L 231.8098 167.580543
" clip-path="url(#pdf5e9335d7)" style="fill: none; stroke: #3c3c3c; stroke-linecap: round"/>
   </g>
   <g id="line2d_15">
    <path d="M 206.4634 46.918478
L 231.8098 46.918478
" clip-path="url(#pdf5e9335d7)" style="fill: none; stroke: #3c3c3c; stroke-linecap: round"/>
   </g>
   <g id="line2d_16">
    <g clip-path="url(#pdf5e9335d7)">
     <use xlink:href="#m91d0099045" x="219.1366" y="209.209737" style="fill-opacity: 0; stroke: #3c3c3c"/>
     <use xlink:href="#m91d0099045" x="219.1366" y="182.832322" style="fill-opacity: 0; stroke: #3c3c3c"/>
     <use xlink:href="#m91d0099045" x="219.1366" y="178.305619" style="fill-opacity: 0; stroke: #3c3c3c"/>
     <use xlink:href="#m91d0099045" x="219.1366" y="213.712418" style="fill-opacity: 0; stroke: #3c3c3c"/>
    </g>
   </g>
   <g id="patch_7">
    <path d="M 320.5222 108.616922
L 371.215 108.616922
L 371.215 81.080099
L 320.5222 81.080099
L 320.5222 108.616922
z
" clip-path="url(#pdf5e9335d7)" style="fill: #c5864f; stroke: #3c3c3c; stroke-linejoin: miter"/>
   </g>
   <g id="line2d_17">
    <path d="M 345.8686 108.616922
L 345.8686 148.576283
" clip-path="url(#pdf5e9335d7)" style="fill: none; stroke: #3c3c3c"/>
   </g>
   <g id="line2d_18">
    <path d="M 345.8686 81.080099
L 345.8686 50.821899
" clip-path="url(#pdf5e9335d7)" style="fill: none; stroke: #3c3c3c"/>
   </g>
   <g id="line2d_19">
    <path d="M 333.1954 148.576283
L 358.5418 148.576283
" clip-path="url(#pdf5e9335d7)" style="fill: none; stroke: #3c3c3c; stroke-linecap: round"/>
   </g>
   <g id="line2d_20">
    <path d="M 333.1954 50.821899
L 358.5418 50.821899
" clip-path="url(#pdf5e9335d7)" style="fill: none; stroke: #3c3c3c; stroke-linecap: round"/>
   </g>
   <g id="line2d_21">
    <g clip-path="url(#pdf5e9335d7)">
     <use xlink:href="#m91d0099045" x="345.8686" y="188.469147" style="fill-opacity: 0; stroke: #3c3c3c"/>
     <use xlink:href="#m91d0099045" x="345.8686" y="208.594341" style="fill-opacity: 0; stroke: #3c3c3c"/>
     <use xlink:href="#m91d0099045" x="345.8686" y="189.145361" style="fill-opacity: 0; stroke: #3c3c3c"/>
     <use xlink:href="#m91d0099045" x="345.8686" y="230.27156" style="fill-opacity: 0; stroke: #3c3c3c"/>
     <use xlink:href="#m91d0099045" x="345.8686" y="172.309455" style="fill-opacity: 0; stroke: #3c3c3c"/>
     <use xlink:href="#m91d0099045" x="345.8686" y="174.151126" style="fill-opacity: 0; stroke: #3c3c3c"/>
     <use xlink:href="#m91d0099045" x="345.8686" y="177.63171" style="fill-opacity: 0; stroke: #3c3c3c"/>
     <use xlink:href="#m91d0099045" x="345.8686" y="201.80341" style="fill-opacity: 0; stroke: #3c3c3c"/>
     <use xlink:href="#m91d0099045" x="345.8686" y="214.104158" style="fill-opacity: 0; stroke: #3c3c3c"/>
     <use xlink:href="#m91d0099045" x="345.8686" y="167.146988" style="fill-opacity: 0; stroke: #3c3c3c"/>
     <use xlink:href="#m91d0099045" x="345.8686" y="182.624659" style="fill-opacity: 0; stroke: #3c3c3c"/>
     <use xlink:href="#m91d0099045" x="345.8686" y="152.765975" style="fill-opacity: 0; stroke: #3c3c3c"/>
     <use xlink:href="#m91d0099045" x="345.8686" y="153.463174" style="fill-opacity: 0; stroke: #3c3c3c"/>
     <use xlink:href="#m91d0099045" x="345.8686" y="37.322218" style="fill-opacity: 0; stroke: #3c3c3c"/>
     <use xlink:href="#m91d0099045" x="345.8686" y="35.619453" style="fill-opacity: 0; stroke: #3c3c3c"/>
    </g>
   </g>
   <g id="patch_8">
    <path d="M 447.2542 107.025265
L 497.947 107.025265
L 497.947 71.693809
L 447.2542 71.693809
L 447.2542 107.025265
z
" clip-path="url(#pdf5e9335d7)" style="fill: #c5864f; stroke: #3c3c3c; stroke-linejoin: miter"/>
   </g>
   <g id="line2d_22">
    <path d="M 472.6006 107.025265
L 472.6006 149.020123
" clip-path="url(#pdf5e9335d7)" style="fill: none; stroke: #3c3c3c"/>
   </g>
   <g id="line2d_23">
    <path d="M 472.6006 71.693809
L 472.6006 40.719341
" clip-path="url(#pdf5e9335d7)" style="fill: none; stroke: #3c3c3c"/>
   </g>
   <g id="line2d_24">
    <path d="M 459.9274 149.020123
L 485.2738 149.020123
" clip-path="url(#pdf5e9335d7)" style="fill: none; stroke: #3c3c3c; stroke-linecap: round"/>
   </g>
   <g id="line2d_25">
    <path d="M 459.9274 40.719341
L 485.2738 40.719341
" clip-path="url(#pdf5e9335d7)" style="fill: none; stroke: #3c3c3c; stroke-linecap: round"/>
   </g>
   <g id="line2d_26">
    <g clip-path="url(#pdf5e9335d7)">
     <use xlink:href="#m91d0099045" x="472.6006" y="168.081796" style="fill-opacity: 0; stroke: #3c3c3c"/>
     <use xlink:href="#m91d0099045" x="472.6006" y="236.153923" style="fill-opacity: 0; stroke: #3c3c3c"/>
    </g>
   </g>
   <g id="patch_9">
    <path d="M 573.9862 108.91782
L 624.679 108.91782
L 624.679 73.304574
L 573.9862 73.304574
L 573.9862 108.91782
z
" clip-path="url(#pdf5e9335d7)" style="fill: #c5864f; stroke: #3c3c3c; stroke-linejoin: miter"/>
   </g>
   <g id="line2d_27">
    <path d="M 599.3326 108.91782
L 599.3326 156.194312
" clip-path="url(#pdf5e9335d7)" style="fill: none; stroke: #3c3c3c"/>
   </g>
   <g id="line2d_28">
    <path d="M 599.3326 73.304574
L 599.3326 40.005869
" clip-path="url(#pdf5e9335d7)" style="fill: none; stroke: #3c3c3c"/>
   </g>
   <g id="line2d_29">
    <path d="M 586.6594 156.194312
L 612.0058 156.194312
" clip-path="url(#pdf5e9335d7)" style="fill: none; stroke: #3c3c3c; stroke-linecap: round"/>
   </g>
   <g id="line2d_30">
    <path d="M 586.6594 40.005869
L 612.0058 40.005869
" clip-path="url(#pdf5e9335d7)" style="fill: none; stroke: #3c3c3c; stroke-linecap: round"/>
   </g>
   <g id="line2d_31">
    <g clip-path="url(#pdf5e9335d7)">
     <use xlink:href="#m91d0099045" x="599.3326" y="171.041829" style="fill-opacity: 0; stroke: #3c3c3c"/>
     <use xlink:href="#m91d0099045" x="599.3326" y="187.499905" style="fill-opacity: 0; stroke: #3c3c3c"/>
     <use xlink:href="#m91d0099045" x="599.3326" y="194.273888" style="fill-opacity: 0; stroke: #3c3c3c"/>
     <use xlink:href="#m91d0099045" x="599.3326" y="163.372979" style="fill-opacity: 0; stroke: #3c3c3c"/>
     <use xlink:href="#m91d0099045" x="599.3326" y="169.299398" style="fill-opacity: 0; stroke: #3c3c3c"/>
     <use xlink:href="#m91d0099045" x="599.3326" y="166.76267" style="fill-opacity: 0; stroke: #3c3c3c"/>
    </g>
   </g>
   <g id="patch_10">
    <path d="M 117.751 133.317762
L 168.4438 133.317762
L 168.4438 92.247198
L 117.751 92.247198
L 117.751 133.317762
z
" clip-path="url(#pdf5e9335d7)" style="fill: #3c698d; stroke: #3c3c3c; stroke-linejoin: miter"/>
   </g>
   <g id="line2d_32">
    <path d="M 143.0974 133.317762
L 143.0974 192.169472
" clip-path="url(#pdf5e9335d7)" style="fill: none; stroke: #3c3c3c"/>
   </g>
   <g id="line2d_33">
    <path d="M 143.0974 92.247198
L 143.0974 52.532761
" clip-path="url(#pdf5e9335d7)" style="fill: none; stroke: #3c3c3c"/>
   </g>
   <g id="line2d_34">
    <path d="M 130.4242 192.169472
L 155.7706 192.169472
" clip-path="url(#pdf5e9335d7)" style="fill: none; stroke: #3c3c3c; stroke-linecap: round"/>
   </g>
   <g id="line2d_35">
    <path d="M 130.4242 52.532761
L 155.7706 52.532761
" clip-path="url(#pdf5e9335d7)" style="fill: none; stroke: #3c3c3c; stroke-linecap: round"/>
   </g>
   <g id="line2d_36">
    <g clip-path="url(#pdf5e9335d7)">
     <use xlink:href="#m91d0099045" x="143.0974" y="255.743112" style="fill-opacity: 0; stroke: #3c3c3c"/>
     <use xlink:href="#m91d0099045" x="143.0974" y="279.258878" style="fill-opacity: 0; stroke: #3c3c3c"/>
     <use xlink:href="#m91d0099045" x="143.0974" y="227.882675" style="fill-opacity: 0; stroke: #3c3c3c"/>
     <use xlink:href="#m91d0099045" x="143.0974" y="208.380666" style="fill-opacity: 0; stroke: #3c3c3c"/>
     <use xlink:href="#m91d0099045" x="143.0974" y="251.732558" style="fill-opacity: 0; stroke: #3c3c3c"/>
     <use xlink:href="#m91d0099045" x="143.0974" y="208.535997" style="fill-opacity: 0; stroke: #3c3c3c"/>
     <use xlink:href="#m91d0099045" x="143.0974" y="257.571515" style="fill-opacity: 0; stroke: #3c3c3c"/>
     <use xlink:href="#m91d0099045" x="143.0974" y="251.598886" style="fill-opacity: 0; stroke: #3c3c3c"/>
     <use xlink:href="#m91d0099045" x="143.0974" y="212.951385" style="fill-opacity: 0; stroke: #3c3c3c"/>
    </g>
   </g>
   <g id="patch_11">
    <path d="M 244.483 124.47204
L 295.1758 124.47204
L 295.1758 75.652606
L 244.483 75.652606
L 244.483 124.47204
z
" clip-path="url(#pdf5e9335d7)" style="fill: #3c698d; stroke: #3c3c3c; stroke-linejoin: miter"/>
   </g>
   <g id="line2d_37">
    <path d="M 269.8294 124.47204
L 269.8294 196.617855
" clip-path="url(#pdf5e9335d7)" style="fill: none; stroke: #3c3c3c"/>
   </g>
   <g id="line2d_38">
    <path d="M 269.8294 75.652606
L 269.8294 54.786461
" clip-path="url(#pdf5e9335d7)" style="fill: none; stroke: #3c3c3c"/>
   </g>
   <g id="line2d_39">
    <path d="M 257.1562 196.617855
L 282.5026 196.617855
" clip-path="url(#pdf5e9335d7)" style="fill: none; stroke: #3c3c3c; stroke-linecap: round"/>
   </g>
   <g id="line2d_40">
    <path d="M 257.1562 54.786461
L 282.5026 54.786461
" clip-path="url(#pdf5e9335d7)" style="fill: none; stroke: #3c3c3c; stroke-linecap: round"/>
   </g>
   <g id="line2d_41">
    <g clip-path="url(#pdf5e9335d7)">
     <use xlink:href="#m91d0099045" x="269.8294" y="201.249588" style="fill-opacity: 0; stroke: #3c3c3c"/>
     <use xlink:href="#m91d0099045" x="269.8294" y="207.471103" style="fill-opacity: 0; stroke: #3c3c3c"/>
    </g>
   </g>
   <g id="patch_12">
    <path d="M 371.215 122.822247
L 421.9078 122.822247
L 421.9078 92.171132
L 371.215 92.171132
L 371.215 122.822247
z
" clip-path="url(#pdf5e9335d7)" style="fill: #3c698d; stroke: #3c3c3c; stroke-linejoin: miter"/>
   </g>
   <g id="line2d_42">
    <path d="M 396.5614 122.822247
L 396.5614 161.486789
" clip-path="url(#pdf5e9335d7)" style="fill: none; stroke: #3c3c3c"/>
   </g>
   <g id="line2d_43">
    <path d="M 396.5614 92.171132
L 396.5614 48.806019
" clip-path="url(#pdf5e9335d7)" style="fill: none; stroke: #3c3c3c"/>
   </g>
   <g id="line2d_44">
    <path d="M 383.8882 161.486789
L 409.2346 161.486789
" clip-path="url(#pdf5e9335d7)" style="fill: none; stroke: #3c3c3c; stroke-linecap: round"/>
   </g>
   <g id="line2d_45">
    <path d="M 383.8882 48.806019
L 409.2346 48.806019
" clip-path="url(#pdf5e9335d7)" style="fill: none; stroke: #3c3c3c; stroke-linecap: round"/>
   </g>
   <g id="line2d_46">
    <g clip-path="url(#pdf5e9335d7)">
     <use xlink:href="#m91d0099045" x="396.5614" y="175.513605" style="fill-opacity: 0; stroke: #3c3c3c"/>
     <use xlink:href="#m91d0099045" x="396.5614" y="232.561332" style="fill-opacity: 0; stroke: #3c3c3c"/>
     <use xlink:href="#m91d0099045" x="396.5614" y="203.673501" style="fill-opacity: 0; stroke: #3c3c3c"/>
     <use xlink:href="#m91d0099045" x="396.5614" y="201.642953" style="fill-opacity: 0; stroke: #3c3c3c"/>
     <use xlink:href="#m91d0099045" x="396.5614" y="197.580443" style="fill-opacity: 0; stroke: #3c3c3c"/>
     <use xlink:href="#m91d0099045" x="396.5614" y="174.769116" style="fill-opacity: 0; stroke: #3c3c3c"/>
     <use xlink:href="#m91d0099045" x="396.5614" y="180.389039" style="fill-opacity: 0; stroke: #3c3c3c"/>
     <use xlink:href="#m91d0099045" x="396.5614" y="195.898823" style="fill-opacity: 0; stroke: #3c3c3c"/>
     <use xlink:href="#m91d0099045" x="396.5614" y="227.68775" style="fill-opacity: 0; stroke: #3c3c3c"/>
     <use xlink:href="#m91d0099045" x="396.5614" y="207.847391" style="fill-opacity: 0; stroke: #3c3c3c"/>
     <use xlink:href="#m91d0099045" x="396.5614" y="271.970842" style="fill-opacity: 0; stroke: #3c3c3c"/>
     <use xlink:href="#m91d0099045" x="396.5614" y="278.772507" style="fill-opacity: 0; stroke: #3c3c3c"/>
     <use xlink:href="#m91d0099045" x="396.5614" y="191.693628" style="fill-opacity: 0; stroke: #3c3c3c"/>
     <use xlink:href="#m91d0099045" x="396.5614" y="240.335629" style="fill-opacity: 0; stroke: #3c3c3c"/>
     <use xlink:href="#m91d0099045" x="396.5614" y="45.815118" style="fill-opacity: 0; stroke: #3c3c3c"/>
     <use xlink:href="#m91d0099045" x="396.5614" y="41.063667" style="fill-opacity: 0; stroke: #3c3c3c"/>
     <use xlink:href="#m91d0099045" x="396.5614" y="35.27706" style="fill-opacity: 0; stroke: #3c3c3c"/>
    </g>
   </g>
   <g id="patch_13">
    <path d="M 497.947 128.669224
L 548.6398 128.669224
L 548.6398 94.232109
L 497.947 94.232109
L 497.947 128.669224
z
" clip-path="url(#pdf5e9335d7)" style="fill: #3c698d; stroke: #3c3c3c; stroke-linejoin: miter"/>
   </g>
   <g id="line2d_47">
    <path d="M 523.2934 128.669224
L 523.2934 179.441446
" clip-path="url(#pdf5e9335d7)" style="fill: none; stroke: #3c3c3c"/>
   </g>
   <g id="line2d_48">
    <path d="M 523.2934 94.232109
L 523.2934 60.200404
" clip-path="url(#pdf5e9335d7)" style="fill: none; stroke: #3c3c3c"/>
   </g>
   <g id="line2d_49">
    <path d="M 510.6202 179.441446
L 535.9666 179.441446
" clip-path="url(#pdf5e9335d7)" style="fill: none; stroke: #3c3c3c; stroke-linecap: round"/>
   </g>
   <g id="line2d_50">
    <path d="M 510.6202 60.200404
L 535.9666 60.200404
" clip-path="url(#pdf5e9335d7)" style="fill: none; stroke: #3c3c3c; stroke-linecap: round"/>
   </g>
   <g id="line2d_51">
    <g clip-path="url(#pdf5e9335d7)">
     <use xlink:href="#m91d0099045" x="523.2934" y="181.94327" style="fill-opacity: 0; stroke: #3c3c3c"/>
     <use xlink:href="#m91d0099045" x="523.2934" y="194.770806" style="fill-opacity: 0; stroke: #3c3c3c"/>
     <use xlink:href="#m91d0099045" x="523.2934" y="186.536891" style="fill-opacity: 0; stroke: #3c3c3c"/>
     <use xlink:href="#m91d0099045" x="523.2934" y="224.59533" style="fill-opacity: 0; stroke: #3c3c3c"/>
     <use xlink:href="#m91d0099045" x="523.2934" y="204.605057" style="fill-opacity: 0; stroke: #3c3c3c"/>
     <use xlink:href="#m91d0099045" x="523.2934" y="180.354635" style="fill-opacity: 0; stroke: #3c3c3c"/>
    </g>
   </g>
   <g id="patch_14">
    <path d="M 624.679 123.163318
L 675.3718 123.163318
L 675.3718 79.276633
L 624.679 79.276633
L 624.679 123.163318
z
" clip-path="url(#pdf5e9335d7)" style="fill: #3c698d; stroke: #3c3c3c; stroke-linejoin: miter"/>
   </g>
   <g id="line2d_52">
    <path d="M 650.0254 123.163318
L 650.0254 185.655202
" clip-path="url(#pdf5e9335d7)" style="fill: none; stroke: #3c3c3c"/>
   </g>
   <g id="line2d_53">
    <path d="M 650.0254 79.276633
L 650.0254 44.589846
" clip-path="url(#pdf5e9335d7)" style="fill: none; stroke: #3c3c3c"/>
   </g>
   <g id="line2d_54">
    <path d="M 637.3522 185.655202
L 662.6986 185.655202
" clip-path="url(#pdf5e9335d7)" style="fill: none; stroke: #3c3c3c; stroke-linecap: round"/>
   </g>
   <g id="line2d_55">
    <path d="M 637.3522 44.589846
L 662.6986 44.589846
" clip-path="url(#pdf5e9335d7)" style="fill: none; stroke: #3c3c3c; stroke-linecap: round"/>
   </g>
   <g id="line2d_56">
    <g clip-path="url(#pdf5e9335d7)">
     <use xlink:href="#m91d0099045" x="650.0254" y="213.042549" style="fill-opacity: 0; stroke: #3c3c3c"/>
     <use xlink:href="#m91d0099045" x="650.0254" y="202.4585" style="fill-opacity: 0; stroke: #3c3c3c"/>
     <use xlink:href="#m91d0099045" x="650.0254" y="194.428452" style="fill-opacity: 0; stroke: #3c3c3c"/>
     <use xlink:href="#m91d0099045" x="650.0254" y="218.871496" style="fill-opacity: 0; stroke: #3c3c3c"/>
     <use xlink:href="#m91d0099045" x="650.0254" y="262.828527" style="fill-opacity: 0; stroke: #3c3c3c"/>
     <use xlink:href="#m91d0099045" x="650.0254" y="223.680892" style="fill-opacity: 0; stroke: #3c3c3c"/>
     <use xlink:href="#m91d0099045" x="650.0254" y="204.907703" style="fill-opacity: 0; stroke: #3c3c3c"/>
    </g>
   </g>
   <g id="line2d_57">
    <path d="M 67.0582 98.541052
L 117.751 98.541052
" clip-path="url(#pdf5e9335d7)" style="fill: none; stroke: #3c3c3c"/>
   </g>
   <g id="line2d_58">
    <path d="M 193.7902 97.991977
L 244.483 97.991977
" clip-path="url(#pdf5e9335d7)" style="fill: none; stroke: #3c3c3c"/>
   </g>
   <g id="line2d_59">
    <path d="M 320.5222 97.968515
L 371.215 97.968515
" clip-path="url(#pdf5e9335d7)" style="fill: none; stroke: #3c3c3c"/>
   </g>
   <g id="line2d_60">
    <path d="M 447.2542 91.074734
L 497.947 91.074734
" clip-path="url(#pdf5e9335d7)" style="fill: none; stroke: #3c3c3c"/>
   </g>
   <g id="line2d_61">
    <path d="M 573.9862 94.822453
L 624.679 94.822453
" clip-path="url(#pdf5e9335d7)" style="fill: none; stroke: #3c3c3c"/>
   </g>
   <g id="line2d_62">
    <path d="M 117.751 108.671199
L 168.4438 108.671199
" clip-path="url(#pdf5e9335d7)" style="fill: none; stroke: #3c3c3c"/>
   </g>
   <g id="line2d_63">
    <path d="M 244.483 102.530934
L 295.1758 102.530934
" clip-path="url(#pdf5e9335d7)" style="fill: none; stroke: #3c3c3c"/>
   </g>
   <g id="line2d_64">
    <path d="M 371.215 101.125241
L 421.9078 101.125241
" clip-path="url(#pdf5e9335d7)" style="fill: none; stroke: #3c3c3c"/>
   </g>
   <g id="line2d_65">
    <path d="M 497.947 106.112823
L 548.6398 106.112823
" clip-path="url(#pdf5e9335d7)" style="fill: none; stroke: #3c3c3c"/>
   </g>
   <g id="line2d_66">
    <path d="M 624.679 100.900993
L 675.3718 100.900993
" clip-path="url(#pdf5e9335d7)" style="fill: none; stroke: #3c3c3c"/>
   </g>
   <g id="patch_15">
    <path d="M 54.385 291.457969
L 54.385 23.077969
" style="fill: none; stroke: #cccccc; stroke-width: 1.875; stroke-linejoin: miter; stroke-linecap: square"/>
   </g>
   <g id="patch_16">
    <path d="M 54.385 291.457969
L 688.045 291.457969
" style="fill: none; stroke: #cccccc; stroke-width: 1.875; stroke-linejoin: miter; stroke-linecap: square"/>
   </g>
   <g id="text_14">
    <!-- DOLOS Final Ensemble Score by Host -->
    <g style="fill: #262626" transform="translate(235.162891 17.077969) scale(0.13 -0.13)">
     <defs>
      <path id="DejaVuSans-Bold-44" d="M 1791 3756
L 1791 909
L 2222 909
Q 2959 909 3348 1275
Q 3738 1641 3738 2338
Q 3738 3031 3350 3393
Q 2963 3756 2222 3756
L 1791 3756
z
M 588 4666
L 1856 4666
Q 2919 4666 3439 4514
Q 3959 4363 4331 4000
Q 4659 3684 4818 3271
Q 4978 2859 4978 2338
Q 4978 1809 4818 1395
Q 4659 981 4331 666
Q 3956 303 3431 151
Q 2906 0 1856 0
L 588 0
L 588 4666
z
" transform="scale(0.015625)"/>
      <path id="DejaVuSans-Bold-4f" d="M 2719 3878
Q 2169 3878 1866 3472
Q 1563 3066 1563 2328
Q 1563 1594 1866 1187
Q 2169 781 2719 781
Q 3272 781 3575 1187
Q 3878 1594 3878 2328
Q 3878 3066 3575 3472
Q 3272 3878 2719 3878
z
M 2719 4750
Q 3844 4750 4481 4106
Q 5119 3463 5119 2328
Q 5119 1197 4481 553
Q 3844 -91 2719 -91
Q 1597 -91 958 553
Q 319 1197 319 2328
Q 319 3463 958 4106
Q 1597 4750 2719 4750
z
" transform="scale(0.015625)"/>
      <path id="DejaVuSans-Bold-4c" d="M 588 4666
L 1791 4666
L 1791 909
L 3903 909
L 3903 0
L 588 0
L 588 4666
z
" transform="scale(0.015625)"/>
      <path id="DejaVuSans-Bold-53" d="M 3834 4519
L 3834 3531
Q 3450 3703 3084 3790
Q 2719 3878 2394 3878
Q 1963 3878 1756 3759
Q 1550 3641 1550 3391
Q 1550 3203 1689 3098
Q 1828 2994 2194 2919
L 2706 2816
Q 3484 2659 3812 2340
Q 4141 2022 4141 1434
Q 4141 663 3683 286
Q 3225 -91 2284 -91
Q 1841 -91 1394 -6
Q 947 78 500 244
L 500 1259
Q 947 1022 1364 901
Q 1781 781 2169 781
Q 2563 781 2772 912
Q 2981 1044 2981 1288
Q 2981 1506 2839 1625
Q 2697 1744 2272 1838
L 1806 1941
Q 1106 2091 782 2419
Q 459 2747 459 3303
Q 459 4000 909 4375
Q 1359 4750 2203 4750
Q 2588 4750 2994 4692
Q 3400 4634 3834 4519
z
" transform="scale(0.015625)"/>
      <path id="DejaVuSans-Bold-20" transform="scale(0.015625)"/>
      <path id="DejaVuSans-Bold-46" d="M 588 4666
L 3834 4666
L 3834 3756
L 1791 3756
L 1791 2888
L 3713 2888
L 3713 1978
L 1791 1978
L 1791 0
L 588 0
L 588 4666
z
" transform="scale(0.015625)"/>
      <path id="DejaVuSans-Bold-69" d="M 538 3500
L 1656 3500
L 1656 0
L 538 0
L 538 3500
z
M 538 4863
L 1656 4863
L 1656 3950
L 538 3950
L 538 4863
z
" transform="scale(0.015625)"/>
      <path id="DejaVuSans-Bold-6e" d="M 4056 2131
L 4056 0
L 2931 0
L 2931 347
L 2931 1631
Q 2931 2084 2911 2256
Q 2891 2428 2841 2509
Q 2775 2619 2662 2680
Q 2550 2741 2406 2741
Q 2056 2741 1856 2470
Q 1656 2200 1656 1722
L 1656 0
L 538 0
L 538 3500
L 1656 3500
L 1656 2988
Q 1909 3294 2193 3439
Q 2478 3584 2822 3584
Q 3428 3584 3742 3212
Q 4056 2841 4056 2131
z
" transform="scale(0.015625)"/>
      <path id="DejaVuSans-Bold-61" d="M 2106 1575
Q 1756 1575 1579 1456
Q 1403 1338 1403 1106
Q 1403 894 1545 773
Q 1688 653 1941 653
Q 2256 653 2472 879
Q 2688 1106 2688 1447
L 2688 1575
L 2106 1575
z
M 3816 1997
L 3816 0
L 2688 0
L 2688 519
Q 2463 200 2181 54
Q 1900 -91 1497 -91
Q 953 -91 614 226
Q 275 544 275 1050
Q 275 1666 698 1953
Q 1122 2241 2028 2241
L 2688 2241
L 2688 2328
Q 2688 2594 2478 2717
Q 2269 2841 1825 2841
Q 1466 2841 1156 2769
Q 847 2697 581 2553
L 581 3406
Q 941 3494 1303 3539
Q 1666 3584 2028 3584
Q 2975 3584 3395 3211
Q 3816 2838 3816 1997
z
" transform="scale(0.015625)"/>
      <path id="DejaVuSans-Bold-6c" d="M 538 4863
L 1656 4863
L 1656 0
L 538 0
L 538 4863
z
" transform="scale(0.015625)"/>
      <path id="DejaVuSans-Bold-45" d="M 588 4666
L 3834 4666
L 3834 3756
L 1791 3756
L 1791 2888
L 3713 2888
L 3713 1978
L 1791 1978
L 1791 909
L 3903 909
L 3903 0
L 588 0
L 588 4666
z
" transform="scale(0.015625)"/>
      <path id="DejaVuSans-Bold-73" d="M 3272 3391
L 3272 2541
Q 2913 2691 2578 2766
Q 2244 2841 1947 2841
Q 1628 2841 1473 2761
Q 1319 2681 1319 2516
Q 1319 2381 1436 2309
Q 1553 2238 1856 2203
L 2053 2175
Q 2913 2066 3209 1816
Q 3506 1566 3506 1031
Q 3506 472 3093 190
Q 2681 -91 1863 -91
Q 1516 -91 1145 -36
Q 775 19 384 128
L 384 978
Q 719 816 1070 734
Q 1422 653 1784 653
Q 2113 653 2278 743
Q 2444 834 2444 1013
Q 2444 1163 2330 1236
Q 2216 1309 1875 1350
L 1678 1375
Q 931 1469 631 1722
Q 331 1975 331 2491
Q 331 3047 712 3315
Q 1094 3584 1881 3584
Q 2191 3584 2531 3537
Q 2872 3491 3272 3391
z
" transform="scale(0.015625)"/>
      <path id="DejaVuSans-Bold-65" d="M 4031 1759
L 4031 1441
L 1416 1441
Q 1456 1047 1700 850
Q 1944 653 2381 653
Q 2734 653 3104 758
Q 3475 863 3866 1075
L 3866 213
Q 3469 63 3072 -14
Q 2675 -91 2278 -91
Q 1328 -91 801 392
Q 275 875 275 1747
Q 275 2603 792 3093
Q 1309 3584 2216 3584
Q 3041 3584 3536 3087
Q 4031 2591 4031 1759
z
M 2881 2131
Q 2881 2450 2695 2645
Q 2509 2841 2209 2841
Q 1884 2841 1681 2658
Q 1478 2475 1428 2131
L 2881 2131
z
" transform="scale(0.015625)"/>
      <path id="DejaVuSans-Bold-6d" d="M 3781 2919
Q 3994 3244 4286 3414
Q 4578 3584 4928 3584
Q 5531 3584 5847 3212
Q 6163 2841 6163 2131
L 6163 0
L 5038 0
L 5038 1825
Q 5041 1866 5042 1909
Q 5044 1953 5044 2034
Q 5044 2406 4934 2573
Q 4825 2741 4581 2741
Q 4263 2741 4089 2478
Q 3916 2216 3909 1719
L 3909 0
L 2784 0
L 2784 1825
Q 2784 2406 2684 2573
Q 2584 2741 2328 2741
Q 2006 2741 1831 2477
Q 1656 2213 1656 1722
L 1656 0
L 531 0
L 531 3500
L 1656 3500
L 1656 2988
Q 1863 3284 2130 3434
Q 2397 3584 2719 3584
Q 3081 3584 3359 3409
Q 3638 3234 3781 2919
z
" transform="scale(0.015625)"/>
      <path id="DejaVuSans-Bold-62" d="M 2400 722
Q 2759 722 2948 984
Q 3138 1247 3138 1747
Q 3138 2247 2948 2509
Q 2759 2772 2400 2772
Q 2041 2772 1848 2508
Q 1656 2244 1656 1747
Q 1656 1250 1848 986
Q 2041 722 2400 722
z
M 1656 2988
Q 1888 3294 2169 3439
Q 2450 3584 2816 3584
Q 3463 3584 3878 3070
Q 4294 2556 4294 1747
Q 4294 938 3878 423
Q 3463 -91 2816 -91
Q 2450 -91 2169 54
Q 1888 200 1656 506
L 1656 0
L 538 0
L 538 4863
L 1656 4863
L 1656 2988
z
" transform="scale(0.015625)"/>
      <path id="DejaVuSans-Bold-63" d="M 3366 3391
L 3366 2478
Q 3138 2634 2908 2709
Q 2678 2784 2431 2784
Q 1963 2784 1702 2511
Q 1441 2238 1441 1747
Q 1441 1256 1702 982
Q 1963 709 2431 709
Q 2694 709 2930 787
Q 3166 866 3366 1019
L 3366 103
Q 3103 6 2833 -42
Q 2563 -91 2291 -91
Q 1344 -91 809 395
Q 275 881 275 1747
Q 275 2613 809 3098
Q 1344 3584 2291 3584
Q 2566 3584 2833 3536
Q 3100 3488 3366 3391
z
" transform="scale(0.015625)"/>
      <path id="DejaVuSans-Bold-6f" d="M 2203 2784
Q 1831 2784 1636 2517
Q 1441 2250 1441 1747
Q 1441 1244 1636 976
Q 1831 709 2203 709
Q 2569 709 2762 976
Q 2956 1244 2956 1747
Q 2956 2250 2762 2517
Q 2569 2784 2203 2784
z
M 2203 3584
Q 3106 3584 3614 3096
Q 4122 2609 4122 1747
Q 4122 884 3614 396
Q 3106 -91 2203 -91
Q 1297 -91 786 396
Q 275 884 275 1747
Q 275 2609 786 3096
Q 1297 3584 2203 3584
z
" transform="scale(0.015625)"/>
      <path id="DejaVuSans-Bold-72" d="M 3138 2547
Q 2991 2616 2845 2648
Q 2700 2681 2553 2681
Q 2122 2681 1889 2404
Q 1656 2128 1656 1613
L 1656 0
L 538 0
L 538 3500
L 1656 3500
L 1656 2925
Q 1872 3269 2151 3426
Q 2431 3584 2822 3584
Q 2878 3584 2943 3579
Q 3009 3575 3134 3559
L 3138 2547
z
" transform="scale(0.015625)"/>
      <path id="DejaVuSans-Bold-79" d="M 78 3500
L 1197 3500
L 2138 1125
L 2938 3500
L 4056 3500
L 2584 -331
Q 2363 -916 2067 -1148
Q 1772 -1381 1288 -1381
L 641 -1381
L 641 -647
L 991 -647
Q 1275 -647 1404 -556
Q 1534 -466 1606 -231
L 1638 -134
L 78 3500
z
" transform="scale(0.015625)"/>
      <path id="DejaVuSans-Bold-48" d="M 588 4666
L 1791 4666
L 1791 2888
L 3566 2888
L 3566 4666
L 4769 4666
L 4769 0
L 3566 0
L 3566 1978
L 1791 1978
L 1791 0
L 588 0
L 588 4666
z
" transform="scale(0.015625)"/>
      <path id="DejaVuSans-Bold-74" d="M 1759 4494
L 1759 3500
L 2913 3500
L 2913 2700
L 1759 2700
L 1759 1216
Q 1759 972 1856 886
Q 1953 800 2241 800
L 2816 800
L 2816 0
L 1856 0
Q 1194 0 917 276
Q 641 553 641 1216
L 641 2700
L 84 2700
L 84 3500
L 641 3500
L 641 4494
L 1759 4494
z
" transform="scale(0.015625)"/>
     </defs>
     <use xlink:href="#DejaVuSans-Bold-44"/>
     <use xlink:href="#DejaVuSans-Bold-4f" transform="translate(83.007812 0)"/>
     <use xlink:href="#DejaVuSans-Bold-4c" transform="translate(168.017578 0)"/>
     <use xlink:href="#DejaVuSans-Bold-4f" transform="translate(228.113281 0)"/>
     <use xlink:href="#DejaVuSans-Bold-53" transform="translate(313.123047 0)"/>
     <use xlink:href="#DejaVuSans-Bold-20" transform="translate(385.144531 0)"/>
     <use xlink:href="#DejaVuSans-Bold-46" transform="translate(419.958984 0)"/>
     <use xlink:href="#DejaVuSans-Bold-69" transform="translate(488.269531 0)"/>
     <use xlink:href="#DejaVuSans-Bold-6e" transform="translate(522.546875 0)"/>
     <use xlink:href="#DejaVuSans-Bold-61" transform="translate(593.738281 0)"/>
     <use xlink:href="#DejaVuSans-Bold-6c" transform="translate(661.21875 0)"/>
     <use xlink:href="#DejaVuSans-Bold-20" transform="translate(695.496094 0)"/>
     <use xlink:href="#DejaVuSans-Bold-45" transform="translate(730.310547 0)"/>
     <use xlink:href="#DejaVuSans-Bold-6e" transform="translate(798.621094 0)"/>
     <use xlink:href="#DejaVuSans-Bold-73" transform="translate(869.8125 0)"/>
     <use xlink:href="#DejaVuSans-Bold-65" transform="translate(929.333984 0)"/>
     <use xlink:href="#DejaVuSans-Bold-6d" transform="translate(997.15625 0)"/>
     <use xlink:href="#DejaVuSans-Bold-62" transform="translate(1101.355469 0)"/>
     <use xlink:href="#DejaVuSans-Bold-6c" transform="translate(1172.9375 0)"/>
     <use xlink:href="#DejaVuSans-Bold-65" transform="translate(1207.214844 0)"/>
     <use xlink:href="#DejaVuSans-Bold-20" transform="translate(1275.037109 0)"/>
     <use xlink:href="#DejaVuSans-Bold-53" transform="translate(1309.851562 0)"/>
     <use xlink:href="#DejaVuSans-Bold-63" transform="translate(1381.873047 0)"/>
     <use xlink:href="#DejaVuSans-Bold-6f" transform="translate(1441.150391 0)"/>
     <use xlink:href="#DejaVuSans-Bold-72" transform="translate(1509.851562 0)"/>
     <use xlink:href="#DejaVuSans-Bold-65" transform="translate(1559.167969 0)"/>
     <use xlink:href="#DejaVuSans-Bold-20" transform="translate(1626.990234 0)"/>
     <use xlink:href="#DejaVuSans-Bold-62" transform="translate(1661.804688 0)"/>
     <use xlink:href="#DejaVuSans-Bold-79" transform="translate(1733.386719 0)"/>
     <use xlink:href="#DejaVuSans-Bold-20" transform="translate(1798.572266 0)"/>
     <use xlink:href="#DejaVuSans-Bold-48" transform="translate(1833.386719 0)"/>
     <use xlink:href="#DejaVuSans-Bold-6f" transform="translate(1917.078125 0)"/>
     <use xlink:href="#DejaVuSans-Bold-73" transform="translate(1985.779297 0)"/>
     <use xlink:href="#DejaVuSans-Bold-74" transform="translate(2045.300781 0)"/>
    </g>
   </g>
   <g id="legend_1">
    <g id="patch_17">
     <path d="M 60.685 286.957969
L 112.290156 286.957969
Q 114.090156 286.957969 114.090156 285.157969
L 114.090156 259.637344
Q 114.090156 257.837344 112.290156 257.837344
L 60.685 257.837344
Q 58.885 257.837344 58.885 259.637344
L 58.885 285.157969
Q 58.885 286.957969 60.685 286.957969
z
" style="fill: #ffffff; opacity: 0.8; stroke: #cccccc; stroke-width: 1.5; stroke-linejoin: miter"/>
    </g>
    <g id="patch_18">
     <path d="M 62.485 268.275937
L 80.485 268.275937
L 80.485 261.975937
L 62.485 261.975937
z
" style="fill: #c5864f; stroke: #3c3c3c; stroke-width: 1.5; stroke-linejoin: miter"/>
    </g>
    <g id="text_15">
     <!-- Lie -->
     <g style="fill: #262626" transform="translate(87.685 268.275937) scale(0.09 -0.09)">
      <use xlink:href="#DejaVuSans-4c"/>
      <use xlink:href="#DejaVuSans-69" transform="translate(55.712891 0)"/>
      <use xlink:href="#DejaVuSans-65" transform="translate(83.496094 0)"/>
     </g>
    </g>
    <g id="patch_19">
     <path d="M 62.485 281.48625
L 80.485 281.48625
L 80.485 275.18625
L 62.485 275.18625
z
" style="fill: #3c698d; stroke: #3c3c3c; stroke-width: 1.5; stroke-linejoin: miter"/>
    </g>
    <g id="text_16">
     <!-- Truth -->
     <g style="fill: #262626" transform="translate(87.685 281.48625) scale(0.09 -0.09)">
      <defs>
       <path id="DejaVuSans-54" d="M -19 4666
L 3928 4666
L 3928 4134
L 2272 4134
L 2272 0
L 1638 0
L 1638 4134
L -19 4134
L -19 4666
z
" transform="scale(0.015625)"/>
       <path id="DejaVuSans-75" d="M 544 1381
L 544 3500
L 1119 3500
L 1119 1403
Q 1119 906 1312 657
Q 1506 409 1894 409
Q 2359 409 2629 706
Q 2900 1003 2900 1516
L 2900 3500
L 3475 3500
L 3475 0
L 2900 0
L 2900 538
Q 2691 219 2414 64
Q 2138 -91 1772 -91
Q 1169 -91 856 284
Q 544 659 544 1381
z
M 1991 3584
L 1991 3584
z
" transform="scale(0.015625)"/>
       <path id="DejaVuSans-68" d="M 3513 2113
L 3513 0
L 2938 0
L 2938 2094
Q 2938 2591 2744 2837
Q 2550 3084 2163 3084
Q 1697 3084 1428 2787
Q 1159 2491 1159 1978
L 1159 0
L 581 0
L 581 4863
L 1159 4863
L 1159 2956
Q 1366 3272 1645 3428
Q 1925 3584 2291 3584
Q 2894 3584 3203 3211
Q 3513 2838 3513 2113
z
" transform="scale(0.015625)"/>
      </defs>
      <use xlink:href="#DejaVuSans-54"/>
      <use xlink:href="#DejaVuSans-72" transform="translate(46.333984 0)"/>
      <use xlink:href="#DejaVuSans-75" transform="translate(87.447266 0)"/>
      <use xlink:href="#DejaVuSans-74" transform="translate(150.826172 0)"/>
      <use xlink:href="#DejaVuSans-68" transform="translate(190.035156 0)"/>
     </g>
    </g>
   </g>
  </g>
 </g>
 <defs>
  <clipPath id="pdf5e9335d7">
   <rect x="54.385" y="23.077969" width="633.66" height="268.38"/>
  </clipPath>
 </defs>
</svg>
