<?xml version="1.0" encoding="utf-8" standalone="no"?>
<!DOCTYPE svg PUBLIC "-//W3C//DTD SVG 1.1//EN"
  "http://www.w3.org/Graphics/SVG/1.1/DTD/svg11.dtd">
<svg xmlns:xlink="http://www.w3.org/1999/xlink" width="479.27875pt" height="406.514219pt" viewBox="0 0 479.27875 406.514219" xmlns="http://www.w3.org/2000/svg" version="1.1">
 <metadata>
  <rdf:RDF xmlns:dc="http://purl.org/dc/elements/1.1/" xmlns:cc="http://creativecommons.org/ns#" xmlns:rdf="http://www.w3.org/1999/02/22-rdf-syntax-ns#">
   <cc:Work>
    <dc:type rdf:resource="http://purl.org/dc/dcmitype/StillImage"/>
    <dc:date>2026-05-21T22:19:09.814124</dc:date>
    <dc:format>image/svg+xml</dc:format>
    <dc:creator>
     <cc:Agent>
      <dc:title>Matplotlib v3.10.9, https://matplotlib.org/</dc:title>
     </cc:Agent>
    </dc:creator>
   </cc:Work>
  </rdf:RDF>
 </metadata>
 <defs>
  <style type="text/css">*{stroke-linejoin: round; stroke-linecap: butt}</style>
 </defs>
 <g id="figure_1">
  <g id="patch_1">
   <path d="M 0 406.514219
L 479.27875 406.514219
L 479.27875 0
L 0 0
z
" style="fill: #ffffff"/>
  </g>
  <g id="axes_1">
   <g id="patch_2">
    <path d="M 48.65875 363.457969
L 472.07875 363.457969
L 472.07875 23.077969
L 48.65875 23.077969
z
" style="fill: #ffffff"/>
   </g>
   <g id="matplotlib.axis_1">
    <g id="xtick_1">
     <g id="line2d_1">
      <path d="M 67.905114 363.457969
L 67.905114 23.077969
" clip-path="url(#p61fb63b652)" style="fill: none; stroke: #cccccc; stroke-width: 1.5; stroke-linecap: round"/>
     </g>
     <g id="text_1">
      <!-- 0.0 -->
      <g style="fill: #262626" transform="translate(60.748707 382.796562) scale(0.09 -0.09)">
       <defs>
        <path id="DejaVuSans-30" d="M 2034 4250
Q 1547 4250 1301 3770
Q 1056 3291 1056 2328
Q 1056 1369 1301 889
Q 1547 409 2034 409
Q 2525 409 2770 889
Q 3016 1369 3016 2328
Q 3016 3291 2770 3770
Q 2525 4250 2034 4250
z
M 2034 4750
Q 2819 4750 3233 4129
Q 3647 3509 3647 2328
Q 3647 1150 3233 529
Q 2819 -91 2034 -91
Q 1250 -91 836 529
Q 422 1150 422 2328
Q 422 3509 836 4129
Q 1250 4750 2034 4750
z
" transform="scale(0.015625)"/>
        <path id="DejaVuSans-2e" d="M 684 794
L 1344 794
L 1344 0
L 684 0
L 684 794
z
" transform="scale(0.015625)"/>
       </defs>
       <use xlink:href="#DejaVuSans-30"/>
       <use xlink:href="#DejaVuSans-2e" transform="translate(63.623047 0)"/>
       <use xlink:href="#DejaVuSans-30" transform="translate(95.410156 0)"/>
      </g>
     </g>
    </g>
    <g id="xtick_2">
     <g id="line2d_2">
      <path d="M 144.890568 363.457969
L 144.890568 23.077969
" clip-path="url(#p61fb63b652)" style="fill: none; stroke: #cccccc; stroke-width: 1.5; stroke-linecap: round"/>
     </g>
     <g id="text_2">
      <!-- 0.2 -->
      <g style="fill: #262626" transform="translate(137.734162 382.796562) scale(0.09 -0.09)">
       <defs>
        <path id="DejaVuSans-32" d="M 1228 531
L 3431 531
L 3431 0
L 469 0
L 469 531
Q 828 903 1448 1529
Q 2069 2156 2228 2338
Q 2531 2678 2651 2914
Q 2772 3150 2772 3378
Q 2772 3750 2511 3984
Q 2250 4219 1831 4219
Q 1534 4219 1204 4116
Q 875 4013 500 3803
L 500 4441
Q 881 4594 1212 4672
Q 1544 4750 1819 4750
Q 2544 4750 2975 4387
Q 3406 4025 3406 3419
Q 3406 3131 3298 2873
Q 3191 2616 2906 2266
Q 2828 2175 2409 1742
Q 1991 1309 1228 531
z
" transform="scale(0.015625)"/>
       </defs>
       <use xlink:href="#DejaVuSans-30"/>
       <use xlink:href="#DejaVuSans-2e" transform="translate(63.623047 0)"/>
       <use xlink:href="#DejaVuSans-32" transform="translate(95.410156 0)"/>
      </g>
     </g>
    </g>
    <g id="xtick_3">
     <g id="line2d_3">
      <path d="M 221.876023 363.457969
L 221.876023 23.077969
" clip-path="url(#p61fb63b652)" style="fill: none; stroke: #cccccc; stroke-width: 1.5; stroke-linecap: round"/>
     </g>
     <g id="text_3">
      <!-- 0.4 -->
      <g style="fill: #262626" transform="translate(214.719616 382.796562) scale(0.09 -0.09)">
       <defs>
        <path id="DejaVuSans-34" d="M 2419 4116
L 825 1625
L 2419 1625
L 2419 4116
z
M 2253 4666
L 3047 4666
L 3047 1625
L 3713 1625
L 3713 1100
L 3047 1100
L 3047 0
L 2419 0
L 2419 1100
L 313 1100
L 313 1709
L 2253 4666
z
" transform="scale(0.015625)"/>
       </defs>
       <use xlink:href="#DejaVuSans-30"/>
       <use xlink:href="#DejaVuSans-2e" transform="translate(63.623047 0)"/>
       <use xlink:href="#DejaVuSans-34" transform="translate(95.410156 0)"/>
      </g>
     </g>
    </g>
    <g id="xtick_4">
     <g id="line2d_4">
      <path d="M 298.861477 363.457969
L 298.861477 23.077969
" clip-path="url(#p61fb63b652)" style="fill: none; stroke: #cccccc; stroke-width: 1.5; stroke-linecap: round"/>
     </g>
     <g id="text_4">
      <!-- 0.6 -->
      <g style="fill: #262626" transform="translate(291.705071 382.796562) scale(0.09 -0.09)">
       <defs>
        <path id="DejaVuSans-36" d="M 2113 2584
Q 1688 2584 1439 2293
Q 1191 2003 1191 1497
Q 1191 994 1439 701
Q 1688 409 2113 409
Q 2538 409 2786 701
Q 3034 994 3034 1497
Q 3034 2003 2786 2293
Q 2538 2584 2113 2584
z
M 3366 4563
L 3366 3988
Q 3128 4100 2886 4159
Q 2644 4219 2406 4219
Q 1781 4219 1451 3797
Q 1122 3375 1075 2522
Q 1259 2794 1537 2939
Q 1816 3084 2150 3084
Q 2853 3084 3261 2657
Q 3669 2231 3669 1497
Q 3669 778 3244 343
Q 2819 -91 2113 -91
Q 1303 -91 875 529
Q 447 1150 447 2328
Q 447 3434 972 4092
Q 1497 4750 2381 4750
Q 2619 4750 2861 4703
Q 3103 4656 3366 4563
z
" transform="scale(0.015625)"/>
       </defs>
       <use xlink:href="#DejaVuSans-30"/>
       <use xlink:href="#DejaVuSans-2e" transform="translate(63.623047 0)"/>
       <use xlink:href="#DejaVuSans-36" transform="translate(95.410156 0)"/>
      </g>
     </g>
    </g>
    <g id="xtick_5">
     <g id="line2d_5">
      <path d="M 375.846932 363.457969
L 375.846932 23.077969
" clip-path="url(#p61fb63b652)" style="fill: none; stroke: #cccccc; stroke-width: 1.5; stroke-linecap: round"/>
     </g>
     <g id="text_5">
      <!-- 0.8 -->
      <g style="fill: #262626" transform="translate(368.690526 382.796562) scale(0.09 -0.09)">
       <defs>
        <path id="DejaVuSans-38" d="M 2034 2216
Q 1584 2216 1326 1975
Q 1069 1734 1069 1313
Q 1069 891 1326 650
Q 1584 409 2034 409
Q 2484 409 2743 651
Q 3003 894 3003 1313
Q 3003 1734 2745 1975
Q 2488 2216 2034 2216
z
M 1403 2484
Q 997 2584 770 2862
Q 544 3141 544 3541
Q 544 4100 942 4425
Q 1341 4750 2034 4750
Q 2731 4750 3128 4425
Q 3525 4100 3525 3541
Q 3525 3141 3298 2862
Q 3072 2584 2669 2484
Q 3125 2378 3379 2068
Q 3634 1759 3634 1313
Q 3634 634 3220 271
Q 2806 -91 2034 -91
Q 1263 -91 848 271
Q 434 634 434 1313
Q 434 1759 690 2068
Q 947 2378 1403 2484
z
M 1172 3481
Q 1172 3119 1398 2916
Q 1625 2713 2034 2713
Q 2441 2713 2670 2916
Q 2900 3119 2900 3481
Q 2900 3844 2670 4047
Q 2441 4250 2034 4250
Q 1625 4250 1398 4047
Q 1172 3844 1172 3481
z
" transform="scale(0.015625)"/>
       </defs>
       <use xlink:href="#DejaVuSans-30"/>
       <use xlink:href="#DejaVuSans-2e" transform="translate(63.623047 0)"/>
       <use xlink:href="#DejaVuSans-38" transform="translate(95.410156 0)"/>
      </g>
     </g>
    </g>
    <g id="xtick_6">
     <g id="line2d_6">
      <path d="M 452.832386 363.457969
L 452.832386 23.077969
" clip-path="url(#p61fb63b652)" style="fill: none; stroke: #cccccc; stroke-width: 1.5; stroke-linecap: round"/>
     </g>
     <g id="text_6">
      <!-- 1.0 -->
      <g style="fill: #262626" transform="translate(445.67598 382.796562) scale(0.09 -0.09)">
       <defs>
        <path id="DejaVuSans-31" d="M 794 531
L 1825 531
L 1825 4091
L 703 3866
L 703 4441
L 1819 4666
L 2450 4666
L 2450 531
L 3481 531
L 3481 0
L 794 0
L 794 531
z
" transform="scale(0.015625)"/>
       </defs>
       <use xlink:href="#DejaVuSans-31"/>
       <use xlink:href="#DejaVuSans-2e" transform="translate(63.623047 0)"/>
       <use xlink:href="#DejaVuSans-30" transform="translate(95.410156 0)"/>
      </g>
     </g>
    </g>
    <g id="text_7">
     <!-- Recall (Lie) -->
     <g style="fill: #262626" transform="translate(229.943438 397.026563) scale(0.11 -0.11)">
      <defs>
       <path id="DejaVuSans-52" d="M 2841 2188
Q 3044 2119 3236 1894
Q 3428 1669 3622 1275
L 4263 0
L 3584 0
L 2988 1197
Q 2756 1666 2539 1819
Q 2322 1972 1947 1972
L 1259 1972
L 1259 0
L 628 0
L 628 4666
L 2053 4666
Q 2853 4666 3247 4331
Q 3641 3997 3641 3322
Q 3641 2881 3436 2590
Q 3231 2300 2841 2188
z
M 1259 4147
L 1259 2491
L 2053 2491
Q 2509 2491 2742 2702
Q 2975 2913 2975 3322
Q 2975 3731 2742 3939
Q 2509 4147 2053 4147
L 1259 4147
z
" transform="scale(0.015625)"/>
       <path id="DejaVuSans-65" d="M 3597 1894
L 3597 1613
L 953 1613
Q 991 1019 1311 708
Q 1631 397 2203 397
Q 2534 397 2845 478
Q 3156 559 3463 722
L 3463 178
Q 3153 47 2828 -22
Q 2503 -91 2169 -91
Q 1331 -91 842 396
Q 353 884 353 1716
Q 353 2575 817 3079
Q 1281 3584 2069 3584
Q 2775 3584 3186 3129
Q 3597 2675 3597 1894
z
M 3022 2063
Q 3016 2534 2758 2815
Q 2500 3097 2075 3097
Q 1594 3097 1305 2825
Q 1016 2553 972 2059
L 3022 2063
z
" transform="scale(0.015625)"/>
       <path id="DejaVuSans-63" d="M 3122 3366
L 3122 2828
Q 2878 2963 2633 3030
Q 2388 3097 2138 3097
Q 1578 3097 1268 2742
Q 959 2388 959 1747
Q 959 1106 1268 751
Q 1578 397 2138 397
Q 2388 397 2633 464
Q 2878 531 3122 666
L 3122 134
Q 2881 22 2623 -34
Q 2366 -91 2075 -91
Q 1284 -91 818 406
Q 353 903 353 1747
Q 353 2603 823 3093
Q 1294 3584 2113 3584
Q 2378 3584 2631 3529
Q 2884 3475 3122 3366
z
" transform="scale(0.015625)"/>
       <path id="DejaVuSans-61" d="M 2194 1759
Q 1497 1759 1228 1600
Q 959 1441 959 1056
Q 959 750 1161 570
Q 1363 391 1709 391
Q 2188 391 2477 730
Q 2766 1069 2766 1631
L 2766 1759
L 2194 1759
z
M 3341 1997
L 3341 0
L 2766 0
L 2766 531
Q 2569 213 2275 61
Q 1981 -91 1556 -91
Q 1019 -91 701 211
Q 384 513 384 1019
Q 384 1609 779 1909
Q 1175 2209 1959 2209
L 2766 2209
L 2766 2266
Q 2766 2663 2505 2880
Q 2244 3097 1772 3097
Q 1472 3097 1187 3025
Q 903 2953 641 2809
L 641 3341
Q 956 3463 1253 3523
Q 1550 3584 1831 3584
Q 2591 3584 2966 3190
Q 3341 2797 3341 1997
z
" transform="scale(0.015625)"/>
       <path id="DejaVuSans-6c" d="M 603 4863
L 1178 4863
L 1178 0
L 603 0
L 603 4863
z
" transform="scale(0.015625)"/>
       <path id="DejaVuSans-20" transform="scale(0.015625)"/>
       <path id="DejaVuSans-28" d="M 1984 4856
Q 1566 4138 1362 3434
Q 1159 2731 1159 2009
Q 1159 1288 1364 580
Q 1569 -128 1984 -844
L 1484 -844
Q 1016 -109 783 600
Q 550 1309 550 2009
Q 550 2706 781 3412
Q 1013 4119 1484 4856
L 1984 4856
z
" transform="scale(0.015625)"/>
       <path id="DejaVuSans-4c" d="M 628 4666
L 1259 4666
L 1259 531
L 3531 531
L 3531 0
L 628 0
L 628 4666
z
" transform="scale(0.015625)"/>
       <path id="DejaVuSans-69" d="M 603 3500
L 1178 3500
L 1178 0
L 603 0
L 603 3500
z
M 603 4863
L 1178 4863
L 1178 4134
L 603 4134
L 603 4863
z
" transform="scale(0.015625)"/>
       <path id="DejaVuSans-29" d="M 513 4856
L 1013 4856
Q 1481 4119 1714 3412
Q 1947 2706 1947 2009
Q 1947 1309 1714 600
Q 1481 -109 1013 -844
L 513 -844
Q 928 -128 1133 580
Q 1338 1288 1338 2009
Q 1338 2731 1133 3434
Q 928 4138 513 4856
z
" transform="scale(0.015625)"/>
      </defs>
      <use xlink:href="#DejaVuSans-52"/>
      <use xlink:href="#DejaVuSans-65" transform="translate(64.982422 0)"/>
      <use xlink:href="#DejaVuSans-63" transform="translate(126.505859 0)"/>
      <use xlink:href="#DejaVuSans-61" transform="translate(181.486328 0)"/>
      <use xlink:href="#DejaVuSans-6c" transform="translate(242.765625 0)"/>
      <use xlink:href="#DejaVuSans-6c" transform="translate(270.548828 0)"/>
      <use xlink:href="#DejaVuSans-20" transform="translate(298.332031 0)"/>
      <use xlink:href="#DejaVuSans-28" transform="translate(330.119141 0)"/>
      <use xlink:href="#DejaVuSans-4c" transform="translate(369.132812 0)"/>
      <use xlink:href="#DejaVuSans-69" transform="translate(424.845703 0)"/>
      <use xlink:href="#DejaVuSans-65" transform="translate(452.628906 0)"/>
      <use xlink:href="#DejaVuSans-29" transform="translate(514.152344 0)"/>
     </g>
    </g>
   </g>
   <g id="matplotlib.axis_2">
    <g id="ytick_1">
     <g id="line2d_7">
      <path d="M 48.65875 347.986151
L 472.07875 347.986151
" clip-path="url(#p61fb63b652)" style="fill: none; stroke: #cccccc; stroke-width: 1.5; stroke-linecap: round"/>
     </g>
     <g id="text_8">
      <!-- 0.0 -->
      <g style="fill: #262626" transform="translate(21.845938 351.405447) scale(0.09 -0.09)">
       <use xlink:href="#DejaVuSans-30"/>
       <use xlink:href="#DejaVuSans-2e" transform="translate(63.623047 0)"/>
       <use xlink:href="#DejaVuSans-30" transform="translate(95.410156 0)"/>
      </g>
     </g>
    </g>
    <g id="ytick_2">
     <g id="line2d_8">
      <path d="M 48.65875 286.098878
L 472.07875 286.098878
" clip-path="url(#p61fb63b652)" style="fill: none; stroke: #cccccc; stroke-width: 1.5; stroke-linecap: round"/>
     </g>
     <g id="text_9">
      <!-- 0.2 -->
      <g style="fill: #262626" transform="translate(21.845938 289.518175) scale(0.09 -0.09)">
       <use xlink:href="#DejaVuSans-30"/>
       <use xlink:href="#DejaVuSans-2e" transform="translate(63.623047 0)"/>
       <use xlink:href="#DejaVuSans-32" transform="translate(95.410156 0)"/>
      </g>
     </g>
    </g>
    <g id="ytick_3">
     <g id="line2d_9">
      <path d="M 48.65875 224.211605
L 472.07875 224.211605
" clip-path="url(#p61fb63b652)" style="fill: none; stroke: #cccccc; stroke-width: 1.5; stroke-linecap: round"/>
     </g>
     <g id="text_10">
      <!-- 0.4 -->
      <g style="fill: #262626" transform="translate(21.845938 227.630902) scale(0.09 -0.09)">
       <use xlink:href="#DejaVuSans-30"/>
       <use xlink:href="#DejaVuSans-2e" transform="translate(63.623047 0)"/>
       <use xlink:href="#DejaVuSans-34" transform="translate(95.410156 0)"/>
      </g>
     </g>
    </g>
    <g id="ytick_4">
     <g id="line2d_10">
      <path d="M 48.65875 162.324332
L 472.07875 162.324332
" clip-path="url(#p61fb63b652)" style="fill: none; stroke: #cccccc; stroke-width: 1.5; stroke-linecap: round"/>
     </g>
     <g id="text_11">
      <!-- 0.6 -->
      <g style="fill: #262626" transform="translate(21.845938 165.743629) scale(0.09 -0.09)">
       <use xlink:href="#DejaVuSans-30"/>
       <use xlink:href="#DejaVuSans-2e" transform="translate(63.623047 0)"/>
       <use xlink:href="#DejaVuSans-36" transform="translate(95.410156 0)"/>
      </g>
     </g>
    </g>
    <g id="ytick_5">
     <g id="line2d_11">
      <path d="M 48.65875 100.43706
L 472.07875 100.43706
" clip-path="url(#p61fb63b652)" style="fill: none; stroke: #cccccc; stroke-width: 1.5; stroke-linecap: round"/>
     </g>
     <g id="text_12">
      <!-- 0.8 -->
      <g style="fill: #262626" transform="translate(21.845938 103.856357) scale(0.09 -0.09)">
       <use xlink:href="#DejaVuSans-30"/>
       <use xlink:href="#DejaVuSans-2e" transform="translate(63.623047 0)"/>
       <use xlink:href="#DejaVuSans-38" transform="translate(95.410156 0)"/>
      </g>
     </g>
    </g>
    <g id="ytick_6">
     <g id="line2d_12">
      <path d="M 48.65875 38.549787
L 472.07875 38.549787
" clip-path="url(#p61fb63b652)" style="fill: none; stroke: #cccccc; stroke-width: 1.5; stroke-linecap: round"/>
     </g>
     <g id="text_13">
      <!-- 1.0 -->
      <g style="fill: #262626" transform="translate(21.845938 41.969084) scale(0.09 -0.09)">
       <use xlink:href="#DejaVuSans-31"/>
       <use xlink:href="#DejaVuSans-2e" transform="translate(63.623047 0)"/>
       <use xlink:href="#DejaVuSans-30" transform="translate(95.410156 0)"/>
      </g>
     </g>
    </g>
    <g id="text_14">
     <!-- Precision (Lie) -->
     <g style="fill: #262626" transform="translate(15.558281 231.822109) rotate(-90) scale(0.11 -0.11)">
      <defs>
       <path id="DejaVuSans-50" d="M 1259 4147
L 1259 2394
L 2053 2394
Q 2494 2394 2734 2622
Q 2975 2850 2975 3272
Q 2975 3691 2734 3919
Q 2494 4147 2053 4147
L 1259 4147
z
M 628 4666
L 2053 4666
Q 2838 4666 3239 4311
Q 3641 3956 3641 3272
Q 3641 2581 3239 2228
Q 2838 1875 2053 1875
L 1259 1875
L 1259 0
L 628 0
L 628 4666
z
" transform="scale(0.015625)"/>
       <path id="DejaVuSans-72" d="M 2631 2963
Q 2534 3019 2420 3045
Q 2306 3072 2169 3072
Q 1681 3072 1420 2755
Q 1159 2438 1159 1844
L 1159 0
L 581 0
L 581 3500
L 1159 3500
L 1159 2956
Q 1341 3275 1631 3429
Q 1922 3584 2338 3584
Q 2397 3584 2469 3576
Q 2541 3569 2628 3553
L 2631 2963
z
" transform="scale(0.015625)"/>
       <path id="DejaVuSans-73" d="M 2834 3397
L 2834 2853
Q 2591 2978 2328 3040
Q 2066 3103 1784 3103
Q 1356 3103 1142 2972
Q 928 2841 928 2578
Q 928 2378 1081 2264
Q 1234 2150 1697 2047
L 1894 2003
Q 2506 1872 2764 1633
Q 3022 1394 3022 966
Q 3022 478 2636 193
Q 2250 -91 1575 -91
Q 1294 -91 989 -36
Q 684 19 347 128
L 347 722
Q 666 556 975 473
Q 1284 391 1588 391
Q 1994 391 2212 530
Q 2431 669 2431 922
Q 2431 1156 2273 1281
Q 2116 1406 1581 1522
L 1381 1569
Q 847 1681 609 1914
Q 372 2147 372 2553
Q 372 3047 722 3315
Q 1072 3584 1716 3584
Q 2034 3584 2315 3537
Q 2597 3491 2834 3397
z
" transform="scale(0.015625)"/>
       <path id="DejaVuSans-6f" d="M 1959 3097
Q 1497 3097 1228 2736
Q 959 2375 959 1747
Q 959 1119 1226 758
Q 1494 397 1959 397
Q 2419 397 2687 759
Q 2956 1122 2956 1747
Q 2956 2369 2687 2733
Q 2419 3097 1959 3097
z
M 1959 3584
Q 2709 3584 3137 3096
Q 3566 2609 3566 1747
Q 3566 888 3137 398
Q 2709 -91 1959 -91
Q 1206 -91 779 398
Q 353 888 353 1747
Q 353 2609 779 3096
Q 1206 3584 1959 3584
z
" transform="scale(0.015625)"/>
       <path id="DejaVuSans-6e" d="M 3513 2113
L 3513 0
L 2938 0
L 2938 2094
Q 2938 2591 2744 2837
Q 2550 3084 2163 3084
Q 1697 3084 1428 2787
Q 1159 2491 1159 1978
L 1159 0
L 581 0
L 581 3500
L 1159 3500
L 1159 2956
Q 1366 3272 1645 3428
Q 1925 3584 2291 3584
Q 2894 3584 3203 3211
Q 3513 2838 3513 2113
z
" transform="scale(0.015625)"/>
      </defs>
      <use xlink:href="#DejaVuSans-50"/>
      <use xlink:href="#DejaVuSans-72" transform="translate(58.552734 0)"/>
      <use xlink:href="#DejaVuSans-65" transform="translate(97.416016 0)"/>
      <use xlink:href="#DejaVuSans-63" transform="translate(158.939453 0)"/>
      <use xlink:href="#DejaVuSans-69" transform="translate(213.919922 0)"/>
      <use xlink:href="#DejaVuSans-73" transform="translate(241.703125 0)"/>
      <use xlink:href="#DejaVuSans-69" transform="translate(293.802734 0)"/>
      <use xlink:href="#DejaVuSans-6f" transform="translate(321.585938 0)"/>
      <use xlink:href="#DejaVuSans-6e" transform="translate(382.767578 0)"/>
      <use xlink:href="#DejaVuSans-20" transform="translate(446.146484 0)"/>
      <use xlink:href="#DejaVuSans-28" transform="translate(477.933594 0)"/>
      <use xlink:href="#DejaVuSans-4c" transform="translate(516.947266 0)"/>
      <use xlink:href="#DejaVuSans-69" transform="translate(572.660156 0)"/>
      <use xlink:href="#DejaVuSans-65" transform="translate(600.443359 0)"/>
      <use xlink:href="#DejaVuSans-29" transform="translate(661.966797 0)"/>
     </g>
    </g>
   </g>
   <g id="line2d_13">
    <path d="M 452.832386 184.612406
L 452.832386 183.577667
L 452.322549 183.6798
L 452.322549 183.564009
L 451.812711 183.666276
L 451.812711 183.084819
L 450.283199 183.39234
L 450.283199 183.158542
L 449.263524 183.364244
L 449.263524 183.12974
L 448.753687 183.232791
L 448.753687 182.525189
L 448.243849 182.628323
L 448.243849 181.794986
L 447.224174 182.00154
L 447.224174 181.761851
L 446.714337 181.865328
L 446.714337 181.745212
L 446.2045 181.848827
L 446.2045 181.728524
L 445.694662 181.832277
L 445.694662 181.591125
L 445.184825 181.695004
L 445.184825 181.210543
L 444.16515 181.418655
L 444.16515 181.297073
L 443.655312 181.401344
L 443.655312 180.790696
L 443.145475 180.895055
L 443.145475 180.772374
L 442.635637 180.876873
L 442.635637 180.260688
L 442.1258 180.365272
L 442.1258 180.241475
L 438.556938 180.977809
L 438.556938 180.853731
L 438.0471 180.959533
L 438.0471 180.835258
L 436.517588 181.15357
L 436.517588 180.654445
L 436.007751 180.76081
L 436.007751 180.510098
L 435.497913 180.616595
L 435.497913 180.239069
L 434.988076 180.345683
L 434.988076 179.585408
L 433.458563 179.905944
L 433.458563 179.778514
L 432.438888 179.992984
L 432.438888 179.86533
L 431.929051 179.972794
L 431.929051 179.331522
L 430.909376 179.546784
L 430.909376 179.288837
L 430.399539 179.396683
L 430.399539 179.267397
L 429.889701 179.375392
L 429.889701 179.11619
L 429.379864 179.224318
L 429.379864 179.094402
L 428.870026 179.202679
L 428.870026 179.072546
L 427.850351 179.289569
L 427.850351 178.897859
L 427.340514 179.006572
L 427.340514 178.87558
L 426.830677 178.984444
L 426.830677 178.590194
L 426.320839 178.699175
L 426.320839 178.435283
L 425.811002 178.544398
L 425.811002 178.279645
L 425.301164 178.388894
L 425.301164 178.256189
L 424.791327 178.365591
L 424.791327 178.23266
L 424.281489 178.342215
L 424.281489 178.209056
L 422.751977 178.5387
L 422.751977 178.405277
L 421.222465 178.736427
L 421.222465 178.334727
L 420.712627 178.445403
L 420.712627 178.311061
L 420.20279 178.421894
L 420.20279 177.746877
L 419.692952 177.857791
L 419.692952 177.722123
L 419.183115 177.833194
L 419.183115 176.602184
L 418.673277 176.713248
L 418.673277 176.575347
L 418.16344 176.686568
L 418.16344 175.714852
L 417.143765 175.937523
L 417.143765 175.657769
L 416.633928 175.76933
L 416.633928 175.347918
L 416.12409 175.45959
L 416.12409 175.036039
L 415.614253 175.147821
L 415.614253 174.579741
L 413.574903 175.028315
L 413.574903 174.74267
L 413.065065 174.855226
L 413.065065 173.847815
L 412.555228 173.960375
L 412.555228 173.670332
L 411.535553 173.895909
L 411.535553 173.75047
L 409.496203 174.203784
L 409.496203 173.911958
L 408.986366 174.025707
L 408.986366 173.732845
L 406.947016 174.189544
L 406.947016 174.042633
L 406.437179 174.157263
L 406.437179 174.010075
L 405.927341 174.124872
L 405.927341 173.681725
L 405.417504 173.796633
L 405.417504 173.648387
L 404.907666 173.763462
L 404.907666 173.614935
L 403.378154 173.961255
L 403.378154 173.663268
L 402.358479 173.895023
L 402.358479 173.445949
L 401.338804 173.678328
L 401.338804 173.528063
L 400.319129 173.761186
L 400.319129 173.610603
L 399.299454 173.844474
L 399.299454 173.087336
L 398.789617 173.204427
L 398.789617 173.052178
L 397.769942 173.286912
L 397.769942 172.981494
L 397.260105 173.099107
L 397.260105 172.792556
L 396.750267 172.910313
L 396.750267 172.602623
L 396.24043 172.720523
L 396.24043 172.56624
L 395.220755 172.802601
L 395.220755 172.337923
L 394.710917 172.45632
L 394.710917 172.300846
L 394.20108 172.419419
L 394.20108 170.849055
L 393.691242 170.967497
L 393.691242 170.649974
L 393.181405 170.768556
L 393.181405 170.290021
L 392.671568 170.408706
L 392.671568 170.248582
L 392.16173 170.367444
L 392.16173 170.206993
L 391.651893 170.326032
L 391.651893 170.165254
L 391.142055 170.284471
L 391.142055 170.123363
L 390.632218 170.242758
L 390.632218 170.08132
L 389.102705 170.440696
L 389.102705 170.116708
L 386.553518 170.719673
L 386.553518 170.067358
L 385.533843 170.309787
L 385.533843 168.99
L 385.024006 169.111227
L 385.024006 168.944831
L 382.984656 169.431834
L 382.984656 169.264961
L 382.474819 169.387239
L 382.474819 169.220012
L 381.455144 169.465172
L 381.455144 169.297546
L 379.925631 169.66689
L 379.925631 169.330439
L 379.415794 169.453933
L 379.415794 169.116124
L 378.396119 169.363643
L 378.396119 168.854263
L 377.886282 168.978245
L 377.886282 168.465817
L 376.866607 168.714223
L 376.866607 168.542671
L 376.356769 168.667185
L 376.356769 168.495259
L 375.846932 168.619967
L 375.846932 168.447665
L 374.827257 168.697709
L 374.827257 168.524984
L 374.317419 168.650322
L 374.317419 168.477218
L 372.787907 168.854548
L 372.787907 167.983285
L 371.768232 168.235592
L 371.768232 167.884517
L 370.748557 168.137618
L 370.748557 167.430944
L 370.23872 167.557671
L 370.23872 167.380084
L 369.728882 167.50701
L 369.728882 166.073214
L 369.219045 166.199977
L 369.219045 166.019095
L 368.19937 166.273271
L 368.19937 166.091921
L 367.689533 166.219336
L 367.689533 165.672942
L 366.669858 165.92821
L 366.669858 165.745237
L 366.16002 165.8732
L 366.16002 165.506037
L 363.610833 166.149179
L 363.610833 165.96476
L 363.100996 166.094115
L 363.100996 165.352456
L 362.081321 165.611501
L 362.081321 165.425024
L 360.551808 165.815409
L 360.551808 165.628376
L 360.041971 165.758981
L 360.041971 165.571504
L 359.532134 165.702319
L 359.532134 165.514398
L 356.473109 166.304634
L 356.473109 165.73747
L 355.963271 165.869957
L 355.963271 165.680055
L 354.943596 165.94574
L 354.943596 165.755321
L 354.433759 165.888521
L 354.433759 164.737219
L 352.904247 165.13739
L 352.904247 164.555687
L 351.374734 164.957833
L 351.374734 164.567581
L 346.786197 165.788421
L 346.786197 165.592087
L 345.256685 166.004116
L 345.256685 165.807166
L 342.19766 166.638913
L 342.19766 166.044332
L 341.177985 166.323619
L 341.177985 166.124428
L 340.668148 166.264466
L 340.668148 165.261587
L 340.158311 165.4016
L 340.158311 165.199626
L 339.138636 165.480446
L 339.138636 165.277887
L 338.118961 165.559818
L 338.118961 164.744505
L 337.609123 164.885662
L 337.609123 164.680623
L 337.099286 164.822025
L 337.099286 164.616454
L 336.589448 164.758102
L 336.589448 164.551996
L 335.059936 164.97864
L 335.059936 164.771852
L 334.040261 165.057745
L 334.040261 164.434126
L 332.510749 164.864745
L 332.510749 164.655702
L 331.491074 164.944274
L 331.491074 164.102702
L 329.451724 164.682623
L 329.451724 164.470712
L 328.941887 164.616454
L 328.941887 164.191002
L 328.432049 164.336927
L 328.432049 164.123381
L 327.922212 164.269567
L 327.922212 163.410074
L 327.412374 163.55628
L 327.412374 163.340067
L 326.902537 163.486535
L 326.902537 162.834593
L 326.392699 162.981155
L 326.392699 162.762731
L 325.882862 162.909555
L 325.882862 162.690529
L 324.863187 162.985051
L 324.863187 162.545096
L 320.784488 163.735927
L 320.784488 163.292485
L 320.27465 163.442777
L 320.27465 163.220167
L 318.745138 163.672965
L 318.745138 163.449556
L 315.686113 164.364572
L 315.686113 164.140096
L 315.176276 164.293817
L 315.176276 163.843038
L 314.666438 163.996961
L 314.666438 163.770652
L 313.136926 164.234433
L 313.136926 164.007299
L 311.097576 164.63069
L 311.097576 164.402636
L 309.568064 164.873995
L 309.568064 164.185604
L 307.528714 164.81853
L 307.528714 164.587549
L 307.018876 164.746688
L 307.018876 163.816538
L 305.489364 164.295265
L 305.489364 163.826067
L 304.979527 163.986267
L 304.979527 163.277666
L 304.469689 163.437985
L 304.469689 162.962346
L 303.959852 163.122878
L 303.959852 162.884036
L 303.450014 163.044883
L 303.450014 162.805322
L 302.430339 163.128063
L 302.430339 162.887676
L 301.410665 163.211894
L 301.410665 162.243222
L 300.900827 162.405549
L 300.900827 161.426232
L 300.39099 161.588552
L 300.39099 161.341995
L 299.371315 161.667703
L 299.371315 161.172176
L 298.861477 161.335455
L 298.861477 160.586855
L 298.35164 160.750225
L 298.35164 160.499239
L 296.31229 161.156648
L 296.31229 160.651703
L 295.802453 160.816929
L 295.802453 160.309007
L 294.782778 160.640325
L 294.782778 160.385085
L 293.253265 160.885093
L 293.253265 160.628791
L 292.743428 160.796252
L 292.743428 160.539123
L 291.213916 161.043906
L 291.213916 160.006778
L 290.704078 160.175469
L 290.704078 158.862107
L 290.194241 159.030612
L 290.194241 158.765597
L 289.684403 158.93444
L 289.684403 158.668544
L 289.174566 158.837725
L 289.174566 158.570943
L 288.664728 158.740465
L 288.664728 158.472791
L 287.135216 158.983826
L 287.135216 158.445358
L 286.625379 158.616393
L 286.625379 158.074563
L 285.095866 158.589756
L 285.095866 157.494979
L 282.546679 158.360664
L 282.546679 158.084242
L 280.507329 158.785324
L 280.507329 158.228851
L 279.997492 158.405109
L 279.997492 158.125491
L 279.487654 158.302117
L 279.487654 158.021519
L 278.977817 158.198514
L 278.977817 157.634509
L 278.467979 157.811719
L 278.467979 157.244034
L 277.958142 157.421454
L 277.958142 157.136178
L 276.938467 157.492293
L 276.938467 156.918516
L 274.899117 157.635903
L 274.899117 157.347056
L 272.859767 158.072535
L 272.859767 157.49087
L 271.330255 158.039829
L 271.330255 157.747154
L 270.31058 158.115615
L 270.31058 157.526869
L 269.800743 157.711616
L 269.800743 157.4157
L 269.290905 157.600849
L 269.290905 156.407211
L 268.781068 156.59223
L 268.781068 156.291296
L 266.741718 157.036496
L 266.741718 155.820256
L 263.172856 157.142145
L 263.172856 156.834332
L 262.153181 157.21713
L 262.153181 156.907942
L 261.643344 157.100082
L 261.643344 156.789698
L 261.133506 156.982271
L 261.133506 156.044445
L 260.623669 156.23706
L 260.623669 155.606306
L 258.074481 156.576924
L 258.074481 156.258968
L 255.015457 157.44396
L 255.015457 156.480003
L 254.505619 156.67921
L 254.505619 156.355509
L 253.995782 156.55518
L 253.995782 155.904054
L 252.976107 156.304581
L 252.976107 155.97692
L 252.46627 156.177994
L 252.46627 155.848992
L 249.917082 156.863691
L 249.917082 156.532456
L 247.877733 157.35607
L 247.877733 157.0228
L 247.367895 157.230284
L 247.367895 156.559789
L 245.838383 157.185283
L 245.838383 156.847583
L 245.328545 157.05733
L 245.328545 156.377868
L 243.289196 157.222514
L 243.289196 156.88003
L 242.779358 157.092854
L 242.779358 156.403709
L 242.269521 156.616826
L 242.269521 155.572994
L 241.759683 155.786151
L 241.759683 155.435421
L 241.249846 155.649106
L 241.249846 153.155848
L 239.720333 153.796105
L 239.720333 153.070161
L 235.641634 154.80861
L 235.641634 154.441353
L 234.112121 155.106123
L 234.112121 154.3657
L 233.092447 154.812004
L 233.092447 154.439081
L 232.072772 154.888265
L 232.072772 154.136911
L 231.053097 154.588423
L 231.053097 154.209954
L 230.543259 154.436739
L 230.543259 154.056485
L 229.013747 154.741307
L 229.013747 153.974462
L 225.444885 155.600162
L 225.444885 154.822845
L 223.405535 155.770079
L 223.405535 155.377802
L 222.895698 155.616714
L 222.895698 154.030162
L 221.876023 154.508341
L 221.876023 154.106935
L 221.366185 154.347179
L 221.366185 153.538665
L 218.816998 154.751628
L 218.816998 153.932838
L 217.797323 154.423829
L 217.797323 154.011117
L 217.287486 154.257829
L 217.287486 153.426377
L 214.228461 154.924767
L 214.228461 154.504154
L 213.718624 154.75733
L 213.718624 153.909835
L 213.208786 154.163373
L 213.208786 152.444324
L 211.679274 153.207011
L 211.679274 152.771263
L 210.659599 153.284618
L 210.659599 152.846101
L 210.149761 153.104107
L 210.149761 152.220288
L 209.130087 152.738149
L 209.130087 151.844565
L 207.090737 152.891168
L 207.090737 152.43956
L 206.580899 152.703805
L 206.580899 152.24966
L 205.051387 153.048488
L 205.051387 152.590888
L 204.54155 152.85922
L 204.54155 152.399015
L 204.031712 152.668162
L 204.031712 151.740286
L 203.521875 152.009787
L 203.521875 151.542063
L 200.46285 153.183597
L 200.46285 152.235653
L 199.953012 152.512935
L 199.953012 152.035006
L 198.933338 152.592673
L 198.933338 151.141731
L 197.913663 151.70189
L 197.913663 150.720469
L 197.403825 151.001598
L 197.403825 149.509291
L 196.38415 150.072537
L 196.38415 149.56894
L 194.344801 150.710525
L 194.344801 150.202083
L 192.305451 151.365128
L 192.305451 150.851757
L 191.795613 151.145741
L 191.795613 149.062774
L 191.285776 149.355912
L 191.285776 148.296551
L 189.756264 149.181605
L 189.756264 148.645744
L 187.207076 150.149787
L 187.207076 149.607769
L 186.697239 149.912874
L 186.697239 148.818546
L 185.677564 149.431151
L 185.677564 148.878073
L 184.657889 149.496158
L 184.657889 148.377905
L 183.128377 149.31394
L 183.128377 148.747922
L 182.108702 149.37943
L 182.108702 148.234723
L 180.579189 149.191277
L 180.579189 148.028734
L 180.069352 148.349787
L 180.069352 147.171991
L 178.53984 148.141832
L 178.53984 146.94516
L 176.50049 148.259043
L 176.50049 145.808404
L 174.970978 146.804614
L 174.970978 145.551146
L 174.46114 145.885526
L 174.46114 143.972901
L 172.931628 144.980129
L 172.931628 144.331547
L 171.402115 145.355241
L 171.402115 144.039456
L 170.382441 144.728931
L 170.382441 144.062514
L 167.833253 145.82106
L 167.833253 145.144922
L 166.303741 146.225278
L 166.303741 145.541343
L 165.793904 145.90526
L 165.793904 145.215564
L 165.284066 145.580858
L 165.284066 144.885307
L 164.264391 145.621193
L 164.264391 139.116605
L 163.754554 139.47706
L 163.754554 138.727027
L 162.734879 139.452949
L 162.734879 137.161375
L 162.225041 137.523918
L 162.225041 135.964938
L 161.205366 136.691917
L 161.205366 135.900553
L 160.185692 136.635276
L 160.185692 135.834704
L 156.616829 138.484488
L 156.616829 137.666122
L 156.106992 138.054814
L 156.106992 137.228312
L 155.597155 137.618346
L 155.597155 136.783553
L 155.087317 137.174923
L 155.087317 135.48166
L 154.57748 135.872514
L 154.57748 135.013755
L 152.53813 136.601639
L 152.53813 135.728149
L 149.479105 138.198785
L 149.479105 137.306073
L 148.969268 137.728109
L 148.969268 136.825714
L 146.420081 138.980887
L 146.420081 137.131283
L 145.910243 137.569423
L 145.910243 135.682278
L 142.341381 138.83009
L 142.341381 134.883749
L 140.811869 136.266533
L 140.811869 135.248651
L 140.302031 135.715795
L 140.302031 134.685356
L 139.792194 135.15431
L 139.792194 134.111017
L 137.752844 136.022241
L 137.752844 134.957096
L 136.733169 135.935851
L 136.733169 131.541026
L 134.183982 134.014197
L 134.183982 132.869962
L 133.674144 133.37706
L 133.674144 129.858878
L 133.164307 130.360576
L 133.164307 129.158225
L 131.634795 130.685333
L 131.634795 129.457645
L 130.61512 130.496592
L 130.61512 127.982262
L 130.105282 128.502218
L 130.105282 125.920054
L 128.57577 127.48958
L 128.57577 126.161287
L 126.53642 128.324534
L 126.53642 126.960177
L 126.026583 127.512741
L 126.026583 126.126116
L 122.967558 129.560482
L 122.967558 128.123471
L 122.45772 128.716674
L 122.45772 127.254878
L 121.438046 128.453595
L 121.438046 123.911542
L 120.928208 124.504332
L 120.928208 121.356701
L 119.908533 122.539657
L 119.908533 120.91774
L 117.359346 123.991171
L 117.359346 122.306998
L 116.849509 122.941522
L 116.849509 121.223625
L 113.790484 125.191969
L 112.770809 126.600785
L 112.770809 117.220049
L 111.241297 119.272317
L 111.241297 117.266055
L 110.731459 117.962659
L 110.731459 115.908878
L 109.201947 118.038027
L 109.201947 115.908878
L 106.65276 119.664174
L 105.633085 121.270399
L 105.633085 119.003241
L 104.103572 121.491493
L 104.103572 119.132173
L 102.064223 122.635755
L 102.064223 120.159377
L 99.515035 124.904121
L 99.005198 125.920054
L 99.005198 123.27641
L 98.49536 124.297213
L 98.49536 121.569299
L 96.456011 125.82671
L 95.946173 126.960177
L 95.946173 114.849164
L 95.436336 115.908878
L 95.436336 112.640184
L 93.906823 115.908878
L 93.906823 112.445038
L 91.867474 117.1368
L 91.867474 113.413423
L 91.357636 114.640696
L 91.357636 110.751605
L 90.847799 111.975365
L 90.847799 107.906213
L 89.318286 111.689291
L 89.318286 107.313423
L 87.788774 111.358343
L 86.259262 115.908878
L 86.259262 110.971064
L 84.729749 115.908878
L 84.219912 117.707926
L 84.219912 112.225112
L 83.200237 115.908878
L 83.200237 109.958179
L 82.6904 111.837347
L 82.6904 105.454947
L 81.160887 111.358343
L 80.65105 113.564663
L 80.65105 106.238991
L 79.121537 113.241323
L 78.101863 118.774029
L 78.101863 109.958179
L 77.082188 115.908878
L 76.062513 122.941522
L 75.042838 131.380696
L 74.533 136.266533
L 74.533 124.504332
L 74.023163 129.560482
L 74.023163 115.908878
L 73.003488 126.960177
L 72.493651 133.760976
L 72.493651 115.908878
L 71.473976 131.380696
L 70.964138 141.695241
L 70.964138 115.908878
L 70.454301 126.960177
L 69.944463 141.695241
L 69.944463 100.43706
L 69.434626 115.908878
L 68.924789 141.695241
L 68.414951 193.267969
L 67.905114 347.986151
L 67.905114 38.549787
L 67.905114 38.549787
" clip-path="url(#p61fb63b652)" style="fill: none; stroke: #d9853b; stroke-width: 2.5; stroke-linecap: round"/>
   </g>
   <g id="line2d_14">
    <path d="M 48.65875 184.612406
L 472.07875 184.612406
" clip-path="url(#p61fb63b652)" style="fill: none; stroke-dasharray: 3.7,1.6; stroke-dashoffset: 0; stroke: #6c757d"/>
   </g>
   <g id="patch_3">
    <path d="M 48.65875 363.457969
L 48.65875 23.077969
" style="fill: none; stroke: #cccccc; stroke-width: 1.875; stroke-linejoin: miter; stroke-linecap: square"/>
   </g>
   <g id="patch_4">
    <path d="M 48.65875 363.457969
L 472.07875 363.457969
" style="fill: none; stroke: #cccccc; stroke-width: 1.875; stroke-linejoin: miter; stroke-linecap: square"/>
   </g>
   <g id="text_15">
    <!-- DOLOS Final Ensemble Precision-Recall Curve -->
    <g style="fill: #262626" transform="translate(93.257813 17.077969) scale(0.13 -0.13)">
     <defs>
      <path id="DejaVuSans-Bold-44" d="M 1791 3756
L 1791 909
L 2222 909
Q 2959 909 3348 1275
Q 3738 1641 3738 2338
Q 3738 3031 3350 3393
Q 2963 3756 2222 3756
L 1791 3756
z
M 588 4666
L 1856 4666
Q 2919 4666 3439 4514
Q 3959 4363 4331 4000
Q 4659 3684 4818 3271
Q 4978 2859 4978 2338
Q 4978 1809 4818 1395
Q 4659 981 4331 666
Q 3956 303 3431 151
Q 2906 0 1856 0
L 588 0
L 588 4666
z
" transform="scale(0.015625)"/>
      <path id="DejaVuSans-Bold-4f" d="M 2719 3878
Q 2169 3878 1866 3472
Q 1563 3066 1563 2328
Q 1563 1594 1866 1187
Q 2169 781 2719 781
Q 3272 781 3575 1187
Q 3878 1594 3878 2328
Q 3878 3066 3575 3472
Q 3272 3878 2719 3878
z
M 2719 4750
Q 3844 4750 4481 4106
Q 5119 3463 5119 2328
Q 5119 1197 4481 553
Q 3844 -91 2719 -91
Q 1597 -91 958 553
Q 319 1197 319 2328
Q 319 3463 958 4106
Q 1597 4750 2719 4750
z
" transform="scale(0.015625)"/>
      <path id="DejaVuSans-Bold-4c" d="M 588 4666
L 1791 4666
L 1791 909
L 3903 909
L 3903 0
L 588 0
L 588 4666
z
" transform="scale(0.015625)"/>
      <path id="DejaVuSans-Bold-53" d="M 3834 4519
L 3834 3531
Q 3450 3703 3084 3790
Q 2719 3878 2394 3878
Q 1963 3878 1756 3759
Q 1550 3641 1550 3391
Q 1550 3203 1689 3098
Q 1828 2994 2194 2919
L 2706 2816
Q 3484 2659 3812 2340
Q 4141 2022 4141 1434
Q 4141 663 3683 286
Q 3225 -91 2284 -91
Q 1841 -91 1394 -6
Q 947 78 500 244
L 500 1259
Q 947 1022 1364 901
Q 1781 781 2169 781
Q 2563 781 2772 912
Q 2981 1044 2981 1288
Q 2981 1506 2839 1625
Q 2697 1744 2272 1838
L 1806 1941
Q 1106 2091 782 2419
Q 459 2747 459 3303
Q 459 4000 909 4375
Q 1359 4750 2203 4750
Q 2588 4750 2994 4692
Q 3400 4634 3834 4519
z
" transform="scale(0.015625)"/>
      <path id="DejaVuSans-Bold-20" transform="scale(0.015625)"/>
      <path id="DejaVuSans-Bold-46" d="M 588 4666
L 3834 4666
L 3834 3756
L 1791 3756
L 1791 2888
L 3713 2888
L 3713 1978
L 1791 1978
L 1791 0
L 588 0
L 588 4666
z
" transform="scale(0.015625)"/>
      <path id="DejaVuSans-Bold-69" d="M 538 3500
L 1656 3500
L 1656 0
L 538 0
L 538 3500
z
M 538 4863
L 1656 4863
L 1656 3950
L 538 3950
L 538 4863
z
" transform="scale(0.015625)"/>
      <path id="DejaVuSans-Bold-6e" d="M 4056 2131
L 4056 0
L 2931 0
L 2931 347
L 2931 1631
Q 2931 2084 2911 2256
Q 2891 2428 2841 2509
Q 2775 2619 2662 2680
Q 2550 2741 2406 2741
Q 2056 2741 1856 2470
Q 1656 2200 1656 1722
L 1656 0
L 538 0
L 538 3500
L 1656 3500
L 1656 2988
Q 1909 3294 2193 3439
Q 2478 3584 2822 3584
Q 3428 3584 3742 3212
Q 4056 2841 4056 2131
z
" transform="scale(0.015625)"/>
      <path id="DejaVuSans-Bold-61" d="M 2106 1575
Q 1756 1575 1579 1456
Q 1403 1338 1403 1106
Q 1403 894 1545 773
Q 1688 653 1941 653
Q 2256 653 2472 879
Q 2688 1106 2688 1447
L 2688 1575
L 2106 1575
z
M 3816 1997
L 3816 0
L 2688 0
L 2688 519
Q 2463 200 2181 54
Q 1900 -91 1497 -91
Q 953 -91 614 226
Q 275 544 275 1050
Q 275 1666 698 1953
Q 1122 2241 2028 2241
L 2688 2241
L 2688 2328
Q 2688 2594 2478 2717
Q 2269 2841 1825 2841
Q 1466 2841 1156 2769
Q 847 2697 581 2553
L 581 3406
Q 941 3494 1303 3539
Q 1666 3584 2028 3584
Q 2975 3584 3395 3211
Q 3816 2838 3816 1997
z
" transform="scale(0.015625)"/>
      <path id="DejaVuSans-Bold-6c" d="M 538 4863
L 1656 4863
L 1656 0
L 538 0
L 538 4863
z
" transform="scale(0.015625)"/>
      <path id="DejaVuSans-Bold-45" d="M 588 4666
L 3834 4666
L 3834 3756
L 1791 3756
L 1791 2888
L 3713 2888
L 3713 1978
L 1791 1978
L 1791 909
L 3903 909
L 3903 0
L 588 0
L 588 4666
z
" transform="scale(0.015625)"/>
      <path id="DejaVuSans-Bold-73" d="M 3272 3391
L 3272 2541
Q 2913 2691 2578 2766
Q 2244 2841 1947 2841
Q 1628 2841 1473 2761
Q 1319 2681 1319 2516
Q 1319 2381 1436 2309
Q 1553 2238 1856 2203
L 2053 2175
Q 2913 2066 3209 1816
Q 3506 1566 3506 1031
Q 3506 472 3093 190
Q 2681 -91 1863 -91
Q 1516 -91 1145 -36
Q 775 19 384 128
L 384 978
Q 719 816 1070 734
Q 1422 653 1784 653
Q 2113 653 2278 743
Q 2444 834 2444 1013
Q 2444 1163 2330 1236
Q 2216 1309 1875 1350
L 1678 1375
Q 931 1469 631 1722
Q 331 1975 331 2491
Q 331 3047 712 3315
Q 1094 3584 1881 3584
Q 2191 3584 2531 3537
Q 2872 3491 3272 3391
z
" transform="scale(0.015625)"/>
      <path id="DejaVuSans-Bold-65" d="M 4031 1759
L 4031 1441
L 1416 1441
Q 1456 1047 1700 850
Q 1944 653 2381 653
Q 2734 653 3104 758
Q 3475 863 3866 1075
L 3866 213
Q 3469 63 3072 -14
Q 2675 -91 2278 -91
Q 1328 -91 801 392
Q 275 875 275 1747
Q 275 2603 792 3093
Q 1309 3584 2216 3584
Q 3041 3584 3536 3087
Q 4031 2591 4031 1759
z
M 2881 2131
Q 2881 2450 2695 2645
Q 2509 2841 2209 2841
Q 1884 2841 1681 2658
Q 1478 2475 1428 2131
L 2881 2131
z
" transform="scale(0.015625)"/>
      <path id="DejaVuSans-Bold-6d" d="M 3781 2919
Q 3994 3244 4286 3414
Q 4578 3584 4928 3584
Q 5531 3584 5847 3212
Q 6163 2841 6163 2131
L 6163 0
L 5038 0
L 5038 1825
Q 5041 1866 5042 1909
Q 5044 1953 5044 2034
Q 5044 2406 4934 2573
Q 4825 2741 4581 2741
Q 4263 2741 4089 2478
Q 3916 2216 3909 1719
L 3909 0
L 2784 0
L 2784 1825
Q 2784 2406 2684 2573
Q 2584 2741 2328 2741
Q 2006 2741 1831 2477
Q 1656 2213 1656 1722
L 1656 0
L 531 0
L 531 3500
L 1656 3500
L 1656 2988
Q 1863 3284 2130 3434
Q 2397 3584 2719 3584
Q 3081 3584 3359 3409
Q 3638 3234 3781 2919
z
" transform="scale(0.015625)"/>
      <path id="DejaVuSans-Bold-62" d="M 2400 722
Q 2759 722 2948 984
Q 3138 1247 3138 1747
Q 3138 2247 2948 2509
Q 2759 2772 2400 2772
Q 2041 2772 1848 2508
Q 1656 2244 1656 1747
Q 1656 1250 1848 986
Q 2041 722 2400 722
z
M 1656 2988
Q 1888 3294 2169 3439
Q 2450 3584 2816 3584
Q 3463 3584 3878 3070
Q 4294 2556 4294 1747
Q 4294 938 3878 423
Q 3463 -91 2816 -91
Q 2450 -91 2169 54
Q 1888 200 1656 506
L 1656 0
L 538 0
L 538 4863
L 1656 4863
L 1656 2988
z
" transform="scale(0.015625)"/>
      <path id="DejaVuSans-Bold-50" d="M 588 4666
L 2584 4666
Q 3475 4666 3951 4270
Q 4428 3875 4428 3144
Q 4428 2409 3951 2014
Q 3475 1619 2584 1619
L 1791 1619
L 1791 0
L 588 0
L 588 4666
z
M 1791 3794
L 1791 2491
L 2456 2491
Q 2806 2491 2997 2661
Q 3188 2831 3188 3144
Q 3188 3456 2997 3625
Q 2806 3794 2456 3794
L 1791 3794
z
" transform="scale(0.015625)"/>
      <path id="DejaVuSans-Bold-72" d="M 3138 2547
Q 2991 2616 2845 2648
Q 2700 2681 2553 2681
Q 2122 2681 1889 2404
Q 1656 2128 1656 1613
L 1656 0
L 538 0
L 538 3500
L 1656 3500
L 1656 2925
Q 1872 3269 2151 3426
Q 2431 3584 2822 3584
Q 2878 3584 2943 3579
Q 3009 3575 3134 3559
L 3138 2547
z
" transform="scale(0.015625)"/>
      <path id="DejaVuSans-Bold-63" d="M 3366 3391
L 3366 2478
Q 3138 2634 2908 2709
Q 2678 2784 2431 2784
Q 1963 2784 1702 2511
Q 1441 2238 1441 1747
Q 1441 1256 1702 982
Q 1963 709 2431 709
Q 2694 709 2930 787
Q 3166 866 3366 1019
L 3366 103
Q 3103 6 2833 -42
Q 2563 -91 2291 -91
Q 1344 -91 809 395
Q 275 881 275 1747
Q 275 2613 809 3098
Q 1344 3584 2291 3584
Q 2566 3584 2833 3536
Q 3100 3488 3366 3391
z
" transform="scale(0.015625)"/>
      <path id="DejaVuSans-Bold-6f" d="M 2203 2784
Q 1831 2784 1636 2517
Q 1441 2250 1441 1747
Q 1441 1244 1636 976
Q 1831 709 2203 709
Q 2569 709 2762 976
Q 2956 1244 2956 1747
Q 2956 2250 2762 2517
Q 2569 2784 2203 2784
z
M 2203 3584
Q 3106 3584 3614 3096
Q 4122 2609 4122 1747
Q 4122 884 3614 396
Q 3106 -91 2203 -91
Q 1297 -91 786 396
Q 275 884 275 1747
Q 275 2609 786 3096
Q 1297 3584 2203 3584
z
" transform="scale(0.015625)"/>
      <path id="DejaVuSans-Bold-2d" d="M 347 2297
L 2309 2297
L 2309 1388
L 347 1388
L 347 2297
z
" transform="scale(0.015625)"/>
      <path id="DejaVuSans-Bold-52" d="M 2297 2597
Q 2675 2597 2839 2737
Q 3003 2878 3003 3200
Q 3003 3519 2839 3656
Q 2675 3794 2297 3794
L 1791 3794
L 1791 2597
L 2297 2597
z
M 1791 1766
L 1791 0
L 588 0
L 588 4666
L 2425 4666
Q 3347 4666 3776 4356
Q 4206 4047 4206 3378
Q 4206 2916 3982 2619
Q 3759 2322 3309 2181
Q 3556 2125 3751 1926
Q 3947 1728 4147 1325
L 4800 0
L 3519 0
L 2950 1159
Q 2778 1509 2601 1637
Q 2425 1766 2131 1766
L 1791 1766
z
" transform="scale(0.015625)"/>
      <path id="DejaVuSans-Bold-43" d="M 4288 256
Q 3956 84 3597 -3
Q 3238 -91 2847 -91
Q 1681 -91 1000 561
Q 319 1213 319 2328
Q 319 3447 1000 4098
Q 1681 4750 2847 4750
Q 3238 4750 3597 4662
Q 3956 4575 4288 4403
L 4288 3438
Q 3953 3666 3628 3772
Q 3303 3878 2944 3878
Q 2300 3878 1931 3465
Q 1563 3053 1563 2328
Q 1563 1606 1931 1193
Q 2300 781 2944 781
Q 3303 781 3628 887
Q 3953 994 4288 1222
L 4288 256
z
" transform="scale(0.015625)"/>
      <path id="DejaVuSans-Bold-75" d="M 500 1363
L 500 3500
L 1625 3500
L 1625 3150
Q 1625 2866 1622 2436
Q 1619 2006 1619 1863
Q 1619 1441 1641 1255
Q 1663 1069 1716 984
Q 1784 875 1895 815
Q 2006 756 2150 756
Q 2500 756 2700 1025
Q 2900 1294 2900 1772
L 2900 3500
L 4019 3500
L 4019 0
L 2900 0
L 2900 506
Q 2647 200 2364 54
Q 2081 -91 1741 -91
Q 1134 -91 817 281
Q 500 653 500 1363
z
" transform="scale(0.015625)"/>
      <path id="DejaVuSans-Bold-76" d="M 97 3500
L 1216 3500
L 2088 1081
L 2956 3500
L 4078 3500
L 2700 0
L 1472 0
L 97 3500
z
" transform="scale(0.015625)"/>
     </defs>
     <use xlink:href="#DejaVuSans-Bold-44"/>
     <use xlink:href="#DejaVuSans-Bold-4f" transform="translate(83.007812 0)"/>
     <use xlink:href="#DejaVuSans-Bold-4c" transform="translate(168.017578 0)"/>
     <use xlink:href="#DejaVuSans-Bold-4f" transform="translate(228.113281 0)"/>
     <use xlink:href="#DejaVuSans-Bold-53" transform="translate(313.123047 0)"/>
     <use xlink:href="#DejaVuSans-Bold-20" transform="translate(385.144531 0)"/>
     <use xlink:href="#DejaVuSans-Bold-46" transform="translate(419.958984 0)"/>
     <use xlink:href="#DejaVuSans-Bold-69" transform="translate(488.269531 0)"/>
     <use xlink:href="#DejaVuSans-Bold-6e" transform="translate(522.546875 0)"/>
     <use xlink:href="#DejaVuSans-Bold-61" transform="translate(593.738281 0)"/>
     <use xlink:href="#DejaVuSans-Bold-6c" transform="translate(661.21875 0)"/>
     <use xlink:href="#DejaVuSans-Bold-20" transform="translate(695.496094 0)"/>
     <use xlink:href="#DejaVuSans-Bold-45" transform="translate(730.310547 0)"/>
     <use xlink:href="#DejaVuSans-Bold-6e" transform="translate(798.621094 0)"/>
     <use xlink:href="#DejaVuSans-Bold-73" transform="translate(869.8125 0)"/>
     <use xlink:href="#DejaVuSans-Bold-65" transform="translate(929.333984 0)"/>
     <use xlink:href="#DejaVuSans-Bold-6d" transform="translate(997.15625 0)"/>
     <use xlink:href="#DejaVuSans-Bold-62" transform="translate(1101.355469 0)"/>
     <use xlink:href="#DejaVuSans-Bold-6c" transform="translate(1172.9375 0)"/>
     <use xlink:href="#DejaVuSans-Bold-65" transform="translate(1207.214844 0)"/>
     <use xlink:href="#DejaVuSans-Bold-20" transform="translate(1275.037109 0)"/>
     <use xlink:href="#DejaVuSans-Bold-50" transform="translate(1309.851562 0)"/>
     <use xlink:href="#DejaVuSans-Bold-72" transform="translate(1383.142578 0)"/>
     <use xlink:href="#DejaVuSans-Bold-65" transform="translate(1432.458984 0)"/>
     <use xlink:href="#DejaVuSans-Bold-63" transform="translate(1500.28125 0)"/>
     <use xlink:href="#DejaVuSans-Bold-69" transform="translate(1559.558594 0)"/>
     <use xlink:href="#DejaVuSans-Bold-73" transform="translate(1593.835938 0)"/>
     <use xlink:href="#DejaVuSans-Bold-69" transform="translate(1653.357422 0)"/>
     <use xlink:href="#DejaVuSans-Bold-6f" transform="translate(1687.634766 0)"/>
     <use xlink:href="#DejaVuSans-Bold-6e" transform="translate(1756.335938 0)"/>
     <use xlink:href="#DejaVuSans-Bold-2d" transform="translate(1827.527344 0)"/>
     <use xlink:href="#DejaVuSans-Bold-52" transform="translate(1869.03125 0)"/>
     <use xlink:href="#DejaVuSans-Bold-65" transform="translate(1946.033203 0)"/>
     <use xlink:href="#DejaVuSans-Bold-63" transform="translate(2013.855469 0)"/>
     <use xlink:href="#DejaVuSans-Bold-61" transform="translate(2073.132812 0)"/>
     <use xlink:href="#DejaVuSans-Bold-6c" transform="translate(2140.613281 0)"/>
     <use xlink:href="#DejaVuSans-Bold-6c" transform="translate(2174.890625 0)"/>
     <use xlink:href="#DejaVuSans-Bold-20" transform="translate(2209.167969 0)"/>
     <use xlink:href="#DejaVuSans-Bold-43" transform="translate(2243.982422 0)"/>
     <use xlink:href="#DejaVuSans-Bold-75" transform="translate(2317.371094 0)"/>
     <use xlink:href="#DejaVuSans-Bold-72" transform="translate(2388.5625 0)"/>
     <use xlink:href="#DejaVuSans-Bold-76" transform="translate(2437.878906 0)"/>
     <use xlink:href="#DejaVuSans-Bold-65" transform="translate(2503.064453 0)"/>
    </g>
   </g>
   <g id="legend_1">
    <g id="patch_5">
     <path d="M 54.95875 358.957969
L 156.924531 358.957969
Q 158.724531 358.957969 158.724531 357.157969
L 158.724531 331.637344
Q 158.724531 329.837344 156.924531 329.837344
L 54.95875 329.837344
Q 53.15875 329.837344 53.15875 331.637344
L 53.15875 357.157969
Q 53.15875 358.957969 54.95875 358.957969
z
" style="fill: #ffffff; opacity: 0.8; stroke: #cccccc; stroke-width: 1.5; stroke-linejoin: miter"/>
    </g>
    <g id="line2d_15">
     <path d="M 56.75875 337.125938
L 65.75875 337.125938
L 74.75875 337.125938
" style="fill: none; stroke: #d9853b; stroke-width: 2.5; stroke-linecap: round"/>
    </g>
    <g id="text_16">
     <!-- AP=62.93 -->
     <g style="fill: #262626" transform="translate(81.95875 340.275937) scale(0.09 -0.09)">
      <defs>
       <path id="DejaVuSans-41" d="M 2188 4044
L 1331 1722
L 3047 1722
L 2188 4044
z
M 1831 4666
L 2547 4666
L 4325 0
L 3669 0
L 3244 1197
L 1141 1197
L 716 0
L 50 0
L 1831 4666
z
" transform="scale(0.015625)"/>
       <path id="DejaVuSans-3d" d="M 678 2906
L 4684 2906
L 4684 2381
L 678 2381
L 678 2906
z
M 678 1631
L 4684 1631
L 4684 1100
L 678 1100
L 678 1631
z
" transform="scale(0.015625)"/>
       <path id="DejaVuSans-39" d="M 703 97
L 703 672
Q 941 559 1184 500
Q 1428 441 1663 441
Q 2288 441 2617 861
Q 2947 1281 2994 2138
Q 2813 1869 2534 1725
Q 2256 1581 1919 1581
Q 1219 1581 811 2004
Q 403 2428 403 3163
Q 403 3881 828 4315
Q 1253 4750 1959 4750
Q 2769 4750 3195 4129
Q 3622 3509 3622 2328
Q 3622 1225 3098 567
Q 2575 -91 1691 -91
Q 1453 -91 1209 -44
Q 966 3 703 97
z
M 1959 2075
Q 2384 2075 2632 2365
Q 2881 2656 2881 3163
Q 2881 3666 2632 3958
Q 2384 4250 1959 4250
Q 1534 4250 1286 3958
Q 1038 3666 1038 3163
Q 1038 2656 1286 2365
Q 1534 2075 1959 2075
z
" transform="scale(0.015625)"/>
       <path id="DejaVuSans-33" d="M 2597 2516
Q 3050 2419 3304 2112
Q 3559 1806 3559 1356
Q 3559 666 3084 287
Q 2609 -91 1734 -91
Q 1441 -91 1130 -33
Q 819 25 488 141
L 488 750
Q 750 597 1062 519
Q 1375 441 1716 441
Q 2309 441 2620 675
Q 2931 909 2931 1356
Q 2931 1769 2642 2001
Q 2353 2234 1838 2234
L 1294 2234
L 1294 2753
L 1863 2753
Q 2328 2753 2575 2939
Q 2822 3125 2822 3475
Q 2822 3834 2567 4026
Q 2313 4219 1838 4219
Q 1578 4219 1281 4162
Q 984 4106 628 3988
L 628 4550
Q 988 4650 1302 4700
Q 1616 4750 1894 4750
Q 2613 4750 3031 4423
Q 3450 4097 3450 3541
Q 3450 3153 3228 2886
Q 3006 2619 2597 2516
z
" transform="scale(0.015625)"/>
      </defs>
      <use xlink:href="#DejaVuSans-41"/>
      <use xlink:href="#DejaVuSans-50" transform="translate(68.408203 0)"/>
      <use xlink:href="#DejaVuSans-3d" transform="translate(128.710938 0)"/>
      <use xlink:href="#DejaVuSans-36" transform="translate(212.5 0)"/>
      <use xlink:href="#DejaVuSans-32" transform="translate(276.123047 0)"/>
      <use xlink:href="#DejaVuSans-2e" transform="translate(339.746094 0)"/>
      <use xlink:href="#DejaVuSans-39" transform="translate(371.533203 0)"/>
      <use xlink:href="#DejaVuSans-33" transform="translate(435.15625 0)"/>
     </g>
    </g>
    <g id="line2d_16">
     <path d="M 56.75875 350.33625
L 65.75875 350.33625
L 74.75875 350.33625
" style="fill: none; stroke-dasharray: 3.7,1.6; stroke-dashoffset: 0; stroke: #6c757d"/>
    </g>
    <g id="text_17">
     <!-- Lie prior=52.8% -->
     <g style="fill: #262626" transform="translate(81.95875 353.48625) scale(0.09 -0.09)">
      <defs>
       <path id="DejaVuSans-70" d="M 1159 525
L 1159 -1331
L 581 -1331
L 581 3500
L 1159 3500
L 1159 2969
Q 1341 3281 1617 3432
Q 1894 3584 2278 3584
Q 2916 3584 3314 3078
Q 3713 2572 3713 1747
Q 3713 922 3314 415
Q 2916 -91 2278 -91
Q 1894 -91 1617 61
Q 1341 213 1159 525
z
M 3116 1747
Q 3116 2381 2855 2742
Q 2594 3103 2138 3103
Q 1681 3103 1420 2742
Q 1159 2381 1159 1747
Q 1159 1113 1420 752
Q 1681 391 2138 391
Q 2594 391 2855 752
Q 3116 1113 3116 1747
z
" transform="scale(0.015625)"/>
       <path id="DejaVuSans-35" d="M 691 4666
L 3169 4666
L 3169 4134
L 1269 4134
L 1269 2991
Q 1406 3038 1543 3061
Q 1681 3084 1819 3084
Q 2600 3084 3056 2656
Q 3513 2228 3513 1497
Q 3513 744 3044 326
Q 2575 -91 1722 -91
Q 1428 -91 1123 -41
Q 819 9 494 109
L 494 744
Q 775 591 1075 516
Q 1375 441 1709 441
Q 2250 441 2565 725
Q 2881 1009 2881 1497
Q 2881 1984 2565 2268
Q 2250 2553 1709 2553
Q 1456 2553 1204 2497
Q 953 2441 691 2322
L 691 4666
z
" transform="scale(0.015625)"/>
       <path id="DejaVuSans-25" d="M 4653 2053
Q 4381 2053 4226 1822
Q 4072 1591 4072 1178
Q 4072 772 4226 539
Q 4381 306 4653 306
Q 4919 306 5073 539
Q 5228 772 5228 1178
Q 5228 1588 5073 1820
Q 4919 2053 4653 2053
z
M 4653 2450
Q 5147 2450 5437 2106
Q 5728 1763 5728 1178
Q 5728 594 5436 251
Q 5144 -91 4653 -91
Q 4153 -91 3862 251
Q 3572 594 3572 1178
Q 3572 1766 3864 2108
Q 4156 2450 4653 2450
z
M 1428 4353
Q 1159 4353 1004 4120
Q 850 3888 850 3481
Q 850 3069 1003 2837
Q 1156 2606 1428 2606
Q 1700 2606 1854 2837
Q 2009 3069 2009 3481
Q 2009 3884 1853 4118
Q 1697 4353 1428 4353
z
M 4250 4750
L 4750 4750
L 1831 -91
L 1331 -91
L 4250 4750
z
M 1428 4750
Q 1922 4750 2215 4408
Q 2509 4066 2509 3481
Q 2509 2891 2217 2550
Q 1925 2209 1428 2209
Q 931 2209 642 2551
Q 353 2894 353 3481
Q 353 4063 643 4406
Q 934 4750 1428 4750
z
" transform="scale(0.015625)"/>
      </defs>
      <use xlink:href="#DejaVuSans-4c"/>
      <use xlink:href="#DejaVuSans-69" transform="translate(55.712891 0)"/>
      <use xlink:href="#DejaVuSans-65" transform="translate(83.496094 0)"/>
      <use xlink:href="#DejaVuSans-20" transform="translate(145.019531 0)"/>
      <use xlink:href="#DejaVuSans-70" transform="translate(176.806641 0)"/>
      <use xlink:href="#DejaVuSans-72" transform="translate(240.283203 0)"/>
      <use xlink:href="#DejaVuSans-69" transform="translate(281.396484 0)"/>
      <use xlink:href="#DejaVuSans-6f" transform="translate(309.179688 0)"/>
      <use xlink:href="#DejaVuSans-72" transform="translate(370.361328 0)"/>
      <use xlink:href="#DejaVuSans-3d" transform="translate(411.474609 0)"/>
      <use xlink:href="#DejaVuSans-35" transform="translate(495.263672 0)"/>
      <use xlink:href="#DejaVuSans-32" transform="translate(558.886719 0)"/>
      <use xlink:href="#DejaVuSans-2e" transform="translate(622.509766 0)"/>
      <use xlink:href="#DejaVuSans-38" transform="translate(654.296875 0)"/>
      <use xlink:href="#DejaVuSans-25" transform="translate(717.919922 0)"/>
     </g>
    </g>
   </g>
  </g>
 </g>
 <defs>
  <clipPath id="p61fb63b652">
   <rect x="48.65875" y="23.077969" width="423.42" height="340.38"/>
  </clipPath>
 </defs>
</svg>
