<?xml version="1.0" encoding="utf-8" standalone="no"?>
<!DOCTYPE svg PUBLIC "-//W3C//DTD SVG 1.1//EN"
  "http://www.w3.org/Graphics/SVG/1.1/DTD/svg11.dtd">
<svg xmlns:xlink="http://www.w3.org/1999/xlink" width="479.27875pt" height="406.514219pt" viewBox="0 0 479.27875 406.514219" xmlns="http://www.w3.org/2000/svg" version="1.1">
 <metadata>
  <rdf:RDF xmlns:dc="http://purl.org/dc/elements/1.1/" xmlns:cc="http://creativecommons.org/ns#" xmlns:rdf="http://www.w3.org/1999/02/22-rdf-syntax-ns#">
   <cc:Work>
    <dc:type rdf:resource="http://purl.org/dc/dcmitype/StillImage"/>
    <dc:date>2026-05-21T22:19:09.552516</dc:date>
    <dc:format>image/svg+xml</dc:format>
    <dc:creator>
     <cc:Agent>
      <dc:title>Matplotlib v3.10.9, https://matplotlib.org/</dc:title>
     </cc:Agent>
    </dc:creator>
   </cc:Work>
  </rdf:RDF>
 </metadata>
 <defs>
  <style type="text/css">*{stroke-linejoin: round; stroke-linecap: butt}</style>
 </defs>
 <g id="figure_1">
  <g id="patch_1">
   <path d="M 0 406.514219
L 479.27875 406.514219
L 479.27875 0
L 0 0
z
" style="fill: #ffffff"/>
  </g>
  <g id="axes_1">
   <g id="patch_2">
    <path d="M 48.65875 363.457969
L 472.07875 363.457969
L 472.07875 23.077969
L 48.65875 23.077969
z
" style="fill: #ffffff"/>
   </g>
   <g id="matplotlib.axis_1">
    <g id="xtick_1">
     <g id="line2d_1">
      <path d="M 67.905114 363.457969
L 67.905114 23.077969
" clip-path="url(#p4b2b430399)" style="fill: none; stroke: #cccccc; stroke-width: 1.5; stroke-linecap: round"/>
     </g>
     <g id="text_1">
      <!-- 0.0 -->
      <g style="fill: #262626" transform="translate(60.748707 382.796562) scale(0.09 -0.09)">
       <defs>
        <path id="DejaVuSans-30" d="M 2034 4250
Q 1547 4250 1301 3770
Q 1056 3291 1056 2328
Q 1056 1369 1301 889
Q 1547 409 2034 409
Q 2525 409 2770 889
Q 3016 1369 3016 2328
Q 3016 3291 2770 3770
Q 2525 4250 2034 4250
z
M 2034 4750
Q 2819 4750 3233 4129
Q 3647 3509 3647 2328
Q 3647 1150 3233 529
Q 2819 -91 2034 -91
Q 1250 -91 836 529
Q 422 1150 422 2328
Q 422 3509 836 4129
Q 1250 4750 2034 4750
z
" transform="scale(0.015625)"/>
        <path id="DejaVuSans-2e" d="M 684 794
L 1344 794
L 1344 0
L 684 0
L 684 794
z
" transform="scale(0.015625)"/>
       </defs>
       <use xlink:href="#DejaVuSans-30"/>
       <use xlink:href="#DejaVuSans-2e" transform="translate(63.623047 0)"/>
       <use xlink:href="#DejaVuSans-30" transform="translate(95.410156 0)"/>
      </g>
     </g>
    </g>
    <g id="xtick_2">
     <g id="line2d_2">
      <path d="M 144.890568 363.457969
L 144.890568 23.077969
" clip-path="url(#p4b2b430399)" style="fill: none; stroke: #cccccc; stroke-width: 1.5; stroke-linecap: round"/>
     </g>
     <g id="text_2">
      <!-- 0.2 -->
      <g style="fill: #262626" transform="translate(137.734162 382.796562) scale(0.09 -0.09)">
       <defs>
        <path id="DejaVuSans-32" d="M 1228 531
L 3431 531
L 3431 0
L 469 0
L 469 531
Q 828 903 1448 1529
Q 2069 2156 2228 2338
Q 2531 2678 2651 2914
Q 2772 3150 2772 3378
Q 2772 3750 2511 3984
Q 2250 4219 1831 4219
Q 1534 4219 1204 4116
Q 875 4013 500 3803
L 500 4441
Q 881 4594 1212 4672
Q 1544 4750 1819 4750
Q 2544 4750 2975 4387
Q 3406 4025 3406 3419
Q 3406 3131 3298 2873
Q 3191 2616 2906 2266
Q 2828 2175 2409 1742
Q 1991 1309 1228 531
z
" transform="scale(0.015625)"/>
       </defs>
       <use xlink:href="#DejaVuSans-30"/>
       <use xlink:href="#DejaVuSans-2e" transform="translate(63.623047 0)"/>
       <use xlink:href="#DejaVuSans-32" transform="translate(95.410156 0)"/>
      </g>
     </g>
    </g>
    <g id="xtick_3">
     <g id="line2d_3">
      <path d="M 221.876023 363.457969
L 221.876023 23.077969
" clip-path="url(#p4b2b430399)" style="fill: none; stroke: #cccccc; stroke-width: 1.5; stroke-linecap: round"/>
     </g>
     <g id="text_3">
      <!-- 0.4 -->
      <g style="fill: #262626" transform="translate(214.719616 382.796562) scale(0.09 -0.09)">
       <defs>
        <path id="DejaVuSans-34" d="M 2419 4116
L 825 1625
L 2419 1625
L 2419 4116
z
M 2253 4666
L 3047 4666
L 3047 1625
L 3713 1625
L 3713 1100
L 3047 1100
L 3047 0
L 2419 0
L 2419 1100
L 313 1100
L 313 1709
L 2253 4666
z
" transform="scale(0.015625)"/>
       </defs>
       <use xlink:href="#DejaVuSans-30"/>
       <use xlink:href="#DejaVuSans-2e" transform="translate(63.623047 0)"/>
       <use xlink:href="#DejaVuSans-34" transform="translate(95.410156 0)"/>
      </g>
     </g>
    </g>
    <g id="xtick_4">
     <g id="line2d_4">
      <path d="M 298.861477 363.457969
L 298.861477 23.077969
" clip-path="url(#p4b2b430399)" style="fill: none; stroke: #cccccc; stroke-width: 1.5; stroke-linecap: round"/>
     </g>
     <g id="text_4">
      <!-- 0.6 -->
      <g style="fill: #262626" transform="translate(291.705071 382.796562) scale(0.09 -0.09)">
       <defs>
        <path id="DejaVuSans-36" d="M 2113 2584
Q 1688 2584 1439 2293
Q 1191 2003 1191 1497
Q 1191 994 1439 701
Q 1688 409 2113 409
Q 2538 409 2786 701
Q 3034 994 3034 1497
Q 3034 2003 2786 2293
Q 2538 2584 2113 2584
z
M 3366 4563
L 3366 3988
Q 3128 4100 2886 4159
Q 2644 4219 2406 4219
Q 1781 4219 1451 3797
Q 1122 3375 1075 2522
Q 1259 2794 1537 2939
Q 1816 3084 2150 3084
Q 2853 3084 3261 2657
Q 3669 2231 3669 1497
Q 3669 778 3244 343
Q 2819 -91 2113 -91
Q 1303 -91 875 529
Q 447 1150 447 2328
Q 447 3434 972 4092
Q 1497 4750 2381 4750
Q 2619 4750 2861 4703
Q 3103 4656 3366 4563
z
" transform="scale(0.015625)"/>
       </defs>
       <use xlink:href="#DejaVuSans-30"/>
       <use xlink:href="#DejaVuSans-2e" transform="translate(63.623047 0)"/>
       <use xlink:href="#DejaVuSans-36" transform="translate(95.410156 0)"/>
      </g>
     </g>
    </g>
    <g id="xtick_5">
     <g id="line2d_5">
      <path d="M 375.846932 363.457969
L 375.846932 23.077969
" clip-path="url(#p4b2b430399)" style="fill: none; stroke: #cccccc; stroke-width: 1.5; stroke-linecap: round"/>
     </g>
     <g id="text_5">
      <!-- 0.8 -->
      <g style="fill: #262626" transform="translate(368.690526 382.796562) scale(0.09 -0.09)">
       <defs>
        <path id="DejaVuSans-38" d="M 2034 2216
Q 1584 2216 1326 1975
Q 1069 1734 1069 1313
Q 1069 891 1326 650
Q 1584 409 2034 409
Q 2484 409 2743 651
Q 3003 894 3003 1313
Q 3003 1734 2745 1975
Q 2488 2216 2034 2216
z
M 1403 2484
Q 997 2584 770 2862
Q 544 3141 544 3541
Q 544 4100 942 4425
Q 1341 4750 2034 4750
Q 2731 4750 3128 4425
Q 3525 4100 3525 3541
Q 3525 3141 3298 2862
Q 3072 2584 2669 2484
Q 3125 2378 3379 2068
Q 3634 1759 3634 1313
Q 3634 634 3220 271
Q 2806 -91 2034 -91
Q 1263 -91 848 271
Q 434 634 434 1313
Q 434 1759 690 2068
Q 947 2378 1403 2484
z
M 1172 3481
Q 1172 3119 1398 2916
Q 1625 2713 2034 2713
Q 2441 2713 2670 2916
Q 2900 3119 2900 3481
Q 2900 3844 2670 4047
Q 2441 4250 2034 4250
Q 1625 4250 1398 4047
Q 1172 3844 1172 3481
z
" transform="scale(0.015625)"/>
       </defs>
       <use xlink:href="#DejaVuSans-30"/>
       <use xlink:href="#DejaVuSans-2e" transform="translate(63.623047 0)"/>
       <use xlink:href="#DejaVuSans-38" transform="translate(95.410156 0)"/>
      </g>
     </g>
    </g>
    <g id="xtick_6">
     <g id="line2d_6">
      <path d="M 452.832386 363.457969
L 452.832386 23.077969
" clip-path="url(#p4b2b430399)" style="fill: none; stroke: #cccccc; stroke-width: 1.5; stroke-linecap: round"/>
     </g>
     <g id="text_6">
      <!-- 1.0 -->
      <g style="fill: #262626" transform="translate(445.67598 382.796562) scale(0.09 -0.09)">
       <defs>
        <path id="DejaVuSans-31" d="M 794 531
L 1825 531
L 1825 4091
L 703 3866
L 703 4441
L 1819 4666
L 2450 4666
L 2450 531
L 3481 531
L 3481 0
L 794 0
L 794 531
z
" transform="scale(0.015625)"/>
       </defs>
       <use xlink:href="#DejaVuSans-31"/>
       <use xlink:href="#DejaVuSans-2e" transform="translate(63.623047 0)"/>
       <use xlink:href="#DejaVuSans-30" transform="translate(95.410156 0)"/>
      </g>
     </g>
    </g>
    <g id="text_7">
     <!-- False positive rate -->
     <g style="fill: #262626" transform="translate(210.317891 397.026563) scale(0.11 -0.11)">
      <defs>
       <path id="DejaVuSans-46" d="M 628 4666
L 3309 4666
L 3309 4134
L 1259 4134
L 1259 2759
L 3109 2759
L 3109 2228
L 1259 2228
L 1259 0
L 628 0
L 628 4666
z
" transform="scale(0.015625)"/>
       <path id="DejaVuSans-61" d="M 2194 1759
Q 1497 1759 1228 1600
Q 959 1441 959 1056
Q 959 750 1161 570
Q 1363 391 1709 391
Q 2188 391 2477 730
Q 2766 1069 2766 1631
L 2766 1759
L 2194 1759
z
M 3341 1997
L 3341 0
L 2766 0
L 2766 531
Q 2569 213 2275 61
Q 1981 -91 1556 -91
Q 1019 -91 701 211
Q 384 513 384 1019
Q 384 1609 779 1909
Q 1175 2209 1959 2209
L 2766 2209
L 2766 2266
Q 2766 2663 2505 2880
Q 2244 3097 1772 3097
Q 1472 3097 1187 3025
Q 903 2953 641 2809
L 641 3341
Q 956 3463 1253 3523
Q 1550 3584 1831 3584
Q 2591 3584 2966 3190
Q 3341 2797 3341 1997
z
" transform="scale(0.015625)"/>
       <path id="DejaVuSans-6c" d="M 603 4863
L 1178 4863
L 1178 0
L 603 0
L 603 4863
z
" transform="scale(0.015625)"/>
       <path id="DejaVuSans-73" d="M 2834 3397
L 2834 2853
Q 2591 2978 2328 3040
Q 2066 3103 1784 3103
Q 1356 3103 1142 2972
Q 928 2841 928 2578
Q 928 2378 1081 2264
Q 1234 2150 1697 2047
L 1894 2003
Q 2506 1872 2764 1633
Q 3022 1394 3022 966
Q 3022 478 2636 193
Q 2250 -91 1575 -91
Q 1294 -91 989 -36
Q 684 19 347 128
L 347 722
Q 666 556 975 473
Q 1284 391 1588 391
Q 1994 391 2212 530
Q 2431 669 2431 922
Q 2431 1156 2273 1281
Q 2116 1406 1581 1522
L 1381 1569
Q 847 1681 609 1914
Q 372 2147 372 2553
Q 372 3047 722 3315
Q 1072 3584 1716 3584
Q 2034 3584 2315 3537
Q 2597 3491 2834 3397
z
" transform="scale(0.015625)"/>
       <path id="DejaVuSans-65" d="M 3597 1894
L 3597 1613
L 953 1613
Q 991 1019 1311 708
Q 1631 397 2203 397
Q 2534 397 2845 478
Q 3156 559 3463 722
L 3463 178
Q 3153 47 2828 -22
Q 2503 -91 2169 -91
Q 1331 -91 842 396
Q 353 884 353 1716
Q 353 2575 817 3079
Q 1281 3584 2069 3584
Q 2775 3584 3186 3129
Q 3597 2675 3597 1894
z
M 3022 2063
Q 3016 2534 2758 2815
Q 2500 3097 2075 3097
Q 1594 3097 1305 2825
Q 1016 2553 972 2059
L 3022 2063
z
" transform="scale(0.015625)"/>
       <path id="DejaVuSans-20" transform="scale(0.015625)"/>
       <path id="DejaVuSans-70" d="M 1159 525
L 1159 -1331
L 581 -1331
L 581 3500
L 1159 3500
L 1159 2969
Q 1341 3281 1617 3432
Q 1894 3584 2278 3584
Q 2916 3584 3314 3078
Q 3713 2572 3713 1747
Q 3713 922 3314 415
Q 2916 -91 2278 -91
Q 1894 -91 1617 61
Q 1341 213 1159 525
z
M 3116 1747
Q 3116 2381 2855 2742
Q 2594 3103 2138 3103
Q 1681 3103 1420 2742
Q 1159 2381 1159 1747
Q 1159 1113 1420 752
Q 1681 391 2138 391
Q 2594 391 2855 752
Q 3116 1113 3116 1747
z
" transform="scale(0.015625)"/>
       <path id="DejaVuSans-6f" d="M 1959 3097
Q 1497 3097 1228 2736
Q 959 2375 959 1747
Q 959 1119 1226 758
Q 1494 397 1959 397
Q 2419 397 2687 759
Q 2956 1122 2956 1747
Q 2956 2369 2687 2733
Q 2419 3097 1959 3097
z
M 1959 3584
Q 2709 3584 3137 3096
Q 3566 2609 3566 1747
Q 3566 888 3137 398
Q 2709 -91 1959 -91
Q 1206 -91 779 398
Q 353 888 353 1747
Q 353 2609 779 3096
Q 1206 3584 1959 3584
z
" transform="scale(0.015625)"/>
       <path id="DejaVuSans-69" d="M 603 3500
L 1178 3500
L 1178 0
L 603 0
L 603 3500
z
M 603 4863
L 1178 4863
L 1178 4134
L 603 4134
L 603 4863
z
" transform="scale(0.015625)"/>
       <path id="DejaVuSans-74" d="M 1172 4494
L 1172 3500
L 2356 3500
L 2356 3053
L 1172 3053
L 1172 1153
Q 1172 725 1289 603
Q 1406 481 1766 481
L 2356 481
L 2356 0
L 1766 0
Q 1100 0 847 248
Q 594 497 594 1153
L 594 3053
L 172 3053
L 172 3500
L 594 3500
L 594 4494
L 1172 4494
z
" transform="scale(0.015625)"/>
       <path id="DejaVuSans-76" d="M 191 3500
L 800 3500
L 1894 563
L 2988 3500
L 3597 3500
L 2284 0
L 1503 0
L 191 3500
z
" transform="scale(0.015625)"/>
       <path id="DejaVuSans-72" d="M 2631 2963
Q 2534 3019 2420 3045
Q 2306 3072 2169 3072
Q 1681 3072 1420 2755
Q 1159 2438 1159 1844
L 1159 0
L 581 0
L 581 3500
L 1159 3500
L 1159 2956
Q 1341 3275 1631 3429
Q 1922 3584 2338 3584
Q 2397 3584 2469 3576
Q 2541 3569 2628 3553
L 2631 2963
z
" transform="scale(0.015625)"/>
      </defs>
      <use xlink:href="#DejaVuSans-46"/>
      <use xlink:href="#DejaVuSans-61" transform="translate(48.394531 0)"/>
      <use xlink:href="#DejaVuSans-6c" transform="translate(109.673828 0)"/>
      <use xlink:href="#DejaVuSans-73" transform="translate(137.457031 0)"/>
      <use xlink:href="#DejaVuSans-65" transform="translate(189.556641 0)"/>
      <use xlink:href="#DejaVuSans-20" transform="translate(251.080078 0)"/>
      <use xlink:href="#DejaVuSans-70" transform="translate(282.867188 0)"/>
      <use xlink:href="#DejaVuSans-6f" transform="translate(346.34375 0)"/>
      <use xlink:href="#DejaVuSans-73" transform="translate(407.525391 0)"/>
      <use xlink:href="#DejaVuSans-69" transform="translate(459.625 0)"/>
      <use xlink:href="#DejaVuSans-74" transform="translate(487.408203 0)"/>
      <use xlink:href="#DejaVuSans-69" transform="translate(526.617188 0)"/>
      <use xlink:href="#DejaVuSans-76" transform="translate(554.400391 0)"/>
      <use xlink:href="#DejaVuSans-65" transform="translate(613.580078 0)"/>
      <use xlink:href="#DejaVuSans-20" transform="translate(675.103516 0)"/>
      <use xlink:href="#DejaVuSans-72" transform="translate(706.890625 0)"/>
      <use xlink:href="#DejaVuSans-61" transform="translate(748.003906 0)"/>
      <use xlink:href="#DejaVuSans-74" transform="translate(809.283203 0)"/>
      <use xlink:href="#DejaVuSans-65" transform="translate(848.492188 0)"/>
     </g>
    </g>
   </g>
   <g id="matplotlib.axis_2">
    <g id="ytick_1">
     <g id="line2d_7">
      <path d="M 48.65875 347.986151
L 472.07875 347.986151
" clip-path="url(#p4b2b430399)" style="fill: none; stroke: #cccccc; stroke-width: 1.5; stroke-linecap: round"/>
     </g>
     <g id="text_8">
      <!-- 0.0 -->
      <g style="fill: #262626" transform="translate(21.845938 351.405447) scale(0.09 -0.09)">
       <use xlink:href="#DejaVuSans-30"/>
       <use xlink:href="#DejaVuSans-2e" transform="translate(63.623047 0)"/>
       <use xlink:href="#DejaVuSans-30" transform="translate(95.410156 0)"/>
      </g>
     </g>
    </g>
    <g id="ytick_2">
     <g id="line2d_8">
      <path d="M 48.65875 286.098878
L 472.07875 286.098878
" clip-path="url(#p4b2b430399)" style="fill: none; stroke: #cccccc; stroke-width: 1.5; stroke-linecap: round"/>
     </g>
     <g id="text_9">
      <!-- 0.2 -->
      <g style="fill: #262626" transform="translate(21.845938 289.518175) scale(0.09 -0.09)">
       <use xlink:href="#DejaVuSans-30"/>
       <use xlink:href="#DejaVuSans-2e" transform="translate(63.623047 0)"/>
       <use xlink:href="#DejaVuSans-32" transform="translate(95.410156 0)"/>
      </g>
     </g>
    </g>
    <g id="ytick_3">
     <g id="line2d_9">
      <path d="M 48.65875 224.211605
L 472.07875 224.211605
" clip-path="url(#p4b2b430399)" style="fill: none; stroke: #cccccc; stroke-width: 1.5; stroke-linecap: round"/>
     </g>
     <g id="text_10">
      <!-- 0.4 -->
      <g style="fill: #262626" transform="translate(21.845938 227.630902) scale(0.09 -0.09)">
       <use xlink:href="#DejaVuSans-30"/>
       <use xlink:href="#DejaVuSans-2e" transform="translate(63.623047 0)"/>
       <use xlink:href="#DejaVuSans-34" transform="translate(95.410156 0)"/>
      </g>
     </g>
    </g>
    <g id="ytick_4">
     <g id="line2d_10">
      <path d="M 48.65875 162.324332
L 472.07875 162.324332
" clip-path="url(#p4b2b430399)" style="fill: none; stroke: #cccccc; stroke-width: 1.5; stroke-linecap: round"/>
     </g>
     <g id="text_11">
      <!-- 0.6 -->
      <g style="fill: #262626" transform="translate(21.845938 165.743629) scale(0.09 -0.09)">
       <use xlink:href="#DejaVuSans-30"/>
       <use xlink:href="#DejaVuSans-2e" transform="translate(63.623047 0)"/>
       <use xlink:href="#DejaVuSans-36" transform="translate(95.410156 0)"/>
      </g>
     </g>
    </g>
    <g id="ytick_5">
     <g id="line2d_11">
      <path d="M 48.65875 100.43706
L 472.07875 100.43706
" clip-path="url(#p4b2b430399)" style="fill: none; stroke: #cccccc; stroke-width: 1.5; stroke-linecap: round"/>
     </g>
     <g id="text_12">
      <!-- 0.8 -->
      <g style="fill: #262626" transform="translate(21.845938 103.856357) scale(0.09 -0.09)">
       <use xlink:href="#DejaVuSans-30"/>
       <use xlink:href="#DejaVuSans-2e" transform="translate(63.623047 0)"/>
       <use xlink:href="#DejaVuSans-38" transform="translate(95.410156 0)"/>
      </g>
     </g>
    </g>
    <g id="ytick_6">
     <g id="line2d_12">
      <path d="M 48.65875 38.549787
L 472.07875 38.549787
" clip-path="url(#p4b2b430399)" style="fill: none; stroke: #cccccc; stroke-width: 1.5; stroke-linecap: round"/>
     </g>
     <g id="text_13">
      <!-- 1.0 -->
      <g style="fill: #262626" transform="translate(21.845938 41.969084) scale(0.09 -0.09)">
       <use xlink:href="#DejaVuSans-31"/>
       <use xlink:href="#DejaVuSans-2e" transform="translate(63.623047 0)"/>
       <use xlink:href="#DejaVuSans-30" transform="translate(95.410156 0)"/>
      </g>
     </g>
    </g>
    <g id="text_14">
     <!-- True positive rate -->
     <g style="fill: #262626" transform="translate(15.558281 241.188437) rotate(-90) scale(0.11 -0.11)">
      <defs>
       <path id="DejaVuSans-54" d="M -19 4666
L 3928 4666
L 3928 4134
L 2272 4134
L 2272 0
L 1638 0
L 1638 4134
L -19 4134
L -19 4666
z
" transform="scale(0.015625)"/>
       <path id="DejaVuSans-75" d="M 544 1381
L 544 3500
L 1119 3500
L 1119 1403
Q 1119 906 1312 657
Q 1506 409 1894 409
Q 2359 409 2629 706
Q 2900 1003 2900 1516
L 2900 3500
L 3475 3500
L 3475 0
L 2900 0
L 2900 538
Q 2691 219 2414 64
Q 2138 -91 1772 -91
Q 1169 -91 856 284
Q 544 659 544 1381
z
M 1991 3584
L 1991 3584
z
" transform="scale(0.015625)"/>
      </defs>
      <use xlink:href="#DejaVuSans-54"/>
      <use xlink:href="#DejaVuSans-72" transform="translate(46.333984 0)"/>
      <use xlink:href="#DejaVuSans-75" transform="translate(87.447266 0)"/>
      <use xlink:href="#DejaVuSans-65" transform="translate(150.826172 0)"/>
      <use xlink:href="#DejaVuSans-20" transform="translate(212.349609 0)"/>
      <use xlink:href="#DejaVuSans-70" transform="translate(244.136719 0)"/>
      <use xlink:href="#DejaVuSans-6f" transform="translate(307.613281 0)"/>
      <use xlink:href="#DejaVuSans-73" transform="translate(368.794922 0)"/>
      <use xlink:href="#DejaVuSans-69" transform="translate(420.894531 0)"/>
      <use xlink:href="#DejaVuSans-74" transform="translate(448.677734 0)"/>
      <use xlink:href="#DejaVuSans-69" transform="translate(487.886719 0)"/>
      <use xlink:href="#DejaVuSans-76" transform="translate(515.669922 0)"/>
      <use xlink:href="#DejaVuSans-65" transform="translate(574.849609 0)"/>
      <use xlink:href="#DejaVuSans-20" transform="translate(636.373047 0)"/>
      <use xlink:href="#DejaVuSans-72" transform="translate(668.160156 0)"/>
      <use xlink:href="#DejaVuSans-61" transform="translate(709.273438 0)"/>
      <use xlink:href="#DejaVuSans-74" transform="translate(770.552734 0)"/>
      <use xlink:href="#DejaVuSans-65" transform="translate(809.761719 0)"/>
     </g>
    </g>
   </g>
   <g id="line2d_13">
    <path d="M 67.905114 347.986151
L 68.475376 347.986151
L 68.475376 346.346753
L 69.045639 346.346753
L 69.045639 345.527054
L 69.615902 345.527054
L 69.615902 344.297505
L 70.186164 344.297505
L 70.186164 343.067957
L 70.756427 343.067957
L 70.756427 342.658107
L 71.326689 342.658107
L 71.326689 339.789161
L 71.896952 339.789161
L 71.896952 337.739913
L 72.467215 337.739913
L 72.467215 336.100515
L 73.037477 336.100515
L 73.037477 335.690666
L 73.60774 335.690666
L 73.60774 334.870967
L 74.178003 334.870967
L 74.178003 333.231569
L 74.748265 333.231569
L 74.748265 330.772472
L 75.318528 330.772472
L 75.318528 329.542924
L 75.88879 329.542924
L 75.88879 329.133074
L 76.459053 329.133074
L 76.459053 328.723225
L 77.029316 328.723225
L 77.029316 327.083827
L 77.599578 327.083827
L 77.599578 325.854278
L 78.169841 325.854278
L 78.169841 325.444429
L 80.450891 325.444429
L 80.450891 323.395181
L 81.021154 323.395181
L 81.021154 322.985332
L 81.591417 322.985332
L 81.591417 320.526235
L 82.161679 320.526235
L 82.161679 318.886837
L 82.731942 318.886837
L 82.731942 317.657288
L 83.302205 317.657288
L 83.302205 314.788342
L 83.872467 314.788342
L 83.872467 313.558794
L 84.44273 313.558794
L 84.44273 313.148944
L 85.012992 313.148944
L 85.012992 311.919396
L 87.864306 311.919396
L 87.864306 308.6406
L 88.434568 308.6406
L 88.434568 308.23075
L 89.004831 308.23075
L 89.004831 306.181503
L 89.575093 306.181503
L 89.575093 305.361804
L 90.715619 305.361804
L 90.715619 304.951954
L 92.426407 304.951954
L 92.426407 304.132255
L 92.996669 304.132255
L 92.996669 303.722406
L 93.566932 303.722406
L 93.566932 301.263309
L 94.137194 301.263309
L 94.137194 300.853459
L 94.707457 300.853459
L 94.707457 299.214061
L 95.27772 299.214061
L 95.27772 297.984513
L 96.418245 297.984513
L 96.418245 297.574664
L 97.55877 297.574664
L 97.55877 296.754965
L 98.129033 296.754965
L 98.129033 295.525416
L 98.699295 295.525416
L 98.699295 295.115567
L 100.410083 295.115567
L 100.410083 294.705717
L 100.980346 294.705717
L 100.980346 292.65647
L 103.261396 292.65647
L 103.261396 291.836771
L 103.831659 291.836771
L 103.831659 290.197373
L 104.401922 290.197373
L 104.401922 289.787523
L 104.972184 289.787523
L 104.972184 289.377674
L 105.542447 289.377674
L 105.542447 288.148125
L 107.823497 288.148125
L 107.823497 285.279179
L 108.964023 285.279179
L 108.964023 284.869329
L 110.104548 284.869329
L 110.104548 282.820082
L 110.674811 282.820082
L 110.674811 282.410232
L 111.245073 282.410232
L 111.245073 279.951136
L 111.815336 279.951136
L 111.815336 278.311738
L 112.385598 278.311738
L 112.385598 277.901888
L 113.526124 277.901888
L 113.526124 277.492039
L 114.096386 277.492039
L 114.096386 277.082189
L 114.666649 277.082189
L 114.666649 276.67234
L 115.236912 276.67234
L 115.236912 273.803393
L 115.807174 273.803393
L 115.807174 272.983694
L 116.377437 272.983694
L 116.377437 272.163995
L 117.517962 272.163995
L 117.517962 271.754146
L 119.22875 271.754146
L 119.22875 270.934447
L 119.799013 270.934447
L 119.799013 270.524597
L 124.931376 270.524597
L 124.931376 269.704898
L 125.501639 269.704898
L 125.501639 269.295049
L 126.071902 269.295049
L 126.071902 268.885199
L 126.642164 268.885199
L 126.642164 267.655651
L 127.212427 267.655651
L 127.212427 265.606403
L 127.782689 265.606403
L 127.782689 264.786704
L 128.923215 264.786704
L 128.923215 263.557156
L 129.493477 263.557156
L 129.493477 262.327608
L 131.204265 262.327608
L 131.204265 261.917758
L 132.34479 261.917758
L 132.34479 260.68821
L 134.625841 260.68821
L 134.625841 259.048812
L 135.766366 259.048812
L 135.766366 257.819263
L 136.906891 257.819263
L 136.906891 257.409414
L 138.047417 257.409414
L 138.047417 256.179865
L 139.187942 256.179865
L 139.187942 255.360166
L 139.758205 255.360166
L 139.758205 254.130618
L 140.89873 254.130618
L 140.89873 253.310919
L 141.468992 253.310919
L 141.468992 252.49122
L 142.609518 252.49122
L 142.609518 252.08137
L 143.17978 252.08137
L 143.17978 250.032123
L 143.750043 250.032123
L 143.750043 248.802574
L 144.890568 248.802574
L 144.890568 248.392725
L 147.171619 248.392725
L 147.171619 247.982875
L 147.741881 247.982875
L 147.741881 246.343477
L 148.312144 246.343477
L 148.312144 244.70408
L 148.882407 244.70408
L 148.882407 243.884381
L 150.593194 243.884381
L 150.593194 243.474531
L 151.73372 243.474531
L 151.73372 242.654832
L 153.444508 242.654832
L 153.444508 241.835133
L 154.01477 241.835133
L 154.01477 241.425284
L 155.155295 241.425284
L 155.155295 238.966187
L 155.725558 238.966187
L 155.725558 238.556337
L 156.866083 238.556337
L 156.866083 238.146488
L 157.436346 238.146488
L 157.436346 237.736638
L 158.006609 237.736638
L 158.006609 236.50709
L 158.576871 236.50709
L 158.576871 236.09724
L 159.147134 236.09724
L 159.147134 234.457842
L 160.287659 234.457842
L 160.287659 233.638143
L 161.428184 233.638143
L 161.428184 233.228294
L 161.998447 233.228294
L 161.998447 232.408595
L 162.56871 232.408595
L 162.56871 231.179046
L 164.84976 231.179046
L 164.84976 230.769197
L 165.990285 230.769197
L 165.990285 230.359347
L 166.560548 230.359347
L 166.560548 227.900251
L 167.701073 227.900251
L 167.701073 227.490401
L 168.271336 227.490401
L 168.271336 226.670702
L 169.411861 226.670702
L 169.411861 224.621455
L 170.552386 224.621455
L 170.552386 224.211605
L 171.122649 224.211605
L 171.122649 223.391906
L 173.403699 223.391906
L 173.403699 222.982057
L 173.973962 222.982057
L 173.973962 221.342659
L 175.114487 221.342659
L 175.114487 218.473712
L 176.255013 218.473712
L 176.255013 217.244164
L 176.825275 217.244164
L 176.825275 216.834314
L 177.395538 216.834314
L 177.395538 216.014615
L 178.536063 216.014615
L 178.536063 215.194916
L 179.106326 215.194916
L 179.106326 214.375217
L 180.246851 214.375217
L 180.246851 213.145669
L 180.817114 213.145669
L 180.817114 209.866873
L 181.957639 209.866873
L 181.957639 208.637325
L 185.949477 208.637325
L 185.949477 208.227475
L 186.51974 208.227475
L 186.51974 207.817626
L 188.230528 207.817626
L 188.230528 207.407776
L 189.371053 207.407776
L 189.371053 206.997927
L 189.941316 206.997927
L 189.941316 205.358529
L 191.081841 205.358529
L 191.081841 204.948679
L 191.652104 204.948679
L 191.652104 203.719131
L 192.792629 203.719131
L 192.792629 203.309281
L 193.362891 203.309281
L 193.362891 201.669883
L 193.933154 201.669883
L 193.933154 199.620636
L 194.503417 199.620636
L 194.503417 199.210786
L 195.073679 199.210786
L 195.073679 198.391087
L 196.214205 198.391087
L 196.214205 197.981238
L 196.784467 197.981238
L 196.784467 197.571388
L 198.495255 197.571388
L 198.495255 195.112291
L 199.065518 195.112291
L 199.065518 193.063044
L 200.206043 193.063044
L 200.206043 192.653195
L 201.916831 192.653195
L 201.916831 192.243345
L 202.487093 192.243345
L 202.487093 191.833496
L 203.057356 191.833496
L 203.057356 191.013797
L 203.627619 191.013797
L 203.627619 188.14485
L 205.908669 188.14485
L 205.908669 186.505452
L 206.478932 186.505452
L 206.478932 186.095603
L 208.759982 186.095603
L 208.759982 185.685753
L 209.330245 185.685753
L 209.330245 185.275904
L 210.47077 185.275904
L 210.47077 184.456205
L 211.041033 184.456205
L 211.041033 183.226656
L 212.181558 183.226656
L 212.181558 181.587258
L 212.751821 181.587258
L 212.751821 179.94786
L 213.892346 179.94786
L 213.892346 179.128161
L 214.462609 179.128161
L 214.462609 178.718312
L 215.603134 178.718312
L 215.603134 178.308462
L 216.743659 178.308462
L 216.743659 177.898613
L 217.313922 177.898613
L 217.313922 177.488763
L 217.884184 177.488763
L 217.884184 177.078914
L 219.02471 177.078914
L 219.02471 175.439516
L 219.594972 175.439516
L 219.594972 173.390269
L 221.876023 173.390269
L 221.876023 172.16072
L 223.016548 172.16072
L 223.016548 171.750871
L 224.157073 171.750871
L 224.157073 170.521322
L 224.727336 170.521322
L 224.727336 170.111473
L 225.297598 170.111473
L 225.297598 169.701623
L 225.867861 169.701623
L 225.867861 169.291774
L 226.438124 169.291774
L 226.438124 168.881924
L 229.289437 168.881924
L 229.289437 168.472075
L 231.570487 168.472075
L 231.570487 167.242526
L 232.14075 167.242526
L 232.14075 166.832677
L 232.711013 166.832677
L 232.711013 165.603128
L 233.281275 165.603128
L 233.281275 164.783429
L 234.421801 164.783429
L 234.421801 164.37358
L 235.562326 164.37358
L 235.562326 162.734182
L 236.132588 162.734182
L 236.132588 162.324332
L 237.843376 162.324332
L 237.843376 161.914483
L 238.983902 161.914483
L 238.983902 161.094784
L 239.554164 161.094784
L 239.554164 160.684934
L 241.835215 160.684934
L 241.835215 160.275085
L 244.116265 160.275085
L 244.116265 159.455386
L 244.686528 159.455386
L 244.686528 158.635687
L 245.25679 158.635687
L 245.25679 158.225838
L 245.827053 158.225838
L 245.827053 157.815988
L 246.967578 157.815988
L 246.967578 157.406139
L 248.678366 157.406139
L 248.678366 156.996289
L 249.818891 156.996289
L 249.818891 155.766741
L 252.099942 155.766741
L 252.099942 155.356891
L 252.670205 155.356891
L 252.670205 153.717493
L 254.380992 153.717493
L 254.380992 152.487945
L 254.951255 152.487945
L 254.951255 150.848547
L 255.521518 150.848547
L 255.521518 149.618998
L 256.09178 149.618998
L 256.09178 149.209149
L 257.232306 149.209149
L 257.232306 148.799299
L 257.802568 148.799299
L 257.802568 146.340202
L 258.372831 146.340202
L 258.372831 145.110654
L 258.943093 145.110654
L 258.943093 144.700804
L 260.083619 144.700804
L 260.083619 141.422008
L 261.224144 141.422008
L 261.224144 140.60231
L 261.794407 140.60231
L 261.794407 140.19246
L 262.364669 140.19246
L 262.364669 139.782611
L 264.075457 139.782611
L 264.075457 139.372761
L 264.64572 139.372761
L 264.64572 138.962912
L 266.92677 138.962912
L 266.92677 138.553062
L 267.497033 138.553062
L 267.497033 138.143213
L 268.637558 138.143213
L 268.637558 137.733363
L 269.207821 137.733363
L 269.207821 136.093965
L 271.488871 136.093965
L 271.488871 135.274266
L 272.059134 135.274266
L 272.059134 134.044718
L 273.769922 134.044718
L 273.769922 133.225019
L 274.340184 133.225019
L 274.340184 131.99547
L 274.910447 131.99547
L 274.910447 131.585621
L 275.48071 131.585621
L 275.48071 131.175771
L 276.050972 131.175771
L 276.050972 130.765922
L 278.332023 130.765922
L 278.332023 129.946223
L 278.902285 129.946223
L 278.902285 129.126524
L 279.472548 129.126524
L 279.472548 128.716674
L 282.323861 128.716674
L 282.323861 128.306825
L 282.894124 128.306825
L 282.894124 127.487126
L 284.604912 127.487126
L 284.604912 125.028029
L 285.175174 125.028029
L 285.175174 123.79848
L 285.745437 123.79848
L 285.745437 120.109835
L 286.885962 120.109835
L 286.885962 118.880287
L 288.59675 118.880287
L 288.59675 117.650738
L 292.018326 117.650738
L 292.018326 117.240889
L 292.588588 117.240889
L 292.588588 116.42119
L 293.158851 116.42119
L 293.158851 116.01134
L 294.869639 116.01134
L 294.869639 113.552243
L 295.439902 113.552243
L 295.439902 113.142394
L 296.010164 113.142394
L 296.010164 112.732544
L 296.580427 112.732544
L 296.580427 111.502996
L 297.150689 111.502996
L 297.150689 110.683297
L 299.43174 110.683297
L 299.43174 110.273447
L 300.002003 110.273447
L 300.002003 108.2242
L 301.142528 108.2242
L 301.142528 107.81435
L 301.71279 107.81435
L 301.71279 106.994651
L 303.423578 106.994651
L 303.423578 106.584802
L 303.993841 106.584802
L 303.993841 105.765103
L 304.564104 105.765103
L 304.564104 105.355254
L 309.126205 105.355254
L 309.126205 104.945404
L 309.696467 104.945404
L 309.696467 104.535555
L 311.977518 104.535555
L 311.977518 103.715856
L 313.118043 103.715856
L 313.118043 102.896157
L 315.969356 102.896157
L 315.969356 101.666608
L 316.539619 101.666608
L 316.539619 101.256759
L 317.109881 101.256759
L 317.109881 100.43706
L 317.680144 100.43706
L 317.680144 100.02721
L 318.250407 100.02721
L 318.250407 99.617361
L 318.820669 99.617361
L 318.820669 98.797662
L 320.531457 98.797662
L 320.531457 98.387812
L 322.242245 98.387812
L 322.242245 97.568113
L 323.38277 97.568113
L 323.38277 97.158264
L 324.523295 97.158264
L 324.523295 95.928715
L 325.093558 95.928715
L 325.093558 95.109016
L 325.663821 95.109016
L 325.663821 94.699167
L 326.234083 94.699167
L 326.234083 93.059769
L 326.804346 93.059769
L 326.804346 92.649919
L 331.366447 92.649919
L 331.366447 91.83022
L 333.647497 91.83022
L 333.647497 89.780973
L 334.788023 89.780973
L 334.788023 88.551424
L 335.358285 88.551424
L 335.358285 88.141575
L 335.928548 88.141575
L 335.928548 87.731726
L 336.498811 87.731726
L 336.498811 87.321876
L 337.069073 87.321876
L 337.069073 86.912027
L 337.639336 86.912027
L 337.639336 86.502177
L 339.350124 86.502177
L 339.350124 86.092328
L 340.490649 86.092328
L 340.490649 85.682478
L 346.193275 85.682478
L 346.193275 85.272629
L 346.763538 85.272629
L 346.763538 84.862779
L 348.474326 84.862779
L 348.474326 84.04308
L 349.044588 84.04308
L 349.044588 83.633231
L 350.185114 83.633231
L 350.185114 83.223381
L 351.325639 83.223381
L 351.325639 82.813532
L 352.466164 82.813532
L 352.466164 81.993833
L 353.036427 81.993833
L 353.036427 81.583983
L 355.88774 81.583983
L 355.88774 80.764284
L 356.458003 80.764284
L 356.458003 79.944585
L 357.028265 79.944585
L 357.028265 79.124886
L 358.739053 79.124886
L 358.739053 78.305187
L 359.879578 78.305187
L 359.879578 77.075639
L 360.449841 77.075639
L 360.449841 76.665789
L 361.020104 76.665789
L 361.020104 76.25594
L 362.730891 76.25594
L 362.730891 75.84609
L 363.301154 75.84609
L 363.301154 75.436241
L 363.871417 75.436241
L 363.871417 73.796843
L 365.011942 73.796843
L 365.011942 73.386993
L 366.152467 73.386993
L 366.152467 71.747595
L 366.72273 71.747595
L 366.72273 70.927897
L 367.863255 70.927897
L 367.863255 70.518047
L 371.855093 70.518047
L 371.855093 70.108198
L 372.995619 70.108198
L 372.995619 68.4688
L 375.276669 68.4688
L 375.276669 68.05895
L 376.987457 68.05895
L 376.987457 67.649101
L 378.698245 67.649101
L 378.698245 67.239251
L 379.83877 67.239251
L 379.83877 66.419552
L 383.830609 66.419552
L 383.830609 66.009703
L 384.400871 66.009703
L 384.400871 65.599853
L 389.533235 65.599853
L 389.533235 65.190004
L 390.103497 65.190004
L 390.103497 64.780154
L 392.954811 64.780154
L 392.954811 64.370305
L 393.525073 64.370305
L 393.525073 63.960455
L 395.235861 63.960455
L 395.235861 62.730907
L 395.806124 62.730907
L 395.806124 61.501358
L 396.376386 61.501358
L 396.376386 61.091509
L 396.946649 61.091509
L 396.946649 60.681659
L 397.516912 60.681659
L 397.516912 60.27181
L 398.657437 60.27181
L 398.657437 59.86196
L 399.797962 59.86196
L 399.797962 59.452111
L 401.50875 59.452111
L 401.50875 59.042261
L 402.079013 59.042261
L 402.079013 58.632412
L 403.789801 58.632412
L 403.789801 57.812713
L 404.360063 57.812713
L 404.360063 57.402863
L 404.930326 57.402863
L 404.930326 56.993014
L 406.070851 56.993014
L 406.070851 56.583164
L 406.641114 56.583164
L 406.641114 56.173315
L 407.781639 56.173315
L 407.781639 55.353616
L 410.632952 55.353616
L 410.632952 54.943766
L 411.203215 54.943766
L 411.203215 54.124067
L 411.773477 54.124067
L 411.773477 52.894519
L 415.195053 52.894519
L 415.195053 52.48467
L 416.905841 52.48467
L 416.905841 52.07482
L 418.046366 52.07482
L 418.046366 51.664971
L 420.327417 51.664971
L 420.327417 50.435422
L 420.897679 50.435422
L 420.897679 50.025573
L 421.467942 50.025573
L 421.467942 47.156626
L 422.038205 47.156626
L 422.038205 46.746777
L 424.889518 46.746777
L 424.889518 46.336927
L 425.45978 46.336927
L 425.45978 45.927078
L 428.311093 45.927078
L 428.311093 45.517228
L 428.881356 45.517228
L 428.881356 44.697529
L 431.162407 44.697529
L 431.162407 44.28768
L 432.302932 44.28768
L 432.302932 43.87783
L 432.873194 43.87783
L 432.873194 43.467981
L 433.443457 43.467981
L 433.443457 43.058131
L 434.583982 43.058131
L 434.583982 42.238432
L 438.575821 42.238432
L 438.575821 41.828583
L 441.997396 41.828583
L 441.997396 41.418733
L 443.137922 41.418733
L 443.137922 40.599034
L 444.278447 40.599034
L 444.278447 39.369486
L 447.12976 39.369486
L 447.12976 38.959636
L 447.700023 38.959636
L 447.700023 38.549787
L 452.832386 38.549787
L 452.832386 38.549787
" clip-path="url(#p4b2b430399)" style="fill: none; stroke: #b54a4a; stroke-width: 2.5; stroke-linecap: round"/>
   </g>
   <g id="line2d_14">
    <path d="M 67.905114 347.986151
L 69.600828 347.986151
L 69.600828 343.17002
L 71.296543 343.17002
L 71.296543 340.761955
L 72.992258 340.761955
L 72.992258 337.149858
L 74.687973 337.149858
L 74.687973 333.53776
L 76.383688 333.53776
L 76.383688 332.333728
L 78.079403 332.333728
L 78.079403 323.9055
L 79.775118 323.9055
L 79.775118 317.885337
L 81.470832 317.885337
L 81.470832 313.069207
L 83.166547 313.069207
L 83.166547 311.865174
L 84.862262 311.865174
L 84.862262 309.457109
L 86.557977 309.457109
L 86.557977 304.640979
L 88.253692 304.640979
L 88.253692 297.416784
L 89.949407 297.416784
L 89.949407 293.804686
L 91.645122 293.804686
L 91.645122 292.600654
L 93.340837 292.600654
L 93.340837 287.784523
L 95.036551 287.784523
L 95.036551 286.580491
L 101.819411 286.580491
L 101.819411 285.376458
L 103.515126 285.376458
L 103.515126 274.540165
L 105.210841 274.540165
L 105.210841 273.336133
L 111.9937 273.336133
L 111.9937 269.724035
L 113.689415 269.724035
L 113.689415 267.31597
L 117.080845 267.31597
L 117.080845 266.111938
L 122.167989 266.111938
L 122.167989 262.49984
L 125.559419 262.49984
L 125.559419 258.887742
L 127.255134 258.887742
L 127.255134 255.275645
L 128.950849 255.275645
L 128.950849 252.86758
L 130.646563 252.86758
L 130.646563 251.663547
L 142.516567 251.663547
L 142.516567 250.459515
L 145.907997 250.459515
L 145.907997 248.051449
L 150.995142 248.051449
L 150.995142 244.439352
L 154.386571 244.439352
L 154.386571 237.215157
L 156.082286 237.215157
L 156.082286 234.807091
L 157.778001 234.807091
L 157.778001 233.603059
L 164.560861 233.603059
L 164.560861 231.194994
L 166.256575 231.194994
L 166.256575 228.786929
L 167.95229 228.786929
L 167.95229 226.378864
L 181.518009 226.378864
L 181.518009 225.174831
L 184.909439 225.174831
L 184.909439 221.562734
L 186.605154 221.562734
L 186.605154 220.358701
L 188.300869 220.358701
L 188.300869 216.746603
L 189.996583 216.746603
L 189.996583 215.542571
L 193.388013 215.542571
L 193.388013 213.134506
L 196.779443 213.134506
L 196.779443 211.930473
L 198.475158 211.930473
L 198.475158 210.726441
L 200.170873 210.726441
L 200.170873 209.522408
L 201.866587 209.522408
L 201.866587 207.114343
L 203.562302 207.114343
L 203.562302 205.91031
L 205.258017 205.91031
L 205.258017 204.706278
L 213.736591 204.706278
L 213.736591 199.890148
L 215.432306 199.890148
L 215.432306 198.686115
L 217.128021 198.686115
L 217.128021 197.482083
L 220.519451 197.482083
L 220.519451 193.869985
L 227.30231 193.869985
L 227.30231 191.46192
L 228.998025 191.46192
L 228.998025 186.64579
L 232.389455 186.64579
L 232.389455 185.441757
L 234.08517 185.441757
L 234.08517 180.625627
L 235.780885 180.625627
L 235.780885 177.013529
L 237.476599 177.013529
L 237.476599 174.605464
L 239.172314 174.605464
L 239.172314 173.401432
L 240.868029 173.401432
L 240.868029 169.789334
L 247.650889 169.789334
L 247.650889 163.769171
L 249.346603 163.769171
L 249.346603 157.749009
L 252.738033 157.749009
L 252.738033 154.136911
L 259.520893 154.136911
L 259.520893 152.932879
L 261.216607 152.932879
L 261.216607 145.708683
L 262.912322 145.708683
L 262.912322 143.300618
L 267.999467 143.300618
L 267.999467 140.892553
L 269.695182 140.892553
L 269.695182 133.668358
L 271.390897 133.668358
L 271.390897 131.260293
L 278.173756 131.260293
L 278.173756 126.444163
L 279.869471 126.444163
L 279.869471 124.036098
L 281.565186 124.036098
L 281.565186 122.832065
L 283.260901 122.832065
L 283.260901 121.628032
L 290.04376 121.628032
L 290.04376 119.219967
L 295.130905 119.219967
L 295.130905 116.811902
L 300.218049 116.811902
L 300.218049 115.60787
L 301.913764 115.60787
L 301.913764 114.403837
L 303.609479 114.403837
L 303.609479 111.995772
L 305.305194 111.995772
L 305.305194 110.79174
L 307.000909 110.79174
L 307.000909 109.587707
L 308.696623 109.587707
L 308.696623 108.383674
L 312.088053 108.383674
L 312.088053 104.771577
L 318.870913 104.771577
L 318.870913 101.159479
L 323.958057 101.159479
L 323.958057 98.751414
L 329.045202 98.751414
L 329.045202 95.139316
L 332.436631 95.139316
L 332.436631 93.935284
L 337.523776 93.935284
L 337.523776 90.323186
L 339.219491 90.323186
L 339.219491 87.915121
L 340.915206 87.915121
L 340.915206 85.507056
L 346.00235 85.507056
L 346.00235 83.098991
L 347.698065 83.098991
L 347.698065 80.690926
L 357.872354 80.690926
L 357.872354 78.282861
L 361.263784 78.282861
L 361.263784 77.078828
L 364.655214 77.078828
L 364.655214 73.466731
L 366.350929 73.466731
L 366.350929 68.650601
L 368.046643 68.650601
L 368.046643 65.038503
L 369.742358 65.038503
L 369.742358 62.630438
L 371.438073 62.630438
L 371.438073 59.01834
L 373.133788 59.01834
L 373.133788 57.814308
L 386.699507 57.814308
L 386.699507 55.406243
L 390.090937 55.406243
L 390.090937 54.20221
L 395.178081 54.20221
L 395.178081 49.38608
L 396.873796 49.38608
L 396.873796 48.182047
L 401.960941 48.182047
L 401.960941 46.978015
L 403.656655 46.978015
L 403.656655 45.773982
L 407.048085 45.773982
L 407.048085 44.56995
L 413.830945 44.56995
L 413.830945 43.365917
L 435.875238 43.365917
L 435.875238 40.957852
L 444.353812 40.957852
L 444.353812 39.753819
L 446.049527 39.753819
L 446.049527 38.549787
L 452.832386 38.549787
L 452.832386 38.549787
" clip-path="url(#p4b2b430399)" style="fill: none; stroke: #4c72b0; stroke-opacity: 0.75; stroke-width: 1.4; stroke-linecap: round"/>
   </g>
   <g id="line2d_15">
    <path d="M 67.905114 347.986151
L 67.905114 346.763082
L 69.586019 346.763082
L 69.586019 343.093876
L 72.947829 343.093876
L 72.947829 332.086258
L 74.628734 332.086258
L 74.628734 328.417052
L 76.309639 328.417052
L 76.309639 324.747847
L 77.990544 324.747847
L 77.990544 321.078641
L 79.671449 321.078641
L 79.671449 319.855572
L 81.352355 319.855572
L 81.352355 316.186366
L 83.03326 316.186366
L 83.03326 310.071023
L 84.714165 310.071023
L 84.714165 302.732611
L 88.075975 302.732611
L 88.075975 295.394199
L 89.75688 295.394199
L 89.75688 292.948062
L 91.437785 292.948062
L 91.437785 291.724994
L 94.799596 291.724994
L 94.799596 288.055788
L 96.480501 288.055788
L 96.480501 286.832719
L 98.161406 286.832719
L 98.161406 278.271239
L 99.842311 278.271239
L 99.842311 272.155895
L 101.523216 272.155895
L 101.523216 270.932827
L 103.204121 270.932827
L 103.204121 264.817484
L 106.565931 264.817484
L 106.565931 259.925209
L 108.246837 259.925209
L 108.246837 258.702141
L 109.927742 258.702141
L 109.927742 255.032935
L 111.608647 255.032935
L 111.608647 245.248386
L 113.289552 245.248386
L 113.289552 244.025317
L 114.970457 244.025317
L 114.970457 241.57918
L 116.651362 241.57918
L 116.651362 240.356111
L 123.374983 240.356111
L 123.374983 236.686905
L 125.055888 236.686905
L 125.055888 235.463837
L 126.736793 235.463837
L 126.736793 229.348493
L 128.417698 229.348493
L 128.417698 228.125425
L 130.098603 228.125425
L 130.098603 225.679287
L 133.460413 225.679287
L 133.460413 224.456219
L 136.822224 224.456219
L 136.822224 220.787013
L 138.503129 220.787013
L 138.503129 218.340876
L 141.864939 218.340876
L 141.864939 217.117807
L 143.545844 217.117807
L 143.545844 213.448601
L 145.226749 213.448601
L 145.226749 203.664052
L 150.269465 203.664052
L 150.269465 202.440983
L 151.95037 202.440983
L 151.95037 198.771778
L 153.631275 198.771778
L 153.631275 196.32564
L 155.31218 196.32564
L 155.31218 193.879503
L 158.67399 193.879503
L 158.67399 192.656434
L 160.354895 192.656434
L 160.354895 190.210297
L 165.397611 190.210297
L 165.397611 186.541091
L 167.078516 186.541091
L 167.078516 184.094954
L 170.440326 184.094954
L 170.440326 182.871885
L 175.483041 182.871885
L 175.483041 179.202679
L 180.525757 179.202679
L 180.525757 176.756542
L 182.206662 176.756542
L 182.206662 175.533474
L 187.249377 175.533474
L 187.249377 173.087336
L 190.611187 173.087336
L 190.611187 168.195062
L 192.292093 168.195062
L 192.292093 166.971993
L 193.972998 166.971993
L 193.972998 163.302787
L 197.334808 163.302787
L 197.334808 162.079719
L 202.377523 162.079719
L 202.377523 160.85665
L 204.058428 160.85665
L 204.058428 157.187444
L 209.101144 157.187444
L 209.101144 153.518238
L 212.462954 153.518238
L 212.462954 151.072101
L 215.824764 151.072101
L 215.824764 148.625964
L 222.548385 148.625964
L 222.548385 146.179826
L 224.22929 146.179826
L 224.22929 143.733689
L 227.5911 143.733689
L 227.5911 142.510621
L 229.272005 142.510621
L 229.272005 141.287552
L 235.995626 141.287552
L 235.995626 138.841415
L 239.357436 138.841415
L 239.357436 135.172209
L 246.081056 135.172209
L 246.081056 133.94914
L 247.761962 133.94914
L 247.761962 132.726072
L 249.442867 132.726072
L 249.442867 131.503003
L 261.209203 131.503003
L 261.209203 126.610728
L 262.890108 126.610728
L 262.890108 125.38766
L 266.251918 125.38766
L 266.251918 113.156973
L 271.294633 113.156973
L 271.294633 111.933905
L 276.337349 111.933905
L 276.337349 110.710836
L 279.699159 110.710836
L 279.699159 109.487768
L 281.380064 109.487768
L 281.380064 108.264699
L 286.422779 108.264699
L 286.422779 107.04163
L 289.78459 107.04163
L 289.78459 105.818562
L 291.465495 105.818562
L 291.465495 104.595493
L 308.274546 104.595493
L 308.274546 103.372424
L 309.955451 103.372424
L 309.955451 102.149356
L 313.317261 102.149356
L 313.317261 100.926287
L 318.359977 100.926287
L 318.359977 97.257081
L 321.721787 97.257081
L 321.721787 96.034013
L 323.402692 96.034013
L 323.402692 93.587875
L 326.764502 93.587875
L 326.764502 92.364807
L 328.445407 92.364807
L 328.445407 91.141738
L 330.126313 91.141738
L 330.126313 88.695601
L 333.488123 88.695601
L 333.488123 87.472532
L 336.849933 87.472532
L 336.849933 86.249464
L 338.530838 86.249464
L 338.530838 80.13412
L 340.211743 80.13412
L 340.211743 77.687983
L 345.254459 77.687983
L 345.254459 76.464914
L 360.382605 76.464914
L 360.382605 75.241846
L 363.744415 75.241846
L 363.744415 74.018777
L 368.78713 74.018777
L 368.78713 72.795709
L 370.468035 72.795709
L 370.468035 71.57264
L 372.148941 71.57264
L 372.148941 64.234228
L 373.829846 64.234228
L 373.829846 63.01116
L 380.553466 63.01116
L 380.553466 61.788091
L 382.234371 61.788091
L 382.234371 60.565022
L 385.596182 60.565022
L 385.596182 56.895816
L 390.638897 56.895816
L 390.638897 55.672748
L 392.319802 55.672748
L 392.319802 54.449679
L 394.000707 54.449679
L 394.000707 53.226611
L 395.681612 53.226611
L 395.681612 52.003542
L 399.043422 52.003542
L 399.043422 49.557405
L 410.809758 49.557405
L 410.809758 48.334336
L 420.895189 48.334336
L 420.895189 47.111267
L 424.256999 47.111267
L 424.256999 44.66513
L 427.61881 44.66513
L 427.61881 40.995924
L 436.023335 40.995924
L 436.023335 39.772856
L 437.70424 39.772856
L 437.70424 38.549787
L 452.832386 38.549787
L 452.832386 38.549787
" clip-path="url(#p4b2b430399)" style="fill: none; stroke: #dd8452; stroke-opacity: 0.75; stroke-width: 1.4; stroke-linecap: round"/>
   </g>
   <g id="line2d_16">
    <path d="M 67.905114 347.986151
L 67.905114 346.723145
L 69.662772 346.723145
L 69.662772 344.197134
L 71.420431 344.197134
L 71.420431 337.882106
L 74.935749 337.882106
L 74.935749 335.356095
L 83.724043 335.356095
L 83.724043 330.304073
L 87.23936 330.304073
L 87.23936 329.041067
L 88.997019 329.041067
L 88.997019 323.989045
L 90.754678 323.989045
L 90.754678 321.463034
L 92.512337 321.463034
L 92.512337 320.200028
L 94.269995 320.200028
L 94.269995 317.674017
L 99.542972 317.674017
L 99.542972 311.358989
L 101.30063 311.358989
L 101.30063 307.569972
L 106.573607 307.569972
L 106.573607 298.728933
L 111.846583 298.728933
L 111.846583 292.413906
L 113.604242 292.413906
L 113.604242 291.1509
L 118.877218 291.1509
L 118.877218 286.098878
L 120.634877 286.098878
L 120.634877 281.046856
L 122.392536 281.046856
L 122.392536 275.994833
L 125.907853 275.994833
L 125.907853 273.468822
L 127.665512 273.468822
L 127.665512 272.205817
L 129.423171 272.205817
L 129.423171 270.942811
L 131.18083 270.942811
L 131.18083 269.679805
L 132.938488 269.679805
L 132.938488 267.153794
L 136.453806 267.153794
L 136.453806 263.364778
L 138.211465 263.364778
L 138.211465 260.838767
L 143.484441 260.838767
L 143.484441 257.04975
L 145.2421 257.04975
L 145.2421 255.786744
L 146.999759 255.786744
L 146.999759 251.997728
L 148.757417 251.997728
L 148.757417 250.734722
L 159.30337 250.734722
L 159.30337 249.471716
L 164.576347 249.471716
L 164.576347 246.945705
L 168.091664 246.945705
L 168.091664 243.156689
L 169.849323 243.156689
L 169.849323 241.893683
L 173.36464 241.893683
L 173.36464 240.630677
L 175.122299 240.630677
L 175.122299 236.841661
L 176.879958 236.841661
L 176.879958 235.578655
L 180.395276 235.578655
L 180.395276 234.31565
L 182.152934 234.31565
L 182.152934 231.789639
L 194.456546 231.789639
L 194.456546 226.737616
L 199.729522 226.737616
L 199.729522 225.474611
L 203.24484 225.474611
L 203.24484 224.211605
L 205.002498 224.211605
L 205.002498 220.422588
L 210.275475 220.422588
L 210.275475 217.896577
L 213.790792 217.896577
L 213.790792 205.266522
L 215.548451 205.266522
L 215.548451 202.74051
L 217.30611 202.74051
L 217.30611 195.162477
L 219.063769 195.162477
L 219.063769 193.899472
L 220.821427 193.899472
L 220.821427 187.584444
L 224.336745 187.584444
L 224.336745 186.321438
L 226.094404 186.321438
L 226.094404 185.058433
L 229.609721 185.058433
L 229.609721 183.795427
L 231.36738 183.795427
L 231.36738 182.532421
L 233.125039 182.532421
L 233.125039 181.269416
L 234.882698 181.269416
L 234.882698 176.217394
L 238.398015 176.217394
L 238.398015 174.954388
L 240.155674 174.954388
L 240.155674 173.691382
L 243.670992 173.691382
L 243.670992 168.63936
L 247.186309 168.63936
L 247.186309 166.113349
L 248.943968 166.113349
L 248.943968 162.324332
L 250.701627 162.324332
L 250.701627 161.061327
L 252.459285 161.061327
L 252.459285 158.535316
L 254.216944 158.535316
L 254.216944 153.483293
L 255.974603 153.483293
L 255.974603 144.642254
L 261.247579 144.642254
L 261.247579 142.116243
L 266.520556 142.116243
L 266.520556 140.853238
L 270.035873 140.853238
L 270.035873 139.590232
L 271.793532 139.590232
L 271.793532 135.801216
L 273.551191 135.801216
L 273.551191 134.53821
L 277.066508 134.53821
L 277.066508 133.275204
L 280.581826 133.275204
L 280.581826 129.486188
L 284.097144 129.486188
L 284.097144 126.960177
L 285.854802 126.960177
L 285.854802 125.697171
L 296.400755 125.697171
L 296.400755 124.434165
L 301.673731 124.434165
L 301.673731 123.17116
L 305.189049 123.17116
L 305.189049 120.645149
L 310.462025 120.645149
L 310.462025 116.856132
L 313.977343 116.856132
L 313.977343 114.330121
L 315.735002 114.330121
L 315.735002 113.067115
L 326.280954 113.067115
L 326.280954 111.80411
L 328.038613 111.80411
L 328.038613 110.541104
L 329.796272 110.541104
L 329.796272 106.752087
L 340.342224 106.752087
L 340.342224 102.963071
L 342.099883 102.963071
L 342.099883 101.700065
L 343.857542 101.700065
L 343.857542 100.43706
L 345.615201 100.43706
L 345.615201 97.911049
L 349.130518 97.911049
L 349.130518 96.648043
L 350.888177 96.648043
L 350.888177 95.385037
L 352.645836 95.385037
L 352.645836 92.859026
L 354.403495 92.859026
L 354.403495 91.596021
L 356.161153 91.596021
L 356.161153 90.333015
L 357.918812 90.333015
L 357.918812 89.07001
L 359.676471 89.07001
L 359.676471 87.807004
L 366.707106 87.807004
L 366.707106 85.280993
L 368.464765 85.280993
L 368.464765 81.491976
L 370.222424 81.491976
L 370.222424 80.228971
L 371.980083 80.228971
L 371.980083 76.439954
L 373.737741 76.439954
L 373.737741 71.387932
L 382.526035 71.387932
L 382.526035 68.861921
L 387.799012 68.861921
L 387.799012 67.598915
L 393.071988 67.598915
L 393.071988 66.335909
L 394.829647 66.335909
L 394.829647 65.072904
L 405.375599 65.072904
L 405.375599 63.809898
L 412.406234 63.809898
L 412.406234 61.283887
L 414.163893 61.283887
L 414.163893 60.020882
L 415.921552 60.020882
L 415.921552 56.231865
L 417.679211 56.231865
L 417.679211 54.968859
L 422.952187 54.968859
L 422.952187 53.705854
L 424.709846 53.705854
L 424.709846 52.442848
L 433.49814 52.442848
L 433.49814 51.179843
L 435.255799 51.179843
L 435.255799 43.601809
L 440.528775 43.601809
L 440.528775 42.338804
L 442.286434 42.338804
L 442.286434 38.549787
L 452.832386 38.549787
L 452.832386 38.549787
" clip-path="url(#p4b2b430399)" style="fill: none; stroke: #55a868; stroke-opacity: 0.75; stroke-width: 1.4; stroke-linecap: round"/>
   </g>
   <g id="line2d_17">
    <path d="M 67.905114 347.986151
L 452.832386 38.549787
" clip-path="url(#p4b2b430399)" style="fill: none; stroke-dasharray: 3.7,1.6; stroke-dashoffset: 0; stroke: #6c757d"/>
   </g>
   <g id="patch_3">
    <path d="M 48.65875 363.457969
L 48.65875 23.077969
" style="fill: none; stroke: #cccccc; stroke-width: 1.875; stroke-linejoin: miter; stroke-linecap: square"/>
   </g>
   <g id="patch_4">
    <path d="M 48.65875 363.457969
L 472.07875 363.457969
" style="fill: none; stroke: #cccccc; stroke-width: 1.875; stroke-linejoin: miter; stroke-linecap: square"/>
   </g>
   <g id="text_15">
    <!-- DOLOS Final Ensemble ROC Curves -->
    <g style="fill: #262626" transform="translate(132.545234 17.077969) scale(0.13 -0.13)">
     <defs>
      <path id="DejaVuSans-Bold-44" d="M 1791 3756
L 1791 909
L 2222 909
Q 2959 909 3348 1275
Q 3738 1641 3738 2338
Q 3738 3031 3350 3393
Q 2963 3756 2222 3756
L 1791 3756
z
M 588 4666
L 1856 4666
Q 2919 4666 3439 4514
Q 3959 4363 4331 4000
Q 4659 3684 4818 3271
Q 4978 2859 4978 2338
Q 4978 1809 4818 1395
Q 4659 981 4331 666
Q 3956 303 3431 151
Q 2906 0 1856 0
L 588 0
L 588 4666
z
" transform="scale(0.015625)"/>
      <path id="DejaVuSans-Bold-4f" d="M 2719 3878
Q 2169 3878 1866 3472
Q 1563 3066 1563 2328
Q 1563 1594 1866 1187
Q 2169 781 2719 781
Q 3272 781 3575 1187
Q 3878 1594 3878 2328
Q 3878 3066 3575 3472
Q 3272 3878 2719 3878
z
M 2719 4750
Q 3844 4750 4481 4106
Q 5119 3463 5119 2328
Q 5119 1197 4481 553
Q 3844 -91 2719 -91
Q 1597 -91 958 553
Q 319 1197 319 2328
Q 319 3463 958 4106
Q 1597 4750 2719 4750
z
" transform="scale(0.015625)"/>
      <path id="DejaVuSans-Bold-4c" d="M 588 4666
L 1791 4666
L 1791 909
L 3903 909
L 3903 0
L 588 0
L 588 4666
z
" transform="scale(0.015625)"/>
      <path id="DejaVuSans-Bold-53" d="M 3834 4519
L 3834 3531
Q 3450 3703 3084 3790
Q 2719 3878 2394 3878
Q 1963 3878 1756 3759
Q 1550 3641 1550 3391
Q 1550 3203 1689 3098
Q 1828 2994 2194 2919
L 2706 2816
Q 3484 2659 3812 2340
Q 4141 2022 4141 1434
Q 4141 663 3683 286
Q 3225 -91 2284 -91
Q 1841 -91 1394 -6
Q 947 78 500 244
L 500 1259
Q 947 1022 1364 901
Q 1781 781 2169 781
Q 2563 781 2772 912
Q 2981 1044 2981 1288
Q 2981 1506 2839 1625
Q 2697 1744 2272 1838
L 1806 1941
Q 1106 2091 782 2419
Q 459 2747 459 3303
Q 459 4000 909 4375
Q 1359 4750 2203 4750
Q 2588 4750 2994 4692
Q 3400 4634 3834 4519
z
" transform="scale(0.015625)"/>
      <path id="DejaVuSans-Bold-20" transform="scale(0.015625)"/>
      <path id="DejaVuSans-Bold-46" d="M 588 4666
L 3834 4666
L 3834 3756
L 1791 3756
L 1791 2888
L 3713 2888
L 3713 1978
L 1791 1978
L 1791 0
L 588 0
L 588 4666
z
" transform="scale(0.015625)"/>
      <path id="DejaVuSans-Bold-69" d="M 538 3500
L 1656 3500
L 1656 0
L 538 0
L 538 3500
z
M 538 4863
L 1656 4863
L 1656 3950
L 538 3950
L 538 4863
z
" transform="scale(0.015625)"/>
      <path id="DejaVuSans-Bold-6e" d="M 4056 2131
L 4056 0
L 2931 0
L 2931 347
L 2931 1631
Q 2931 2084 2911 2256
Q 2891 2428 2841 2509
Q 2775 2619 2662 2680
Q 2550 2741 2406 2741
Q 2056 2741 1856 2470
Q 1656 2200 1656 1722
L 1656 0
L 538 0
L 538 3500
L 1656 3500
L 1656 2988
Q 1909 3294 2193 3439
Q 2478 3584 2822 3584
Q 3428 3584 3742 3212
Q 4056 2841 4056 2131
z
" transform="scale(0.015625)"/>
      <path id="DejaVuSans-Bold-61" d="M 2106 1575
Q 1756 1575 1579 1456
Q 1403 1338 1403 1106
Q 1403 894 1545 773
Q 1688 653 1941 653
Q 2256 653 2472 879
Q 2688 1106 2688 1447
L 2688 1575
L 2106 1575
z
M 3816 1997
L 3816 0
L 2688 0
L 2688 519
Q 2463 200 2181 54
Q 1900 -91 1497 -91
Q 953 -91 614 226
Q 275 544 275 1050
Q 275 1666 698 1953
Q 1122 2241 2028 2241
L 2688 2241
L 2688 2328
Q 2688 2594 2478 2717
Q 2269 2841 1825 2841
Q 1466 2841 1156 2769
Q 847 2697 581 2553
L 581 3406
Q 941 3494 1303 3539
Q 1666 3584 2028 3584
Q 2975 3584 3395 3211
Q 3816 2838 3816 1997
z
" transform="scale(0.015625)"/>
      <path id="DejaVuSans-Bold-6c" d="M 538 4863
L 1656 4863
L 1656 0
L 538 0
L 538 4863
z
" transform="scale(0.015625)"/>
      <path id="DejaVuSans-Bold-45" d="M 588 4666
L 3834 4666
L 3834 3756
L 1791 3756
L 1791 2888
L 3713 2888
L 3713 1978
L 1791 1978
L 1791 909
L 3903 909
L 3903 0
L 588 0
L 588 4666
z
" transform="scale(0.015625)"/>
      <path id="DejaVuSans-Bold-73" d="M 3272 3391
L 3272 2541
Q 2913 2691 2578 2766
Q 2244 2841 1947 2841
Q 1628 2841 1473 2761
Q 1319 2681 1319 2516
Q 1319 2381 1436 2309
Q 1553 2238 1856 2203
L 2053 2175
Q 2913 2066 3209 1816
Q 3506 1566 3506 1031
Q 3506 472 3093 190
Q 2681 -91 1863 -91
Q 1516 -91 1145 -36
Q 775 19 384 128
L 384 978
Q 719 816 1070 734
Q 1422 653 1784 653
Q 2113 653 2278 743
Q 2444 834 2444 1013
Q 2444 1163 2330 1236
Q 2216 1309 1875 1350
L 1678 1375
Q 931 1469 631 1722
Q 331 1975 331 2491
Q 331 3047 712 3315
Q 1094 3584 1881 3584
Q 2191 3584 2531 3537
Q 2872 3491 3272 3391
z
" transform="scale(0.015625)"/>
      <path id="DejaVuSans-Bold-65" d="M 4031 1759
L 4031 1441
L 1416 1441
Q 1456 1047 1700 850
Q 1944 653 2381 653
Q 2734 653 3104 758
Q 3475 863 3866 1075
L 3866 213
Q 3469 63 3072 -14
Q 2675 -91 2278 -91
Q 1328 -91 801 392
Q 275 875 275 1747
Q 275 2603 792 3093
Q 1309 3584 2216 3584
Q 3041 3584 3536 3087
Q 4031 2591 4031 1759
z
M 2881 2131
Q 2881 2450 2695 2645
Q 2509 2841 2209 2841
Q 1884 2841 1681 2658
Q 1478 2475 1428 2131
L 2881 2131
z
" transform="scale(0.015625)"/>
      <path id="DejaVuSans-Bold-6d" d="M 3781 2919
Q 3994 3244 4286 3414
Q 4578 3584 4928 3584
Q 5531 3584 5847 3212
Q 6163 2841 6163 2131
L 6163 0
L 5038 0
L 5038 1825
Q 5041 1866 5042 1909
Q 5044 1953 5044 2034
Q 5044 2406 4934 2573
Q 4825 2741 4581 2741
Q 4263 2741 4089 2478
Q 3916 2216 3909 1719
L 3909 0
L 2784 0
L 2784 1825
Q 2784 2406 2684 2573
Q 2584 2741 2328 2741
Q 2006 2741 1831 2477
Q 1656 2213 1656 1722
L 1656 0
L 531 0
L 531 3500
L 1656 3500
L 1656 2988
Q 1863 3284 2130 3434
Q 2397 3584 2719 3584
Q 3081 3584 3359 3409
Q 3638 3234 3781 2919
z
" transform="scale(0.015625)"/>
      <path id="DejaVuSans-Bold-62" d="M 2400 722
Q 2759 722 2948 984
Q 3138 1247 3138 1747
Q 3138 2247 2948 2509
Q 2759 2772 2400 2772
Q 2041 2772 1848 2508
Q 1656 2244 1656 1747
Q 1656 1250 1848 986
Q 2041 722 2400 722
z
M 1656 2988
Q 1888 3294 2169 3439
Q 2450 3584 2816 3584
Q 3463 3584 3878 3070
Q 4294 2556 4294 1747
Q 4294 938 3878 423
Q 3463 -91 2816 -91
Q 2450 -91 2169 54
Q 1888 200 1656 506
L 1656 0
L 538 0
L 538 4863
L 1656 4863
L 1656 2988
z
" transform="scale(0.015625)"/>
      <path id="DejaVuSans-Bold-52" d="M 2297 2597
Q 2675 2597 2839 2737
Q 3003 2878 3003 3200
Q 3003 3519 2839 3656
Q 2675 3794 2297 3794
L 1791 3794
L 1791 2597
L 2297 2597
z
M 1791 1766
L 1791 0
L 588 0
L 588 4666
L 2425 4666
Q 3347 4666 3776 4356
Q 4206 4047 4206 3378
Q 4206 2916 3982 2619
Q 3759 2322 3309 2181
Q 3556 2125 3751 1926
Q 3947 1728 4147 1325
L 4800 0
L 3519 0
L 2950 1159
Q 2778 1509 2601 1637
Q 2425 1766 2131 1766
L 1791 1766
z
" transform="scale(0.015625)"/>
      <path id="DejaVuSans-Bold-43" d="M 4288 256
Q 3956 84 3597 -3
Q 3238 -91 2847 -91
Q 1681 -91 1000 561
Q 319 1213 319 2328
Q 319 3447 1000 4098
Q 1681 4750 2847 4750
Q 3238 4750 3597 4662
Q 3956 4575 4288 4403
L 4288 3438
Q 3953 3666 3628 3772
Q 3303 3878 2944 3878
Q 2300 3878 1931 3465
Q 1563 3053 1563 2328
Q 1563 1606 1931 1193
Q 2300 781 2944 781
Q 3303 781 3628 887
Q 3953 994 4288 1222
L 4288 256
z
" transform="scale(0.015625)"/>
      <path id="DejaVuSans-Bold-75" d="M 500 1363
L 500 3500
L 1625 3500
L 1625 3150
Q 1625 2866 1622 2436
Q 1619 2006 1619 1863
Q 1619 1441 1641 1255
Q 1663 1069 1716 984
Q 1784 875 1895 815
Q 2006 756 2150 756
Q 2500 756 2700 1025
Q 2900 1294 2900 1772
L 2900 3500
L 4019 3500
L 4019 0
L 2900 0
L 2900 506
Q 2647 200 2364 54
Q 2081 -91 1741 -91
Q 1134 -91 817 281
Q 500 653 500 1363
z
" transform="scale(0.015625)"/>
      <path id="DejaVuSans-Bold-72" d="M 3138 2547
Q 2991 2616 2845 2648
Q 2700 2681 2553 2681
Q 2122 2681 1889 2404
Q 1656 2128 1656 1613
L 1656 0
L 538 0
L 538 3500
L 1656 3500
L 1656 2925
Q 1872 3269 2151 3426
Q 2431 3584 2822 3584
Q 2878 3584 2943 3579
Q 3009 3575 3134 3559
L 3138 2547
z
" transform="scale(0.015625)"/>
      <path id="DejaVuSans-Bold-76" d="M 97 3500
L 1216 3500
L 2088 1081
L 2956 3500
L 4078 3500
L 2700 0
L 1472 0
L 97 3500
z
" transform="scale(0.015625)"/>
     </defs>
     <use xlink:href="#DejaVuSans-Bold-44"/>
     <use xlink:href="#DejaVuSans-Bold-4f" transform="translate(83.007812 0)"/>
     <use xlink:href="#DejaVuSans-Bold-4c" transform="translate(168.017578 0)"/>
     <use xlink:href="#DejaVuSans-Bold-4f" transform="translate(228.113281 0)"/>
     <use xlink:href="#DejaVuSans-Bold-53" transform="translate(313.123047 0)"/>
     <use xlink:href="#DejaVuSans-Bold-20" transform="translate(385.144531 0)"/>
     <use xlink:href="#DejaVuSans-Bold-46" transform="translate(419.958984 0)"/>
     <use xlink:href="#DejaVuSans-Bold-69" transform="translate(488.269531 0)"/>
     <use xlink:href="#DejaVuSans-Bold-6e" transform="translate(522.546875 0)"/>
     <use xlink:href="#DejaVuSans-Bold-61" transform="translate(593.738281 0)"/>
     <use xlink:href="#DejaVuSans-Bold-6c" transform="translate(661.21875 0)"/>
     <use xlink:href="#DejaVuSans-Bold-20" transform="translate(695.496094 0)"/>
     <use xlink:href="#DejaVuSans-Bold-45" transform="translate(730.310547 0)"/>
     <use xlink:href="#DejaVuSans-Bold-6e" transform="translate(798.621094 0)"/>
     <use xlink:href="#DejaVuSans-Bold-73" transform="translate(869.8125 0)"/>
     <use xlink:href="#DejaVuSans-Bold-65" transform="translate(929.333984 0)"/>
     <use xlink:href="#DejaVuSans-Bold-6d" transform="translate(997.15625 0)"/>
     <use xlink:href="#DejaVuSans-Bold-62" transform="translate(1101.355469 0)"/>
     <use xlink:href="#DejaVuSans-Bold-6c" transform="translate(1172.9375 0)"/>
     <use xlink:href="#DejaVuSans-Bold-65" transform="translate(1207.214844 0)"/>
     <use xlink:href="#DejaVuSans-Bold-20" transform="translate(1275.037109 0)"/>
     <use xlink:href="#DejaVuSans-Bold-52" transform="translate(1309.851562 0)"/>
     <use xlink:href="#DejaVuSans-Bold-4f" transform="translate(1386.853516 0)"/>
     <use xlink:href="#DejaVuSans-Bold-43" transform="translate(1471.863281 0)"/>
     <use xlink:href="#DejaVuSans-Bold-20" transform="translate(1545.251953 0)"/>
     <use xlink:href="#DejaVuSans-Bold-43" transform="translate(1580.066406 0)"/>
     <use xlink:href="#DejaVuSans-Bold-75" transform="translate(1653.455078 0)"/>
     <use xlink:href="#DejaVuSans-Bold-72" transform="translate(1724.646484 0)"/>
     <use xlink:href="#DejaVuSans-Bold-76" transform="translate(1773.962891 0)"/>
     <use xlink:href="#DejaVuSans-Bold-65" transform="translate(1839.148438 0)"/>
     <use xlink:href="#DejaVuSans-Bold-73" transform="translate(1906.970703 0)"/>
    </g>
   </g>
   <g id="legend_1">
    <g id="patch_5">
     <path d="M 346.188438 358.957969
L 465.77875 358.957969
Q 467.57875 358.957969 467.57875 357.157969
L 467.57875 305.216719
Q 467.57875 303.416719 465.77875 303.416719
L 346.188438 303.416719
Q 344.388438 303.416719 344.388438 305.216719
L 344.388438 357.157969
Q 344.388438 358.957969 346.188438 358.957969
z
" style="fill: #ffffff; opacity: 0.8; stroke: #cccccc; stroke-width: 1.5; stroke-linejoin: miter"/>
    </g>
    <g id="line2d_18">
     <path d="M 347.988438 310.705312
L 356.988438 310.705312
L 365.988438 310.705312
" style="fill: none; stroke: #b54a4a; stroke-width: 2.5; stroke-linecap: round"/>
    </g>
    <g id="text_16">
     <!-- All folds AUC=61.55 -->
     <g style="fill: #262626" transform="translate(373.188438 313.855312) scale(0.09 -0.09)">
      <defs>
       <path id="DejaVuSans-41" d="M 2188 4044
L 1331 1722
L 3047 1722
L 2188 4044
z
M 1831 4666
L 2547 4666
L 4325 0
L 3669 0
L 3244 1197
L 1141 1197
L 716 0
L 50 0
L 1831 4666
z
" transform="scale(0.015625)"/>
       <path id="DejaVuSans-66" d="M 2375 4863
L 2375 4384
L 1825 4384
Q 1516 4384 1395 4259
Q 1275 4134 1275 3809
L 1275 3500
L 2222 3500
L 2222 3053
L 1275 3053
L 1275 0
L 697 0
L 697 3053
L 147 3053
L 147 3500
L 697 3500
L 697 3744
Q 697 4328 969 4595
Q 1241 4863 1831 4863
L 2375 4863
z
" transform="scale(0.015625)"/>
       <path id="DejaVuSans-64" d="M 2906 2969
L 2906 4863
L 3481 4863
L 3481 0
L 2906 0
L 2906 525
Q 2725 213 2448 61
Q 2172 -91 1784 -91
Q 1150 -91 751 415
Q 353 922 353 1747
Q 353 2572 751 3078
Q 1150 3584 1784 3584
Q 2172 3584 2448 3432
Q 2725 3281 2906 2969
z
M 947 1747
Q 947 1113 1208 752
Q 1469 391 1925 391
Q 2381 391 2643 752
Q 2906 1113 2906 1747
Q 2906 2381 2643 2742
Q 2381 3103 1925 3103
Q 1469 3103 1208 2742
Q 947 2381 947 1747
z
" transform="scale(0.015625)"/>
       <path id="DejaVuSans-55" d="M 556 4666
L 1191 4666
L 1191 1831
Q 1191 1081 1462 751
Q 1734 422 2344 422
Q 2950 422 3222 751
Q 3494 1081 3494 1831
L 3494 4666
L 4128 4666
L 4128 1753
Q 4128 841 3676 375
Q 3225 -91 2344 -91
Q 1459 -91 1007 375
Q 556 841 556 1753
L 556 4666
z
" transform="scale(0.015625)"/>
       <path id="DejaVuSans-43" d="M 4122 4306
L 4122 3641
Q 3803 3938 3442 4084
Q 3081 4231 2675 4231
Q 1875 4231 1450 3742
Q 1025 3253 1025 2328
Q 1025 1406 1450 917
Q 1875 428 2675 428
Q 3081 428 3442 575
Q 3803 722 4122 1019
L 4122 359
Q 3791 134 3420 21
Q 3050 -91 2638 -91
Q 1578 -91 968 557
Q 359 1206 359 2328
Q 359 3453 968 4101
Q 1578 4750 2638 4750
Q 3056 4750 3426 4639
Q 3797 4528 4122 4306
z
" transform="scale(0.015625)"/>
       <path id="DejaVuSans-3d" d="M 678 2906
L 4684 2906
L 4684 2381
L 678 2381
L 678 2906
z
M 678 1631
L 4684 1631
L 4684 1100
L 678 1100
L 678 1631
z
" transform="scale(0.015625)"/>
       <path id="DejaVuSans-35" d="M 691 4666
L 3169 4666
L 3169 4134
L 1269 4134
L 1269 2991
Q 1406 3038 1543 3061
Q 1681 3084 1819 3084
Q 2600 3084 3056 2656
Q 3513 2228 3513 1497
Q 3513 744 3044 326
Q 2575 -91 1722 -91
Q 1428 -91 1123 -41
Q 819 9 494 109
L 494 744
Q 775 591 1075 516
Q 1375 441 1709 441
Q 2250 441 2565 725
Q 2881 1009 2881 1497
Q 2881 1984 2565 2268
Q 2250 2553 1709 2553
Q 1456 2553 1204 2497
Q 953 2441 691 2322
L 691 4666
z
" transform="scale(0.015625)"/>
      </defs>
      <use xlink:href="#DejaVuSans-41"/>
      <use xlink:href="#DejaVuSans-6c" transform="translate(68.408203 0)"/>
      <use xlink:href="#DejaVuSans-6c" transform="translate(96.191406 0)"/>
      <use xlink:href="#DejaVuSans-20" transform="translate(123.974609 0)"/>
      <use xlink:href="#DejaVuSans-66" transform="translate(155.761719 0)"/>
      <use xlink:href="#DejaVuSans-6f" transform="translate(190.966797 0)"/>
      <use xlink:href="#DejaVuSans-6c" transform="translate(252.148438 0)"/>
      <use xlink:href="#DejaVuSans-64" transform="translate(279.931641 0)"/>
      <use xlink:href="#DejaVuSans-73" transform="translate(343.408203 0)"/>
      <use xlink:href="#DejaVuSans-20" transform="translate(395.507812 0)"/>
      <use xlink:href="#DejaVuSans-41" transform="translate(427.294922 0)"/>
      <use xlink:href="#DejaVuSans-55" transform="translate(495.703125 0)"/>
      <use xlink:href="#DejaVuSans-43" transform="translate(568.896484 0)"/>
      <use xlink:href="#DejaVuSans-3d" transform="translate(638.720703 0)"/>
      <use xlink:href="#DejaVuSans-36" transform="translate(722.509766 0)"/>
      <use xlink:href="#DejaVuSans-31" transform="translate(786.132812 0)"/>
      <use xlink:href="#DejaVuSans-2e" transform="translate(849.755859 0)"/>
      <use xlink:href="#DejaVuSans-35" transform="translate(881.542969 0)"/>
      <use xlink:href="#DejaVuSans-35" transform="translate(945.166016 0)"/>
     </g>
    </g>
    <g id="line2d_19">
     <path d="M 347.988438 323.915625
L 356.988438 323.915625
L 365.988438 323.915625
" style="fill: none; stroke: #4c72b0; stroke-opacity: 0.75; stroke-width: 1.4; stroke-linecap: round"/>
    </g>
    <g id="text_17">
     <!-- fold1 AUC=61.2 -->
     <g style="fill: #262626" transform="translate(373.188438 327.065625) scale(0.09 -0.09)">
      <use xlink:href="#DejaVuSans-66"/>
      <use xlink:href="#DejaVuSans-6f" transform="translate(35.205078 0)"/>
      <use xlink:href="#DejaVuSans-6c" transform="translate(96.386719 0)"/>
      <use xlink:href="#DejaVuSans-64" transform="translate(124.169922 0)"/>
      <use xlink:href="#DejaVuSans-31" transform="translate(187.646484 0)"/>
      <use xlink:href="#DejaVuSans-20" transform="translate(251.269531 0)"/>
      <use xlink:href="#DejaVuSans-41" transform="translate(283.056641 0)"/>
      <use xlink:href="#DejaVuSans-55" transform="translate(351.464844 0)"/>
      <use xlink:href="#DejaVuSans-43" transform="translate(424.658203 0)"/>
      <use xlink:href="#DejaVuSans-3d" transform="translate(494.482422 0)"/>
      <use xlink:href="#DejaVuSans-36" transform="translate(578.271484 0)"/>
      <use xlink:href="#DejaVuSans-31" transform="translate(641.894531 0)"/>
      <use xlink:href="#DejaVuSans-2e" transform="translate(705.517578 0)"/>
      <use xlink:href="#DejaVuSans-32" transform="translate(737.304688 0)"/>
     </g>
    </g>
    <g id="line2d_20">
     <path d="M 347.988438 337.125938
L 356.988438 337.125938
L 365.988438 337.125938
" style="fill: none; stroke: #dd8452; stroke-opacity: 0.75; stroke-width: 1.4; stroke-linecap: round"/>
    </g>
    <g id="text_18">
     <!-- fold2 AUC=67.0 -->
     <g style="fill: #262626" transform="translate(373.188438 340.275937) scale(0.09 -0.09)">
      <defs>
       <path id="DejaVuSans-37" d="M 525 4666
L 3525 4666
L 3525 4397
L 1831 0
L 1172 0
L 2766 4134
L 525 4134
L 525 4666
z
" transform="scale(0.015625)"/>
      </defs>
      <use xlink:href="#DejaVuSans-66"/>
      <use xlink:href="#DejaVuSans-6f" transform="translate(35.205078 0)"/>
      <use xlink:href="#DejaVuSans-6c" transform="translate(96.386719 0)"/>
      <use xlink:href="#DejaVuSans-64" transform="translate(124.169922 0)"/>
      <use xlink:href="#DejaVuSans-32" transform="translate(187.646484 0)"/>
      <use xlink:href="#DejaVuSans-20" transform="translate(251.269531 0)"/>
      <use xlink:href="#DejaVuSans-41" transform="translate(283.056641 0)"/>
      <use xlink:href="#DejaVuSans-55" transform="translate(351.464844 0)"/>
      <use xlink:href="#DejaVuSans-43" transform="translate(424.658203 0)"/>
      <use xlink:href="#DejaVuSans-3d" transform="translate(494.482422 0)"/>
      <use xlink:href="#DejaVuSans-36" transform="translate(578.271484 0)"/>
      <use xlink:href="#DejaVuSans-37" transform="translate(641.894531 0)"/>
      <use xlink:href="#DejaVuSans-2e" transform="translate(705.517578 0)"/>
      <use xlink:href="#DejaVuSans-30" transform="translate(737.304688 0)"/>
     </g>
    </g>
    <g id="line2d_21">
     <path d="M 347.988438 350.33625
L 356.988438 350.33625
L 365.988438 350.33625
" style="fill: none; stroke: #55a868; stroke-opacity: 0.75; stroke-width: 1.4; stroke-linecap: round"/>
    </g>
    <g id="text_19">
     <!-- fold3 AUC=57.7 -->
     <g style="fill: #262626" transform="translate(373.188438 353.48625) scale(0.09 -0.09)">
      <defs>
       <path id="DejaVuSans-33" d="M 2597 2516
Q 3050 2419 3304 2112
Q 3559 1806 3559 1356
Q 3559 666 3084 287
Q 2609 -91 1734 -91
Q 1441 -91 1130 -33
Q 819 25 488 141
L 488 750
Q 750 597 1062 519
Q 1375 441 1716 441
Q 2309 441 2620 675
Q 2931 909 2931 1356
Q 2931 1769 2642 2001
Q 2353 2234 1838 2234
L 1294 2234
L 1294 2753
L 1863 2753
Q 2328 2753 2575 2939
Q 2822 3125 2822 3475
Q 2822 3834 2567 4026
Q 2313 4219 1838 4219
Q 1578 4219 1281 4162
Q 984 4106 628 3988
L 628 4550
Q 988 4650 1302 4700
Q 1616 4750 1894 4750
Q 2613 4750 3031 4423
Q 3450 4097 3450 3541
Q 3450 3153 3228 2886
Q 3006 2619 2597 2516
z
" transform="scale(0.015625)"/>
      </defs>
      <use xlink:href="#DejaVuSans-66"/>
      <use xlink:href="#DejaVuSans-6f" transform="translate(35.205078 0)"/>
      <use xlink:href="#DejaVuSans-6c" transform="translate(96.386719 0)"/>
      <use xlink:href="#DejaVuSans-64" transform="translate(124.169922 0)"/>
      <use xlink:href="#DejaVuSans-33" transform="translate(187.646484 0)"/>
      <use xlink:href="#DejaVuSans-20" transform="translate(251.269531 0)"/>
      <use xlink:href="#DejaVuSans-41" transform="translate(283.056641 0)"/>
      <use xlink:href="#DejaVuSans-55" transform="translate(351.464844 0)"/>
      <use xlink:href="#DejaVuSans-43" transform="translate(424.658203 0)"/>
      <use xlink:href="#DejaVuSans-3d" transform="translate(494.482422 0)"/>
      <use xlink:href="#DejaVuSans-35" transform="translate(578.271484 0)"/>
      <use xlink:href="#DejaVuSans-37" transform="translate(641.894531 0)"/>
      <use xlink:href="#DejaVuSans-2e" transform="translate(705.517578 0)"/>
      <use xlink:href="#DejaVuSans-37" transform="translate(737.304688 0)"/>
     </g>
    </g>
   </g>
  </g>
 </g>
 <defs>
  <clipPath id="p4b2b430399">
   <rect x="48.65875" y="23.077969" width="423.42" height="340.38"/>
  </clipPath>
 </defs>
</svg>
